<svg xmlns="http://www.w3.org/2000/svg" xmlns:xlink="http://www.w3.org/1999/xlink" xmlns:lucid="lucid" width="1523" height="744.67"><g transform="translate(-58.5 -58.5)" lucid:page-tab-id="4x9jrusYmESa"><path d="M0 0h1760v1360H0z" fill="#fff"/><path d="M555.4 333.84a7.2 7.2 0 0 1 9.2 0l110.8 92.32a5 5 0 0 1 0 7.68l-110.8 92.32a7.2 7.2 0 0 1-9.2 0l-110.8-92.32a5 5 0 0 1 0-7.68z" stroke="#000" stroke-width="3" fill="#edf5ff"/><use xlink:href="#a" transform="matrix(1,0,0,1,445,335.00000000000006) translate(32.58312500000001 86.84027777777777)"/><use xlink:href="#b" transform="matrix(1,0,0,1,445,335.00000000000006) translate(67.32704861111111 86.84027777777777)"/><use xlink:href="#c" transform="matrix(1,0,0,1,445,335.00000000000006) translate(175.42166666666665 86.84027777777777)"/><use xlink:href="#d" transform="matrix(1,0,0,1,445,335.00000000000006) translate(58.30469618055557 119.10590277777777)"/><use xlink:href="#e" transform="matrix(1,0,0,1,445,335.00000000000006) translate(141.2474045138889 119.10590277777777)"/><path d="M60 466a6 6 0 0 1 6-6h208a6 6 0 0 1 6 6v174c-36.74-30.06-59.62-30.06-73.48-30.06-22 0-51.26 30.06-73.26 30.06-13.64 0-36.74 0-73.26-30.06z" stroke="#000" stroke-width="3" fill="#fff3d9"/><use xlink:href="#a" transform="matrix(1,0,0,1,65,465) translate(36.70572916666667 78.40277777777777)"/><use xlink:href="#f" transform="matrix(1,0,0,1,65,465) translate(71.44965277777777 78.40277777777777)"/><path d="M480 636a6 6 0 0 1 6-6h148a6 6 0 0 1 6 6v108a6 6 0 0 1-6 6H486a6 6 0 0 1-6-6z" stroke="#000" stroke-width="3" fill="#f2f2ff"/><use xlink:href="#g" transform="matrix(1,0,0,1,492,642) translate(3.6879340277777857 24.52777777777778)"/><use xlink:href="#h" transform="matrix(1,0,0,1,492,642) translate(83.93967013888889 24.52777777777778)"/><use xlink:href="#i" transform="matrix(1,0,0,1,492,642) translate(41.372395833333336 56.79340277777778)"/><use xlink:href="#f" transform="matrix(1,0,0,1,492,642) translate(17.07769097222223 89.05902777777777)"/><path d="M480 116a6 6 0 0 1 6-6h148a6 6 0 0 1 6 6v108a6 6 0 0 1-6 6H486a6 6 0 0 1-6-6z" stroke="#000" stroke-width="3" fill="#f2f2ff"/><use xlink:href="#j" transform="matrix(1,0,0,1,492,122) translate(31.254123263888893 39.52777777777778)"/><use xlink:href="#f" transform="matrix(1,0,0,1,492,122) translate(17.07769097222223 71.79340277777777)"/><path d="M283 550h12.07m12.06 0h24.14m12.06 0h12.07a6 6 0 0 0 6-6v-18m0-18v-36m0-18v-18a6 6 0 0 1 6-6h17.76m17.76 0h17.76" stroke="#3a414a" stroke-width="3" fill="none"/><path d="M283.04 551.48h-1.54v-2.96h1.54z" stroke="#3a414a" stroke-width=".05" fill="#3a414a"/><path d="M436.45 430l-14.26 4.63v-9.26z" stroke="#3a414a" stroke-width="3" fill="#3a414a"/><path d="M283 300h72.4a6 6 0 0 1 6 6v118a6 6 0 0 0 6 6h53.3" stroke="#3a414a" stroke-width="3" fill="none"/><path d="M283.04 301.48h-1.54v-2.96h1.54z" stroke="#3a414a" stroke-width=".05" fill="#3a414a"/><path d="M436.45 430l-14.26 4.63v-9.26z" stroke="#3a414a" stroke-width="3" fill="#3a414a"/><path d="M760 636a6 6 0 0 1 6-6h148a6 6 0 0 1 6 6v108a6 6 0 0 1-6 6H766a6 6 0 0 1-6-6z" stroke="#000" stroke-width="3" fill="#f2f2ff"/><use xlink:href="#j" transform="matrix(1,0,0,1,771.9999999999999,642) translate(31.254123263888893 39.52777777777778)"/><use xlink:href="#f" transform="matrix(1,0,0,1,771.9999999999999,642) translate(17.07769097222223 71.79340277777777)"/><path d="M643 690h94.88" stroke="#3a414a" stroke-width="3" fill="none"/><path d="M643.04 691.48h-1.54v-2.96h1.54z" stroke="#3a414a" stroke-width=".05" fill="#3a414a"/><path d="M753.65 690l-14.27 4.63v-9.26z" stroke="#3a414a" stroke-width="3" fill="#3a414a"/><path d="M760 116a6 6 0 0 1 6-6h148a6 6 0 0 1 6 6v108a6 6 0 0 1-6 6H766a6 6 0 0 1-6-6z" stroke="#000" stroke-width="3" fill="#f2f2ff"/><use xlink:href="#k" transform="matrix(1,0,0,1,771.9999999999999,122) translate(46.72721354166667 39.52777777777778)"/><use xlink:href="#f" transform="matrix(1,0,0,1,771.9999999999999,122) translate(17.07769097222223 71.79340277777777)"/><path d="M643 170h94.88" stroke="#3a414a" stroke-width="3" fill="none"/><path d="M643.04 171.47h-1.54v-2.94h1.54z" stroke="#3a414a" stroke-width=".05" fill="#3a414a"/><path d="M753.65 170l-14.27 4.63v-9.26z" stroke="#3a414a" stroke-width="3" fill="#3a414a"/><path d="M1040 636a6 6 0 0 1 6-6h148a6 6 0 0 1 6 6v108a6 6 0 0 1-6 6h-148a6 6 0 0 1-6-6z" stroke="#000" stroke-width="3" fill="#f2f2ff"/><use xlink:href="#l" transform="matrix(1,0,0,1,1052,642) translate(29.881510416666664 39.52777777777778)"/><use xlink:href="#f" transform="matrix(1,0,0,1,1052,642) translate(17.07769097222223 71.79340277777777)"/><path d="M923 690h94.88" stroke="#3a414a" stroke-width="3" fill="none"/><path d="M923.04 691.48h-1.54v-2.96h1.54z" stroke="#3a414a" stroke-width=".05" fill="#3a414a"/><path d="M1033.65 690l-14.27 4.63v-9.26z" stroke="#3a414a" stroke-width="3" fill="#3a414a"/><path d="M561.48 607.88h-2.96v-18.2h2.96zm0-39.72h-2.96v-37.33h2.96z" stroke="#3a414a" stroke-width=".05" fill="#3a414a"/><path d="M558.8 529.25l1.2.08 1.2-.08.27-.06v1.67h-2.95v-1.68z" fill="#3a414a"/><path stroke="#3a414a" stroke-width=".05" fill="#3a414a"/><path d="M560 623.65l-4.63-14.27h9.26z" fill="#3a414a"/><path d="M560 628.42l-6.66-20.5h13.32zm-2.6-17.56l2.6 8 2.6-8z" stroke="#3a414a" stroke-width=".05" fill="#3a414a"/><use xlink:href="#m" transform="matrix(1,0,0,1,544.2013888888889,568.1604686274167) translate(0 17.22222222222222)"/><path d="M561.48 329.17h-2.96v-37.33h2.96zm0-58.84h-2.96v-18.2h2.96z" stroke="#3a414a" stroke-width=".05" fill="#3a414a"/><path d="M561.48 330.8l-.27-.05-1.2-.08-1.2.08-.27.06v-1.67h2.95z" fill="#3a414a"/><path stroke="#3a414a" stroke-width=".05" fill="#3a414a"/><path d="M564.63 250.62h-9.26l4.63-14.27z" fill="#3a414a"/><path d="M566.66 252.1h-13.32l6.66-20.52zm-9.26-2.95h5.2l-2.6-8.02z" stroke="#3a414a" stroke-width=".05" fill="#3a414a"/><use xlink:href="#n" transform="matrix(1,0,0,1,547.7734375,270.3291147059167) translate(0 17.22222222222222)"/><path d="M1060 66a6 6 0 0 1 6-6h208a6 6 0 0 1 6 6v174c-36.74-30.06-59.62-30.06-73.48-30.06-22 0-51.26 30.06-73.26 30.06-13.64 0-36.74 0-73.26-30.06z" stroke="#000" stroke-width="3" fill="#f2f3f5"/><use xlink:href="#a" transform="matrix(1,0,0,1,1065,65) translate(36.70572916666667 78.40277777777777)"/><use xlink:href="#f" transform="matrix(1,0,0,1,1065,65) translate(71.44965277777777 78.40277777777777)"/><path d="M1080 86a6 6 0 0 1 6-6h208a6 6 0 0 1 6 6v174c-36.74-30.06-59.62-30.06-73.48-30.06-22 0-51.26 30.06-73.26 30.06-13.64 0-36.74 0-73.26-30.06z" stroke="#000" stroke-width="3" fill="#e3fae3"/><use xlink:href="#a" transform="matrix(1,0,0,1,1085,85) translate(36.70572916666667 78.40277777777777)"/><use xlink:href="#f" transform="matrix(1,0,0,1,1085,85) translate(71.44965277777777 78.40277777777777)"/><path d="M923 170h134.88" stroke="#3a414a" stroke-width="3" fill="none"/><path d="M923.04 171.47h-1.54v-2.94h1.54z" stroke="#3a414a" stroke-width=".05" fill="#3a414a"/><path d="M1073.65 170l-14.27 4.63v-9.26z" stroke="#3a414a" stroke-width="3" fill="#3a414a"/><path d="M1320 586a6 6 0 0 1 6-6h208a6 6 0 0 1 6 6v174c-36.74-30.06-59.62-30.06-73.48-30.06-22 0-51.26 30.06-73.26 30.06-13.64 0-36.74 0-73.26-30.06z" stroke="#000" stroke-width="3" fill="#f2f3f5"/><use xlink:href="#a" transform="matrix(1,0,0,1,1325,585) translate(36.70572916666667 78.40277777777777)"/><use xlink:href="#f" transform="matrix(1,0,0,1,1325,585) translate(71.44965277777777 78.40277777777777)"/><path d="M1340 606a6 6 0 0 1 6-6h208a6 6 0 0 1 6 6v174c-36.74-30.06-59.62-30.06-73.48-30.06-22 0-51.26 30.06-73.26 30.06-13.64 0-36.74 0-73.26-30.06z" stroke="#000" stroke-width="3" fill="#fff3d9"/><g><use xlink:href="#a" transform="matrix(1,0,0,1,1345,605) translate(36.70572916666667 78.40277777777777)"/><use xlink:href="#f" transform="matrix(1,0,0,1,1345,605) translate(71.44965277777777 78.40277777777777)"/></g><path d="M1360 626a6 6 0 0 1 6-6h208a6 6 0 0 1 6 6v174c-36.74-30.06-59.62-30.06-73.48-30.06-22 0-51.26 30.06-73.26 30.06-13.64 0-36.74 0-73.26-30.06z" stroke="#000" stroke-width="3" fill="#f2f3f5"/><g><use xlink:href="#a" transform="matrix(1,0,0,1,1365,625) translate(36.70572916666667 78.40277777777777)"/><use xlink:href="#f" transform="matrix(1,0,0,1,1365,625) translate(71.44965277777777 78.40277777777777)"/></g><path d="M1203 690h114.88" stroke="#3a414a" stroke-width="3" fill="none"/><path d="M1203.04 691.48h-1.54v-2.96h1.54z" stroke="#3a414a" stroke-width=".05" fill="#3a414a"/><path d="M1333.65 690l-14.27 4.63v-9.26z" stroke="#3a414a" stroke-width="3" fill="#3a414a"/><path d="M60 366a6 6 0 0 1 6-6h208a6 6 0 0 1 6 6v28a6 6 0 0 1-6 6H66a6 6 0 0 1-6-6zM60 326a6 6 0 0 1 6-6h208a6 6 0 0 1 6 6v28a6 6 0 0 1-6 6H66a6 6 0 0 1-6-6zM60 286a6 6 0 0 1 6-6h208a6 6 0 0 1 6 6v28a6 6 0 0 1-6 6H66a6 6 0 0 1-6-6z" stroke="#000" stroke-width="3" fill="#f2f2ff"/><g><use xlink:href="#o" transform="matrix(1,0,0,1,65,285) translate(7.555338541666671 23.40277777777778)"/></g><path d="M60 246a6 6 0 0 1 6-6h208a6 6 0 0 1 6 6v28a6 6 0 0 1-6 6H66a6 6 0 0 1-6-6zM60 206a6 6 0 0 1 6-6h208a6 6 0 0 1 6 6v28a6 6 0 0 1-6 6H66a6 6 0 0 1-6-6z" stroke="#000" stroke-width="3" fill="#f2f2ff"/><defs><path d="M180 0v-1490h510c348 0 508 209 508 474 0 266-160 477-507 477H370V0H180zm190-706h312c236 0 327-133 327-310 0-176-91-307-329-307H370v617" id="p"/><path d="M180 0v-1490h510c348 0 508 194 508 460 0 198-88 351-276 417L1256 0h-220L726-579c-117 2-238 0-356 1V0H180zm190-747h312c235 0 327-108 327-283 0-177-92-293-329-293H370v576" id="q"/><g id="a"><use transform="matrix(0.010850694444444444,0,0,0.010850694444444444,0,0)" xlink:href="#p"/><use transform="matrix(0.010850694444444444,0,0,0.010850694444444444,14.192708333333332,0)" xlink:href="#q"/></g><path d="M783 20c-382 0-661-292-661-764 0-473 279-766 661-766 302 0 548 182 601 489h-190c-42-204-217-313-411-313-268 0-476 208-476 590 0 381 209 588 476 588 195 0 369-110 411-313h190c-52 303-296 489-601 489" id="r"/><path d="M613 24c-304 0-509-231-509-576 0-350 205-580 509-580 305 0 511 230 511 580 0 345-206 576-511 576zm0-161c226 0 329-195 329-415 0-222-103-419-329-419-223 0-326 196-326 419 0 220 103 415 326 415" id="s"/><path d="M158 0v-1118h175l1 205c55-151 181-225 313-225 147 0 245 90 285 228 53-141 190-228 352-228 194 0 352 125 352 384V0h-181v-749c0-161-105-225-225-225-151 0-243 103-243 244V0H807v-767c0-124-93-207-219-207-131 0-250 92-250 270V0H158" id="t"/><path d="M628 24c-324 0-524-230-524-574 0-343 198-582 503-582 237 0 487 146 487 559v75H286c9 234 145 362 343 362 132 0 231-58 273-172l174 48C1024-91 857 24 628 24zM287-650h624c-17-190-120-322-304-322-192 0-309 151-320 322" id="u"/><path d="M338-670V0H158v-1118h173l1 207c72-158 192-221 342-221 226 0 378 139 378 422V0H872v-695c0-172-96-275-252-275-161 0-282 109-282 300" id="v"/><path d="M598-1118v154H368v674c0 100 37 144 132 144 23 0 62-6 92-12L629-6c-37 13-88 20-134 20-193 0-307-107-307-290v-688H20v-154h168v-266h180v266h230" id="w"/><g id="b"><use transform="matrix(0.010850694444444444,0,0,0.010850694444444444,0,0)" xlink:href="#r"/><use transform="matrix(0.010850694444444444,0,0,0.010850694444444444,16.23263888888889,0)" xlink:href="#s"/><use transform="matrix(0.010850694444444444,0,0,0.010850694444444444,29.557291666666664,0)" xlink:href="#t"/><use transform="matrix(0.010850694444444444,0,0,0.010850694444444444,49.0234375,0)" xlink:href="#t"/><use transform="matrix(0.010850694444444444,0,0,0.010850694444444444,68.48958333333333,0)" xlink:href="#u"/><use transform="matrix(0.010850694444444444,0,0,0.010850694444444444,81.4453125,0)" xlink:href="#v"/><use transform="matrix(0.010850694444444444,0,0,0.010850694444444444,94.57465277777777,0)" xlink:href="#w"/></g><path d="M370-1490V0H180v-1490h190" id="x"/><path d="M645 0H180v-1490h484c435 0 692 280 692 742 0 466-257 748-711 748zM370-168h263c363 0 539-218 539-580 0-358-176-574-521-574H370v1154" id="y"/><g id="c"><use transform="matrix(0.010850694444444444,0,0,0.010850694444444444,0,0)" xlink:href="#x"/><use transform="matrix(0.010850694444444444,0,0,0.010850694444444444,5.967881944444445,0)" xlink:href="#y"/></g><path d="M471 26C259 26 90-98 90-318c0-256 228-303 435-329 202-27 287-16 287-108 0-139-79-219-234-219-161 0-248 86-283 164l-173-57c86-203 278-265 451-265 150 0 419 46 419 395V0H815v-152h-12C765-73 660 26 471 26zm31-159c199 0 310-134 310-271v-155c-30 35-226 55-295 64-131 17-246 59-246 186 0 116 97 176 231 176" id="z"/><path d="M538 24C308 24 148-78 108-271l171-41c32 123 123 178 257 178 156 0 256-77 256-169 0-77-54-128-164-154l-186-44c-203-48-300-148-300-305 0-192 176-326 414-326 230 0 351 112 402 269l-163 42c-31-80-94-158-238-158-133 0-233 69-233 162 0 83 57 129 188 160l169 40c203 48 298 149 298 302 0 196-179 339-441 339" id="A"/><path d="M577 24c-279 0-473-224-473-580 0-354 195-576 474-576 218 0 287 134 324 193h14v-551h180V0H922v-173h-20C865-111 790 24 577 24zm27-161c203 0 314-172 314-421 0-247-108-413-314-413-212 0-317 181-317 413 0 235 108 421 317 421" id="B"/><g id="d"><use transform="matrix(0.010850694444444444,0,0,0.010850694444444444,0,0)" xlink:href="#p"/><use transform="matrix(0.010850694444444444,0,0,0.010850694444444444,14.192708333333332,0)" xlink:href="#z"/><use transform="matrix(0.010850694444444444,0,0,0.010850694444444444,26.671006944444443,0)" xlink:href="#A"/><use transform="matrix(0.010850694444444444,0,0,0.010850694444444444,38.400607638888886,0)" xlink:href="#A"/><use transform="matrix(0.010850694444444444,0,0,0.010850694444444444,50.13020833333333,0)" xlink:href="#u"/><use transform="matrix(0.010850694444444444,0,0,0.010850694444444444,63.0859375,0)" xlink:href="#B"/></g><path d="M383-449c-3-277 82-343 222-425 88-53 156-134 156-250 0-139-108-227-243-227-118 0-235 70-246 236H82c10-251 200-395 436-395 259 0 427 165 427 393 0 161-74 273-203 352-132 80-180 132-178 316H383zm93 462c-75 0-135-60-135-134 0-75 60-135 135-135 74 0 134 60 134 135 0 74-60 134-134 134" id="C"/><g id="e"><use transform="matrix(0.010850694444444444,0,0,0.010850694444444444,0,0)" xlink:href="#x"/><use transform="matrix(0.010850694444444444,0,0,0.010850694444444444,5.967881944444445,0)" xlink:href="#v"/><use transform="matrix(0.010850694444444444,0,0,0.010850694444444444,19.09722222222222,0)" xlink:href="#C"/></g><g id="f"><use transform="matrix(0.010850694444444444,0,0,0.010850694444444444,0,0)" xlink:href="#r"/><use transform="matrix(0.010850694444444444,0,0,0.010850694444444444,16.23263888888889,0)" xlink:href="#s"/><use transform="matrix(0.010850694444444444,0,0,0.010850694444444444,29.557291666666664,0)" xlink:href="#t"/><use transform="matrix(0.010850694444444444,0,0,0.010850694444444444,49.0234375,0)" xlink:href="#t"/><use transform="matrix(0.010850694444444444,0,0,0.010850694444444444,68.48958333333333,0)" xlink:href="#u"/><use transform="matrix(0.010850694444444444,0,0,0.010850694444444444,81.4453125,0)" xlink:href="#v"/><use transform="matrix(0.010850694444444444,0,0,0.010850694444444444,94.57465277777777,0)" xlink:href="#w"/></g><path d="M180 0v-1490h908v168H370v486h669v168H370v500h727V0H180" id="D"/><path d="M65 0l393-574-370-544h210c88 136 192 297 267 435 67-142 176-302 264-435h206L661-564 1053 0H844c-94-144-206-310-287-458C484-308 366-142 273 0H65" id="E"/><path d="M158 0v-1118h174v172h12c41-113 157-188 290-188 26 0 70 2 91 3v181c-11-2-60-10-108-10-161 0-279 109-279 260V0H158" id="F"/><path d="M613 24c-304 0-509-231-509-576 0-350 205-580 509-580 216 0 392 114 453 309l-173 49c-33-115-133-197-280-197-223 0-326 196-326 419 0 220 103 415 326 415 150 0 252-85 285-206l172 49C1010-95 832 24 613 24" id="G"/><g id="g"><use transform="matrix(0.010850694444444444,0,0,0.010850694444444444,0,0)" xlink:href="#D"/><use transform="matrix(0.010850694444444444,0,0,0.010850694444444444,13.35720486111111,0)" xlink:href="#E"/><use transform="matrix(0.010850694444444444,0,0,0.010850694444444444,25.92230902777778,0)" xlink:href="#w"/><use transform="matrix(0.010850694444444444,0,0,0.010850694444444444,33.19227430555556,0)" xlink:href="#F"/><use transform="matrix(0.010850694444444444,0,0,0.010850694444444444,41.55815972222222,0)" xlink:href="#z"/><use transform="matrix(0.010850694444444444,0,0,0.010850694444444444,54.03645833333333,0)" xlink:href="#G"/><use transform="matrix(0.010850694444444444,0,0,0.010850694444444444,66.73177083333333,0)" xlink:href="#w"/></g><g id="h"><use transform="matrix(0.010850694444444444,0,0,0.010850694444444444,0,0)" xlink:href="#y"/><use transform="matrix(0.010850694444444444,0,0,0.010850694444444444,16.03732638888889,0)" xlink:href="#z"/><use transform="matrix(0.010850694444444444,0,0,0.010850694444444444,28.515625,0)" xlink:href="#w"/><use transform="matrix(0.010850694444444444,0,0,0.010850694444444444,35.89409722222222,0)" xlink:href="#z"/></g><path d="M180 0v-1490h901v168H370v510h643v168H370V0H180" id="H"/><g id="i"><use transform="matrix(0.010850694444444444,0,0,0.010850694444444444,0,0)" xlink:href="#H"/><use transform="matrix(0.010850694444444444,0,0,0.010850694444444444,12.467447916666666,0)" xlink:href="#F"/><use transform="matrix(0.010850694444444444,0,0,0.010850694444444444,20.46440972222222,0)" xlink:href="#s"/><use transform="matrix(0.010850694444444444,0,0,0.010850694444444444,33.7890625,0)" xlink:href="#t"/></g><g id="j"><use transform="matrix(0.010850694444444444,0,0,0.010850694444444444,0,0)" xlink:href="#H"/><use transform="matrix(0.010850694444444444,0,0,0.010850694444444444,12.239583333333332,0)" xlink:href="#s"/><use transform="matrix(0.010850694444444444,0,0,0.010850694444444444,25.564236111111104,0)" xlink:href="#F"/><use transform="matrix(0.010850694444444444,0,0,0.010850694444444444,34.27734374999999,0)" xlink:href="#t"/><use transform="matrix(0.010850694444444444,0,0,0.010850694444444444,53.74348958333333,0)" xlink:href="#z"/><use transform="matrix(0.010850694444444444,0,0,0.010850694444444444,66.22178819444444,0)" xlink:href="#w"/></g><path d="M52 0l541-1490h220L1361 0h-200l-149-416H398L254 0H52zm404-582h497c-103-290-145-390-251-756-108 377-145 460-246 756" id="I"/><g id="k"><use transform="matrix(0.010850694444444444,0,0,0.010850694444444444,0,0)" xlink:href="#I"/><use transform="matrix(0.010850694444444444,0,0,0.010850694444444444,15.33203125,0)" xlink:href="#B"/><use transform="matrix(0.010850694444444444,0,0,0.010850694444444444,28.938802083333332,0)" xlink:href="#B"/></g><path d="M763 24c-353 0-583-224-583-531v-983h190v968c0 214 149 370 393 370 243 0 391-156 391-370v-968h190v983c0 307-230 531-581 531" id="J"/><path d="M158 418v-1536h174v179h20c37-59 106-193 324-193 279 0 474 222 474 576 0 356-194 580-473 580-213 0-288-135-325-197h-14v591H158zm492-555c209 0 317-186 317-421 0-232-105-413-317-413-206 0-314 166-314 413 0 249 111 421 314 421" id="K"/><g id="l"><use transform="matrix(0.010850694444444444,0,0,0.010850694444444444,0,0)" xlink:href="#J"/><use transform="matrix(0.010850694444444444,0,0,0.010850694444444444,16.536458333333332,0)" xlink:href="#K"/><use transform="matrix(0.010850694444444444,0,0,0.010850694444444444,30.143229166666664,0)" xlink:href="#B"/><use transform="matrix(0.010850694444444444,0,0,0.010850694444444444,43.75,0)" xlink:href="#z"/><use transform="matrix(0.010850694444444444,0,0,0.010850694444444444,56.22829861111112,0)" xlink:href="#w"/><use transform="matrix(0.010850694444444444,0,0,0.010850694444444444,63.28125000000001,0)" xlink:href="#u"/></g><path fill="#333" d="M601 0v-560L49-1490h357l252 464c38 68 67 130 97 208 96-243 225-446 337-672h356L905-560V0H601" id="L"/><path fill="#333" d="M633 22C291 22 81-200 81-553c0-345 210-579 537-579 292 0 525 185 525 567v84H378c7 183 109 277 260 277 105 0 184-46 216-132l272 51C1071-99 893 22 633 22zM380-669h474c-15-146-94-237-233-237-143 0-229 99-241 237" id="M"/><path fill="#333" d="M572 22C302 22 117-98 78-306l279-48c29 105 101 156 224 156 114 0 185-48 185-115 0-118-228-130-337-155-215-49-322-150-322-317 0-215 187-347 470-347 265 0 424 116 466 298l-266 47c-24-76-87-130-196-130-98 0-174 46-174 113 0 56 38 95 144 117l201 40c216 44 320 143 320 302 0 220-207 367-500 367" id="N"/><g id="m"><use transform="matrix(0.008680555555555556,0,0,0.008680555555555556,0,0)" xlink:href="#L"/><use transform="matrix(0.008680555555555556,0,0,0.008680555555555556,11.050347222222223,0)" xlink:href="#M"/><use transform="matrix(0.008680555555555556,0,0,0.008680555555555556,21.640625,0)" xlink:href="#N"/></g><path fill="#333" d="M135 0v-1490h340l471 754c59 97 122 210 187 365-32-387-14-721-19-1119h312V0h-341C855-382 627-689 427-1113c32 420 16 695 20 1113H135" id="O"/><path fill="#333" d="M628 22C291 22 81-210 81-554c0-346 210-578 547-578 336 0 547 232 547 578 0 344-211 576-547 576zm0-236c160 0 242-146 242-341 0-197-82-341-242-341S387-753 387-555c0 195 81 341 241 341" id="P"/><g id="n"><use transform="matrix(0.008680555555555556,0,0,0.008680555555555556,0,0)" xlink:href="#O"/><use transform="matrix(0.008680555555555556,0,0,0.008680555555555556,13.550347222222223,0)" xlink:href="#P"/></g><path d="M158 0v-1118h180V0H158zm91-1301c-68 0-125-53-125-119s57-119 125-119c69 0 126 53 126 119s-57 119-126 119" id="Q"/><g id="o"><use transform="matrix(0.010850694444444444,0,0,0.010850694444444444,0,0)" xlink:href="#q"/><use transform="matrix(0.010850694444444444,0,0,0.010850694444444444,13.975694444444445,0)" xlink:href="#u"/><use transform="matrix(0.010850694444444444,0,0,0.010850694444444444,26.931423611111104,0)" xlink:href="#G"/><use transform="matrix(0.010850694444444444,0,0,0.010850694444444444,39.62673611111111,0)" xlink:href="#s"/><use transform="matrix(0.010850694444444444,0,0,0.010850694444444444,52.951388888888886,0)" xlink:href="#t"/><use transform="matrix(0.010850694444444444,0,0,0.010850694444444444,72.41753472222221,0)" xlink:href="#t"/><use transform="matrix(0.010850694444444444,0,0,0.010850694444444444,91.88368055555556,0)" xlink:href="#u"/><use transform="matrix(0.010850694444444444,0,0,0.010850694444444444,104.83940972222221,0)" xlink:href="#v"/><use transform="matrix(0.010850694444444444,0,0,0.010850694444444444,117.96874999999997,0)" xlink:href="#B"/><use transform="matrix(0.010850694444444444,0,0,0.010850694444444444,131.57552083333331,0)" xlink:href="#z"/><use transform="matrix(0.010850694444444444,0,0,0.010850694444444444,144.05381944444443,0)" xlink:href="#w"/><use transform="matrix(0.010850694444444444,0,0,0.010850694444444444,151.3237847222222,0)" xlink:href="#Q"/><use transform="matrix(0.010850694444444444,0,0,0.010850694444444444,156.70572916666666,0)" xlink:href="#s"/><use transform="matrix(0.010850694444444444,0,0,0.010850694444444444,170.03038194444443,0)" xlink:href="#v"/><use transform="matrix(0.010850694444444444,0,0,0.010850694444444444,183.15972222222223,0)" xlink:href="#A"/></g></defs></g></svg>