<svg xmlns="http://www.w3.org/2000/svg" xmlns:xlink="http://www.w3.org/1999/xlink" xmlns:lucid="lucid" width="1443" height="472.65"><g transform="translate(-38.5 -38.50000000000003)" lucid:page-tab-id="IobjVl3SR3Ny"><path d="M0 0h1760v1360H0z" fill="#fff"/><path d="M1100 260c0 11.05-35.82 20-80 20s-80-8.95-80-20V100c0-11.05 35.82-20 80-20s80 8.95 80 20z" stroke="#000" stroke-width="3" fill="#cfe4ff"/><path d="M1100 100c0 11.05-35.82 20-80 20s-80-8.95-80-20" stroke="#000" stroke-width="3" fill="none"/><use xlink:href="#a" transform="matrix(1,0,0,1,945,125.00000000000003) translate(7.969835069444457 68.40277777777777)"/><use xlink:href="#b" transform="matrix(1,0,0,1,945,125.00000000000003) translate(93.65776909722221 68.40277777777777)"/><use xlink:href="#c" transform="matrix(1,0,0,1,945,125.00000000000003) translate(57.75824652777778 100.66840277777777)"/><path d="M1160 41a1 1 0 0 1 1-1h318a1 1 0 0 1 1 1v278a1 1 0 0 1-1 1h-318a1 1 0 0 1-1-1z" stroke="#000" stroke-width="3" fill="#fff"/><path d="M1180 66a6 6 0 0 1 6-6h268a6 6 0 0 1 6 6v214c-46.76-36.74-75.88-36.74-93.52-36.74-28 0-65.24 36.74-93.24 36.74-17.36 0-46.76 0-93.24-36.74z" stroke="#000" stroke-width="2" fill="#edf5ff"/><path d="M1200 86a6 6 0 0 1 6-6h228a6 6 0 0 1 6 6v8a6 6 0 0 1-6 6h-228a6 6 0 0 1-6-6z" stroke="#000" stroke-width="2" fill="#f2f3f5"/><path d="M40 41a1 1 0 0 1 1-1h318a1 1 0 0 1 1 1v278a1 1 0 0 1-1 1H41a1 1 0 0 1-1-1z" stroke="#000" stroke-width="3" fill="#fff"/><path d="M60 66a6 6 0 0 1 6-6h268a6 6 0 0 1 6 6v214c-46.76-36.74-75.88-36.74-93.52-36.74-28 0-65.24 36.74-93.24 36.74-17.36 0-46.76 0-93.24-36.74z" stroke="#000" stroke-width="2" fill="#e3fae3"/><path d="M80 86a6 6 0 0 1 6-6h228a6 6 0 0 1 6 6v8a6 6 0 0 1-6 6H86a6 6 0 0 1-6-6zM100 126a6 6 0 0 1 6-6h208a6 6 0 0 1 6 6v8a6 6 0 0 1-6 6H106a6 6 0 0 1-6-6zM80 166a6 6 0 0 1 6-6h228a6 6 0 0 1 6 6v8a6 6 0 0 1-6 6H86a6 6 0 0 1-6-6z" stroke="#000" stroke-width="2" fill="#f2f3f5"/><path d="M360.4 319.08a.2.2 0 0 1-.4-.08V41a.2.2 0 0 1 .4-.08l59.2 138.16a2.33 2.33 0 0 1 0 1.84z" stroke="#000" stroke-width="3" fill="#fff"/><path d="M1220 126a6 6 0 0 1 6-6h208a6 6 0 0 1 6 6v8a6 6 0 0 1-6 6h-208a6 6 0 0 1-6-6z" stroke="#000" stroke-width="2" fill="#f2f3f5"/><path d="M420 126a6 6 0 0 1 6-6h148a6 6 0 0 1 6 6v108a6 6 0 0 1-6 6H426a6 6 0 0 1-6-6z" stroke="#000" stroke-width="3" fill="#cfe4ff"/><path d="M436 120v120m128-120v120" stroke="#000" stroke-width="3" fill="none"/><use xlink:href="#d" transform="matrix(1,0,0,1,444.99999999999994,125.00000000000003) translate(15.834418402777779 46.950954861111114)"/><use xlink:href="#e" transform="matrix(1,0,0,1,444.99999999999994,125.00000000000003) translate(20.0390625 79.21657986111111)"/><path d="M937 180h-57.76" stroke="#3a414a" stroke-width="3" fill="none"/><path d="M938.5 181.47h-1.54v-2.94h1.54z" stroke="#3a414a" stroke-width=".05" fill="#3a414a"/><path d="M863.48 180l14.26-4.63v9.26z" stroke="#3a414a" stroke-width="3" fill="#3a414a"/><path d="M583 180h57.76" stroke="#3a414a" stroke-width="3" fill="none"/><path d="M583.04 181.47h-1.54v-2.94h1.54z" stroke="#3a414a" stroke-width=".05" fill="#3a414a"/><path d="M656.52 180l-14.26 4.63v-9.26z" stroke="#3a414a" stroke-width="3" fill="#3a414a"/><path d="M1200 166a6 6 0 0 1 6-6h228a6 6 0 0 1 6 6v8a6 6 0 0 1-6 6h-228a6 6 0 0 1-6-6z" stroke="#000" stroke-width="2" fill="#f2f3f5"/><path d="M1159.6 40.92a.2.2 0 0 1 .4.08v278a.2.2 0 0 1-.4.08l-59.2-138.16a2.33 2.33 0 0 1 0-1.84z" stroke="#000" stroke-width="3" fill="#fff"/><path d="M755.32 103.75a7.5 7.5 0 0 1 9.36 0l90.64 72.5a4.8 4.8 0 0 1 0 7.5l-90.64 72.5a7.5 7.5 0 0 1-9.36 0l-90.64-72.5a4.8 4.8 0 0 1 0-7.5z" stroke="#000" stroke-width="3" fill="#cfe4ff"/><use xlink:href="#f" transform="matrix(1,0,0,1,665,105.00000000000003) translate(61.39497395833334 68.40277777777777)"/><use xlink:href="#g" transform="matrix(1,0,0,1,665,105.00000000000003) translate(55.28603298611112 100.66840277777777)"/><path d="M690 468c-16.57 0-30-12.54-30-28 0-12.37 8.12-22.8 20.73-26.63C680 377 730 370 750 384c10-21 60-14 60 7 30-7 60 21 40 56 20 28 0 63-40 49-10 18.2-50 18.2-60 0-20 14-60 7-60-28z" stroke="#000" stroke-width="3" fill="#fff0fb"/><use xlink:href="#h" transform="matrix(1,0,0,1,665,375) translate(70.39800347222223 74.34027777777777)"/><path d="M760 276.9v75.55" stroke="#3a414a" stroke-width="3" fill="none"/><path d="M760 262.4l7.5 13h-15zM760 368.2l-4.63-14.25h9.26z" stroke="#3a414a" stroke-width="3" fill="#3a414a"/><path d="M778.5 264.6v84.64" stroke="#3a414a" stroke-width="3" fill="none"/><path d="M778.5 250.12l7.5 13h-15zM778.5 365l-4.63-14.26h9.26z" stroke="#3a414a" stroke-width="3" fill="#3a414a"/><path d="M741.2 264.37v93.2" stroke="#3a414a" stroke-width="3" fill="none"/><path d="M741.2 249.88l7.5 13h-15zM741.2 373.33l-4.64-14.27h9.27z" stroke="#3a414a" stroke-width="3" fill="#3a414a"/><defs><path d="M783 20c-382 0-661-292-661-764 0-473 279-766 661-766 302 0 548 182 601 489h-190c-42-204-217-313-411-313-268 0-476 208-476 590 0 381 209 588 476 588 195 0 369-110 411-313h190c-52 303-296 489-601 489" id="i"/><path d="M537 14c-226 0-379-139-379-422v-710h180v695c0 172 97 275 253 275 160 0 281-109 281-300v-670h181V0H879v-209C806-46 684 14 537 14" id="j"/><path d="M158 0v-1118h174v172h12c41-113 157-188 290-188 26 0 70 2 91 3v181c-11-2-60-10-108-10-161 0-279 109-279 260V0H158" id="k"/><path d="M628 24c-324 0-524-230-524-574 0-343 198-582 503-582 237 0 487 146 487 559v75H286c9 234 145 362 343 362 132 0 231-58 273-172l174 48C1024-91 857 24 628 24zM287-650h624c-17-190-120-322-304-322-192 0-309 151-320 322" id="l"/><path d="M338-670V0H158v-1118h173l1 207c72-158 192-221 342-221 226 0 378 139 378 422V0H872v-695c0-172-96-275-252-275-161 0-282 109-282 300" id="m"/><path d="M598-1118v154H368v674c0 100 37 144 132 144 23 0 62-6 92-12L629-6c-37 13-88 20-134 20-193 0-307-107-307-290v-688H20v-154h168v-266h180v266h230" id="n"/><g id="a"><use transform="matrix(0.010850694444444444,0,0,0.010850694444444444,0,0)" xlink:href="#i"/><use transform="matrix(0.010850694444444444,0,0,0.010850694444444444,16.23263888888889,0)" xlink:href="#j"/><use transform="matrix(0.010850694444444444,0,0,0.010850694444444444,29.37282986111111,0)" xlink:href="#k"/><use transform="matrix(0.010850694444444444,0,0,0.010850694444444444,38.0859375,0)" xlink:href="#k"/><use transform="matrix(0.010850694444444444,0,0,0.010850694444444444,46.08289930555556,0)" xlink:href="#l"/><use transform="matrix(0.010850694444444444,0,0,0.010850694444444444,59.03862847222221,0)" xlink:href="#m"/><use transform="matrix(0.010850694444444444,0,0,0.010850694444444444,72.16796874999999,0)" xlink:href="#n"/></g><path d="M645 0H180v-1490h484c435 0 692 280 692 742 0 466-257 748-711 748zM370-168h263c363 0 539-218 539-580 0-358-176-574-521-574H370v1154" id="o"/><path d="M471 26C259 26 90-98 90-318c0-256 228-303 435-329 202-27 287-16 287-108 0-139-79-219-234-219-161 0-248 86-283 164l-173-57c86-203 278-265 451-265 150 0 419 46 419 395V0H815v-152h-12C765-73 660 26 471 26zm31-159c199 0 310-134 310-271v-155c-30 35-226 55-295 64-131 17-246 59-246 186 0 116 97 176 231 176" id="p"/><g id="b"><use transform="matrix(0.010850694444444444,0,0,0.010850694444444444,0,0)" xlink:href="#o"/><use transform="matrix(0.010850694444444444,0,0,0.010850694444444444,16.03732638888889,0)" xlink:href="#p"/><use transform="matrix(0.010850694444444444,0,0,0.010850694444444444,28.515625,0)" xlink:href="#n"/><use transform="matrix(0.010850694444444444,0,0,0.010850694444444444,35.89409722222222,0)" xlink:href="#p"/></g><path d="M657 26c-323 0-524-166-541-416h195c15 169 171 246 346 246 202 0 356-106 356-265 5-203-294-238-475-293-239-73-380-191-380-389 0-252 224-419 512-419 294 0 499 171 508 396H992c-17-145-151-228-328-228-193 0-321 102-321 242 0 156 175 211 284 241l149 41c160 44 422 134 422 412 0 244-197 432-541 432" id="q"/><g id="c"><use transform="matrix(0.010850694444444444,0,0,0.010850694444444444,0,0)" xlink:href="#q"/><use transform="matrix(0.010850694444444444,0,0,0.010850694444444444,14.2578125,0)" xlink:href="#l"/><use transform="matrix(0.010850694444444444,0,0,0.010850694444444444,27.213541666666664,0)" xlink:href="#n"/></g><path d="M180 0v-1490h190v644h782v-644h190V0h-190v-678H370V0H180" id="r"/><path d="M140 405l46-156c120 36 205 19 263-150l32-93L54-1118h197c107 313 237 620 324 950 87-331 219-637 326-950h196L606 167c-68 178-176 259-334 259-64 0-113-12-132-21" id="s"/><path d="M338-1490V0H158v-1490h180" id="t"/><path d="M158 0v-1118h180V0H158zm91-1301c-68 0-125-53-125-119s57-119 125-119c69 0 126 53 126 119s-57 119-126 119" id="u"/><g id="d"><use transform="matrix(0.010850694444444444,0,0,0.010850694444444444,0,0)" xlink:href="#r"/><use transform="matrix(0.010850694444444444,0,0,0.010850694444444444,16.623263888888886,0)" xlink:href="#s"/><use transform="matrix(0.010850694444444444,0,0,0.010850694444444444,29.00390625,0)" xlink:href="#p"/><use transform="matrix(0.010850694444444444,0,0,0.010850694444444444,41.482204861111114,0)" xlink:href="#t"/><use transform="matrix(0.010850694444444444,0,0,0.010850694444444444,46.86414930555556,0)" xlink:href="#u"/><use transform="matrix(0.010850694444444444,0,0,0.010850694444444444,52.24609375,0)" xlink:href="#m"/><use transform="matrix(0.010850694444444444,0,0,0.010850694444444444,65.37543402777777,0)" xlink:href="#l"/></g><path d="M613 24c-304 0-509-231-509-576 0-350 205-580 509-580 305 0 511 230 511 580 0 345-206 576-511 576zm0-161c226 0 329-195 329-415 0-222-103-419-329-419-223 0-326 196-326 419 0 220 103 415 326 415" id="v"/><path d="M678-1118v154H420V0H240v-964H20v-154h220v-149c0-194 155-293 318-293 85 0 141 18 168 30l-50 154c-19-6-47-17-97-17-111 0-159 58-159 166v109h258" id="w"/><path d="M611 442c-248 0-391-105-460-228l146-94c47 65 117 165 314 165 178 0 307-82 307-266v-224h-17C863-141 792-18 576-18c-268 0-472-195-472-546 0-346 197-568 476-568 216 0 288 133 326 193h17v-179h175V29c0 289-215 413-487 413zm-5-620c203 0 314-146 314-390 0-237-108-403-314-403-213 0-319 180-319 403 0 230 109 390 319 390" id="x"/><g id="e"><use transform="matrix(0.010850694444444444,0,0,0.010850694444444444,0,0)" xlink:href="#i"/><use transform="matrix(0.010850694444444444,0,0,0.010850694444444444,16.23263888888889,0)" xlink:href="#v"/><use transform="matrix(0.010850694444444444,0,0,0.010850694444444444,29.557291666666664,0)" xlink:href="#m"/><use transform="matrix(0.010850694444444444,0,0,0.010850694444444444,42.68663194444444,0)" xlink:href="#w"/><use transform="matrix(0.010850694444444444,0,0,0.010850694444444444,50.91145833333333,0)" xlink:href="#u"/><use transform="matrix(0.010850694444444444,0,0,0.010850694444444444,56.29340277777778,0)" xlink:href="#x"/></g><path d="M338-670V0H158v-1490h180v566c73-149 190-208 336-208 226 0 379 139 379 422V0H872v-695c0-172-96-275-252-275-161 0-282 109-282 300" id="y"/><path d="M613 24c-304 0-509-231-509-576 0-350 205-580 509-580 216 0 392 114 453 309l-173 49c-33-115-133-197-280-197-223 0-326 196-326 419 0 220 103 415 326 415 150 0 252-85 285-206l172 49C1010-95 832 24 613 24" id="z"/><path d="M158 0v-1490h180v865h22l478-493h223L593-638 1096 0H865L456-523 338-412V0H158" id="A"/><g id="f"><use transform="matrix(0.010850694444444444,0,0,0.010850694444444444,0,0)" xlink:href="#i"/><use transform="matrix(0.010850694444444444,0,0,0.010850694444444444,16.23263888888889,0)" xlink:href="#y"/><use transform="matrix(0.010850694444444444,0,0,0.010850694444444444,29.37282986111111,0)" xlink:href="#l"/><use transform="matrix(0.010850694444444444,0,0,0.010850694444444444,42.32855902777778,0)" xlink:href="#z"/><use transform="matrix(0.010850694444444444,0,0,0.010850694444444444,55.02387152777778,0)" xlink:href="#A"/></g><g id="g"><use transform="matrix(0.010850694444444444,0,0,0.010850694444444444,0,0)" xlink:href="#i"/><use transform="matrix(0.010850694444444444,0,0,0.010850694444444444,16.23263888888889,0)" xlink:href="#j"/><use transform="matrix(0.010850694444444444,0,0,0.010850694444444444,29.37282986111111,0)" xlink:href="#k"/><use transform="matrix(0.010850694444444444,0,0,0.010850694444444444,38.0859375,0)" xlink:href="#k"/><use transform="matrix(0.010850694444444444,0,0,0.010850694444444444,46.08289930555556,0)" xlink:href="#l"/><use transform="matrix(0.010850694444444444,0,0,0.010850694444444444,59.03862847222221,0)" xlink:href="#m"/><use transform="matrix(0.010850694444444444,0,0,0.010850694444444444,72.16796874999999,0)" xlink:href="#n"/></g><path d="M180 0v-1490h190v1322h690V0H180" id="B"/><path d="M180 0v-1490h270l367 940c28 72 75 218 110 339 35-117 81-264 110-339l362-940h271V0h-187c2-448-5-837 7-1287-157 497-311 829-483 1287H842C666-458 514-784 354-1284c12 438 5 843 7 1284H180" id="C"/><g id="h"><use transform="matrix(0.010850694444444444,0,0,0.010850694444444444,0,0)" xlink:href="#B"/><use transform="matrix(0.010850694444444444,0,0,0.010850694444444444,12.565104166666666,0)" xlink:href="#B"/><use transform="matrix(0.010850694444444444,0,0,0.010850694444444444,25.130208333333332,0)" xlink:href="#C"/></g></defs></g></svg>