<svg xmlns="http://www.w3.org/2000/svg" xmlns:xlink="http://www.w3.org/1999/xlink" xmlns:lucid="lucid" width="2043" height="592.65"><g transform="translate(-38.5 -38.5)" lucid:page-tab-id="0_0"><path d="M0 0h3456v1360H0z" fill="#fff"/><path d="M880 380c0 11.05-35.82 20-80 20s-80-8.95-80-20V220c0-11.05 35.82-20 80-20s80 8.95 80 20z" stroke="#000" stroke-width="3" fill="#cfe4ff"/><path d="M880 220c0 11.05-35.82 20-80 20s-80-8.95-80-20" stroke="#000" stroke-width="3" fill="none"/><use xlink:href="#a" transform="matrix(1,0,0,1,725.0000000000001,244.9999999999999) translate(7.969835069444457 68.40277777777777)"/><use xlink:href="#b" transform="matrix(1,0,0,1,725.0000000000001,244.9999999999999) translate(93.65776909722221 68.40277777777777)"/><use xlink:href="#c" transform="matrix(1,0,0,1,725.0000000000001,244.9999999999999) translate(57.75824652777778 100.66840277777777)"/><path d="M40 41a1 1 0 0 1 1-1h618a1 1 0 0 1 1 1v518a1 1 0 0 1-1 1H41a1 1 0 0 1-1-1z" stroke="#000" stroke-width="3" fill="#fff"/><path d="M360 66a6 6 0 0 1 6-6h268a6 6 0 0 1 6 6v214c-46.76-36.74-75.88-36.74-93.52-36.74-28 0-65.24 36.74-93.24 36.74-17.36 0-46.76 0-93.24-36.74z" stroke="#000" stroke-width="2" fill="#edf5ff"/><path d="M380 86a6 6 0 0 1 6-6h228a6 6 0 0 1 6 6v8a6 6 0 0 1-6 6H386a6 6 0 0 1-6-6zM400 126a6 6 0 0 1 6-6h208a6 6 0 0 1 6 6v8a6 6 0 0 1-6 6H406a6 6 0 0 1-6-6zM380 166a6 6 0 0 1 6-6h228a6 6 0 0 1 6 6v8a6 6 0 0 1-6 6H386a6 6 0 0 1-6-6z" stroke="#000" stroke-width="2" fill="#f2f3f5"/><path d="M660.22 559.03a.1.1 0 0 1-.22-.03V41a.1.1 0 0 1 .22-.03l59.55 258.06a4.33 4.33 0 0 1 0 1.94z" stroke="#000" stroke-width="3" fill="#fff"/><path d="M60 66a6 6 0 0 1 6-6h268a6 6 0 0 1 6 6v214c-46.76-36.74-75.88-36.74-93.52-36.74-28 0-65.24 36.74-93.24 36.74-17.36 0-46.76 0-93.24-36.74z" stroke="#000" stroke-width="2" fill="#edf5ff"/><path d="M80 86a6 6 0 0 1 6-6h228a6 6 0 0 1 6 6v8a6 6 0 0 1-6 6H86a6 6 0 0 1-6-6zM100 126a6 6 0 0 1 6-6h208a6 6 0 0 1 6 6v8a6 6 0 0 1-6 6H106a6 6 0 0 1-6-6zM80 166a6 6 0 0 1 6-6h228a6 6 0 0 1 6 6v8a6 6 0 0 1-6 6H86a6 6 0 0 1-6-6z" stroke="#000" stroke-width="2" fill="#f2f3f5"/><path d="M60 326a6 6 0 0 1 6-6h268a6 6 0 0 1 6 6v214c-46.76-36.74-75.88-36.74-93.52-36.74-28 0-65.24 36.74-93.24 36.74-17.36 0-46.76 0-93.24-36.74z" stroke="#000" stroke-width="2" fill="#edf5ff"/><path d="M80 346a6 6 0 0 1 6-6h228a6 6 0 0 1 6 6v8a6 6 0 0 1-6 6H86a6 6 0 0 1-6-6zM100 386a6 6 0 0 1 6-6h208a6 6 0 0 1 6 6v8a6 6 0 0 1-6 6H106a6 6 0 0 1-6-6zM80 426a6 6 0 0 1 6-6h228a6 6 0 0 1 6 6v8a6 6 0 0 1-6 6H86a6 6 0 0 1-6-6z" stroke="#000" stroke-width="2" fill="#f2f3f5"/><path d="M1055.32 223.75a7.5 7.5 0 0 1 9.37 0l90.62 72.5a4.8 4.8 0 0 1 0 7.5l-90.63 72.5a7.5 7.5 0 0 1-9.38 0l-90.63-72.5a4.8 4.8 0 0 1-.02-7.5z" stroke="#000" stroke-width="3" fill="#cfe4ff"/><use xlink:href="#d" transform="matrix(1,0,0,1,965,225) translate(46.768237847222224 68.40277777777777)"/><use xlink:href="#e" transform="matrix(1,0,0,1,965,225) translate(60.0440625 100.66840277777777)"/><path d="M990 588c-16.57 0-30-12.54-30-28 0-12.37 8.12-22.8 20.73-26.63C980 497 1030 490 1050 504c10-21 60-14 60 7 30-7 60 21 40 56 20 28 0 63-40 49-10 18.2-50 18.2-60 0-20 14-60 7-60-28z" stroke="#000" stroke-width="3" fill="#fff0fb"/><use xlink:href="#f" transform="matrix(1,0,0,1,965,495) translate(70.39800347222223 74.34027777777777)"/><path d="M1060 396.9v75.55" stroke="#3a414a" stroke-width="3" fill="none"/><path d="M1060 382.4l7.5 13h-15zM1060 488.2l-4.63-14.25h9.27z" stroke="#3a414a" stroke-width="3" fill="#3a414a"/><path d="M1078.5 384.6v84.64" stroke="#3a414a" stroke-width="3" fill="none"/><path d="M1078.5 370.12l7.5 13h-15zM1078.5 485l-4.63-14.26h9.27z" stroke="#3a414a" stroke-width="3" fill="#3a414a"/><path d="M1041.2 384.37v93.2" stroke="#3a414a" stroke-width="3" fill="none"/><path d="M1041.2 369.88l7.5 13h-15zM1041.2 493.33l-4.64-14.27h9.27z" stroke="#3a414a" stroke-width="3" fill="#3a414a"/><path d="M883 300h57.76" stroke="#3a414a" stroke-width="3" fill="none"/><path d="M883.04 301.48h-1.54v-2.96h1.54z" stroke="#3a414a" stroke-width=".05" fill="#3a414a"/><path d="M956.52 300l-14.26 4.63v-9.26z" stroke="#3a414a" stroke-width="3" fill="#3a414a"/><path d="M1240 246a6 6 0 0 1 6-6h148a6 6 0 0 1 6 6v108a6 6 0 0 1-6 6h-148a6 6 0 0 1-6-6z" stroke="#000" stroke-width="3" fill="#cfe4ff"/><path d="M1256 240v120m128-120v120" stroke="#000" stroke-width="3" fill="none"/><use xlink:href="#g" transform="matrix(1,0,0,1,1265,244.9999999999999) translate(10.078125 46.950954861111114)"/><use xlink:href="#h" transform="matrix(1,0,0,1,1265,244.9999999999999) translate(20.0390625 79.21657986111111)"/><path d="M1160.12 300h57.76" stroke="#3a414a" stroke-width="3" fill="none"/><path d="M1160.16 301.48h-1.74l.1-.36.1-1.12-.1-1.12-.1-.36h1.74z" stroke="#3a414a" stroke-width=".05" fill="#3a414a"/><path d="M1233.65 300l-14.27 4.63v-9.26z" stroke="#3a414a" stroke-width="3" fill="#3a414a"/><path d="M1460 41a1 1 0 0 1 1-1h618a1 1 0 0 1 1 1v518a1 1 0 0 1-1 1h-618a1 1 0 0 1-1-1z" stroke="#000" stroke-width="3" fill="#fff"/><path d="M1780 66a6 6 0 0 1 6-6h268a6 6 0 0 1 6 6v214c-46.76-36.74-75.88-36.74-93.52-36.74-28 0-65.24 36.74-93.24 36.74-17.36 0-46.76 0-93.24-36.74z" stroke="#000" stroke-width="2" fill="#e3fae3"/><path d="M1800 86a6 6 0 0 1 6-6h228a6 6 0 0 1 6 6v8a6 6 0 0 1-6 6h-228a6 6 0 0 1-6-6zM1820 126a6 6 0 0 1 6-6h208a6 6 0 0 1 6 6v8a6 6 0 0 1-6 6h-208a6 6 0 0 1-6-6zM1800 166a6 6 0 0 1 6-6h228a6 6 0 0 1 6 6v8a6 6 0 0 1-6 6h-228a6 6 0 0 1-6-6z" stroke="#000" stroke-width="2" fill="#f2f3f5"/><path d="M1480 66a6 6 0 0 1 6-6h268a6 6 0 0 1 6 6v214c-46.76-36.74-75.88-36.74-93.52-36.74-28 0-65.24 36.74-93.24 36.74-17.36 0-46.76 0-93.24-36.74z" stroke="#000" stroke-width="2" fill="#e3fae3"/><path d="M1500 86a6 6 0 0 1 6-6h228a6 6 0 0 1 6 6v8a6 6 0 0 1-6 6h-228a6 6 0 0 1-6-6zM1520 126a6 6 0 0 1 6-6h208a6 6 0 0 1 6 6v8a6 6 0 0 1-6 6h-208a6 6 0 0 1-6-6zM1500 166a6 6 0 0 1 6-6h228a6 6 0 0 1 6 6v8a6 6 0 0 1-6 6h-228a6 6 0 0 1-6-6z" stroke="#000" stroke-width="2" fill="#f2f3f5"/><path d="M1480 326a6 6 0 0 1 6-6h268a6 6 0 0 1 6 6v214c-46.76-36.74-75.88-36.74-93.52-36.74-28 0-65.24 36.74-93.24 36.74-17.36 0-46.76 0-93.24-36.74z" stroke="#000" stroke-width="2" fill="#e3fae3"/><path d="M1500 346a6 6 0 0 1 6-6h228a6 6 0 0 1 6 6v8a6 6 0 0 1-6 6h-228a6 6 0 0 1-6-6zM1520 386a6 6 0 0 1 6-6h208a6 6 0 0 1 6 6v8a6 6 0 0 1-6 6h-208a6 6 0 0 1-6-6zM1500 426a6 6 0 0 1 6-6h228a6 6 0 0 1 6 6v8a6 6 0 0 1-6 6h-228a6 6 0 0 1-6-6z" stroke="#000" stroke-width="2" fill="#f2f3f5"/><g><path d="M1459.78 40.97a.1.1 0 0 1 .22.03v518a.1.1 0 0 1-.23.03l-59.54-258.06a4.33 4.33 0 0 1 0-1.94z" stroke="#000" stroke-width="3" fill="#fff"/></g><defs><path d="M783 20c-382 0-661-292-661-764 0-473 279-766 661-766 302 0 548 182 601 489h-190c-42-204-217-313-411-313-268 0-476 208-476 590 0 381 209 588 476 588 195 0 369-110 411-313h190c-52 303-296 489-601 489" id="i"/><path d="M537 14c-226 0-379-139-379-422v-710h180v695c0 172 97 275 253 275 160 0 281-109 281-300v-670h181V0H879v-209C806-46 684 14 537 14" id="j"/><path d="M158 0v-1118h174v172h12c41-113 157-188 290-188 26 0 70 2 91 3v181c-11-2-60-10-108-10-161 0-279 109-279 260V0H158" id="k"/><path d="M628 24c-324 0-524-230-524-574 0-343 198-582 503-582 237 0 487 146 487 559v75H286c9 234 145 362 343 362 132 0 231-58 273-172l174 48C1024-91 857 24 628 24zM287-650h624c-17-190-120-322-304-322-192 0-309 151-320 322" id="l"/><path d="M338-670V0H158v-1118h173l1 207c72-158 192-221 342-221 226 0 378 139 378 422V0H872v-695c0-172-96-275-252-275-161 0-282 109-282 300" id="m"/><path d="M598-1118v154H368v674c0 100 37 144 132 144 23 0 62-6 92-12L629-6c-37 13-88 20-134 20-193 0-307-107-307-290v-688H20v-154h168v-266h180v266h230" id="n"/><g id="a"><use transform="matrix(0.010850694444444444,0,0,0.010850694444444444,0,0)" xlink:href="#i"/><use transform="matrix(0.010850694444444444,0,0,0.010850694444444444,16.23263888888889,0)" xlink:href="#j"/><use transform="matrix(0.010850694444444444,0,0,0.010850694444444444,29.37282986111111,0)" xlink:href="#k"/><use transform="matrix(0.010850694444444444,0,0,0.010850694444444444,38.0859375,0)" xlink:href="#k"/><use transform="matrix(0.010850694444444444,0,0,0.010850694444444444,46.08289930555556,0)" xlink:href="#l"/><use transform="matrix(0.010850694444444444,0,0,0.010850694444444444,59.03862847222221,0)" xlink:href="#m"/><use transform="matrix(0.010850694444444444,0,0,0.010850694444444444,72.16796874999999,0)" xlink:href="#n"/></g><path d="M645 0H180v-1490h484c435 0 692 280 692 742 0 466-257 748-711 748zM370-168h263c363 0 539-218 539-580 0-358-176-574-521-574H370v1154" id="o"/><path d="M471 26C259 26 90-98 90-318c0-256 228-303 435-329 202-27 287-16 287-108 0-139-79-219-234-219-161 0-248 86-283 164l-173-57c86-203 278-265 451-265 150 0 419 46 419 395V0H815v-152h-12C765-73 660 26 471 26zm31-159c199 0 310-134 310-271v-155c-30 35-226 55-295 64-131 17-246 59-246 186 0 116 97 176 231 176" id="p"/><g id="b"><use transform="matrix(0.010850694444444444,0,0,0.010850694444444444,0,0)" xlink:href="#o"/><use transform="matrix(0.010850694444444444,0,0,0.010850694444444444,16.03732638888889,0)" xlink:href="#p"/><use transform="matrix(0.010850694444444444,0,0,0.010850694444444444,28.515625,0)" xlink:href="#n"/><use transform="matrix(0.010850694444444444,0,0,0.010850694444444444,35.89409722222222,0)" xlink:href="#p"/></g><path d="M657 26c-323 0-524-166-541-416h195c15 169 171 246 346 246 202 0 356-106 356-265 5-203-294-238-475-293-239-73-380-191-380-389 0-252 224-419 512-419 294 0 499 171 508 396H992c-17-145-151-228-328-228-193 0-321 102-321 242 0 156 175 211 284 241l149 41c160 44 422 134 422 412 0 244-197 432-541 432" id="q"/><g id="c"><use transform="matrix(0.010850694444444444,0,0,0.010850694444444444,0,0)" xlink:href="#q"/><use transform="matrix(0.010850694444444444,0,0,0.010850694444444444,14.2578125,0)" xlink:href="#l"/><use transform="matrix(0.010850694444444444,0,0,0.010850694444444444,27.213541666666664,0)" xlink:href="#n"/></g><path d="M789 20c-398 0-667-293-667-764 0-473 273-766 655-766 315 0 558 198 612 487h-196c-61-191-204-311-415-311-262 0-471 207-471 590 0 380 208 588 482 588 249 0 420-165 425-427H828v-166h572v163c0 370-256 606-611 606" id="r"/><g id="d"><use transform="matrix(0.010850694444444444,0,0,0.010850694444444444,0,0)" xlink:href="#r"/><use transform="matrix(0.010850694444444444,0,0,0.010850694444444444,16.57986111111111,0)" xlink:href="#l"/><use transform="matrix(0.010850694444444444,0,0,0.010850694444444444,29.535590277777775,0)" xlink:href="#m"/><use transform="matrix(0.010850694444444444,0,0,0.010850694444444444,42.66493055555556,0)" xlink:href="#l"/><use transform="matrix(0.010850694444444444,0,0,0.010850694444444444,55.62065972222222,0)" xlink:href="#k"/><use transform="matrix(0.010850694444444444,0,0,0.010850694444444444,63.986545138888886,0)" xlink:href="#p"/><use transform="matrix(0.010850694444444444,0,0,0.010850694444444444,76.46484375,0)" xlink:href="#n"/><use transform="matrix(0.010850694444444444,0,0,0.010850694444444444,83.51779513888889,0)" xlink:href="#l"/></g><path d="M613 24c-304 0-509-231-509-576 0-350 205-580 509-580 305 0 511 230 511 580 0 345-206 576-511 576zm0-161c226 0 329-195 329-415 0-222-103-419-329-419-223 0-326 196-326 419 0 220 103 415 326 415" id="s"/><path d="M678-1118v154H420V0H240v-964H20v-154h220v-149c0-194 155-293 318-293 85 0 141 18 168 30l-50 154c-19-6-47-17-97-17-111 0-159 58-159 166v109h258" id="t"/><path d="M158 0v-1118h180V0H158zm91-1301c-68 0-125-53-125-119s57-119 125-119c69 0 126 53 126 119s-57 119-126 119" id="u"/><path d="M611 442c-248 0-391-105-460-228l146-94c47 65 117 165 314 165 178 0 307-82 307-266v-224h-17C863-141 792-18 576-18c-268 0-472-195-472-546 0-346 197-568 476-568 216 0 288 133 326 193h17v-179h175V29c0 289-215 413-487 413zm-5-620c203 0 314-146 314-390 0-237-108-403-314-403-213 0-319 180-319 403 0 230 109 390 319 390" id="v"/><g id="e"><use transform="matrix(0.010850694444444444,0,0,0.010850694444444444,0,0)" xlink:href="#i"/><use transform="matrix(0.010850694444444444,0,0,0.010850694444444444,16.23263888888889,0)" xlink:href="#s"/><use transform="matrix(0.010850694444444444,0,0,0.010850694444444444,29.557291666666664,0)" xlink:href="#m"/><use transform="matrix(0.010850694444444444,0,0,0.010850694444444444,42.68663194444444,0)" xlink:href="#t"/><use transform="matrix(0.010850694444444444,0,0,0.010850694444444444,50.91145833333333,0)" xlink:href="#u"/><use transform="matrix(0.010850694444444444,0,0,0.010850694444444444,56.29340277777778,0)" xlink:href="#v"/></g><path d="M180 0v-1490h190v1322h690V0H180" id="w"/><path d="M180 0v-1490h270l367 940c28 72 75 218 110 339 35-117 81-264 110-339l362-940h271V0h-187c2-448-5-837 7-1287-157 497-311 829-483 1287H842C666-458 514-784 354-1284c12 438 5 843 7 1284H180" id="x"/><g id="f"><use transform="matrix(0.010850694444444444,0,0,0.010850694444444444,0,0)" xlink:href="#w"/><use transform="matrix(0.010850694444444444,0,0,0.010850694444444444,12.565104166666666,0)" xlink:href="#w"/><use transform="matrix(0.010850694444444444,0,0,0.010850694444444444,25.130208333333332,0)" xlink:href="#x"/></g><path d="M763 24c-353 0-583-224-583-531v-983h190v968c0 214 149 370 393 370 243 0 391-156 391-370v-968h190v983c0 307-230 531-581 531" id="y"/><path d="M158 418v-1536h174v179h20c37-59 106-193 324-193 279 0 474 222 474 576 0 356-194 580-473 580-213 0-288-135-325-197h-14v591H158zm492-555c209 0 317-186 317-421 0-232-105-413-317-413-206 0-314 166-314 413 0 249 111 421 314 421" id="z"/><path d="M577 24c-279 0-473-224-473-580 0-354 195-576 474-576 218 0 287 134 324 193h14v-551h180V0H922v-173h-20C865-111 790 24 577 24zm27-161c203 0 314-172 314-421 0-247-108-413-314-413-212 0-317 181-317 413 0 235 108 421 317 421" id="A"/><g id="g"><use transform="matrix(0.010850694444444444,0,0,0.010850694444444444,0,0)" xlink:href="#y"/><use transform="matrix(0.010850694444444444,0,0,0.010850694444444444,16.536458333333332,0)" xlink:href="#z"/><use transform="matrix(0.010850694444444444,0,0,0.010850694444444444,30.143229166666664,0)" xlink:href="#A"/><use transform="matrix(0.010850694444444444,0,0,0.010850694444444444,43.75,0)" xlink:href="#p"/><use transform="matrix(0.010850694444444444,0,0,0.010850694444444444,56.22829861111112,0)" xlink:href="#n"/><use transform="matrix(0.010850694444444444,0,0,0.010850694444444444,63.28125000000001,0)" xlink:href="#l"/><use transform="matrix(0.010850694444444444,0,0,0.010850694444444444,76.23697916666667,0)" xlink:href="#A"/></g><g id="h"><use transform="matrix(0.010850694444444444,0,0,0.010850694444444444,0,0)" xlink:href="#i"/><use transform="matrix(0.010850694444444444,0,0,0.010850694444444444,16.23263888888889,0)" xlink:href="#s"/><use transform="matrix(0.010850694444444444,0,0,0.010850694444444444,29.557291666666664,0)" xlink:href="#m"/><use transform="matrix(0.010850694444444444,0,0,0.010850694444444444,42.68663194444444,0)" xlink:href="#t"/><use transform="matrix(0.010850694444444444,0,0,0.010850694444444444,50.91145833333333,0)" xlink:href="#u"/><use transform="matrix(0.010850694444444444,0,0,0.010850694444444444,56.29340277777778,0)" xlink:href="#v"/></g></defs></g></svg>