<svg xmlns="http://www.w3.org/2000/svg" xmlns:xlink="http://www.w3.org/1999/xlink" xmlns:lucid="lucid" width="1602" height="842"><g transform="translate(-39 -39)" lucid:page-tab-id="d0TjJjW.r-jn"><path d="M0 0h1760v1360H0z" fill="#fff"/><path d="M40 46a6 6 0 0 1 6-6h548a6 6 0 0 1 6 6v828a6 6 0 0 1-6 6H46a6 6 0 0 1-6-6z" stroke="#000" stroke-width="2" fill-opacity="0"/><use xlink:href="#a" transform="matrix(1,0,0,1,45,45) translate(0 21.52777777777778)"/><use xlink:href="#b" transform="matrix(1,0,0,1,45,45) translate(59.36414930555556 21.52777777777778)"/><path d="M440 200c0 66.27-53.73 120-120 120-66.27 0-120-53.73-120-120 0-66.27 53.73-120 120-120 66.27 0 120 53.73 120 120z" stroke="#3a414a" stroke-width="2" fill="#f2f2ff"/><use xlink:href="#c" transform="matrix(1,0,0,1,205,85) translate(76.02430555555556 122.15277777777777)"/><path d="M280 500c0 55.23-44.77 100-100 100S80 555.23 80 500s44.77-100 100-100 100 44.77 100 100z" stroke="#3a414a" stroke-width="2" fill="#fcfcca"/><use xlink:href="#d" transform="matrix(1,0,0,1,85,405.00000000000006) translate(18.985460069444443 104.65277777777777)"/><use xlink:href="#e" transform="matrix(1,0,0,1,85,405.00000000000006) translate(81.35525173611111 104.65277777777777)"/><use xlink:href="#b" transform="matrix(1,0,0,1,85,405.00000000000006) translate(161.97591145833331 104.65277777777777)"/><path d="M260 760c0 44.18-35.82 80-80 80s-80-35.82-80-80 35.82-80 80-80 80 35.82 80 80z" stroke="#3a414a" stroke-width="2" fill="#fcfcca"/><use xlink:href="#f" transform="matrix(1,0,0,1,105,685) translate(42.610677083333336 82.46527777777777)"/><path d="M560 500c0 55.23-44.77 100-100 100s-100-44.77-100-100 44.77-100 100-100 100 44.77 100 100z" stroke="#3a414a" stroke-width="2" fill="#edf5ff"/><use xlink:href="#d" transform="matrix(1,0,0,1,365,405.00000000000006) translate(16.728515625 104.65277777777777)"/><use xlink:href="#e" transform="matrix(1,0,0,1,365,405.00000000000006) translate(79.09830729166666 104.65277777777777)"/><use xlink:href="#g" transform="matrix(1,0,0,1,365,405.00000000000006) translate(159.71896701388889 104.65277777777777)"/><path d="M540 760c0 44.18-35.82 80-80 80s-80-35.82-80-80 35.82-80 80-80 80 35.82 80 80z" stroke="#3a414a" stroke-width="2" fill="#edf5ff"/><use xlink:href="#f" transform="matrix(1,0,0,1,385,685) translate(42.610677083333336 82.46527777777777)"/><path d="M320 322.5V354a6 6 0 0 1-6 6H186a6 6 0 0 0-6 6v12.38" stroke="#3a414a" stroke-width="3" fill="none"/><path d="M320 321h1.48v1.54h-2.96v-1.57z" stroke="#3a414a" stroke-width=".05" fill="#3a414a"/><path d="M180 394.15l-4.63-14.27h9.26z" stroke="#3a414a" stroke-width="3" fill="#3a414a"/><path d="M320 322.5V354a6 6 0 0 0 6 6h128a6 6 0 0 1 6 6v12.38" stroke="#3a414a" stroke-width="3" fill="none"/><path d="M320 321h1.48v1.54h-2.96v-1.57z" stroke="#3a414a" stroke-width=".05" fill="#3a414a"/><path d="M460 394.15l-4.63-14.27h9.26z" stroke="#3a414a" stroke-width="3" fill="#3a414a"/><path d="M180 602.5v55.88" stroke="#3a414a" stroke-width="3" fill="none"/><path d="M180 601h1.47v1.54h-2.94v-1.58z" stroke="#3a414a" stroke-width=".05" fill="#3a414a"/><path d="M180 674.15l-4.63-14.27h9.26z" stroke="#3a414a" stroke-width="3" fill="#3a414a"/><path d="M460 602.5v55.88" stroke="#3a414a" stroke-width="3" fill="none"/><path d="M460 601h1.48v1.54h-2.96v-1.58z" stroke="#3a414a" stroke-width=".05" fill="#3a414a"/><path d="M460 674.15l-4.63-14.27h9.26z" stroke="#3a414a" stroke-width="3" fill="#3a414a"/><path d="M680 46a6 6 0 0 1 6-6h308a6 6 0 0 1 6 6v828a6 6 0 0 1-6 6H686a6 6 0 0 1-6-6z" stroke="#000" stroke-width="2" fill-opacity="0"/><use xlink:href="#a" transform="matrix(1,0,0,1,685,45) translate(0 21.52777777777778)"/><use xlink:href="#g" transform="matrix(1,0,0,1,685,45) translate(59.36414930555556 21.52777777777778)"/><path d="M960 200c0 66.27-53.73 120-120 120-66.27 0-120-53.73-120-120 0-66.27 53.73-120 120-120 66.27 0 120 53.73 120 120z" stroke="#3a414a" stroke-width="2" fill="#f2f2ff"/><use xlink:href="#c" transform="matrix(1,0,0,1,725,85) translate(76.02430555555556 122.15277777777777)"/><path d="M940 500c0 55.23-44.77 100-100 100s-100-44.77-100-100 44.77-100 100-100 100 44.77 100 100z" stroke="#3a414a" stroke-width="2" fill="#e3fae3"/><use xlink:href="#d" transform="matrix(1,0,0,1,745,405.00000000000006) translate(16.728515625 104.65277777777777)"/><use xlink:href="#e" transform="matrix(1,0,0,1,745,405.00000000000006) translate(79.09830729166666 104.65277777777777)"/><use xlink:href="#g" transform="matrix(1,0,0,1,745,405.00000000000006) translate(159.71896701388889 104.65277777777777)"/><path d="M920 760c0 44.18-35.82 80-80 80s-80-35.82-80-80 35.82-80 80-80 80 35.82 80 80z" stroke="#3a414a" stroke-width="2" fill="#e3fae3"/><use xlink:href="#f" transform="matrix(1,0,0,1,765,685) translate(42.610677083333336 82.46527777777777)"/><path d="M840 322.5v55.88" stroke="#3a414a" stroke-width="3" fill="none"/><path d="M840 321h1.48v1.54h-2.96v-1.57z" stroke="#3a414a" stroke-width=".05" fill="#3a414a"/><path d="M840 394.15l-4.63-14.27h9.26z" stroke="#3a414a" stroke-width="3" fill="#3a414a"/><path d="M840 602.5v55.88" stroke="#3a414a" stroke-width="3" fill="none"/><path d="M840 601h1.48v1.54h-2.96v-1.58z" stroke="#3a414a" stroke-width=".05" fill="#3a414a"/><path d="M840 674.15l-4.63-14.27h9.26z" stroke="#3a414a" stroke-width="3" fill="#3a414a"/><path d="M1080 46a6 6 0 0 1 6-6h548a6 6 0 0 1 6 6v828a6 6 0 0 1-6 6h-548a6 6 0 0 1-6-6z" stroke="#000" stroke-width="2" fill-opacity="0"/><use xlink:href="#h" transform="matrix(1,0,0,1,1085,45) translate(0 21.52777777777778)"/><path d="M1480 200c0 66.27-53.73 120-120 120-66.27 0-120-53.73-120-120 0-66.27 53.73-120 120-120 66.27 0 120 53.73 120 120z" stroke="#3a414a" stroke-width="2" fill="#f2f2ff"/><use xlink:href="#c" transform="matrix(1,0,0,1,1245,85) translate(76.02430555555556 122.15277777777777)"/><path d="M1320 500c0 55.23-44.77 100-100 100s-100-44.77-100-100 44.77-100 100-100 100 44.77 100 100z" stroke="#3a414a" stroke-width="2" fill="#fcfcca"/><use xlink:href="#d" transform="matrix(1,0,0,1,1125,405.00000000000006) translate(18.985460069444443 104.65277777777777)"/><use xlink:href="#e" transform="matrix(1,0,0,1,1125,405.00000000000006) translate(81.35525173611111 104.65277777777777)"/><use xlink:href="#b" transform="matrix(1,0,0,1,1125,405.00000000000006) translate(161.97591145833331 104.65277777777777)"/><path d="M1300 760c0 44.18-35.82 80-80 80s-80-35.82-80-80 35.82-80 80-80 80 35.82 80 80z" stroke="#3a414a" stroke-width="2" fill="#fcfcca"/><use xlink:href="#f" transform="matrix(1,0,0,1,1145,685) translate(42.610677083333336 82.46527777777777)"/><path d="M1600 500c0 55.23-44.77 100-100 100s-100-44.77-100-100 44.77-100 100-100 100 44.77 100 100z" stroke="#3a414a" stroke-width="2" fill="#e3fae3"/><use xlink:href="#d" transform="matrix(1,0,0,1,1405,405.00000000000006) translate(16.728515625 104.65277777777777)"/><use xlink:href="#e" transform="matrix(1,0,0,1,1405,405.00000000000006) translate(79.09830729166666 104.65277777777777)"/><use xlink:href="#g" transform="matrix(1,0,0,1,1405,405.00000000000006) translate(159.71896701388889 104.65277777777777)"/><path d="M1580 760c0 44.18-35.82 80-80 80s-80-35.82-80-80 35.82-80 80-80 80 35.82 80 80z" stroke="#3a414a" stroke-width="2" fill="#e3fae3"/><use xlink:href="#f" transform="matrix(1,0,0,1,1425,685) translate(42.610677083333336 82.46527777777777)"/><path d="M1360 322.5V354a6 6 0 0 1-6 6h-128a6 6 0 0 0-6 6v12.38" stroke="#3a414a" stroke-width="3" fill="none"/><path d="M1360 321h1.47v1.54h-2.94v-1.57z" stroke="#3a414a" stroke-width=".05" fill="#3a414a"/><path d="M1220 394.15l-4.63-14.27h9.27z" stroke="#3a414a" stroke-width="3" fill="#3a414a"/><path d="M1360 322.5V354a6 6 0 0 0 6 6h128a6 6 0 0 1 6 6v12.38" stroke="#3a414a" stroke-width="3" fill="none"/><path d="M1360 321h1.47v1.54h-2.94v-1.57z" stroke="#3a414a" stroke-width=".05" fill="#3a414a"/><path d="M1500 394.15l-4.63-14.27h9.27z" stroke="#3a414a" stroke-width="3" fill="#3a414a"/><path d="M1220 602.5v55.88" stroke="#3a414a" stroke-width="3" fill="none"/><path d="M1220 601h1.47v1.54h-2.94v-1.58z" stroke="#3a414a" stroke-width=".05" fill="#3a414a"/><path d="M1220 674.15l-4.63-14.27h9.27z" stroke="#3a414a" stroke-width="3" fill="#3a414a"/><path d="M1500 602.5v55.88" stroke="#3a414a" stroke-width="3" fill="none"/><path d="M1500 601h1.47v1.54h-2.94v-1.58z" stroke="#3a414a" stroke-width=".05" fill="#3a414a"/><path d="M1500 674.15l-4.63-14.27h9.27z" stroke="#3a414a" stroke-width="3" fill="#3a414a"/><path d="M600 426a6 6 0 0 1 6-6h68a6 6 0 0 1 6 6v68a6 6 0 0 1-6 6h-68a6 6 0 0 1-6-6z" fill="none"/><g><use xlink:href="#i" transform="matrix(1,0,0,1,600,420) translate(17.945963541666664 64.58333333333334)"/></g><path d="M1000 426a6 6 0 0 1 6-6h68a6 6 0 0 1 6 6v68a6 6 0 0 1-6 6h-68a6 6 0 0 1-6-6z" fill="none"/><g><use xlink:href="#j" transform="matrix(1,0,0,1,1000,420) translate(17.945963541666664 64.58333333333334)"/></g><defs><path d="M370-1490V0H180v-1490h190" id="k"/><path d="M338-670V0H158v-1118h173l1 207c72-158 192-221 342-221 226 0 378 139 378 422V0H872v-695c0-172-96-275-252-275-161 0-282 109-282 300" id="l"/><path d="M158 418v-1536h174v179h20c37-59 106-193 324-193 279 0 474 222 474 576 0 356-194 580-473 580-213 0-288-135-325-197h-14v591H158zm492-555c209 0 317-186 317-421 0-232-105-413-317-413-206 0-314 166-314 413 0 249 111 421 314 421" id="m"/><path d="M537 14c-226 0-379-139-379-422v-710h180v695c0 172 97 275 253 275 160 0 281-109 281-300v-670h181V0H879v-209C806-46 684 14 537 14" id="n"/><path d="M598-1118v154H368v674c0 100 37 144 132 144 23 0 62-6 92-12L629-6c-37 13-88 20-134 20-193 0-307-107-307-290v-688H20v-154h168v-266h180v266h230" id="o"/><g id="a"><use transform="matrix(0.010850694444444444,0,0,0.010850694444444444,0,0)" xlink:href="#k"/><use transform="matrix(0.010850694444444444,0,0,0.010850694444444444,5.967881944444445,0)" xlink:href="#l"/><use transform="matrix(0.010850694444444444,0,0,0.010850694444444444,19.09722222222222,0)" xlink:href="#m"/><use transform="matrix(0.010850694444444444,0,0,0.010850694444444444,32.70399305555556,0)" xlink:href="#n"/><use transform="matrix(0.010850694444444444,0,0,0.010850694444444444,45.84418402777778,0)" xlink:href="#o"/></g><path d="M653-1490V0H466v-1314h-10L96-1047v-204l324-239h233" id="p"/><use transform="matrix(0.010850694444444444,0,0,0.010850694444444444,0,0)" xlink:href="#p" id="b"/><path d="M657 26c-323 0-524-166-541-416h195c15 169 171 246 346 246 202 0 356-106 356-265 5-203-294-238-475-293-239-73-380-191-380-389 0-252 224-419 512-419 294 0 499 171 508 396H992c-17-145-151-228-328-228-193 0-321 102-321 242 0 156 175 211 284 241l149 41c160 44 422 134 422 412 0 244-197 432-541 432" id="q"/><path d="M140 405l46-156c120 36 205 19 263-150l32-93L54-1118h197c107 313 237 620 324 950 87-331 219-637 326-950h196L606 167c-68 178-176 259-334 259-64 0-113-12-132-21" id="r"/><path d="M538 24C308 24 148-78 108-271l171-41c32 123 123 178 257 178 156 0 256-77 256-169 0-77-54-128-164-154l-186-44c-203-48-300-148-300-305 0-192 176-326 414-326 230 0 351 112 402 269l-163 42c-31-80-94-158-238-158-133 0-233 69-233 162 0 83 57 129 188 160l169 40c203 48 298 149 298 302 0 196-179 339-441 339" id="s"/><path d="M628 24c-324 0-524-230-524-574 0-343 198-582 503-582 237 0 487 146 487 559v75H286c9 234 145 362 343 362 132 0 231-58 273-172l174 48C1024-91 857 24 628 24zM287-650h624c-17-190-120-322-304-322-192 0-309 151-320 322" id="t"/><path d="M158 0v-1118h175l1 205c55-151 181-225 313-225 147 0 245 90 285 228 53-141 190-228 352-228 194 0 352 125 352 384V0h-181v-749c0-161-105-225-225-225-151 0-243 103-243 244V0H807v-767c0-124-93-207-219-207-131 0-250 92-250 270V0H158" id="u"/><g id="c"><use transform="matrix(0.010850694444444444,0,0,0.010850694444444444,0,0)" xlink:href="#q"/><use transform="matrix(0.010850694444444444,0,0,0.010850694444444444,14.2578125,0)" xlink:href="#r"/><use transform="matrix(0.010850694444444444,0,0,0.010850694444444444,26.74696180555556,0)" xlink:href="#s"/><use transform="matrix(0.010850694444444444,0,0,0.010850694444444444,38.4765625,0)" xlink:href="#o"/><use transform="matrix(0.010850694444444444,0,0,0.010850694444444444,45.5295138888889,0)" xlink:href="#t"/><use transform="matrix(0.010850694444444444,0,0,0.010850694444444444,58.48524305555555,0)" xlink:href="#u"/></g><path d="M783 20c-382 0-661-292-661-764 0-473 279-766 661-766 302 0 548 182 601 489h-190c-42-204-217-313-411-313-268 0-476 208-476 590 0 381 209 588 476 588 195 0 369-110 411-313h190c-52 303-296 489-601 489" id="v"/><path d="M613 24c-304 0-509-231-509-576 0-350 205-580 509-580 305 0 511 230 511 580 0 345-206 576-511 576zm0-161c226 0 329-195 329-415 0-222-103-419-329-419-223 0-326 196-326 419 0 220 103 415 326 415" id="w"/><path d="M577 24c-279 0-473-224-473-580 0-354 195-576 474-576 218 0 287 134 324 193h14v-551h180V0H922v-173h-20C865-111 790 24 577 24zm27-161c203 0 314-172 314-421 0-247-108-413-314-413-212 0-317 181-317 413 0 235 108 421 317 421" id="x"/><g id="d"><use transform="matrix(0.010850694444444444,0,0,0.010850694444444444,0,0)" xlink:href="#v"/><use transform="matrix(0.010850694444444444,0,0,0.010850694444444444,16.23263888888889,0)" xlink:href="#w"/><use transform="matrix(0.010850694444444444,0,0,0.010850694444444444,29.557291666666664,0)" xlink:href="#x"/><use transform="matrix(0.010850694444444444,0,0,0.010850694444444444,43.1640625,0)" xlink:href="#t"/></g><path d="M158 0v-1118h174v172h12c41-113 157-188 290-188 26 0 70 2 91 3v181c-11-2-60-10-108-10-161 0-279 109-279 260V0H158" id="y"/><path d="M613 24c-304 0-509-231-509-576 0-350 205-580 509-580 216 0 392 114 453 309l-173 49c-33-115-133-197-280-197-223 0-326 196-326 419 0 220 103 415 326 415 150 0 252-85 285-206l172 49C1010-95 832 24 613 24" id="z"/><g id="e"><use transform="matrix(0.010850694444444444,0,0,0.010850694444444444,0,0)" xlink:href="#q"/><use transform="matrix(0.010850694444444444,0,0,0.010850694444444444,14.2578125,0)" xlink:href="#w"/><use transform="matrix(0.010850694444444444,0,0,0.010850694444444444,27.58246527777778,0)" xlink:href="#n"/><use transform="matrix(0.010850694444444444,0,0,0.010850694444444444,40.72265625,0)" xlink:href="#y"/><use transform="matrix(0.010850694444444444,0,0,0.010850694444444444,48.71961805555556,0)" xlink:href="#z"/><use transform="matrix(0.010850694444444444,0,0,0.010850694444444444,61.41493055555555,0)" xlink:href="#t"/></g><path d="M180 0v-1490h901v168H370v510h643v168H370V0H180" id="A"/><path d="M158 0v-1118h180V0H158zm91-1301c-68 0-125-53-125-119s57-119 125-119c69 0 126 53 126 119s-57 119-126 119" id="B"/><path d="M338-1490V0H158v-1490h180" id="C"/><path d="M218-607c0-325 108-727 258-974h175c-155 315-250 682-250 974 0 265 78 531 250 886H476C306-10 218-315 218-607" id="D"/><path d="M96 279C273-86 346-350 346-607c0-292-95-659-250-974h175c150 246 258 650 258 974 0 297-91 602-258 886H96" id="E"/><g id="f"><use transform="matrix(0.010850694444444444,0,0,0.010850694444444444,0,0)" xlink:href="#A"/><use transform="matrix(0.010850694444444444,0,0,0.010850694444444444,13.118489583333332,0)" xlink:href="#B"/><use transform="matrix(0.010850694444444444,0,0,0.010850694444444444,18.50043402777778,0)" xlink:href="#C"/><use transform="matrix(0.010850694444444444,0,0,0.010850694444444444,23.88237847222222,0)" xlink:href="#t"/><use transform="matrix(0.010850694444444444,0,0,0.010850694444444444,36.838107638888886,0)" xlink:href="#D"/><use transform="matrix(0.010850694444444444,0,0,0.010850694444444444,44.943576388888886,0)" xlink:href="#s"/><use transform="matrix(0.010850694444444444,0,0,0.010850694444444444,56.67317708333333,0)" xlink:href="#E"/></g><path d="M154 0v-137l495-537c165-179 249-281 249-418 0-156-121-253-280-253-170 0-278 110-278 278H158c0-264 200-443 465-443 266 0 455 183 455 416 0 161-73 288-336 568L416-179v12h687V0H154" id="F"/><use transform="matrix(0.010850694444444444,0,0,0.010850694444444444,0,0)" xlink:href="#F" id="g"/><path d="M784 20c-382 0-662-292-662-764 0-473 280-766 662-766s660 293 660 766c0 472-278 764-660 764zm0-176c266 0 475-207 475-588 0-383-209-590-475-590-268 0-477 208-477 590 0 380 209 588 477 588" id="G"/><g id="h"><use transform="matrix(0.010850694444444444,0,0,0.010850694444444444,0,0)" xlink:href="#G"/><use transform="matrix(0.010850694444444444,0,0,0.010850694444444444,16.9921875,0)" xlink:href="#n"/><use transform="matrix(0.010850694444444444,0,0,0.010850694444444444,30.13237847222222,0)" xlink:href="#o"/><use transform="matrix(0.010850694444444444,0,0,0.010850694444444444,37.40234375,0)" xlink:href="#m"/><use transform="matrix(0.010850694444444444,0,0,0.010850694444444444,51.00911458333333,0)" xlink:href="#n"/><use transform="matrix(0.010850694444444444,0,0,0.010850694444444444,64.14930555555554,0)" xlink:href="#o"/></g><path d="M593-100v-404H195v-159h398v-403h169v403h398v159H762v404H593" id="H"/><use transform="matrix(0.032552083333333336,0,0,0.032552083333333336,0,0)" xlink:href="#H" id="i"/><path d="M226-283v-166h904v166H226zm0-434v-166h904v166H226" id="I"/><use transform="matrix(0.032552083333333336,0,0,0.032552083333333336,0,0)" xlink:href="#I" id="j"/></defs></g></svg>