<svg viewBox="0 0 576 384" fill="none" xmlns="http://www.w3.org/2000/svg">
<title>See How Hyaline Works</title>
<rect width="576" height="384" fill="white"/>
<mask id="mask0_1_36" style="mask-type:alpha" maskUnits="userSpaceOnUse" x="77" y="114" width="40" height="40">
<path d="M83.9863 134.408V132.515C85.2125 132.515 86.0673 132.266 86.5506 131.768C87.0411 131.263 87.2863 130.445 87.2863 129.312V126.553C87.2863 125.334 87.4378 124.335 87.7408 123.556C88.051 122.777 88.5018 122.171 89.0933 121.738C89.6848 121.305 90.4061 121.006 91.2572 120.84C92.1084 120.667 93.075 120.581 94.157 120.581V123.588C93.3058 123.588 92.653 123.707 92.1986 123.946C91.7441 124.176 91.4304 124.533 91.2572 125.017C91.0913 125.5 91.0084 126.117 91.0084 126.867V130.416C91.0084 130.971 90.9146 131.491 90.7271 131.974C90.5395 132.457 90.1969 132.883 89.6992 133.251C89.2015 133.611 88.491 133.896 87.5677 134.105C86.6516 134.307 85.4578 134.408 83.9863 134.408ZM94.157 148.074C93.075 148.074 92.1084 147.987 91.2572 147.814C90.4061 147.648 89.6848 147.349 89.0933 146.916C88.5018 146.483 88.051 145.877 87.7408 145.098C87.4378 144.319 87.2863 143.32 87.2863 142.101V139.353C87.2863 138.221 87.0411 137.405 86.5506 136.908C86.0673 136.403 85.2125 136.15 83.9863 136.15V134.257C85.4578 134.257 86.6516 134.361 87.5677 134.571C88.491 134.773 89.2015 135.058 89.6992 135.425C90.1969 135.786 90.5395 136.208 90.7271 136.691C90.9146 137.175 91.0084 137.69 91.0084 138.239V141.787C91.0084 142.538 91.0913 143.154 91.2572 143.638C91.4304 144.121 91.7441 144.482 92.1986 144.72C92.653 144.958 93.3058 145.077 94.157 145.077V148.074ZM83.9863 136.15V132.515H87.4162V136.15H83.9863ZM109.855 134.257V136.15C108.629 136.15 107.77 136.403 107.28 136.908C106.796 137.405 106.555 138.221 106.555 139.353V142.101C106.555 143.32 106.4 144.319 106.089 145.098C105.786 145.877 105.339 146.483 104.748 146.916C104.156 147.349 103.435 147.648 102.584 147.814C101.733 147.987 100.766 148.074 99.6841 148.074V145.077C100.535 145.077 101.188 144.958 101.642 144.72C102.097 144.482 102.407 144.121 102.573 143.638C102.746 143.154 102.833 142.538 102.833 141.787V138.239C102.833 137.69 102.926 137.175 103.114 136.691C103.302 136.208 103.644 135.786 104.142 135.425C104.64 135.058 105.346 134.773 106.263 134.571C107.186 134.361 108.383 134.257 109.855 134.257ZM99.6841 120.581C100.766 120.581 101.733 120.667 102.584 120.84C103.435 121.006 104.156 121.305 104.748 121.738C105.339 122.171 105.786 122.777 106.089 123.556C106.4 124.335 106.555 125.334 106.555 126.553V129.312C106.555 130.445 106.796 131.263 107.28 131.768C107.77 132.266 108.629 132.515 109.855 132.515V134.408C108.383 134.408 107.186 134.307 106.263 134.105C105.346 133.896 104.64 133.611 104.142 133.251C103.644 132.883 103.302 132.457 103.114 131.974C102.926 131.491 102.833 130.971 102.833 130.416V126.867C102.833 126.117 102.746 125.5 102.573 125.017C102.407 124.533 102.097 124.176 101.642 123.946C101.188 123.707 100.535 123.588 99.6841 123.588V120.581ZM109.855 132.515V136.15H106.425V132.515H109.855Z" fill="black"/>
<path d="M114.969 114C116.004 114 116.844 114.839 116.844 115.875V151.969C116.844 152.94 116.106 153.738 115.16 153.834L114.969 153.844H78.875L78.6836 153.834C77.8009 153.744 77.0993 153.043 77.0098 152.16L77 151.969V115.875C77 114.839 77.8395 114 78.875 114H114.969ZM80.75 116.812L80.6543 116.817C80.1815 116.865 79.8125 117.265 79.8125 117.75V150.094C79.8125 150.612 80.2322 151.031 80.75 151.031H113.094C113.579 151.031 113.978 150.662 114.026 150.189L114.031 150.094V117.75C114.031 117.265 113.662 116.865 113.189 116.817L113.094 116.812H80.75Z" fill="black"/>
</mask>
<g mask="url(#mask0_1_36)">
<path d="M98.7969 153.844H77V114H116.844V136.031H98.7969V153.844Z" fill="black"/>
</g>
<g clip-path="url(#clip0_1_36)">
<path d="M126.688 134.156V136.969H99.9688V171.188H134.188V144.469H137V172.125C137 173.096 136.262 173.894 135.316 173.99L135.125 174H99.0312L98.8398 173.99C97.9572 173.901 97.2555 173.199 97.166 172.316L97.1562 172.125V136.031C97.1562 134.996 97.9957 134.156 99.0312 134.156H126.688Z" fill="black"/>
<path d="M126.48 145.112C126.221 145.112 126.011 144.902 126.011 144.643L126.011 136.028C126.011 135.611 126.515 135.401 126.811 135.696L135.459 144.311C135.755 144.606 135.546 145.112 135.129 145.112L126.48 145.112Z" stroke="black" stroke-width="2.8125"/>
<line x1="113.914" y1="166.031" x2="129.852" y2="166.031" stroke="black" stroke-width="2.8125" stroke-linecap="round"/>
<line x1="113.914" y1="158.062" x2="129.852" y2="158.062" stroke="black" stroke-width="2.8125" stroke-linecap="round"/>
<line x1="113.914" y1="150.094" x2="129.852" y2="150.094" stroke="black" stroke-width="2.8125" stroke-linecap="round"/>
<line x1="113.914" y1="142.125" x2="121.133" y2="142.125" stroke="black" stroke-width="2.8125" stroke-linecap="round"/>
<line x1="103.367" y1="134.977" x2="103.367" y2="172.711" stroke="black" stroke-width="2.8125"/>
<line x1="108.172" y1="134.977" x2="108.172" y2="172.711" stroke="black" stroke-width="2.8125"/>
</g>
<path d="M160.06 159V129.455H165.412V141.962H179.103V129.455H184.469V159H179.103V146.449H165.412V159H160.06ZM197.288 159.433C195.124 159.433 193.248 158.957 191.662 158.005C190.075 157.052 188.844 155.72 187.968 154.008C187.103 152.296 186.67 150.296 186.67 148.007C186.67 145.718 187.103 143.713 187.968 141.991C188.844 140.27 190.075 138.933 191.662 137.981C193.248 137.028 195.124 136.552 197.288 136.552C199.452 136.552 201.327 137.028 202.914 137.981C204.501 138.933 205.727 140.27 206.593 141.991C207.468 143.713 207.906 145.718 207.906 148.007C207.906 150.296 207.468 152.296 206.593 154.008C205.727 155.72 204.501 157.052 202.914 158.005C201.327 158.957 199.452 159.433 197.288 159.433ZM197.317 155.249C198.49 155.249 199.471 154.927 200.26 154.283C201.048 153.629 201.635 152.753 202.02 151.657C202.414 150.561 202.611 149.339 202.611 147.993C202.611 146.636 202.414 145.41 202.02 144.314C201.635 143.208 201.048 142.328 200.26 141.674C199.471 141.02 198.49 140.693 197.317 140.693C196.115 140.693 195.114 141.02 194.316 141.674C193.527 142.328 192.936 143.208 192.542 144.314C192.157 145.41 191.964 146.636 191.964 147.993C191.964 149.339 192.157 150.561 192.542 151.657C192.936 152.753 193.527 153.629 194.316 154.283C195.114 154.927 196.115 155.249 197.317 155.249ZM213.839 159L207.578 136.841H212.902L216.797 152.422H216.999L220.98 136.841H226.246L230.228 152.335H230.444L234.282 136.841H239.619L233.344 159H227.905L223.75 144.025H223.447L219.292 159H213.839ZM248.698 159V129.455H254.051V141.962H267.741V129.455H273.108V159H267.741V146.449H254.051V159H248.698ZM279.507 167.31C278.795 167.31 278.136 167.252 277.53 167.137C276.934 167.031 276.458 166.906 276.102 166.761L277.314 162.693C278.074 162.914 278.752 163.02 279.348 163.011C279.944 163.001 280.469 162.813 280.921 162.448C281.382 162.092 281.772 161.496 282.089 160.659L282.536 159.462L274.501 136.841H280.041L285.148 153.576H285.378L290.5 136.841H296.054L287.182 161.683C286.768 162.857 286.22 163.862 285.537 164.698C284.854 165.545 284.017 166.189 283.027 166.632C282.046 167.084 280.872 167.31 279.507 167.31ZM302.972 159.447C301.568 159.447 300.303 159.197 299.178 158.697C298.062 158.187 297.177 157.437 296.523 156.447C295.879 155.456 295.557 154.234 295.557 152.782C295.557 151.532 295.788 150.498 296.249 149.68C296.711 148.863 297.341 148.209 298.139 147.718C298.937 147.228 299.837 146.858 300.837 146.608C301.847 146.348 302.89 146.16 303.967 146.045C305.266 145.91 306.319 145.79 307.127 145.684C307.935 145.569 308.521 145.396 308.887 145.165C309.262 144.925 309.45 144.554 309.45 144.054V143.968C309.45 142.881 309.127 142.039 308.483 141.443C307.839 140.847 306.91 140.549 305.699 140.549C304.419 140.549 303.405 140.827 302.655 141.385C301.914 141.943 301.414 142.602 301.154 143.362L296.278 142.669C296.663 141.323 297.298 140.197 298.182 139.293C299.067 138.38 300.149 137.697 301.428 137.245C302.708 136.783 304.121 136.552 305.67 136.552C306.737 136.552 307.8 136.677 308.858 136.927C309.916 137.178 310.883 137.591 311.758 138.168C312.633 138.736 313.335 139.51 313.864 140.491C314.403 141.472 314.672 142.698 314.672 144.17V159H309.651V155.956H309.478C309.161 156.572 308.714 157.149 308.137 157.687C307.569 158.216 306.853 158.644 305.987 158.971C305.131 159.289 304.126 159.447 302.972 159.447ZM304.328 155.61C305.376 155.61 306.285 155.403 307.055 154.989C307.824 154.566 308.416 154.008 308.829 153.316C309.252 152.623 309.464 151.869 309.464 151.051V148.44C309.3 148.574 309.022 148.699 308.627 148.815C308.242 148.93 307.81 149.031 307.329 149.118C306.848 149.204 306.372 149.281 305.901 149.349C305.429 149.416 305.021 149.474 304.674 149.522C303.895 149.628 303.198 149.801 302.582 150.041C301.967 150.282 301.481 150.618 301.125 151.051C300.77 151.474 300.592 152.022 300.592 152.696C300.592 153.657 300.943 154.384 301.645 154.874C302.347 155.365 303.241 155.61 304.328 155.61ZM322.708 129.455V159H317.486V129.455H322.708ZM325.641 159V136.841H330.863V159H325.641ZM328.266 133.696C327.439 133.696 326.728 133.422 326.131 132.874C325.535 132.316 325.237 131.647 325.237 130.868C325.237 130.08 325.535 129.411 326.131 128.863C326.728 128.305 327.439 128.026 328.266 128.026C329.103 128.026 329.815 128.305 330.402 128.863C330.998 129.411 331.296 130.08 331.296 130.868C331.296 131.647 330.998 132.316 330.402 132.874C329.815 133.422 329.103 133.696 328.266 133.696ZM339.018 146.016V159H333.796V136.841H338.788V140.606H339.047C339.557 139.366 340.37 138.38 341.485 137.649C342.611 136.918 344 136.552 345.655 136.552C347.184 136.552 348.516 136.879 349.651 137.533C350.795 138.187 351.68 139.135 352.305 140.375C352.94 141.616 353.252 143.121 353.243 144.891V159H348.02V145.699C348.02 144.218 347.636 143.059 346.866 142.222C346.107 141.385 345.053 140.967 343.707 140.967C342.793 140.967 341.981 141.169 341.269 141.573C340.567 141.967 340.014 142.539 339.61 143.29C339.215 144.04 339.018 144.949 339.018 146.016ZM365.924 159.433C363.703 159.433 361.784 158.971 360.168 158.048C358.562 157.115 357.326 155.797 356.461 154.095C355.595 152.383 355.162 150.368 355.162 148.05C355.162 145.771 355.595 143.77 356.461 142.049C357.336 140.318 358.557 138.971 360.125 138.009C361.693 137.038 363.534 136.552 365.65 136.552C367.016 136.552 368.305 136.774 369.517 137.216C370.738 137.649 371.815 138.322 372.748 139.236C373.691 140.149 374.431 141.313 374.97 142.727C375.508 144.131 375.778 145.805 375.778 147.747V149.349H357.615V145.829H370.772C370.762 144.828 370.546 143.939 370.122 143.16C369.699 142.371 369.108 141.751 368.348 141.299C367.598 140.847 366.723 140.621 365.722 140.621C364.655 140.621 363.717 140.88 362.909 141.4C362.101 141.909 361.471 142.583 361.019 143.419C360.577 144.247 360.351 145.155 360.341 146.146V149.219C360.341 150.508 360.577 151.614 361.048 152.537C361.519 153.451 362.178 154.153 363.025 154.643C363.871 155.124 364.862 155.365 365.996 155.365C366.756 155.365 367.444 155.259 368.059 155.047C368.675 154.826 369.209 154.504 369.661 154.081C370.113 153.657 370.454 153.133 370.685 152.508L375.561 153.056C375.253 154.345 374.667 155.47 373.801 156.432C372.945 157.384 371.849 158.125 370.512 158.654C369.175 159.173 367.646 159.433 365.924 159.433ZM391.846 159L383.508 129.455H389.264L394.587 151.166H394.861L400.545 129.455H405.782L411.481 151.181H411.74L417.064 129.455H422.82L414.481 159H409.201L403.286 138.269H403.056L397.126 159H391.846ZM431.267 159.433C429.103 159.433 427.228 158.957 425.641 158.005C424.054 157.052 422.823 155.72 421.948 154.008C421.082 152.296 420.649 150.296 420.649 148.007C420.649 145.718 421.082 143.713 421.948 141.991C422.823 140.27 424.054 138.933 425.641 137.981C427.228 137.028 429.103 136.552 431.267 136.552C433.431 136.552 435.307 137.028 436.894 137.981C438.48 138.933 439.707 140.27 440.572 141.991C441.448 143.713 441.885 145.718 441.885 148.007C441.885 150.296 441.448 152.296 440.572 154.008C439.707 155.72 438.48 157.052 436.894 158.005C435.307 158.957 433.431 159.433 431.267 159.433ZM431.296 155.249C432.469 155.249 433.45 154.927 434.239 154.283C435.028 153.629 435.614 152.753 435.999 151.657C436.393 150.561 436.591 149.339 436.591 147.993C436.591 146.636 436.393 145.41 435.999 144.314C435.614 143.208 435.028 142.328 434.239 141.674C433.45 141.02 432.469 140.693 431.296 140.693C430.094 140.693 429.094 141.02 428.295 141.674C427.507 142.328 426.915 143.208 426.521 144.314C426.136 145.41 425.944 146.636 425.944 147.993C425.944 149.339 426.136 150.561 426.521 151.657C426.915 152.753 427.507 153.629 428.295 154.283C429.094 154.927 430.094 155.249 431.296 155.249ZM443.88 159V136.841H448.944V140.534H449.175C449.579 139.255 450.271 138.269 451.252 137.577C452.243 136.875 453.373 136.524 454.642 136.524C454.931 136.524 455.253 136.538 455.609 136.567C455.974 136.586 456.277 136.62 456.518 136.668V141.472C456.297 141.395 455.946 141.328 455.465 141.27C454.993 141.203 454.537 141.169 454.094 141.169C453.142 141.169 452.286 141.376 451.526 141.789C450.776 142.193 450.185 142.756 449.752 143.477C449.319 144.198 449.103 145.03 449.103 145.973V159H443.88ZM462.311 152.046L462.296 145.742H463.133L471.096 136.841H477.199L467.403 147.747H466.321L462.311 152.046ZM457.55 159V129.455H462.772V159H457.55ZM471.457 159L464.244 148.916L467.764 145.237L477.704 159H471.457ZM495.755 142.698L490.995 143.217C490.86 142.737 490.624 142.285 490.288 141.861C489.961 141.438 489.518 141.097 488.961 140.837C488.403 140.577 487.72 140.448 486.912 140.448C485.825 140.448 484.911 140.683 484.171 141.154C483.44 141.626 483.079 142.236 483.089 142.987C483.079 143.631 483.315 144.155 483.796 144.559C484.286 144.963 485.094 145.295 486.219 145.555L489.999 146.362C492.096 146.814 493.654 147.531 494.673 148.512C495.702 149.493 496.222 150.777 496.231 152.364C496.222 153.758 495.813 154.989 495.005 156.057C494.207 157.115 493.096 157.942 491.673 158.538C490.249 159.135 488.614 159.433 486.768 159.433C484.055 159.433 481.872 158.865 480.218 157.73C478.564 156.586 477.578 154.994 477.261 152.955L482.353 152.465C482.584 153.465 483.074 154.22 483.825 154.73C484.575 155.239 485.551 155.494 486.753 155.494C487.994 155.494 488.989 155.239 489.74 154.73C490.499 154.22 490.879 153.59 490.879 152.84C490.879 152.205 490.634 151.681 490.143 151.267C489.663 150.854 488.912 150.536 487.893 150.315L484.113 149.522C481.988 149.079 480.415 148.334 479.396 147.286C478.376 146.228 477.871 144.891 477.881 143.275C477.871 141.909 478.242 140.726 478.992 139.726C479.752 138.716 480.805 137.937 482.151 137.389C483.507 136.831 485.07 136.552 486.84 136.552C489.437 136.552 491.48 137.105 492.971 138.211C494.471 139.317 495.4 140.813 495.755 142.698Z" fill="black"/>
<defs>
<clipPath id="clip0_1_36">
<rect width="39.8438" height="39.8438" fill="white" transform="translate(97.1562 134.156)"/>
</clipPath>
</defs>
</svg>
