<svg width="512" height="512" viewBox="0 0 512 512" fill="none" xmlns="http://www.w3.org/2000/svg">
<mask id="mask0_1_3" style="mask-type:alpha" maskUnits="userSpaceOnUse" x="0" y="0" width="340" height="340">
<path d="M59.6163 172.551V156.393C70.0803 156.393 77.3744 154.27 81.4984 150.023C85.684 145.714 87.7768 138.728 87.7768 129.064V105.52C87.7768 95.1174 89.0695 86.5923 91.6547 79.9446C94.3015 73.2969 98.1485 68.1264 103.196 64.4332C108.243 60.7401 114.399 58.1856 121.662 56.7699C128.925 55.2926 137.173 54.554 146.406 54.554V80.2216C139.143 80.2216 133.572 81.2372 129.694 83.2685C125.817 85.2382 123.139 88.285 121.662 92.4091C120.246 96.5331 119.538 101.796 119.538 108.197V138.482C119.538 143.221 118.738 147.653 117.138 151.777C115.537 155.901 112.613 159.533 108.366 162.672C104.119 165.75 98.0562 168.181 90.1774 169.966C82.3602 171.689 72.1732 172.551 59.6163 172.551ZM146.406 289.163C137.173 289.163 128.925 288.425 121.662 286.947C114.399 285.532 108.243 282.977 103.196 279.284C98.1485 275.591 94.3015 270.42 91.6547 263.773C89.0695 257.125 87.7768 248.6 87.7768 238.197V214.746C87.7768 205.082 85.684 198.126 81.4984 193.879C77.3744 189.571 70.0803 187.416 59.6163 187.416V171.259C72.1732 171.259 82.3602 172.151 90.1774 173.936C98.0562 175.66 104.119 178.091 108.366 181.23C112.613 184.308 115.537 187.909 117.138 192.033C118.738 196.157 119.538 200.558 119.538 205.236V235.52C119.538 241.921 120.246 247.184 121.662 251.308C123.139 255.432 125.817 258.51 129.694 260.541C133.572 262.572 139.143 263.588 146.406 263.588V289.163ZM59.6163 187.416V156.393H88.8848V187.416H59.6163ZM280.361 171.259V187.416C269.897 187.416 262.572 189.571 258.386 193.879C254.262 198.126 252.2 205.082 252.2 214.746V238.197C252.2 248.6 250.877 257.125 248.23 263.773C245.645 270.42 241.828 275.591 236.781 279.284C231.734 282.977 225.578 285.532 218.315 286.947C211.052 288.425 202.804 289.163 193.571 289.163V263.588C200.834 263.588 206.405 262.572 210.282 260.541C214.16 258.51 216.807 255.432 218.223 251.308C219.7 247.184 220.439 241.921 220.439 235.52V205.236C220.439 200.558 221.239 196.157 222.839 192.033C224.44 187.909 227.363 184.308 231.611 181.23C235.858 178.091 241.89 175.66 249.707 173.936C257.586 172.151 267.804 171.259 280.361 171.259ZM193.571 54.554C202.804 54.554 211.052 55.2926 218.315 56.7699C225.578 58.1856 231.734 60.7401 236.781 64.4332C241.828 68.1264 245.645 73.2969 248.23 79.9446C250.877 86.5923 252.2 95.1174 252.2 105.52V129.064C252.2 138.728 254.262 145.714 258.386 150.023C262.572 154.27 269.897 156.393 280.361 156.393V172.551C267.804 172.551 257.586 171.689 249.707 169.966C241.89 168.181 235.858 165.75 231.611 162.672C227.363 159.533 224.44 155.901 222.839 151.777C221.239 147.653 220.439 143.221 220.439 138.482V108.197C220.439 101.796 219.7 96.5331 218.223 92.4091C216.807 88.285 214.16 85.2382 210.282 83.2685C206.405 81.2372 200.834 80.2216 193.571 80.2216V54.554ZM280.361 156.393V187.416H251.092V156.393H280.361Z" fill="black"/>
<path d="M324 0C332.837 0 340 7.16344 340 16V324C340 332.698 333.059 339.776 324.413 339.995L324 340H16L15.5869 339.995C7.07854 339.779 0.220502 332.921 0.00488281 324.413L0 324V16C0 7.16344 7.16344 1.69118e-07 16 0H324ZM32 24L31.5879 24.0107C27.3611 24.2252 24 27.7199 24 32V308C24 312.418 27.5817 316 32 316H308C312.28 316 315.775 312.639 315.989 308.412L316 308V32C316 27.7199 312.639 24.2252 308.412 24.0107L308 24H32Z" fill="black"/>
</mask>
<g mask="url(#mask0_1_3)">
<path d="M186 340H0V0H340V188H186V340Z" fill="black"/>
</g>
<g clip-path="url(#clip0_1_3)">
<path d="M424 172V196H196V488H488V260H512V496C512 504.698 505.059 511.776 496.413 511.995L496 512H188L187.587 511.995C179.079 511.779 172.221 504.921 172.005 496.413L172 496V188C172 179.163 179.163 172 188 172H424Z" fill="black"/>
<path d="M422.23 265.487C420.021 265.487 418.23 263.696 418.23 261.487L418.23 187.972C418.23 184.412 422.531 182.626 425.053 185.138L498.852 258.653C501.379 261.17 499.596 265.487 496.029 265.487L422.23 265.487Z" stroke="black" stroke-width="24"/>
<line x1="315" y1="444" x2="451" y2="444" stroke="black" stroke-width="24" stroke-linecap="round"/>
<line x1="315" y1="376" x2="451" y2="376" stroke="black" stroke-width="24" stroke-linecap="round"/>
<line x1="315" y1="308" x2="451" y2="308" stroke="black" stroke-width="24" stroke-linecap="round"/>
<line x1="315" y1="240" x2="376.6" y2="240" stroke="black" stroke-width="24" stroke-linecap="round"/>
<line x1="225" y1="179" x2="225" y2="501" stroke="black" stroke-width="24"/>
<line x1="266" y1="179" x2="266" y2="501" stroke="black" stroke-width="24"/>
</g>
<defs>
<clipPath id="clip0_1_3">
<rect width="340" height="340" fill="white" transform="translate(172 172)"/>
</clipPath>
</defs>
</svg>
