<svg class="w-full h-auto" viewBox="0 0 1086 417" fill="none" xmlns="http://www.w3.org/2000/svg">
<path d="M78.959 46.6621C115.416 17.458 160.643 1.37551 207.354 1.00573L207.495 18.9938C170.172 19.2588 132.596 30.4868 99.8862 53.4545C99.879 53.4595 99.8716 53.4643 99.8644 53.4693C99.4901 53.7322 99.1166 53.9969 98.7436 54.2629C98.605 54.3617 98.4663 54.4605 98.3279 54.5597C97.9581 54.8248 97.5886 55.0912 97.2201 55.3594C97.0819 55.4599 96.9448 55.5619 96.8069 55.6629C96.6215 55.7985 96.4358 55.934 96.2508 56.0704L95.7933 56.4077C95.6825 56.4899 95.5724 56.5733 95.4618 56.6558C95.2521 56.812 95.043 56.9689 94.8341 57.1258C94.6665 57.2518 94.4985 57.3772 94.3313 57.5038C56.9543 85.7799 32.9365 125.288 23.5126 167.836C23.482 167.973 23.4524 168.112 23.4221 168.249C23.1621 169.435 22.9107 170.623 22.6735 171.814C22.6301 172.031 22.5895 172.249 22.5468 172.467C22.4065 173.184 22.2707 173.902 22.1385 174.621C22.0614 175.041 21.9841 175.46 21.9098 175.88C21.8596 176.164 21.811 176.448 21.762 176.732C21.6897 177.152 21.618 177.571 21.5486 177.991C21.5025 178.27 21.4571 178.549 21.4122 178.828C21.3401 179.277 21.2699 179.726 21.201 180.174C21.1609 180.435 21.1208 180.696 21.0818 180.957C21.011 181.432 20.9427 181.907 20.8754 182.382C20.8432 182.61 20.8098 182.837 20.7784 183.065C20.7033 183.61 20.6314 184.156 20.5611 184.701C20.5398 184.866 20.5176 185.031 20.4967 185.196C20.408 185.898 20.3236 186.601 20.2429 187.304C20.2178 187.521 20.195 187.739 20.1707 187.956C20.1187 188.423 20.0662 188.89 20.0176 189.357C19.9742 189.773 19.9342 190.19 19.8935 190.607C19.868 190.868 19.8425 191.13 19.8181 191.391C19.7749 191.853 19.7334 192.316 19.6937 192.778C19.6759 192.985 19.6586 193.193 19.6415 193.4C19.5992 193.91 19.5598 194.42 19.5217 194.931C19.5132 195.045 19.5049 195.158 19.4966 195.272C16.4412 237.179 27.1939 280.293 52.8698 317.275C52.9164 317.342 52.9631 317.409 53.0098 317.477C53.6857 318.447 54.3714 319.414 55.0679 320.377C55.1462 320.485 55.2239 320.593 55.3024 320.701C55.5569 321.051 55.8133 321.401 56.0705 321.75L56.3974 322.193C56.4639 322.283 56.5311 322.372 56.5977 322.462C57.2695 323.364 57.9488 324.258 58.6334 325.145C58.7082 325.242 58.7826 325.34 58.8576 325.436C87.0724 361.853 126.07 385.277 168.008 394.525C168.108 394.547 168.21 394.568 168.311 394.591C168.82 394.702 169.329 394.813 169.84 394.92C170.098 394.975 170.358 395.027 170.617 395.08C171.03 395.166 171.444 395.251 171.858 395.334C171.995 395.361 172.133 395.387 172.27 395.414C172.993 395.556 173.717 395.694 174.441 395.828C174.935 395.919 175.429 396.01 175.923 396.097C176.138 396.135 176.353 396.172 176.567 396.209C177.077 396.297 177.588 396.385 178.099 396.469C178.319 396.505 178.539 396.54 178.76 396.576C179.205 396.648 179.651 396.718 180.097 396.786C180.383 396.831 180.67 396.874 180.957 396.917C181.425 396.986 181.894 397.055 182.363 397.121C182.605 397.156 182.848 397.19 183.091 397.224C183.53 397.284 183.969 397.342 184.408 397.399C184.69 397.436 184.971 397.475 185.253 397.51C185.684 397.565 186.115 397.615 186.546 397.666C187.179 397.742 187.813 397.813 188.447 397.882C188.731 397.913 189.015 397.945 189.3 397.975C189.772 398.024 190.244 398.07 190.717 398.116C190.906 398.134 191.095 398.154 191.285 398.171C191.813 398.221 192.34 398.268 192.869 398.313C192.985 398.323 193.101 398.333 193.217 398.343C237.176 402.025 282.598 390.503 320.987 362.488C321.061 362.433 321.136 362.379 321.211 362.324C321.39 362.193 321.571 362.062 321.75 361.93C322.55 361.34 323.343 360.744 324.13 360.145C324.198 360.094 324.265 360.043 324.332 359.991C362.255 331.045 386.3 290.488 395.162 246.986C395.186 246.87 395.21 246.753 395.234 246.636C395.325 246.184 395.414 245.732 395.501 245.279C395.547 245.046 395.593 244.812 395.637 244.578C395.716 244.166 395.793 243.753 395.869 243.34C395.925 243.032 395.981 242.724 396.036 242.416C396.103 242.043 396.168 241.669 396.232 241.296C396.288 240.972 396.343 240.649 396.397 240.325C396.46 239.95 396.522 239.575 396.582 239.2C396.641 238.835 396.698 238.469 396.754 238.104C396.802 237.795 396.851 237.487 396.897 237.178C396.982 236.608 397.065 236.038 397.145 235.468C397.162 235.347 397.18 235.227 397.196 235.107C397.296 234.386 397.393 233.664 397.485 232.941C397.523 232.642 397.558 232.343 397.595 232.044C397.641 231.661 397.688 231.279 397.733 230.896C397.781 230.48 397.826 230.063 397.872 229.647C397.901 229.379 397.931 229.111 397.959 228.844C398.014 228.328 398.064 227.811 398.114 227.295C398.127 227.167 398.14 227.04 398.152 226.912C398.205 226.356 398.255 225.8 398.303 225.244C398.315 225.101 398.328 224.958 398.34 224.815C402.055 180.555 390.358 134.809 361.93 96.2507L361.93 96.2499L376.418 85.5683C404.138 123.167 418.395 169.002 416.893 215.69L416.81 217.877C414.849 263.777 397.744 307.76 368.134 342.94L366.716 344.608C337.24 378.89 297.393 402.635 253.214 412.246L251.072 412.7C206.041 422.001 159.217 416.114 117.915 395.996L115.953 395.027C74.8279 374.457 41.6962 340.849 21.7114 299.482L20.7697 297.507C1.20369 255.895 -4.01367 208.992 5.89647 164.132L6.38002 161.997C16.7709 117.204 41.7066 77.1376 77.2582 48.0398L78.959 46.6621Z" fill="#1447E6"/>
<path d="M705.896 19H207V0.999992H705.896V19Z" fill="url(#paint0_linear_30_5)"/>
<path d="M353.53 69.6248L382.111 82.3012L356.945 100.704L353.53 69.6248Z" fill="#1447E6"/>
<circle cx="245" cy="62" r="36" fill="#D9D9D9"/>
<circle cx="88" cy="209" r="36" fill="#D9D9D9"/>
<circle cx="337" cy="209" r="36" fill="#D9D9D9"/>
<circle cx="209" cy="318" r="36" fill="#D9D9D9"/>
<circle cx="195" cy="187" r="36" fill="#D9D9D9"/>
<path d="M466.448 181.296V216H461.84V200.784H443.648V216H438.992V181.296H443.648V196.368H461.84V181.296H466.448ZM485.661 204.432L472.797 181.296H478.509L488.829 200.448L487.389 200.544L497.613 181.296H503.277L490.317 204.432V216H485.661V204.432ZM501.536 216L516.704 179.856H516.992L532.112 216H526.784L515.456 187.152L518.768 184.992L506.096 216H501.536ZM510.416 202.848H523.328L524.864 206.88H509.072L510.416 202.848ZM538.648 181.296H543.304V211.536H560.92V216H538.648V181.296ZM568.508 181.296H573.164V216H568.508V181.296ZM613.181 217.104L586.349 189.888L587.693 190.224L587.789 216H583.133V180.24H583.373L609.917 207.552L608.813 207.312L608.717 181.296H613.325V217.104H613.181ZM623.305 181.296H645.865V185.76H627.961V196.32H643.945V200.784H627.961V211.536H646.536V216H623.305V181.296Z" fill="black"/>
<path d="M1007.04 371.188C970.583 400.392 925.356 416.474 878.645 416.844L878.503 398.855C915.827 398.591 953.403 387.363 986.114 364.395C986.121 364.39 986.128 364.385 986.136 364.38C986.509 364.118 986.881 363.854 987.253 363.589C987.393 363.489 987.534 363.389 987.674 363.288C988.043 363.024 988.412 362.758 988.78 362.49C988.918 362.389 989.055 362.287 989.193 362.186C989.378 362.051 989.564 361.915 989.749 361.779L990.207 361.442C990.318 361.359 990.428 361.276 990.538 361.193C990.748 361.037 990.957 360.88 991.166 360.723C991.333 360.597 991.501 360.472 991.669 360.346C1029.07 332.049 1053.1 292.505 1062.51 249.924C1062.52 249.862 1062.53 249.801 1062.55 249.739C1062.67 249.165 1062.8 248.591 1062.92 248.016C1062.95 247.879 1062.98 247.743 1063 247.606C1063.31 246.15 1063.59 244.69 1063.86 243.228C1063.94 242.807 1064.02 242.387 1064.09 241.966C1064.14 241.685 1064.19 241.403 1064.24 241.121C1064.31 240.706 1064.38 240.29 1064.45 239.875C1064.5 239.559 1064.55 239.244 1064.6 238.928C1064.66 238.539 1064.73 238.151 1064.79 237.762C1064.83 237.462 1064.88 237.163 1064.92 236.864C1064.99 236.425 1065.05 235.985 1065.11 235.546C1065.15 235.267 1065.19 234.989 1065.23 234.71C1065.29 234.293 1065.34 233.875 1065.4 233.457C1065.44 233.166 1065.48 232.874 1065.51 232.583C1065.6 231.904 1065.68 231.225 1065.76 230.545C1065.78 230.328 1065.8 230.11 1065.83 229.893C1065.88 229.428 1065.93 228.962 1065.98 228.497C1066.03 228.006 1066.08 227.515 1066.13 227.024C1066.14 226.867 1066.16 226.71 1066.17 226.553C1066.22 226.005 1066.27 225.456 1066.32 224.908C1066.33 224.797 1066.34 224.687 1066.35 224.576C1070 180.869 1058.61 135.718 1030.93 97.4757C1030.86 97.3686 1030.78 97.2612 1030.7 97.1543C1030.45 96.8021 1030.19 96.4505 1029.93 96.0994C1029.85 95.992 1029.77 95.885 1029.69 95.7778C1029.63 95.6938 1029.57 95.6099 1029.5 95.526C1001.12 57.3275 961.11 32.8318 917.987 23.3233C917.894 23.3027 917.801 23.2826 917.708 23.2622C917.165 23.1433 916.622 23.0264 916.078 22.9123C915.945 22.8845 915.813 22.8575 915.681 22.83C914.31 22.5453 912.936 22.2759 911.559 22.0215C911.067 21.9306 910.576 21.84 910.083 21.753C909.83 21.7082 909.577 21.6656 909.323 21.6219C908.874 21.5444 908.425 21.4672 907.975 21.3929C907.709 21.3489 907.443 21.3059 907.177 21.2631C906.752 21.1948 906.328 21.1282 905.903 21.0628C905.589 21.0145 905.275 20.967 904.961 20.9203C904.607 20.8676 904.253 20.8165 903.898 20.7659C903.539 20.7145 903.18 20.6634 902.821 20.6141C902.539 20.5755 902.258 20.5384 901.977 20.5011C899.736 20.2036 897.489 19.9464 895.239 19.7286C895.066 19.712 894.894 19.6952 894.722 19.6791C850.162 15.489 803.966 26.9343 765.012 55.362C764.938 55.4163 764.864 55.4708 764.789 55.5252C764.61 55.6567 764.429 55.787 764.25 55.9192C763.451 56.5085 762.658 57.1042 761.871 57.7035C761.802 57.7558 761.734 57.8078 761.665 57.8602C723.744 86.8066 699.7 127.363 690.838 170.863C690.814 170.98 690.789 171.097 690.765 171.214C690.687 171.603 690.611 171.993 690.535 172.383C690.472 172.707 690.407 173.032 690.345 173.356C690.284 173.681 690.224 174.007 690.164 174.332C690.09 174.732 690.017 175.132 689.946 175.533C689.892 175.832 689.84 176.132 689.788 176.432C689.717 176.84 689.648 177.25 689.579 177.659C689.53 177.958 689.481 178.257 689.433 178.556C689.356 179.029 689.282 179.502 689.21 179.975C689.178 180.181 689.145 180.387 689.114 180.594C689.031 181.143 688.952 181.692 688.874 182.242C688.848 182.429 688.821 182.615 688.795 182.802C688.698 183.504 688.604 184.208 688.515 184.912C688.477 185.21 688.442 185.508 688.405 185.806C688.358 186.189 688.311 186.573 688.267 186.957C688.225 187.316 688.186 187.675 688.147 188.034C688.108 188.387 688.069 188.74 688.032 189.094C687.986 189.528 687.942 189.962 687.9 190.396C687.879 190.607 687.859 190.819 687.839 191.03C687.786 191.59 687.736 192.149 687.688 192.709C687.684 192.755 687.681 192.802 687.677 192.848C683.913 237.166 695.602 282.986 724.07 321.599L724.07 321.599L709.582 332.282C681.862 294.683 667.604 248.848 669.106 202.16L669.189 199.973C671.15 154.073 688.255 110.09 717.865 74.91L719.283 73.2422C748.759 38.96 788.607 15.2146 832.785 5.60422L834.927 5.15009C879.959 -4.15086 926.782 1.73601 968.084 21.8542L970.046 22.8229C1011.17 43.3929 1044.3 77.0007 1064.29 118.368L1065.23 120.343C1084.8 161.954 1090.01 208.858 1080.1 253.718L1079.62 255.853C1069.23 300.645 1044.29 340.712 1008.74 369.81L1007.04 371.188Z" fill="#009966"/>
<path d="M380.104 398.849H879V416.849H380.104V398.849Z" fill="url(#paint1_linear_30_5)"/>
<path d="M732.47 348.224L703.889 335.548L729.055 317.145L732.47 348.224Z" fill="#009966"/>
<circle cx="841" cy="355.849" r="36" transform="rotate(180 841 355.849)" fill="#D9D9D9"/>
<circle cx="998" cy="208.849" r="36" transform="rotate(180 998 208.849)" fill="#D9D9D9"/>
<circle cx="749" cy="208.849" r="36" transform="rotate(180 749 208.849)" fill="#D9D9D9"/>
<circle cx="877" cy="100.849" r="36" transform="rotate(180 877 100.849)" fill="#D9D9D9"/>
<circle cx="891" cy="230.849" r="36" transform="rotate(180 891 230.849)" fill="#D9D9D9"/>
<defs>
<linearGradient id="paint0_linear_30_5" x1="705.896" y1="10" x2="207" y2="10" gradientUnits="userSpaceOnUse">
<stop stop-color="#162456" stop-opacity="0.5"/>
<stop offset="0.25" stop-color="#1C398E"/>
<stop offset="0.5" stop-color="#1447E6"/>
</linearGradient>
<linearGradient id="paint1_linear_30_5" x1="380.104" y1="407.849" x2="879" y2="407.849" gradientUnits="userSpaceOnUse">
<stop stop-color="#002C22" stop-opacity="0.5"/>
<stop offset="0.25" stop-color="#006045"/>
<stop offset="0.5" stop-color="#009966"/>
</linearGradient>
</defs>
</svg>
