<svg class="w-full h-auto" viewBox="0 0 1086 417" fill="none" xmlns="http://www.w3.org/2000/svg">
<path d="M78.959 46.6621C115.416 17.458 160.643 1.37551 207.354 1.00573L207.495 18.9938C170.172 19.2588 132.596 30.4868 99.8862 53.4544C99.879 53.4595 99.8716 53.4643 99.8644 53.4693C99.4901 53.7322 99.1166 53.9969 98.7436 54.2629C98.605 54.3617 98.4663 54.4605 98.3279 54.5597C97.9581 54.8248 97.5886 55.0912 97.2201 55.3594C97.0819 55.4599 96.9448 55.5619 96.8069 55.6629C96.6215 55.7985 96.4358 55.934 96.2508 56.0704L95.7933 56.4077C95.6825 56.4899 95.5724 56.5733 95.4618 56.6558C95.2521 56.812 95.043 56.9689 94.8341 57.1258C94.6665 57.2518 94.4985 57.3772 94.3313 57.5038C56.9543 85.7799 32.9365 125.288 23.5126 167.836C23.482 167.973 23.4524 168.111 23.4221 168.249C23.1621 169.435 22.9107 170.623 22.6735 171.814C22.6301 172.031 22.5895 172.249 22.5468 172.467C22.4065 173.184 22.2707 173.902 22.1385 174.621C22.0614 175.041 21.9841 175.46 21.9098 175.88C21.8596 176.164 21.811 176.448 21.762 176.732C21.6897 177.152 21.618 177.571 21.5486 177.991C21.5025 178.27 21.4571 178.549 21.4122 178.828C21.3401 179.277 21.2699 179.726 21.201 180.174C21.1609 180.435 21.1208 180.696 21.0818 180.957C21.011 181.432 20.9427 181.907 20.8754 182.382C20.8432 182.61 20.8098 182.837 20.7784 183.065C20.7033 183.61 20.6314 184.156 20.5611 184.701C20.5398 184.866 20.5176 185.031 20.4967 185.196C20.408 185.898 20.3236 186.601 20.2429 187.304C20.2178 187.521 20.195 187.739 20.1707 187.956C20.1187 188.423 20.0662 188.89 20.0176 189.357C19.9742 189.773 19.9342 190.19 19.8935 190.607C19.868 190.868 19.8425 191.13 19.8181 191.391C19.7749 191.853 19.7334 192.316 19.6937 192.778C19.6759 192.985 19.6586 193.193 19.6415 193.4C19.5992 193.91 19.5598 194.42 19.5217 194.931C19.5132 195.045 19.5049 195.158 19.4966 195.272C16.4412 237.179 27.1939 280.293 52.8698 317.275C52.9164 317.342 52.9631 317.409 53.0098 317.477C53.6857 318.447 54.3714 319.414 55.0679 320.377C55.1462 320.485 55.2239 320.593 55.3024 320.701C55.5569 321.051 55.8133 321.401 56.0705 321.75L56.3974 322.193C56.4639 322.283 56.5311 322.372 56.5977 322.462C57.2695 323.364 57.9488 324.258 58.6334 325.145C58.7082 325.242 58.7826 325.34 58.8576 325.436C87.0724 361.853 126.07 385.277 168.008 394.525C168.108 394.547 168.21 394.568 168.311 394.591C168.82 394.702 169.329 394.813 169.84 394.92C170.098 394.975 170.358 395.027 170.617 395.08C171.03 395.166 171.444 395.251 171.858 395.334C171.995 395.361 172.133 395.387 172.27 395.414C172.993 395.556 173.717 395.694 174.441 395.828C174.935 395.919 175.429 396.01 175.923 396.097C176.138 396.135 176.353 396.172 176.567 396.209C177.077 396.297 177.588 396.385 178.099 396.469C178.319 396.505 178.539 396.54 178.76 396.576C179.205 396.648 179.651 396.718 180.097 396.786C180.383 396.831 180.67 396.874 180.957 396.917C181.425 396.986 181.894 397.055 182.363 397.121C182.605 397.156 182.848 397.19 183.091 397.224C183.53 397.284 183.969 397.342 184.408 397.399C184.69 397.436 184.971 397.475 185.253 397.51C185.684 397.565 186.115 397.615 186.546 397.666C187.179 397.742 187.813 397.813 188.447 397.882C188.731 397.913 189.015 397.945 189.3 397.975C189.772 398.024 190.244 398.07 190.717 398.116C190.906 398.134 191.095 398.154 191.285 398.171C191.813 398.221 192.34 398.268 192.869 398.313C192.985 398.323 193.101 398.333 193.217 398.343C237.176 402.025 282.598 390.503 320.987 362.488C321.061 362.433 321.136 362.379 321.211 362.324C321.39 362.193 321.571 362.062 321.75 361.93C322.55 361.34 323.343 360.744 324.13 360.145C324.198 360.094 324.265 360.043 324.332 359.991C362.255 331.045 386.3 290.488 395.162 246.986C395.186 246.87 395.21 246.753 395.234 246.636C395.325 246.184 395.414 245.732 395.501 245.279C395.547 245.046 395.593 244.812 395.637 244.578C395.716 244.166 395.793 243.753 395.869 243.34C395.925 243.032 395.981 242.724 396.036 242.416C396.103 242.043 396.168 241.669 396.232 241.296C396.288 240.972 396.343 240.649 396.397 240.325C396.46 239.95 396.522 239.575 396.582 239.2C396.641 238.835 396.698 238.469 396.754 238.104C396.802 237.795 396.851 237.487 396.897 237.178C396.982 236.608 397.065 236.038 397.145 235.468C397.162 235.347 397.18 235.227 397.196 235.107C397.296 234.386 397.393 233.664 397.485 232.941C397.523 232.642 397.558 232.343 397.595 232.044C397.641 231.661 397.688 231.279 397.733 230.896C397.781 230.48 397.826 230.063 397.872 229.647C397.901 229.379 397.931 229.111 397.959 228.844C398.014 228.328 398.064 227.811 398.114 227.295C398.127 227.167 398.14 227.04 398.152 226.912C398.205 226.356 398.255 225.8 398.303 225.244C398.315 225.101 398.328 224.958 398.34 224.815C402.055 180.555 390.358 134.809 361.93 96.2507L361.93 96.2499L376.418 85.5683C404.138 123.167 418.395 169.002 416.893 215.69L416.81 217.877C414.849 263.777 397.744 307.76 368.134 342.94L366.716 344.608C337.24 378.89 297.393 402.635 253.214 412.246L251.072 412.7C206.041 422.001 159.217 416.114 117.915 395.996L115.953 395.027C74.8279 374.457 41.6962 340.849 21.7114 299.482L20.7697 297.507C1.20369 255.895 -4.01367 208.992 5.89647 164.132L6.38002 161.997C16.7709 117.204 41.7066 77.1376 77.2582 48.0398L78.959 46.6621Z" fill="#1447E6"/>
<path d="M705.896 19H207V0.999992H705.896V19Z" fill="url(#paint0_linear_30_5)"/>
<path d="M353.53 69.6248L382.111 82.3012L356.945 100.704L353.53 69.6248Z" fill="#1447E6"/>
<path d="M222.229 237.667V233.463C222.247 232.363 222.695 231.314 223.478 230.542C224.262 229.769 225.317 229.335 226.417 229.333H226.729C232.696 229.283 237.821 225.142 239.038 219.383L239.079 219.167L241.246 208.5L245.163 206.567C247.267 205.533 248.313 205.013 248.538 204.067C248.767 203.117 248.063 202.192 246.658 200.338L238.708 189.888C237.917 188.846 237.521 188.329 237.313 187.779C237.104 187.229 237.033 186.446 236.904 184.892C235.471 167.779 220.938 154.333 203.217 154.333C184.55 154.333 169.417 169.258 169.417 187.667C169.417 199.125 175.279 209.229 184.208 215.229M184.208 215.229V237.667M184.208 215.229C186.815 216.992 189.659 218.376 192.654 219.342" stroke="black" stroke-width="3" stroke-linecap="round" stroke-linejoin="round"/>
<path d="M217.333 183.5L221.167 186.804C222.779 188.192 223.583 188.887 223.583 189.75C223.583 190.612 222.779 191.308 221.167 192.696L217.333 196M188.167 183.5L184.333 186.804C182.721 188.192 181.917 188.887 181.917 189.75C181.917 190.612 182.721 191.308 184.333 192.696L188.167 196M206.917 179.333L198.583 200.167" stroke="black" stroke-width="3" stroke-linecap="round" stroke-linejoin="round"/>
<path d="M216 124.667L207.667 99.6667H174.333L182.667 124.667H216ZM216 124.667H232.667M216 87.1667V85.0833C216 77.225 216 73.3 213.558 70.8583C211.117 68.4167 207.192 68.4167 199.333 68.4167C191.475 68.4167 187.55 68.4167 185.108 70.8583C182.667 73.3 182.667 77.225 182.667 85.0833V87.1667M224.333 105.917H249.333C251.543 105.917 253.663 106.795 255.226 108.357C256.789 109.92 257.667 112.04 257.667 114.25V116.333C257.667 118.543 256.789 120.663 255.226 122.226C253.663 123.789 251.543 124.667 249.333 124.667H245.167M245.167 87.1667C245.167 89.3768 244.289 91.4964 242.726 93.0592C241.163 94.622 239.043 95.5 236.833 95.5C234.623 95.5 232.504 94.622 230.941 93.0592C229.378 91.4964 228.5 89.3768 228.5 87.1667C228.5 84.9565 229.378 82.8369 230.941 81.2741C232.504 79.7113 234.623 78.8333 236.833 78.8333C239.043 78.8333 241.163 79.7113 242.726 81.2741C244.289 82.8369 245.167 84.9565 245.167 87.1667ZM207.667 49.6667C207.667 51.8768 206.789 53.9964 205.226 55.5592C203.663 57.122 201.543 58 199.333 58C197.123 58 195.004 57.122 193.441 55.5592C191.878 53.9964 191 51.8768 191 49.6667C191 47.4565 191.878 45.3369 193.441 43.7741C195.004 42.2113 197.123 41.3333 199.333 41.3333C201.543 41.3333 203.663 42.2113 205.226 43.7741C206.789 45.3369 207.667 47.4565 207.667 49.6667Z" stroke="black" stroke-width="3" stroke-linecap="round" stroke-linejoin="round"/>
<path d="M199.042 362.042C216.475 360.887 230.358 346.804 231.5 329.125C231.721 325.667 231.721 322.083 231.5 318.625C230.358 300.95 216.475 286.875 199.042 285.713C193.02 285.316 186.98 285.316 180.958 285.713C163.525 286.871 149.642 300.95 148.5 318.629C148.279 322.126 148.279 325.633 148.5 329.129C148.917 335.567 151.762 341.529 155.117 346.562C157.062 350.083 155.779 354.479 153.75 358.325C152.292 361.096 151.558 362.479 152.146 363.479C152.729 364.479 154.042 364.512 156.662 364.575C161.85 364.7 165.346 363.233 168.121 361.187C169.692 360.025 170.479 359.446 171.021 359.379C171.562 359.312 172.633 359.754 174.767 360.629C176.683 361.421 178.912 361.908 180.954 362.046C186.892 362.437 193.096 362.437 199.046 362.046" stroke="black" stroke-width="3" stroke-linecap="round" stroke-linejoin="round"/>
<path d="M171.25 337.5L178.925 314.475C179.118 313.9 179.486 313.401 179.978 313.047C180.47 312.693 181.061 312.503 181.667 312.503C182.273 312.503 182.863 312.693 183.355 313.047C183.847 313.401 184.216 313.9 184.408 314.475L192.083 337.5M204.583 312.5V337.5M175.417 329.167H187.917" stroke="black" stroke-width="3" stroke-linecap="round" stroke-linejoin="round"/>
<path d="M352.167 175C358.058 175 361.004 175 362.833 173.167C364.667 171.338 364.667 168.392 364.667 162.5C364.667 156.608 364.667 153.663 362.833 151.833C361.008 150 358.063 150 352.167 150M293.833 175C287.942 175 284.996 175 283.167 173.167C281.333 171.342 281.333 168.396 281.333 162.5C281.333 156.604 281.333 153.663 283.167 151.833C284.992 150 287.938 150 293.833 150M323 120.833C324.658 120.833 326.247 120.175 327.419 119.003C328.592 117.831 329.25 116.241 329.25 114.583C329.25 112.926 328.592 111.336 327.419 110.164C326.247 108.992 324.658 108.333 323 108.333C321.342 108.333 319.753 108.992 318.581 110.164C317.408 111.336 316.75 112.926 316.75 114.583C316.75 116.241 317.408 117.831 318.581 119.003C319.753 120.175 321.342 120.833 323 120.833ZM323 120.833V133.333M310.5 154.167V158.333M335.5 154.167V158.333M352.167 166.667V158.333C352.167 146.55 352.167 140.654 348.504 136.996C344.846 133.333 338.95 133.333 327.167 133.333H318.833C307.05 133.333 301.154 133.333 297.496 136.996C293.833 140.654 293.833 146.55 293.833 158.333V166.667C293.833 178.45 293.833 184.346 297.496 188.004C301.154 191.667 307.05 191.667 318.833 191.667H327.167C338.95 191.667 344.846 191.667 348.504 188.004C352.167 184.346 352.167 178.45 352.167 166.667Z" stroke="black" stroke-width="3" stroke-linecap="round" stroke-linejoin="round"/>
<path d="M314.667 172.917C314.667 172.917 317.446 175 323 175C328.554 175 331.333 172.917 331.333 172.917" stroke="black" stroke-width="3" stroke-linecap="round" stroke-linejoin="round"/>
<path d="M347.492 291.167C347.497 289.208 347.5 287.125 347.5 284.917C347.5 266.258 347.5 256.925 341.704 251.129C335.908 245.333 326.579 245.333 307.917 245.333C289.258 245.333 279.925 245.333 274.129 251.129C268.333 256.925 268.333 266.254 268.333 284.917C268.333 303.575 268.333 312.908 274.129 318.704C279.925 324.5 289.254 324.5 307.917 324.5C310.125 324.5 312.208 324.497 314.167 324.492" stroke="black" stroke-width="3" stroke-linecap="round" stroke-linejoin="round"/>
<path d="M268.333 274.5H347.5M287.083 259.917H287.121M303.75 259.917H303.787M337.083 299.5L338.158 302.404C339.567 306.212 340.271 308.117 341.658 309.504C343.05 310.896 344.954 311.6 348.762 313.008L351.667 314.083L348.762 315.158C344.954 316.567 343.05 317.271 341.663 318.658C340.271 320.05 339.567 321.954 338.158 325.762L337.083 328.667L336.008 325.762C334.6 321.954 333.896 320.05 332.508 318.662C331.117 317.271 329.212 316.567 325.404 315.158L322.5 314.083L325.404 313.008C329.212 311.6 331.117 310.896 332.504 309.508C333.896 308.117 334.6 306.212 336.008 302.404L337.083 299.5Z" stroke="black" stroke-width="3" stroke-linecap="round" stroke-linejoin="round"/>
<path d="M88.1667 99.75C85.95 99.7494 83.773 100.338 81.8589 101.456C79.9448 102.574 78.3624 104.181 77.2739 106.112C76.1854 108.043 75.63 110.229 75.6646 112.445C75.6992 114.662 76.3226 116.829 77.4708 118.725C74.6189 119.276 72.0478 120.803 70.199 123.043C68.3501 125.283 67.3389 128.097 67.3389 131.002C67.3389 133.907 68.3501 136.721 70.199 138.961C72.0478 141.201 74.6189 142.728 77.4708 143.279M88.1667 99.75C88.1667 96.9873 89.2641 94.3378 91.2176 92.3843C93.1711 90.4308 95.8207 89.3333 98.5833 89.3333C101.346 89.3333 103.996 90.4308 105.949 92.3843C107.903 94.3378 109 96.9873 109 99.75V162.25C109 165.013 107.903 167.662 105.949 169.616C103.996 171.569 101.346 172.667 98.5833 172.667C95.8207 172.667 93.1711 171.569 91.2176 169.616C89.2641 167.662 88.1667 165.013 88.1667 162.25C85.9506 162.25 83.7744 161.661 81.8608 160.544C79.9473 159.426 78.3653 157.819 77.277 155.889C76.1886 153.959 75.633 151.774 75.6671 149.558C75.7012 147.342 76.3237 145.175 77.4708 143.279M88.1667 99.75C88.1667 103.158 89.8042 106.183 92.3333 108.083M77.4708 143.279C78.9662 140.804 81.2736 138.923 84 137.958M139.208 100.792L129.833 110.167H121.5M139.208 161.208L129.833 151.833H121.5M139.208 131H121.5M136.083 100.792C136.083 101.62 136.413 102.415 136.999 103.001C137.585 103.587 138.38 103.917 139.208 103.917C140.037 103.917 140.832 103.587 141.418 103.001C142.004 102.415 142.333 101.62 142.333 100.792C142.333 99.9629 142.004 99.168 141.418 98.582C140.832 97.9959 140.037 97.6667 139.208 97.6667C138.38 97.6667 137.585 97.9959 136.999 98.582C136.413 99.168 136.083 99.9629 136.083 100.792ZM136.083 161.208C136.083 160.38 136.413 159.585 136.999 158.999C137.585 158.413 138.38 158.083 139.208 158.083C140.037 158.083 140.832 158.413 141.418 158.999C142.004 159.585 142.333 160.38 142.333 161.208C142.333 162.037 142.004 162.832 141.418 163.418C140.832 164.004 140.037 164.333 139.208 164.333C138.38 164.333 137.585 164.004 136.999 163.418C136.413 162.832 136.083 162.037 136.083 161.208ZM136.083 131C136.083 131.829 136.413 132.624 136.999 133.21C137.585 133.796 138.38 134.125 139.208 134.125C140.037 134.125 140.832 133.796 141.418 133.21C142.004 132.624 142.333 131.829 142.333 131C142.333 130.171 142.004 129.376 141.418 128.79C140.832 128.204 140.037 127.875 139.208 127.875C138.38 127.875 137.585 128.204 136.999 128.79C136.413 129.376 136.083 130.171 136.083 131Z" stroke="black" stroke-width="3" stroke-linecap="round" stroke-linejoin="round"/>
<path d="M125.333 291.667V270.833C125.333 262.975 125.333 259.05 122.892 256.608C120.45 254.167 116.525 254.167 108.667 254.167L92 291.667L75.3333 254.167C67.475 254.167 63.55 254.167 61.1083 256.608C58.6667 259.05 58.6667 262.975 58.6667 270.833V291.667" stroke="black" stroke-width="3" stroke-linecap="round" stroke-linejoin="round"/>
<path d="M92 262.5L89.9167 279.167L92 285.417L94.0833 279.167L92 262.5ZM92 262.5L87.8333 254.167H96.1667L92 262.5ZM106.583 227.083V222.917C106.583 221.002 106.206 219.105 105.473 217.336C104.74 215.567 103.666 213.959 102.312 212.605C100.958 211.251 99.3501 210.176 97.5808 209.443C95.8115 208.711 93.9151 208.333 92 208.333C90.0849 208.333 88.1885 208.711 86.4192 209.443C84.6499 210.176 83.0422 211.251 81.688 212.605C80.3338 213.959 79.2596 215.567 78.5268 217.336C77.7939 219.105 77.4167 221.002 77.4167 222.917V227.083C77.4167 228.998 77.7939 230.895 78.5268 232.664C79.2596 234.433 80.3338 236.041 81.688 237.395C83.0422 238.749 84.6499 239.824 86.4192 240.557C88.1885 241.289 90.0849 241.667 92 241.667C93.9151 241.667 95.8115 241.289 97.5808 240.557C99.3501 239.824 100.958 238.749 102.312 237.395C103.666 236.041 104.74 234.433 105.473 232.664C106.206 230.895 106.583 228.998 106.583 227.083Z" stroke="black" stroke-width="3" stroke-linecap="round" stroke-linejoin="round"/>
<path d="M466.448 181.296V216H461.84V200.784H443.648V216H438.992V181.296H443.648V196.368H461.84V181.296H466.448ZM485.661 204.432L472.797 181.296H478.509L488.829 200.448L487.389 200.544L497.613 181.296H503.277L490.317 204.432V216H485.661V204.432ZM501.536 216L516.704 179.856H516.992L532.112 216H526.784L515.456 187.152L518.768 184.992L506.096 216H501.536ZM510.416 202.848H523.328L524.864 206.88H509.072L510.416 202.848ZM538.648 181.296H543.304V211.536H560.92V216H538.648V181.296ZM568.508 181.296H573.164V216H568.508V181.296ZM613.181 217.104L586.349 189.888L587.693 190.224L587.789 216H583.133V180.24H583.373L609.917 207.552L608.813 207.312L608.717 181.296H613.325V217.104H613.181ZM623.305 181.296H645.865V185.76H627.961V196.32H643.945V200.784H627.961V211.536H646.536V216H623.305V181.296Z" fill="black"/>
<path d="M1007.04 371.187C970.583 400.391 925.356 416.474 878.645 416.844L878.503 398.855C915.827 398.59 953.403 387.362 986.114 364.394C986.121 364.389 986.128 364.385 986.136 364.38C986.509 364.117 986.881 363.854 987.253 363.588C987.393 363.488 987.534 363.388 987.674 363.288C988.043 363.023 988.412 362.757 988.78 362.49C988.918 362.389 989.055 362.287 989.193 362.186C989.378 362.05 989.564 361.915 989.749 361.779L990.207 361.441C990.318 361.359 990.428 361.276 990.538 361.193C990.748 361.037 990.957 360.88 991.166 360.723C991.333 360.597 991.501 360.472 991.669 360.345C1029.07 332.049 1053.1 292.505 1062.51 249.923C1062.52 249.862 1062.53 249.8 1062.55 249.739C1062.67 249.165 1062.8 248.591 1062.92 248.016C1062.95 247.879 1062.98 247.742 1063 247.606C1063.31 246.15 1063.59 244.69 1063.86 243.227C1063.94 242.807 1064.02 242.387 1064.09 241.966C1064.14 241.684 1064.19 241.403 1064.24 241.121C1064.31 240.705 1064.38 240.29 1064.45 239.875C1064.5 239.559 1064.55 239.243 1064.6 238.928C1064.66 238.539 1064.73 238.15 1064.79 237.761C1064.83 237.462 1064.88 237.163 1064.92 236.863C1064.99 236.424 1065.05 235.985 1065.11 235.545C1065.15 235.267 1065.19 234.988 1065.23 234.71C1065.29 234.292 1065.34 233.874 1065.4 233.457C1065.44 233.165 1065.48 232.874 1065.51 232.582C1065.6 231.903 1065.68 231.224 1065.76 230.545C1065.78 230.328 1065.8 230.11 1065.83 229.893C1065.88 229.427 1065.93 228.962 1065.98 228.497C1066.03 228.006 1066.08 227.515 1066.13 227.024C1066.14 226.867 1066.16 226.71 1066.17 226.553C1066.22 226.004 1066.27 225.456 1066.32 224.908C1066.33 224.797 1066.34 224.687 1066.35 224.576C1070 180.869 1058.61 135.718 1030.93 97.4754C1030.86 97.3683 1030.78 97.2609 1030.7 97.1539C1030.45 96.8018 1030.19 96.4501 1029.93 96.0991C1029.85 95.9917 1029.77 95.8847 1029.69 95.7774C1029.63 95.6935 1029.57 95.6096 1029.5 95.5257C1001.12 57.3272 961.11 32.8315 917.987 23.323C917.894 23.3024 917.801 23.2823 917.708 23.2619C917.165 23.143 916.622 23.0261 916.078 22.912C915.945 22.8842 915.813 22.8571 915.681 22.8296C914.31 22.545 912.936 22.2756 911.559 22.0212C911.067 21.9302 910.576 21.8397 910.083 21.7526C909.83 21.7079 909.577 21.6653 909.323 21.6216C908.874 21.544 908.425 21.4669 907.975 21.3926C907.709 21.3486 907.443 21.3056 907.177 21.2628C906.752 21.1945 906.328 21.1278 905.903 21.0625C905.589 21.0141 905.275 20.9667 904.961 20.92C904.607 20.8673 904.253 20.8162 903.898 20.7656C903.539 20.7142 903.18 20.6631 902.821 20.6137C902.539 20.5752 902.258 20.5381 901.977 20.5008C899.736 20.2033 897.489 19.9461 895.239 19.7283C895.066 19.7117 894.894 19.6949 894.722 19.6787C850.162 15.4886 803.966 26.9339 765.012 55.3617C764.938 55.416 764.864 55.4705 764.789 55.5249C764.61 55.6563 764.429 55.7867 764.25 55.9189C763.451 56.5082 762.658 57.1038 761.871 57.7032C761.802 57.7554 761.734 57.8075 761.665 57.8599C723.744 86.8063 699.7 127.362 690.838 170.862C690.814 170.979 690.789 171.096 690.765 171.213C690.687 171.603 690.611 171.993 690.535 172.383C690.472 172.707 690.407 173.031 690.345 173.356C690.284 173.681 690.224 174.007 690.164 174.332C690.09 174.732 690.017 175.132 689.946 175.532C689.892 175.832 689.84 176.132 689.788 176.431C689.717 176.84 689.648 177.249 689.579 177.659C689.53 177.958 689.481 178.257 689.433 178.556C689.356 179.028 689.282 179.501 689.21 179.975C689.178 180.181 689.145 180.387 689.114 180.594C689.031 181.143 688.952 181.692 688.874 182.242C688.848 182.428 688.821 182.615 688.795 182.801C688.698 183.504 688.604 184.208 688.515 184.912C688.477 185.21 688.442 185.508 688.405 185.805C688.358 186.189 688.311 186.573 688.267 186.957C688.225 187.316 688.186 187.674 688.147 188.033C688.108 188.386 688.069 188.74 688.032 189.093C687.986 189.527 687.942 189.961 687.9 190.395C687.879 190.607 687.859 190.819 687.839 191.03C687.786 191.589 687.736 192.149 687.688 192.709C687.684 192.755 687.681 192.802 687.677 192.848C683.913 237.166 695.602 282.986 724.07 321.598L724.07 321.599L709.582 332.281C681.862 294.683 667.604 248.847 669.106 202.159L669.189 199.973C671.15 154.073 688.255 110.09 717.865 74.9096L719.283 73.2419C748.759 38.9596 788.607 15.2143 832.785 5.6039L834.927 5.14977C879.959 -4.15118 926.782 1.73569 968.084 21.8539L970.046 22.8226C1011.17 43.3926 1044.3 77.0003 1064.29 118.367L1065.23 120.342C1084.8 161.954 1090.01 208.858 1080.1 253.717L1079.62 255.852C1069.23 300.645 1044.29 340.712 1008.74 369.81L1007.04 371.187Z" fill="#009966"/>
<path d="M380.104 398.849H879V416.849H380.104V398.849Z" fill="url(#paint1_linear_30_5)"/>
<path d="M732.47 348.224L703.889 335.548L729.055 317.145L732.47 348.224Z" fill="#009966"/>
<path d="M810 358.667C833.012 358.667 851.667 340.012 851.667 317C851.667 293.988 833.012 275.333 810 275.333C786.988 275.333 768.333 293.988 768.333 317C768.333 340.012 786.988 358.667 810 358.667Z" stroke="black" stroke-width="3" stroke-linecap="round" stroke-linejoin="round"/>
<path d="M847.5 329.5H772.5M847.5 304.5H772.5M793.333 317C793.333 342 810 358.667 810 358.667C810 358.667 826.667 342 826.667 317C826.667 292 810 275.333 810 275.333C810 275.333 793.333 292 793.333 317Z" stroke="black" stroke-width="3" stroke-linecap="round" stroke-linejoin="round"/>
<path d="M957.357 358.357C957.357 360.062 956.68 361.697 955.474 362.903C954.269 364.108 952.634 364.786 950.929 364.786H893.071C891.366 364.786 889.731 364.108 888.526 362.903C887.32 361.697 886.643 360.062 886.643 358.357V287.643C886.643 285.938 887.32 284.303 888.526 283.097C889.731 281.892 891.366 281.214 893.071 281.214H931.643L957.357 306.929V358.357Z" stroke="black" stroke-width="3" stroke-linecap="round" stroke-linejoin="round"/>
<path d="M899.5 345.5V321.348C899.5 320.486 900.201 319.786 901.062 319.786C901.679 319.786 902.232 320.146 902.483 320.705L907.33 331.473C907.488 331.821 907.743 332.117 908.064 332.324C908.386 332.532 908.76 332.642 909.143 332.643C909.525 332.642 909.9 332.532 910.221 332.324C910.543 332.117 910.798 331.821 910.956 331.473L915.803 320.705C915.924 320.43 916.124 320.196 916.376 320.033C916.628 319.87 916.923 319.784 917.224 319.786C918.085 319.786 918.786 320.486 918.786 321.348V345.5M938.071 319.786V345.5M938.071 345.5L931.643 339.071M938.071 345.5L944.5 339.071" stroke="black" stroke-width="3" stroke-linecap="round" stroke-linejoin="round"/>
<path d="M996.258 222.496V252.196M1027.05 238.017H1008.75C1004.17 238.017 995.592 234.35 996.246 224.583M996.167 271.333C998.377 271.333 1000.5 270.455 1002.06 268.893C1003.62 267.33 1004.5 265.21 1004.5 263C1004.5 260.79 1003.62 258.67 1002.06 257.107C1000.5 255.545 998.377 254.667 996.167 254.667C993.957 254.667 991.837 255.545 990.274 257.107C988.711 258.67 987.833 260.79 987.833 263C987.833 265.21 988.711 267.33 990.274 268.893C991.837 270.455 993.957 271.333 996.167 271.333ZM996.167 221.333C998.377 221.333 1000.5 220.455 1002.06 218.893C1003.62 217.33 1004.5 215.21 1004.5 213C1004.5 210.79 1003.62 208.67 1002.06 207.107C1000.5 205.545 998.377 204.667 996.167 204.667C993.957 204.667 991.837 205.545 990.274 207.107C988.711 208.67 987.833 210.79 987.833 213C987.833 215.21 988.711 217.33 990.274 218.893C991.837 220.455 993.957 221.333 996.167 221.333ZM1037.83 246.333C1040.04 246.333 1042.16 245.455 1043.73 243.893C1045.29 242.33 1046.17 240.21 1046.17 238C1046.17 235.79 1045.29 233.67 1043.73 232.107C1042.16 230.545 1040.04 229.667 1037.83 229.667C1035.62 229.667 1033.5 230.545 1031.94 232.107C1030.38 233.67 1029.5 235.79 1029.5 238C1029.5 240.21 1030.38 242.33 1031.94 243.893C1033.5 245.455 1035.62 246.333 1037.83 246.333Z" stroke="black" stroke-width="3" stroke-linecap="round" stroke-linejoin="round"/>
<path d="M912 224.667L919.667 231.275C922.887 234.054 924.5 235.442 924.5 237.167C924.5 238.892 922.887 240.279 919.667 243.058L912 249.667M895.333 224.667L887.667 231.275C884.446 234.054 882.833 235.442 882.833 237.167C882.833 238.892 884.446 240.279 887.667 243.058L895.333 249.667" stroke="black" stroke-width="3" stroke-linecap="round" stroke-linejoin="round"/>
<path d="M920.333 212.179V190.583C920.333 183.525 920.333 180 919.217 177.179C917.425 172.65 913.625 169.075 908.813 167.387C905.821 166.333 902.071 166.333 894.575 166.333C881.458 166.333 874.9 166.333 869.658 168.171C861.242 171.129 854.596 177.383 851.45 185.312C849.5 190.25 849.5 196.421 849.5 208.771V219.379C849.5 232.171 849.5 238.567 853.033 243.013C854.046 244.283 855.242 245.413 856.596 246.367C860.396 249.046 865.542 249.567 874.5 249.667" stroke="black" stroke-width="3" stroke-linecap="round" stroke-linejoin="round"/>
<path d="M849.5 208C849.5 204.317 850.963 200.784 853.568 198.18C856.172 195.576 859.704 194.113 863.388 194.113C866.163 194.113 869.433 194.596 872.129 193.875C873.307 193.558 874.381 192.937 875.243 192.074C876.105 191.211 876.726 190.137 877.042 188.958C877.763 186.262 877.279 182.992 877.279 180.217C877.28 176.534 878.744 173.003 881.348 170.399C883.952 167.796 887.484 166.333 891.167 166.333" stroke="black" stroke-width="3" stroke-linecap="round" stroke-linejoin="round"/>
<path d="M866.021 107.521L859.854 101.354C859.063 100.563 858.671 100.171 858.204 99.8958C857.88 99.7084 857.533 99.5655 857.171 99.4708C856.646 99.3333 856.083 99.3333 854.975 99.3333C849.858 99.3333 847.3 99.3333 845.392 100.417C844.08 101.159 842.994 102.243 842.25 103.554C841.167 105.471 841.167 108.025 841.167 113.138V118.083C841.167 123.933 841.167 126.863 842.571 128.963C843.179 129.871 843.963 130.654 844.871 131.263C846.971 132.667 849.9 132.667 855.75 132.667C861.6 132.667 864.529 132.667 866.629 131.263C867.538 130.654 868.321 129.871 868.929 128.963C870.333 126.863 870.333 123.9 870.333 117.979C870.333 115.338 870.333 114.021 869.958 112.813C869.807 112.328 869.612 111.858 869.375 111.408C868.788 110.288 867.863 109.367 866.021 107.517M828.667 66H803.667M803.667 66V49.3333M803.667 66V91C803.667 102.783 803.667 108.679 807.329 112.338C810.988 116 816.883 116 828.667 116M866.021 57.5167L859.854 51.3542C859.063 50.5625 858.671 50.1708 858.204 49.8958C857.88 49.7084 857.533 49.5655 857.171 49.4708C856.646 49.3333 856.083 49.3333 854.975 49.3333C849.858 49.3333 847.3 49.3333 845.392 50.4167C844.08 51.1591 842.994 52.2435 842.25 53.5542C841.167 55.4708 841.167 58.025 841.167 63.1375V68.0833C841.167 73.9333 841.167 76.8625 842.571 78.9625C843.179 79.8728 843.961 80.6544 844.871 81.2625C846.971 82.6667 849.9 82.6667 855.75 82.6667C861.6 82.6667 864.529 82.6667 866.629 81.2625C867.539 80.6544 868.321 79.8728 868.929 78.9625C870.333 76.8625 870.333 73.9 870.333 67.9792C870.333 65.3375 870.333 64.0208 869.958 62.8125C869.807 62.3276 869.612 61.8576 869.375 61.4083C868.788 60.2875 867.863 59.3667 866.021 57.5167Z" stroke="black" stroke-width="3" stroke-linecap="round" stroke-linejoin="round"/>
<path d="M768.471 200.167L775.333 210.583M775.333 210.583L782.196 221M775.333 210.583L782.196 200.167M775.333 210.583L768.471 221M790.775 200.167H797.638M797.638 200.167H804.5M797.638 200.167V221M746.167 200.167H753.029M753.029 200.167H759.892M753.029 200.167V221M779.5 237.667H761.696C748.113 237.667 741.312 237.667 736.596 234.342C735.254 233.4 734.054 232.271 733.033 230.988C729.5 226.546 729.5 220.154 729.5 207.363V196.758C729.5 184.413 729.5 178.238 731.454 173.308C734.596 165.379 741.238 159.129 749.663 156.171C754.896 154.333 761.45 154.333 774.575 154.333C782.067 154.333 785.817 154.333 788.808 155.383C793.621 157.075 797.417 160.646 799.213 165.175C800.333 167.992 800.333 171.521 800.333 178.575V187.667" stroke="black" stroke-width="3" stroke-linecap="round" stroke-linejoin="round"/>
<path d="M729.5 196C729.5 192.317 730.963 188.784 733.568 186.18C736.172 183.576 739.704 182.113 743.388 182.113C746.163 182.113 749.433 182.596 752.129 181.875C753.307 181.558 754.381 180.937 755.243 180.074C756.105 179.211 756.726 178.137 757.042 176.958C757.763 174.262 757.279 170.992 757.279 168.217C757.28 164.534 758.744 161.003 761.348 158.399C763.952 155.796 767.484 154.333 771.167 154.333" stroke="black" stroke-width="3" stroke-linecap="round" stroke-linejoin="round"/>
<path d="M996.167 116.75V114.667C996.167 98.9542 996.167 91.0958 991.283 86.2167C986.4 81.3375 978.546 81.3333 962.833 81.3333C947.121 81.3333 939.262 81.3333 934.383 86.2167C929.504 91.1 929.5 98.9542 929.5 114.667V139.667C929.5 147.433 929.5 151.317 930.767 154.375C931.604 156.397 932.832 158.235 934.38 159.783C935.928 161.331 937.765 162.558 939.787 163.396C942.85 164.667 946.733 164.667 954.5 164.667M946.167 102.167H979.5M946.167 118.833H962.833" stroke="black" stroke-width="3" stroke-linecap="round" stroke-linejoin="round"/>
<path d="M980.679 152.183C980.429 148.483 979.992 144.525 978.175 140.05C976.621 136.233 977.054 127.254 985.75 127.254C994.446 127.254 994.775 136.233 993.225 140.046C991.408 144.525 991.067 148.483 990.825 152.183M1004.5 164.667H967V159.475C967 157.617 968.108 155.979 969.721 155.471L979.117 152.487C979.789 152.274 980.475 152.167 981.175 152.167H990.325C991.025 152.167 991.711 152.274 992.383 152.487L1001.78 155.471C1003.39 155.979 1004.5 157.617 1004.5 159.475V164.667Z" stroke="black" stroke-width="3" stroke-linecap="round" stroke-linejoin="round"/>
<defs>
<linearGradient id="paint0_linear_30_5" x1="705.896" y1="10" x2="207" y2="10" gradientUnits="userSpaceOnUse">
<stop stop-color="#162456" stop-opacity="0.5"/>
<stop offset="0.25" stop-color="#1C398E"/>
<stop offset="0.5" stop-color="#1447E6"/>
</linearGradient>
<linearGradient id="paint1_linear_30_5" x1="380.104" y1="407.849" x2="879" y2="407.849" gradientUnits="userSpaceOnUse">
<stop stop-color="#002C22" stop-opacity="0.5"/>
<stop offset="0.25" stop-color="#006045"/>
<stop offset="0.5" stop-color="#009966"/>
</linearGradient>
</defs>
</svg>
