<svg class="w-full h-auto" viewBox="0 0 1086 417" fill="none" xmlns="http://www.w3.org/2000/svg">
<title>Hyaline Documentation Workflow: From Users and AI to Documentation Repositories</title>
<desc>An infographic showing Hyaline's role in connecting people and AI tools on the left (represented by icons for developers, AI, and collaboration tools) with various documentation storage locations and formats on the right (represented by icons for repositories, text files, websites, and knowledge bases). The blue circle on the left represents the human and AI input side, while the green circle on the right represents the documentation output and storage side, with Hyaline facilitating the flow between them as indicated by the connecting arrow.</desc>
<path d="M78.959 46.6621C115.416 17.458 160.643 1.37551 207.354 1.00573L207.495 18.9938C170.172 19.2588 132.596 30.4868 99.8862 53.4544C99.879 53.4595 99.8716 53.4643 99.8644 53.4693C99.4901 53.7322 99.1166 53.9969 98.7436 54.2629C98.605 54.3617 98.4663 54.4605 98.3279 54.5597C97.9581 54.8248 97.5886 55.0912 97.2201 55.3594C97.0819 55.4599 96.9448 55.5619 96.8069 55.6629C96.6215 55.7985 96.4358 55.934 96.2508 56.0704L95.7933 56.4077C95.6825 56.4899 95.5724 56.5733 95.4618 56.6558C95.2521 56.812 95.043 56.9689 94.8341 57.1258C94.6665 57.2518 94.4985 57.3772 94.3313 57.5038C56.9543 85.7799 32.9365 125.288 23.5126 167.836C23.482 167.973 23.4524 168.111 23.4221 168.249C23.1621 169.435 22.9107 170.623 22.6735 171.814C22.6301 172.031 22.5895 172.249 22.5468 172.467C22.4065 173.184 22.2707 173.902 22.1385 174.621C22.0614 175.041 21.9841 175.46 21.9098 175.88C21.8596 176.164 21.811 176.448 21.762 176.732C21.6897 177.152 21.618 177.571 21.5486 177.991C21.5025 178.27 21.4571 178.549 21.4122 178.828C21.3401 179.277 21.2699 179.726 21.201 180.174C21.1609 180.435 21.1208 180.696 21.0818 180.957C21.011 181.432 20.9427 181.907 20.8754 182.382C20.8432 182.61 20.8098 182.837 20.7784 183.065C20.7033 183.61 20.6314 184.156 20.5611 184.701C20.5398 184.866 20.5176 185.031 20.4967 185.196C20.408 185.898 20.3236 186.601 20.2429 187.304C20.2178 187.521 20.195 187.739 20.1707 187.956C20.1187 188.423 20.0662 188.89 20.0176 189.357C19.9742 189.773 19.9342 190.19 19.8935 190.607C19.868 190.868 19.8425 191.13 19.8181 191.391C19.7749 191.853 19.7334 192.316 19.6937 192.778C19.6759 192.985 19.6586 193.193 19.6415 193.4C19.5992 193.91 19.5598 194.42 19.5217 194.931C19.5132 195.045 19.5049 195.158 19.4966 195.272C16.4412 237.179 27.1939 280.293 52.8698 317.275C52.9164 317.342 52.9631 317.409 53.0098 317.477C53.6857 318.447 54.3714 319.414 55.0679 320.377C55.1462 320.485 55.2239 320.593 55.3024 320.701C55.5569 321.051 55.8133 321.401 56.0705 321.75L56.3974 322.193C56.4639 322.283 56.5311 322.372 56.5977 322.462C57.2695 323.364 57.9488 324.258 58.6334 325.145C58.7082 325.242 58.7826 325.34 58.8576 325.436C87.0724 361.853 126.07 385.277 168.008 394.525C168.108 394.547 168.21 394.568 168.311 394.591C168.82 394.702 169.329 394.813 169.84 394.92C170.098 394.975 170.358 395.027 170.617 395.08C171.03 395.166 171.444 395.251 171.858 395.334C171.995 395.361 172.133 395.387 172.27 395.414C172.993 395.556 173.717 395.694 174.441 395.828C174.935 395.919 175.429 396.01 175.923 396.097C176.138 396.135 176.353 396.172 176.567 396.209C177.077 396.297 177.588 396.385 178.099 396.469C178.319 396.505 178.539 396.54 178.76 396.576C179.205 396.648 179.651 396.718 180.097 396.786C180.383 396.831 180.67 396.874 180.957 396.917C181.425 396.986 181.894 397.055 182.363 397.121C182.605 397.156 182.848 397.19 183.091 397.224C183.53 397.284 183.969 397.342 184.408 397.399C184.69 397.436 184.971 397.475 185.253 397.51C185.684 397.565 186.115 397.615 186.546 397.666C187.179 397.742 187.813 397.813 188.447 397.882C188.731 397.913 189.015 397.945 189.3 397.975C189.772 398.024 190.244 398.07 190.717 398.116C190.906 398.134 191.095 398.154 191.285 398.171C191.813 398.221 192.34 398.268 192.869 398.313C192.985 398.323 193.101 398.333 193.217 398.343C237.176 402.025 282.598 390.503 320.987 362.488C321.061 362.433 321.136 362.379 321.211 362.324C321.39 362.193 321.571 362.062 321.75 361.93C322.55 361.34 323.343 360.744 324.13 360.145C324.198 360.094 324.265 360.043 324.332 359.991C362.255 331.045 386.3 290.488 395.162 246.986C395.186 246.87 395.21 246.753 395.234 246.636C395.325 246.184 395.414 245.732 395.501 245.279C395.547 245.046 395.593 244.812 395.637 244.578C395.716 244.166 395.793 243.753 395.869 243.34C395.925 243.032 395.981 242.724 396.036 242.416C396.103 242.043 396.168 241.669 396.232 241.296C396.288 240.972 396.343 240.649 396.397 240.325C396.46 239.95 396.522 239.575 396.582 239.2C396.641 238.835 396.698 238.469 396.754 238.104C396.802 237.795 396.851 237.487 396.897 237.178C396.982 236.608 397.065 236.038 397.145 235.468C397.162 235.347 397.18 235.227 397.196 235.107C397.296 234.386 397.393 233.664 397.485 232.941C397.523 232.642 397.558 232.343 397.595 232.044C397.641 231.661 397.688 231.279 397.733 230.896C397.781 230.48 397.826 230.063 397.872 229.647C397.901 229.379 397.931 229.111 397.959 228.844C398.014 228.328 398.064 227.811 398.114 227.295C398.127 227.167 398.14 227.04 398.152 226.912C398.205 226.356 398.255 225.8 398.303 225.244C398.315 225.101 398.328 224.958 398.34 224.815C402.055 180.555 390.358 134.809 361.93 96.2507L361.93 96.2499L376.418 85.5683C404.138 123.167 418.395 169.002 416.893 215.69L416.81 217.877C414.849 263.777 397.744 307.76 368.134 342.94L366.716 344.608C337.24 378.89 297.393 402.635 253.214 412.246L251.072 412.7C206.041 422.001 159.217 416.114 117.915 395.996L115.953 395.027C74.8279 374.457 41.6962 340.849 21.7114 299.482L20.7697 297.507C1.20369 255.895 -4.01367 208.992 5.89647 164.132L6.38002 161.997C16.7709 117.204 41.7066 77.1376 77.2582 48.0398L78.959 46.6621Z" fill="#1447E6"/>
<path d="M705.896 19H207V0.999992H705.896V19Z" fill="url(#paint0_linear_30_5)"/>
<path d="M353.53 69.6248L382.111 82.3012L356.945 100.704L353.53 69.6248Z" fill="#1447E6"/>
<path d="M216.906 246.5V242.716C216.922 241.726 217.326 240.782 218.031 240.087C218.735 239.392 219.685 239.002 220.675 239H220.956C226.326 238.955 230.939 235.227 232.034 230.045L232.071 229.85L234.021 220.25L237.546 218.51C239.44 217.58 240.381 217.111 240.584 216.26C240.79 215.405 240.156 214.573 238.893 212.904L231.737 203.499C231.025 202.561 230.669 202.096 230.481 201.601C230.294 201.106 230.23 200.401 230.114 199.002C228.824 183.601 215.744 171.5 199.795 171.5C182.995 171.5 169.375 184.932 169.375 201.5C169.375 211.812 174.651 220.906 182.688 226.306M182.688 226.306V246.5M182.688 226.306C185.034 227.893 187.593 229.139 190.289 230.007" stroke="black" stroke-width="3" stroke-linecap="round" stroke-linejoin="round"/>
<path d="M212.5 197.75L215.95 200.724C217.401 201.973 218.125 202.599 218.125 203.375C218.125 204.151 217.401 204.777 215.95 206.026L212.5 209M186.25 197.75L182.8 200.724C181.349 201.973 180.625 202.599 180.625 203.375C180.625 204.151 181.349 204.777 182.8 206.026L186.25 209M203.125 194L195.625 212.75" stroke="black" stroke-width="3" stroke-linecap="round" stroke-linejoin="round"/>
<path d="M214 128.5L206.5 106H176.5L184 128.5H214ZM214 128.5H229M214 94.75V92.875C214 85.8025 214 82.27 211.802 80.0725C209.605 77.875 206.073 77.875 199 77.875C191.927 77.875 188.395 77.875 186.197 80.0725C184 82.27 184 85.8025 184 92.875V94.75M221.5 111.625H244C245.989 111.625 247.897 112.415 249.303 113.822C250.71 115.228 251.5 117.136 251.5 119.125V121C251.5 122.989 250.71 124.897 249.303 126.303C247.897 127.71 245.989 128.5 244 128.5H240.25M240.25 94.75C240.25 96.7391 239.46 98.6468 238.053 100.053C236.647 101.46 234.739 102.25 232.75 102.25C230.761 102.25 228.853 101.46 227.447 100.053C226.04 98.6468 225.25 96.7391 225.25 94.75C225.25 92.7609 226.04 90.8532 227.447 89.4467C228.853 88.0402 230.761 87.25 232.75 87.25C234.739 87.25 236.647 88.0402 238.053 89.4467C239.46 90.8532 240.25 92.7609 240.25 94.75ZM206.5 61C206.5 62.9891 205.71 64.8968 204.303 66.3033C202.897 67.7098 200.989 68.5 199 68.5C197.011 68.5 195.103 67.7098 193.697 66.3033C192.29 64.8968 191.5 62.9891 191.5 61C191.5 59.0109 192.29 57.1032 193.697 55.6967C195.103 54.2902 197.011 53.5 199 53.5C200.989 53.5 202.897 54.2902 204.303 55.6967C205.71 57.1032 206.5 59.0109 206.5 61Z" stroke="black" stroke-width="3" stroke-linecap="round" stroke-linejoin="round"/>
<path d="M222.138 364.337C237.828 363.299 250.323 350.624 251.35 334.713C251.549 331.6 251.549 328.375 251.35 325.263C250.323 309.355 237.828 296.688 222.138 295.641C216.718 295.284 211.282 295.284 205.863 295.641C190.173 296.684 177.678 309.355 176.65 325.266C176.451 328.413 176.451 331.569 176.65 334.716C177.025 340.51 179.586 345.876 182.605 350.406C184.356 353.575 183.201 357.531 181.375 360.992C180.063 363.486 179.403 364.731 179.931 365.631C180.456 366.531 181.638 366.561 183.996 366.617C188.665 366.73 191.811 365.41 194.309 363.569C195.723 362.522 196.431 362.001 196.919 361.941C197.406 361.881 198.37 362.279 200.29 363.066C202.015 363.779 204.021 364.218 205.859 364.341C211.203 364.694 216.786 364.694 222.141 364.341" stroke="black" stroke-width="3" stroke-linecap="round" stroke-linejoin="round"/>
<path d="M197.125 342.25L204.032 321.527C204.206 321.01 204.537 320.561 204.98 320.242C205.423 319.924 205.955 319.752 206.5 319.752C207.045 319.752 207.577 319.924 208.02 320.242C208.463 320.561 208.794 321.01 208.967 321.527L215.875 342.25M227.125 319.75V342.25M200.875 334.75H212.125" stroke="black" stroke-width="3" stroke-linecap="round" stroke-linejoin="round"/>
<g opacity="0.9">
<path d="M339.25 158.5C344.553 158.5 347.204 158.5 348.85 156.85C350.5 155.204 350.5 152.553 350.5 147.25C350.5 141.947 350.5 139.296 348.85 137.65C347.207 136 344.556 136 339.25 136M286.75 158.5C281.447 158.5 278.796 158.5 277.15 156.85C275.5 155.207 275.5 152.556 275.5 147.25C275.5 141.944 275.5 139.296 277.15 137.65C278.793 136 281.444 136 286.75 136M313 109.75C314.492 109.75 315.923 109.157 316.977 108.102C318.032 107.048 318.625 105.617 318.625 104.125C318.625 102.633 318.032 101.202 316.977 100.148C315.923 99.0926 314.492 98.5 313 98.5C311.508 98.5 310.077 99.0926 309.023 100.148C307.968 101.202 307.375 102.633 307.375 104.125C307.375 105.617 307.968 107.048 309.023 108.102C310.077 109.157 311.508 109.75 313 109.75ZM313 109.75V121M301.75 139.75V143.5M324.25 139.75V143.5M339.25 151V143.5C339.25 132.895 339.25 127.589 335.954 124.296C332.661 121 327.355 121 316.75 121H309.25C298.645 121 293.339 121 290.046 124.296C286.75 127.589 286.75 132.895 286.75 143.5V151C286.75 161.605 286.75 166.911 290.046 170.204C293.339 173.5 298.645 173.5 309.25 173.5H316.75C327.355 173.5 332.661 173.5 335.954 170.204C339.25 166.911 339.25 161.605 339.25 151Z" stroke="black" stroke-width="3" stroke-linecap="round" stroke-linejoin="round"/>
<path d="M305.5 156.625C305.5 156.625 308.001 158.5 313 158.5C317.999 158.5 320.5 156.625 320.5 156.625" stroke="black" stroke-width="3" stroke-linecap="round" stroke-linejoin="round"/>
</g>
<path d="M339.742 269.75C339.747 267.988 339.75 266.112 339.75 264.125C339.75 247.332 339.75 238.933 334.534 233.716C329.317 228.5 320.921 228.5 304.125 228.5C287.332 228.5 278.933 228.5 273.716 233.716C268.5 238.933 268.5 247.329 268.5 264.125C268.5 280.918 268.5 289.317 273.716 294.534C278.933 299.75 287.329 299.75 304.125 299.75C306.112 299.75 307.988 299.747 309.75 299.742" stroke="black" stroke-width="3" stroke-linecap="round" stroke-linejoin="round"/>
<path d="M268.5 254.75H339.75M285.375 241.625H285.409M300.375 241.625H300.409M330.375 277.25L331.342 279.864C332.61 283.291 333.244 285.005 334.492 286.254C335.745 287.506 337.459 288.14 340.886 289.408L343.5 290.375L340.886 291.342C337.459 292.61 335.745 293.244 334.496 294.492C333.244 295.745 332.61 297.459 331.342 300.886L330.375 303.5L329.408 300.886C328.14 297.459 327.506 295.745 326.258 294.496C325.005 293.244 323.291 292.61 319.864 291.342L317.25 290.375L319.864 289.408C323.291 288.14 325.005 287.506 326.254 286.258C327.506 285.005 328.14 283.291 329.408 279.864L330.375 277.25Z" stroke="black" stroke-width="3" stroke-linecap="round" stroke-linejoin="round"/>
<path d="M87.25 111.875C85.255 111.874 83.2957 112.404 81.573 113.411C79.8503 114.417 78.4261 115.863 77.4465 117.601C76.4669 119.339 75.967 121.306 75.9982 123.301C76.0293 125.295 76.5903 127.246 77.6238 128.952C75.057 129.448 72.743 130.823 71.0791 132.839C69.4151 134.855 68.505 137.388 68.505 140.002C68.505 142.616 69.4151 145.149 71.0791 147.165C72.743 149.181 75.057 150.555 77.6238 151.051M87.25 111.875C87.25 109.389 88.2377 107.004 89.9959 105.246C91.754 103.488 94.1386 102.5 96.625 102.5C99.1114 102.5 101.496 103.488 103.254 105.246C105.012 107.004 106 109.389 106 111.875V168.125C106 170.611 105.012 172.996 103.254 174.754C101.496 176.512 99.1114 177.5 96.625 177.5C94.1386 177.5 91.754 176.512 89.9959 174.754C88.2377 172.996 87.25 170.611 87.25 168.125C85.2556 168.125 83.2969 167.595 81.5748 166.589C79.8526 165.583 78.4288 164.137 77.4493 162.4C76.4698 160.663 75.9697 158.696 76.0004 156.702C76.031 154.708 76.5913 152.758 77.6238 151.051M87.25 111.875C87.25 114.942 88.7238 117.665 91 119.375M77.6238 151.051C78.9695 148.823 81.0462 147.131 83.5 146.262M133.188 112.812L124.75 121.25H117.25M133.188 167.187L124.75 158.75H117.25M133.188 140H117.25M130.375 112.812C130.375 113.558 130.671 114.274 131.199 114.801C131.726 115.329 132.442 115.625 133.188 115.625C133.933 115.625 134.649 115.329 135.176 114.801C135.704 114.274 136 113.558 136 112.812C136 112.067 135.704 111.351 135.176 110.824C134.649 110.296 133.933 110 133.188 110C132.442 110 131.726 110.296 131.199 110.824C130.671 111.351 130.375 112.067 130.375 112.812ZM130.375 167.187C130.375 166.442 130.671 165.726 131.199 165.199C131.726 164.671 132.442 164.375 133.188 164.375C133.933 164.375 134.649 164.671 135.176 165.199C135.704 165.726 136 166.442 136 167.187C136 167.933 135.704 168.649 135.176 169.176C134.649 169.704 133.933 170 133.188 170C132.442 170 131.726 169.704 131.199 169.176C130.671 168.649 130.375 167.933 130.375 167.187ZM130.375 140C130.375 140.746 130.671 141.461 131.199 141.989C131.726 142.516 132.442 142.812 133.188 142.812C133.933 142.812 134.649 142.516 135.176 141.989C135.704 141.461 136 140.746 136 140C136 139.254 135.704 138.539 135.176 138.011C134.649 137.484 133.933 137.187 133.188 137.187C132.442 137.187 131.726 137.484 131.199 138.011C130.671 138.539 130.375 139.254 130.375 140Z" stroke="black" stroke-width="3" stroke-linecap="round" stroke-linejoin="round"/>
<path d="M136 295.5V276.75C136 269.677 136 266.145 133.802 263.948C131.605 261.75 128.072 261.75 121 261.75L106 295.5L91 261.75C83.9275 261.75 80.395 261.75 78.1975 263.948C76 266.145 76 269.677 76 276.75V295.5" stroke="black" stroke-width="3" stroke-linecap="round" stroke-linejoin="round"/>
<path d="M106 269.25L104.125 284.25L106 289.875L107.875 284.25L106 269.25ZM106 269.25L102.25 261.75H109.75L106 269.25ZM119.125 237.375V233.625C119.125 231.901 118.786 230.195 118.126 228.602C117.466 227.01 116.5 225.563 115.281 224.344C114.062 223.125 112.615 222.159 111.023 221.499C109.43 220.839 107.724 220.5 106 220.5C104.276 220.5 102.57 220.839 100.977 221.499C99.3849 222.159 97.938 223.125 96.7192 224.344C95.5005 225.563 94.5337 227.01 93.8741 228.602C93.2145 230.195 92.875 231.901 92.875 233.625V237.375C92.875 239.099 93.2145 240.805 93.8741 242.398C94.5337 243.99 95.5005 245.437 96.7192 246.656C97.938 247.875 99.3849 248.841 100.977 249.501C102.57 250.161 104.276 250.5 106 250.5C107.724 250.5 109.43 250.161 111.023 249.501C112.615 248.841 114.062 247.875 115.281 246.656C116.5 245.437 117.466 243.99 118.126 242.398C118.786 240.805 119.125 239.099 119.125 237.375Z" stroke="black" stroke-width="3" stroke-linecap="round" stroke-linejoin="round"/>
<path d="M466.448 181.296V216H461.84V200.784H443.648V216H438.992V181.296H443.648V196.368H461.84V181.296H466.448ZM485.661 204.432L472.797 181.296H478.509L488.829 200.448L487.389 200.544L497.613 181.296H503.277L490.317 204.432V216H485.661V204.432ZM501.536 216L516.704 179.856H516.992L532.112 216H526.784L515.456 187.152L518.768 184.992L506.096 216H501.536ZM510.416 202.848H523.328L524.864 206.88H509.072L510.416 202.848ZM538.648 181.296H543.304V211.536H560.92V216H538.648V181.296ZM568.508 181.296H573.164V216H568.508V181.296ZM613.181 217.104L586.349 189.888L587.693 190.224L587.789 216H583.133V180.24H583.373L609.917 207.552L608.813 207.312L608.717 181.296H613.325V217.104H613.181ZM623.305 181.296H645.865V185.76H627.961V196.32H643.945V200.784H627.961V211.536H646.536V216H623.305V181.296Z" fill="black"/>
<path d="M1007.04 371.187C970.583 400.391 925.356 416.474 878.645 416.844L878.503 398.855C915.827 398.59 953.403 387.362 986.114 364.395C986.121 364.389 986.128 364.385 986.136 364.38C986.509 364.118 986.881 363.854 987.253 363.588C987.393 363.488 987.534 363.388 987.674 363.288C988.043 363.023 988.412 362.757 988.78 362.49C988.918 362.389 989.055 362.287 989.193 362.186C989.378 362.05 989.564 361.915 989.749 361.779L990.207 361.441C990.318 361.359 990.428 361.276 990.538 361.193C990.748 361.037 990.957 360.88 991.166 360.723C991.333 360.597 991.501 360.472 991.669 360.345C1029.07 332.049 1053.1 292.505 1062.51 249.923C1062.52 249.862 1062.53 249.8 1062.55 249.739C1062.67 249.165 1062.8 248.591 1062.92 248.016C1062.95 247.879 1062.98 247.742 1063 247.606C1063.31 246.15 1063.59 244.69 1063.86 243.227C1063.94 242.807 1064.02 242.387 1064.09 241.966C1064.14 241.684 1064.19 241.403 1064.24 241.121C1064.31 240.705 1064.38 240.29 1064.45 239.875C1064.5 239.559 1064.55 239.243 1064.6 238.928C1064.66 238.539 1064.73 238.15 1064.79 237.761C1064.83 237.462 1064.88 237.163 1064.92 236.864C1064.99 236.424 1065.05 235.985 1065.11 235.545C1065.15 235.267 1065.19 234.988 1065.23 234.71C1065.29 234.292 1065.34 233.874 1065.4 233.457C1065.44 233.165 1065.48 232.874 1065.51 232.582C1065.6 231.903 1065.68 231.224 1065.76 230.545C1065.78 230.328 1065.8 230.11 1065.83 229.893C1065.88 229.427 1065.93 228.962 1065.98 228.497C1066.03 228.006 1066.08 227.515 1066.13 227.024C1066.14 226.867 1066.16 226.71 1066.17 226.553C1066.22 226.004 1066.27 225.456 1066.32 224.908C1066.33 224.797 1066.34 224.687 1066.35 224.576C1070 180.869 1058.61 135.718 1030.93 97.4754C1030.86 97.3683 1030.78 97.2609 1030.7 97.154C1030.45 96.8018 1030.19 96.4502 1029.93 96.0991C1029.85 95.9917 1029.77 95.8847 1029.69 95.7775C1029.63 95.6935 1029.57 95.6096 1029.5 95.5257C1001.12 57.3272 961.11 32.8315 917.987 23.323C917.894 23.3024 917.801 23.2823 917.708 23.2619C917.165 23.143 916.622 23.0261 916.078 22.912C915.945 22.8842 915.813 22.8571 915.681 22.8296C914.31 22.545 912.936 22.2756 911.559 22.0212C911.067 21.9303 910.576 21.8397 910.083 21.7527C909.83 21.7079 909.577 21.6653 909.323 21.6216C908.874 21.5441 908.425 21.4669 907.975 21.3926C907.709 21.3486 907.443 21.3056 907.177 21.2628C906.752 21.1945 906.328 21.1279 905.903 21.0625C905.589 21.0142 905.275 20.9667 904.961 20.92C904.607 20.8673 904.253 20.8162 903.898 20.7656C903.539 20.7142 903.18 20.6631 902.821 20.6138C902.539 20.5752 902.258 20.5381 901.977 20.5008C899.736 20.2033 897.489 19.9461 895.239 19.7283C895.066 19.7117 894.894 19.6949 894.722 19.6787C850.162 15.4886 803.966 26.9339 765.012 55.3617C764.938 55.416 764.864 55.4705 764.789 55.5249C764.61 55.6564 764.429 55.7867 764.25 55.9189C763.451 56.5082 762.658 57.1039 761.871 57.7032C761.802 57.7555 761.734 57.8075 761.665 57.8599C723.744 86.8063 699.7 127.362 690.838 170.863C690.814 170.979 690.789 171.096 690.765 171.213C690.687 171.603 690.611 171.993 690.535 172.383C690.472 172.707 690.407 173.031 690.345 173.356C690.284 173.681 690.224 174.007 690.164 174.332C690.09 174.732 690.017 175.132 689.946 175.532C689.892 175.832 689.84 176.132 689.788 176.431C689.717 176.84 689.648 177.249 689.579 177.659C689.53 177.958 689.481 178.257 689.433 178.556C689.356 179.028 689.282 179.501 689.21 179.975C689.178 180.181 689.145 180.387 689.114 180.594C689.031 181.143 688.952 181.692 688.874 182.242C688.848 182.428 688.821 182.615 688.795 182.801C688.698 183.504 688.604 184.208 688.515 184.912C688.477 185.21 688.442 185.508 688.405 185.805C688.358 186.189 688.311 186.573 688.267 186.957C688.225 187.316 688.186 187.674 688.147 188.033C688.108 188.386 688.069 188.74 688.032 189.093C687.986 189.527 687.942 189.961 687.9 190.396C687.879 190.607 687.859 190.819 687.839 191.03C687.786 191.589 687.736 192.149 687.688 192.709C687.684 192.755 687.681 192.802 687.677 192.848C683.913 237.166 695.602 282.986 724.07 321.598L724.07 321.599L709.582 332.281C681.862 294.683 667.604 248.847 669.106 202.159L669.189 199.973C671.15 154.073 688.255 110.09 717.865 74.9097L719.283 73.2419C748.759 38.9597 788.607 15.2143 832.785 5.60392L834.927 5.14979C879.959 -4.15117 926.782 1.73571 968.084 21.8539L970.046 22.8226C1011.17 43.3926 1044.3 77.0003 1064.29 118.367L1065.23 120.342C1084.8 161.954 1090.01 208.858 1080.1 253.717L1079.62 255.852C1069.23 300.645 1044.29 340.712 1008.74 369.81L1007.04 371.187Z" fill="#009966"/>
<path d="M380.104 398.849H879V416.849H380.104V398.849Z" fill="url(#paint1_linear_30_5)"/>
<path d="M732.47 348.224L703.889 335.548L729.055 317.145L732.47 348.224Z" fill="#009966"/>
<path d="M798 336.5C818.711 336.5 835.5 319.711 835.5 299C835.5 278.289 818.711 261.5 798 261.5C777.289 261.5 760.5 278.289 760.5 299C760.5 319.711 777.289 336.5 798 336.5Z" stroke="black" stroke-width="3" stroke-linecap="round" stroke-linejoin="round"/>
<path d="M831.75 310.25H764.25M831.75 287.75H764.25M783 299C783 321.5 798 336.5 798 336.5C798 336.5 813 321.5 813 299C813 276.5 798 261.5 798 261.5C798 261.5 783 276.5 783 299Z" stroke="black" stroke-width="3" stroke-linecap="round" stroke-linejoin="round"/>
<path d="M954.429 342.429C954.429 343.944 953.827 345.398 952.755 346.469C951.683 347.541 950.23 348.143 948.714 348.143H897.286C895.77 348.143 894.317 347.541 893.245 346.469C892.173 345.398 891.571 343.944 891.571 342.429V279.571C891.571 278.056 892.173 276.602 893.245 275.531C894.317 274.459 895.77 273.857 897.286 273.857H931.571L954.429 296.714V342.429Z" stroke="black" stroke-width="3" stroke-linecap="round" stroke-linejoin="round"/>
<path d="M903 331V309.531C903 308.766 903.623 308.143 904.389 308.143C904.937 308.143 905.429 308.463 905.651 308.96L909.96 318.531C910.1 318.841 910.327 319.104 910.613 319.288C910.899 319.473 911.231 319.571 911.571 319.571C911.912 319.571 912.244 319.473 912.53 319.288C912.816 319.104 913.042 318.841 913.183 318.531L917.491 308.96C917.599 308.716 917.776 308.508 918.001 308.363C918.225 308.218 918.487 308.141 918.754 308.143C919.52 308.143 920.143 308.766 920.143 309.531V331M937.286 308.143V331M937.286 331L931.571 325.286M937.286 331L943 325.286" stroke="black" stroke-width="3" stroke-linecap="round" stroke-linejoin="round"/>
<path d="M983.332 222.046V248.776M1011.04 236.015H994.575C990.458 236.015 982.733 232.715 983.321 223.925M983.25 266C985.239 266 987.147 265.21 988.553 263.803C989.96 262.397 990.75 260.489 990.75 258.5C990.75 256.511 989.96 254.603 988.553 253.197C987.147 251.79 985.239 251 983.25 251C981.261 251 979.353 251.79 977.947 253.197C976.54 254.603 975.75 256.511 975.75 258.5C975.75 260.489 976.54 262.397 977.947 263.803C979.353 265.21 981.261 266 983.25 266ZM983.25 221C985.239 221 987.147 220.21 988.553 218.803C989.96 217.397 990.75 215.489 990.75 213.5C990.75 211.511 989.96 209.603 988.553 208.197C987.147 206.79 985.239 206 983.25 206C981.261 206 979.353 206.79 977.947 208.197C976.54 209.603 975.75 211.511 975.75 213.5C975.75 215.489 976.54 217.397 977.947 218.803C979.353 220.21 981.261 221 983.25 221ZM1020.75 243.5C1022.74 243.5 1024.65 242.71 1026.05 241.303C1027.46 239.897 1028.25 237.989 1028.25 236C1028.25 234.011 1027.46 232.103 1026.05 230.697C1024.65 229.29 1022.74 228.5 1020.75 228.5C1018.76 228.5 1016.85 229.29 1015.45 230.697C1014.04 232.103 1013.25 234.011 1013.25 236C1013.25 237.989 1014.04 239.897 1015.45 241.303C1016.85 242.71 1018.76 243.5 1020.75 243.5Z" stroke="black" stroke-width="3" stroke-linecap="round" stroke-linejoin="round"/>
<path d="M899.5 219L906.4 224.948C909.299 227.449 910.75 228.697 910.75 230.25C910.75 231.803 909.299 233.051 906.4 235.552L899.5 241.5M884.5 219L877.6 224.948C874.701 227.449 873.25 228.697 873.25 230.25C873.25 231.803 874.701 233.051 877.6 235.552L884.5 241.5" stroke="black" stroke-width="3" stroke-linecap="round" stroke-linejoin="round"/>
<path d="M907 207.761V188.325C907 181.973 907 178.8 905.995 176.261C904.383 172.185 900.963 168.968 896.631 167.449C893.939 166.5 890.564 166.5 883.818 166.5C872.013 166.5 866.11 166.5 861.393 168.154C853.818 170.816 847.836 176.445 845.005 183.581C843.25 188.025 843.25 193.579 843.25 204.694V214.241C843.25 225.754 843.25 231.51 846.43 235.511C847.341 236.655 848.418 237.671 849.636 238.53C853.056 240.941 857.688 241.41 865.75 241.5" stroke="black" stroke-width="3" stroke-linecap="round" stroke-linejoin="round"/>
<path d="M843.25 204C843.25 200.685 844.567 197.506 846.911 195.162C849.255 192.818 852.434 191.501 855.749 191.501C858.246 191.501 861.19 191.936 863.616 191.287C864.676 191.002 865.643 190.443 866.419 189.667C867.195 188.89 867.753 187.923 868.037 186.862C868.686 184.436 868.251 181.492 868.251 178.995C868.252 175.681 869.57 172.503 871.913 170.159C874.257 167.816 877.436 166.5 880.75 166.5" stroke="black" stroke-width="3" stroke-linecap="round" stroke-linejoin="round"/>
<path d="M754.324 190.75L760.5 200.125M760.5 200.125L766.676 209.5M760.5 200.125L766.676 190.75M760.5 200.125L754.324 209.5M774.397 190.75H780.574M780.574 190.75H786.75M780.574 190.75V209.5M734.25 190.75H740.426M740.426 190.75H746.602M740.426 190.75V209.5M764.25 224.5H748.226C736.001 224.5 729.881 224.5 725.636 221.507C724.428 220.66 723.348 219.644 722.43 218.489C719.25 214.491 719.25 208.739 719.25 197.226V187.683C719.25 176.571 719.25 171.014 721.009 166.577C723.836 159.441 729.814 153.816 737.396 151.154C742.106 149.5 748.005 149.5 759.817 149.5C766.56 149.5 769.935 149.5 772.627 150.445C776.959 151.968 780.375 155.181 781.991 159.258C783 161.793 783 164.969 783 171.317V179.5" stroke="black" stroke-width="3" stroke-linecap="round" stroke-linejoin="round"/>
<path d="M719.25 187C719.25 183.685 720.567 180.506 722.911 178.162C725.255 175.818 728.434 174.501 731.749 174.501C734.246 174.501 737.19 174.936 739.616 174.287C740.676 174.002 741.643 173.443 742.419 172.667C743.195 171.89 743.753 170.923 744.037 169.862C744.686 167.436 744.251 164.492 744.251 161.995C744.252 158.681 745.57 155.503 747.913 153.159C750.257 150.816 753.436 149.5 756.75 149.5" stroke="black" stroke-width="3" stroke-linecap="round" stroke-linejoin="round"/>
<path d="M983 113.875V112C983 97.8588 983 90.7862 978.605 86.395C974.21 82.0037 967.141 82 953 82C938.859 82 931.786 82 927.395 86.395C923.004 90.79 923 97.8588 923 112V134.5C923 141.49 923 144.985 924.14 147.738C924.894 149.558 925.999 151.211 927.392 152.604C928.785 153.997 930.439 155.102 932.259 155.856C935.015 157 938.51 157 945.5 157M938 100.75H968M938 115.75H953" stroke="black" stroke-width="3" stroke-linecap="round" stroke-linejoin="round"/>
<path d="M969.061 145.765C968.836 142.435 968.443 138.872 966.808 134.845C965.409 131.41 965.799 123.329 973.625 123.329C981.451 123.329 981.748 131.41 980.353 134.841C978.718 138.872 978.41 142.435 978.193 145.765M990.5 157H956.75V152.327C956.75 150.655 957.747 149.181 959.199 148.724L967.655 146.039C968.26 145.846 968.878 145.75 969.508 145.75H977.742C978.372 145.75 978.99 145.846 979.595 146.039L988.051 148.724C989.503 149.181 990.5 150.655 990.5 152.327V157Z" stroke="black" stroke-width="3" stroke-linecap="round" stroke-linejoin="round"/>
<path d="M856.119 123.369L850.569 117.819C849.856 117.106 849.504 116.754 849.084 116.506C848.792 116.338 848.48 116.209 848.154 116.124C847.681 116 847.175 116 846.177 116C841.572 116 839.27 116 837.552 116.975C836.372 117.643 835.395 118.619 834.725 119.799C833.75 121.524 833.75 123.822 833.75 128.424V132.875C833.75 138.14 833.75 140.776 835.014 142.666C835.561 143.484 836.266 144.189 837.084 144.736C838.974 146 841.61 146 846.875 146C852.14 146 854.776 146 856.666 144.736C857.484 144.189 858.189 143.484 858.736 142.666C860 140.776 860 138.11 860 132.781C860 130.404 860 129.219 859.662 128.131C859.526 127.695 859.351 127.272 859.137 126.868C858.609 125.859 857.776 125.03 856.119 123.365M822.5 86H800M800 86V71M800 86V108.5C800 119.105 800 124.411 803.296 127.704C806.589 131 811.895 131 822.5 131M856.119 78.365L850.569 72.8187C849.856 72.1062 849.504 71.7537 849.084 71.5062C848.792 71.3376 848.48 71.2089 848.154 71.1237C847.681 71 847.175 71 846.177 71C841.572 71 839.27 71 837.552 71.975C836.372 72.6432 835.395 73.6191 834.725 74.7988C833.75 76.5238 833.75 78.8225 833.75 83.4238V87.875C833.75 93.14 833.75 95.7763 835.014 97.6663C835.561 98.4855 836.264 99.1889 837.084 99.7363C838.974 101 841.61 101 846.875 101C852.14 101 854.776 101 856.666 99.7363C857.486 99.1889 858.189 98.4855 858.736 97.6663C860 95.7763 860 93.11 860 87.7812C860 85.4037 860 84.2188 859.662 83.1313C859.526 82.6949 859.351 82.2719 859.137 81.8675C858.609 80.8587 857.776 80.03 856.119 78.365Z" stroke="black" stroke-width="3" stroke-linecap="round" stroke-linejoin="round"/>
<defs>
<linearGradient id="paint0_linear_30_5" x1="705.896" y1="10" x2="207" y2="10" gradientUnits="userSpaceOnUse">
<stop stop-color="#162456" stop-opacity="0.5"/>
<stop offset="0.25" stop-color="#1C398E"/>
<stop offset="0.5" stop-color="#1447E6"/>
</linearGradient>
<linearGradient id="paint1_linear_30_5" x1="380.104" y1="407.849" x2="879" y2="407.849" gradientUnits="userSpaceOnUse">
<stop stop-color="#002C22" stop-opacity="0.5"/>
<stop offset="0.25" stop-color="#006045"/>
<stop offset="0.5" stop-color="#009966"/>
</linearGradient>
</defs>
</svg>
