<svg xmlns="http://www.w3.org/2000/svg" xmlns:xlink="http://www.w3.org/1999/xlink" xmlns:lucid="lucid" width="1522" height="1227"><g transform="translate(-39 -39)" lucid:page-tab-id="0_0"><path d="M0 0h1760v1360H0z" fill="#fff"/><path d="M40 46a6 6 0 0 1 6-6h308a6 6 0 0 1 6 6v65a6 6 0 0 1-6 6H46a6 6 0 0 1-6-6z" fill="#fff"/><path d="M40 80V46a6 6 0 0 1 6-6h308a6 6 0 0 1 6 6v34" fill="#ccc"/><path d="M40 46a6 6 0 0 1 6-6h308a6 6 0 0 1 6 6v65a6 6 0 0 1-6 6H46a6 6 0 0 1-6-6zM40 80h320" stroke="#000" stroke-width="2" fill="none"/><use xlink:href="#a" transform="matrix(1,0,0,1,50,40) translate(104.31315104166667 28.08376736111111)"/><use xlink:href="#b" transform="matrix(1,0,0,1,45,82.5) translate(0 24.08376736111111)"/><path d="M440 46a6 6 0 0 1 6-6h308a6 6 0 0 1 6 6v139a6 6 0 0 1-6 6H446a6 6 0 0 1-6-6z" fill="#fff"/><path d="M440 117v38h320v-38" fill="#e6e6e6"/><path d="M440 80V46a6 6 0 0 1 6-6h308a6 6 0 0 1 6 6v34" fill="#ccc"/><path d="M440 46a6 6 0 0 1 6-6h308a6 6 0 0 1 6 6v139a6 6 0 0 1-6 6H446a6 6 0 0 1-6-6zM440 80h320" stroke="#000" stroke-width="2" fill="none"/><use xlink:href="#c" transform="matrix(1,0,0,1,450,40) translate(68.37565104166667 28.08376736111111)"/><use xlink:href="#b" transform="matrix(1,0,0,1,445,82.5) translate(0 24.08376736111111)"/><use xlink:href="#d" transform="matrix(1,0,0,1,445,119.5) translate(0 24.08376736111111)"/><use xlink:href="#e" transform="matrix(1,0,0,1,445,156.5) translate(0 24.08376736111111)"/><path d="M840 46a6 6 0 0 1 6-6h308a6 6 0 0 1 6 6v250a6 6 0 0 1-6 6H846a6 6 0 0 1-6-6z" fill="#fff"/><path d="M840 117v38h320v-38M840 191v38h320v-38M840 265v31a6 6 0 0 0 6 6h308a6 6 0 0 0 6-6v-31" fill="#e6e6e6"/><path d="M840 80V46a6 6 0 0 1 6-6h308a6 6 0 0 1 6 6v34" fill="#ccc"/><path d="M840 46a6 6 0 0 1 6-6h308a6 6 0 0 1 6 6v250a6 6 0 0 1-6 6H846a6 6 0 0 1-6-6zM840 80h320" stroke="#000" stroke-width="2" fill="none"/><use xlink:href="#f" transform="matrix(1,0,0,1,850,40) translate(76.3671875 28.08376736111111)"/><use xlink:href="#b" transform="matrix(1,0,0,1,845,82.5) translate(0 24.08376736111111)"/><use xlink:href="#g" transform="matrix(1,0,0,1,845,119.5) translate(0 24.08376736111111)"/><use xlink:href="#d" transform="matrix(1,0,0,1,845,156.5) translate(0 24.08376736111111)"/><use xlink:href="#h" transform="matrix(1,0,0,1,845,193.5) translate(0 24.08376736111111)"/><use xlink:href="#i" transform="matrix(1,0,0,1,845,230.5) translate(0 24.08376736111111)"/><use xlink:href="#j" transform="matrix(1,0,0,1,845,267.5) translate(0 24.08376736111111)"/><path d="M440 366a6 6 0 0 1 6-6h308a6 6 0 0 1 6 6v176a6 6 0 0 1-6 6H446a6 6 0 0 1-6-6z" fill="#fff"/><path d="M440 437v38h320v-38M440 511v31a6 6 0 0 0 6 6h308a6 6 0 0 0 6-6v-31" fill="#e6e6e6"/><path d="M440 400v-34a6 6 0 0 1 6-6h308a6 6 0 0 1 6 6v34" fill="#ccc"/><path d="M440 366a6 6 0 0 1 6-6h308a6 6 0 0 1 6 6v176a6 6 0 0 1-6 6H446a6 6 0 0 1-6-6zM440 400h320" stroke="#000" stroke-width="2" fill="none"/><use xlink:href="#k" transform="matrix(1,0,0,1,450,360) translate(0.9114583333333428 28.08376736111111)"/><use xlink:href="#b" transform="matrix(1,0,0,1,445,402.5) translate(0 24.08376736111111)"/><use xlink:href="#d" transform="matrix(1,0,0,1,445,439.5) translate(0 24.08376736111111)"/><use xlink:href="#l" transform="matrix(1,0,0,1,445,476.5) translate(0 24.08376736111111)"/><use xlink:href="#e" transform="matrix(1,0,0,1,445,513.5) translate(0 24.08376736111111)"/><path d="M840 366a6 6 0 0 1 6-6h308a6 6 0 0 1 6 6v324a6 6 0 0 1-6 6H846a6 6 0 0 1-6-6z" fill="#fff"/><path d="M840 437v38h320v-38M840 511v38h320v-38M840 585v38h320v-38M840 659v31a6 6 0 0 0 6 6h308a6 6 0 0 0 6-6v-31" fill="#e6e6e6"/><path d="M840 400v-34a6 6 0 0 1 6-6h308a6 6 0 0 1 6 6v34" fill="#ccc"/><path d="M840 366a6 6 0 0 1 6-6h308a6 6 0 0 1 6 6v324a6 6 0 0 1-6 6H846a6 6 0 0 1-6-6zM840 400h320" stroke="#000" stroke-width="2" fill="none"/><use xlink:href="#m" transform="matrix(1,0,0,1,850,360) translate(33.7131076388889 28.08376736111111)"/><use xlink:href="#b" transform="matrix(1,0,0,1,845,402.5) translate(0 24.08376736111111)"/><use xlink:href="#n" transform="matrix(1,0,0,1,845,439.5) translate(0 24.08376736111111)"/><use xlink:href="#d" transform="matrix(1,0,0,1,845,476.5) translate(0 24.08376736111111)"/><use xlink:href="#l" transform="matrix(1,0,0,1,845,513.5) translate(0 24.08376736111111)"/><use xlink:href="#h" transform="matrix(1,0,0,1,845,550.5) translate(0 24.08376736111111)"/><use xlink:href="#i" transform="matrix(1,0,0,1,845,587.5) translate(0 24.08376736111111)"/><use xlink:href="#j" transform="matrix(1,0,0,1,845,624.5) translate(0 24.08376736111111)"/><use xlink:href="#o" transform="matrix(1,0,0,1,845,661.5) translate(0 24.08376736111111)"/><path d="M1240 366a6 6 0 0 1 6-6h308a6 6 0 0 1 6 6v324a6 6 0 0 1-6 6h-308a6 6 0 0 1-6-6z" fill="#fff"/><path d="M1240 437v38h320v-38M1240 511v38h320v-38M1240 585v38h320v-38M1240 659v31a6 6 0 0 0 6 6h308a6 6 0 0 0 6-6v-31" fill="#e6e6e6"/><path d="M1240 400v-34a6 6 0 0 1 6-6h308a6 6 0 0 1 6 6v34" fill="#ccc"/><path d="M1240 366a6 6 0 0 1 6-6h308a6 6 0 0 1 6 6v324a6 6 0 0 1-6 6h-308a6 6 0 0 1-6-6zM1240 400h320" stroke="#000" stroke-width="2" fill="none"/><use xlink:href="#p" transform="matrix(1,0,0,1,1250,360) translate(50.29839409722223 28.08376736111111)"/><use xlink:href="#b" transform="matrix(1,0,0,1,1245,402.5) translate(0 24.08376736111111)"/><use xlink:href="#q" transform="matrix(1,0,0,1,1245,439.5) translate(0 24.08376736111111)"/><use xlink:href="#n" transform="matrix(1,0,0,1,1245,476.5) translate(0 24.08376736111111)"/><use xlink:href="#d" transform="matrix(1,0,0,1,1245,513.5) translate(0 24.08376736111111)"/><use xlink:href="#r" transform="matrix(1,0,0,1,1245,550.5) translate(0 24.08376736111111)"/><use xlink:href="#s" transform="matrix(1,0,0,1,1245,587.5) translate(0 24.08376736111111)"/><use xlink:href="#t" transform="matrix(1,0,0,1,1245,624.5) translate(0 24.08376736111111)"/><use xlink:href="#o" transform="matrix(1,0,0,1,1245,661.5) translate(0 24.08376736111111)"/><path d="M440 766a6 6 0 0 1 6-6h308a6 6 0 0 1 6 6v213a6 6 0 0 1-6 6H446a6 6 0 0 1-6-6z" fill="#fff"/><path d="M440 837v38h320v-38M440 911v38h320v-38" fill="#e6e6e6"/><path d="M440 800v-34a6 6 0 0 1 6-6h308a6 6 0 0 1 6 6v34" fill="#ccc"/><path d="M440 766a6 6 0 0 1 6-6h308a6 6 0 0 1 6 6v213a6 6 0 0 1-6 6H446a6 6 0 0 1-6-6zM440 800h320" stroke="#000" stroke-width="2" fill="none"/><use xlink:href="#u" transform="matrix(1,0,0,1,450,760) translate(52.30577256944446 28.08376736111111)"/><use xlink:href="#b" transform="matrix(1,0,0,1,445,802.5) translate(0 24.08376736111111)"/><use xlink:href="#d" transform="matrix(1,0,0,1,445,839.5) translate(0 24.08376736111111)"/><use xlink:href="#l" transform="matrix(1,0,0,1,445,876.5) translate(0 24.08376736111111)"/><use xlink:href="#v" transform="matrix(1,0,0,1,445,913.5) translate(0 24.08376736111111)"/><use xlink:href="#w" transform="matrix(1,0,0,1,445,950.5) translate(0 24.08376736111111)"/><path d="M440 1046a6 6 0 0 1 6-6h308a6 6 0 0 1 6 6v213a6 6 0 0 1-6 6H446a6 6 0 0 1-6-6z" fill="#fff"/><path d="M440 1117v38h320v-38M440 1191v38h320v-38" fill="#e6e6e6"/><path d="M440 1080v-34a6 6 0 0 1 6-6h308a6 6 0 0 1 6 6v34" fill="#ccc"/><path d="M440 1046a6 6 0 0 1 6-6h308a6 6 0 0 1 6 6v213a6 6 0 0 1-6 6H446a6 6 0 0 1-6-6zM440 1080h320" stroke="#000" stroke-width="2" fill="none"/><use xlink:href="#x" transform="matrix(1,0,0,1,450,1040) translate(71.38671875 28.08376736111111)"/><use xlink:href="#b" transform="matrix(1,0,0,1,445,1082.5) translate(0 24.08376736111111)"/><use xlink:href="#d" transform="matrix(1,0,0,1,445,1119.5) translate(0 24.08376736111111)"/><use xlink:href="#l" transform="matrix(1,0,0,1,445,1156.5) translate(0 24.08376736111111)"/><use xlink:href="#v" transform="matrix(1,0,0,1,445,1193.5) translate(0 24.08376736111111)"/><use xlink:href="#w" transform="matrix(1,0,0,1,445,1230.5) translate(0 24.08376736111111)"/><path d="M419 135.63h-13a6 6 0 0 1-6-6v-25a6 6 0 0 0-6-6h-13.6M439 135.63h-20m0-10v20M361.22 98.63h20m-20 10l20-10m-20-10l20 10" stroke="#3a414a" fill="none"/><path d="M419 455.5h-13a6 6 0 0 1-6-6V104.63a6 6 0 0 0-6-6h-13.6M439 455.5h-20m0-10v20M361.22 98.63h20m-20 10l20-10m-20-10l20 10" stroke="#3a414a" fill="none"/><path d="M419 855.5h-13a6 6 0 0 1-6-6V104.62a6 6 0 0 0-6-6h-13.6M439 855.5h-20m0-10v20M361.22 98.63h20m-20 10l20-10m-20-10l20 10" stroke="#3a414a" fill="none"/><path d="M419 1135.5h-13a6 6 0 0 1-6-6V104.62a6 6 0 0 0-6-6h-13.6M439 1135.5h-20m0-10v20M361.22 98.63h20m-20 10l20-10m-20-10l20 10M819 135.28h-13a6 6 0 0 1-6-6v-24.9a6 6 0 0 0-6-6h-13.6M839 135.28h-20m0-10v20M761.22 98.4h20m-20 10l20-10m-20-10l20 10M819 455.05h-13a6 6 0 0 1-6-6v-24.77a6 6 0 0 0-6-6h-13.6M839 455.05h-20m0-10v20M761.22 418.28h20m-20 10l20-10m-20-10l20 10M1219 455.05h-13a6 6 0 0 1-6-6v-25.23a6 6 0 0 0-6-6h-13.6M1239 455.05h-20m0-10v20M1161.22 417.82h20m-20 10l20-10m-20-10l20 10" stroke="#3a414a" fill="none"/><defs><path d="M657 26c-323 0-524-166-541-416h195c15 169 171 246 346 246 202 0 356-106 356-265 5-203-294-238-475-293-239-73-380-191-380-389 0-252 224-419 512-419 294 0 499 171 508 396H992c-17-145-151-228-328-228-193 0-321 102-321 242 0 156 175 211 284 241l149 41c160 44 422 134 422 412 0 244-197 432-541 432" id="y"/><path d="M600 0v-610L52-1490h220l295 481c50 82 90 150 130 243 40-96 80-164 128-243l294-481h219L790-610V0H600" id="z"/><path d="M98-1322v-168h1126v168H757V0H567v-1322H98" id="A"/><path d="M180 0v-1490h908v168H370v486h669v168H370v500h727V0H180" id="B"/><path d="M180 0v-1490h270l367 940c28 72 75 218 110 339 35-117 81-264 110-339l362-940h271V0h-187c2-448-5-837 7-1287-157 497-311 829-483 1287H842C666-458 514-784 354-1284c12 438 5 843 7 1284H180" id="C"/><g id="a"><use transform="matrix(0.010850694444444444,0,0,0.010850694444444444,0,0)" xlink:href="#y"/><use transform="matrix(0.010850694444444444,0,0,0.010850694444444444,14.2578125,0)" xlink:href="#z"/><use transform="matrix(0.010850694444444444,0,0,0.010850694444444444,29.340277777777775,0)" xlink:href="#y"/><use transform="matrix(0.010850694444444444,0,0,0.010850694444444444,43.59809027777778,0)" xlink:href="#A"/><use transform="matrix(0.010850694444444444,0,0,0.010850694444444444,57.94270833333333,0)" xlink:href="#B"/><use transform="matrix(0.010850694444444444,0,0,0.010850694444444444,71.29991319444444,0)" xlink:href="#C"/></g><path d="M370-1490V0H180v-1490h190" id="D"/><path d="M645 0H180v-1490h484c435 0 692 280 692 742 0 466-257 748-711 748zM370-168h263c363 0 539-218 539-580 0-358-176-574-521-574H370v1154" id="E"/><g id="b"><use transform="matrix(0.010850694444444444,0,0,0.010850694444444444,0,0)" xlink:href="#D"/><use transform="matrix(0.010850694444444444,0,0,0.010850694444444444,5.967881944444445,0)" xlink:href="#E"/></g><path d="M934 0v166H0V0h934" id="F"/><path d="M783 20c-382 0-661-292-661-764 0-473 279-766 661-766 302 0 548 182 601 489h-190c-42-204-217-313-411-313-268 0-476 208-476 590 0 381 209 588 476 588 195 0 369-110 411-313h190c-52 303-296 489-601 489" id="G"/><path d="M784 20c-382 0-662-292-662-764 0-473 280-766 662-766s660 293 660 766c0 472-278 764-660 764zm0-176c266 0 475-207 475-588 0-383-209-590-475-590-268 0-477 208-477 590 0 380 209 588 477 588" id="H"/><g id="c"><use transform="matrix(0.010850694444444444,0,0,0.010850694444444444,0,0)" xlink:href="#y"/><use transform="matrix(0.010850694444444444,0,0,0.010850694444444444,14.2578125,0)" xlink:href="#z"/><use transform="matrix(0.010850694444444444,0,0,0.010850694444444444,29.340277777777775,0)" xlink:href="#y"/><use transform="matrix(0.010850694444444444,0,0,0.010850694444444444,43.59809027777778,0)" xlink:href="#A"/><use transform="matrix(0.010850694444444444,0,0,0.010850694444444444,57.94270833333333,0)" xlink:href="#B"/><use transform="matrix(0.010850694444444444,0,0,0.010850694444444444,71.29991319444444,0)" xlink:href="#C"/><use transform="matrix(0.010850694444444444,0,0,0.010850694444444444,91.37369791666666,0)" xlink:href="#F"/><use transform="matrix(0.010850694444444444,0,0,0.010850694444444444,100.62934027777777,0)" xlink:href="#G"/><use transform="matrix(0.010850694444444444,0,0,0.010850694444444444,116.86197916666666,0)" xlink:href="#H"/><use transform="matrix(0.010850694444444444,0,0,0.010850694444444444,133.85416666666666,0)" xlink:href="#E"/><use transform="matrix(0.010850694444444444,0,0,0.010850694444444444,149.89149305555554,0)" xlink:href="#B"/></g><g id="d"><use transform="matrix(0.010850694444444444,0,0,0.010850694444444444,0,0)" xlink:href="#y"/><use transform="matrix(0.010850694444444444,0,0,0.010850694444444444,14.2578125,0)" xlink:href="#z"/><use transform="matrix(0.010850694444444444,0,0,0.010850694444444444,29.340277777777775,0)" xlink:href="#y"/><use transform="matrix(0.010850694444444444,0,0,0.010850694444444444,43.59809027777778,0)" xlink:href="#A"/><use transform="matrix(0.010850694444444444,0,0,0.010850694444444444,57.94270833333333,0)" xlink:href="#B"/><use transform="matrix(0.010850694444444444,0,0,0.010850694444444444,71.29991319444444,0)" xlink:href="#C"/><use transform="matrix(0.010850694444444444,0,0,0.010850694444444444,91.37369791666666,0)" xlink:href="#F"/><use transform="matrix(0.010850694444444444,0,0,0.010850694444444444,102.25694444444444,0)" xlink:href="#D"/><use transform="matrix(0.010850694444444444,0,0,0.010850694444444444,108.22482638888889,0)" xlink:href="#E"/></g><path d="M180 0v-1490h510c348 0 508 209 508 474 0 266-160 477-507 477H370V0H180zm190-706h312c236 0 327-133 327-310 0-176-91-307-329-307H370v617" id="I"/><path d="M52 0l541-1490h220L1361 0h-200l-149-416H398L254 0H52zm404-582h497c-103-290-145-390-251-756-108 377-145 460-246 756" id="J"/><path d="M180 0v-1490h190v644h782v-644h190V0h-190v-678H370V0H180" id="K"/><g id="e"><use transform="matrix(0.010850694444444444,0,0,0.010850694444444444,0,0)" xlink:href="#I"/><use transform="matrix(0.010850694444444444,0,0,0.010850694444444444,12.554253472222221,0)" xlink:href="#J"/><use transform="matrix(0.010850694444444444,0,0,0.010850694444444444,25.99826388888889,0)" xlink:href="#A"/><use transform="matrix(0.010850694444444444,0,0,0.010850694444444444,40.34288194444444,0)" xlink:href="#K"/></g><path d="M180 0v-1490h901v168H370v510h643v168H370V0H180" id="L"/><path d="M180 0v-1490h190v1322h690V0H180" id="M"/><g id="f"><use transform="matrix(0.010850694444444444,0,0,0.010850694444444444,0,0)" xlink:href="#y"/><use transform="matrix(0.010850694444444444,0,0,0.010850694444444444,14.2578125,0)" xlink:href="#z"/><use transform="matrix(0.010850694444444444,0,0,0.010850694444444444,29.340277777777775,0)" xlink:href="#y"/><use transform="matrix(0.010850694444444444,0,0,0.010850694444444444,43.59809027777778,0)" xlink:href="#A"/><use transform="matrix(0.010850694444444444,0,0,0.010850694444444444,57.94270833333333,0)" xlink:href="#B"/><use transform="matrix(0.010850694444444444,0,0,0.010850694444444444,71.29991319444444,0)" xlink:href="#C"/><use transform="matrix(0.010850694444444444,0,0,0.010850694444444444,91.37369791666666,0)" xlink:href="#F"/><use transform="matrix(0.010850694444444444,0,0,0.010850694444444444,102.25694444444444,0)" xlink:href="#L"/><use transform="matrix(0.010850694444444444,0,0,0.010850694444444444,115.37543402777777,0)" xlink:href="#D"/><use transform="matrix(0.010850694444444444,0,0,0.010850694444444444,121.34331597222221,0)" xlink:href="#M"/><use transform="matrix(0.010850694444444444,0,0,0.010850694444444444,133.90842013888889,0)" xlink:href="#B"/></g><g id="g"><use transform="matrix(0.010850694444444444,0,0,0.010850694444444444,0,0)" xlink:href="#G"/><use transform="matrix(0.010850694444444444,0,0,0.010850694444444444,16.23263888888889,0)" xlink:href="#H"/><use transform="matrix(0.010850694444444444,0,0,0.010850694444444444,33.224826388888886,0)" xlink:href="#E"/><use transform="matrix(0.010850694444444444,0,0,0.010850694444444444,49.26215277777778,0)" xlink:href="#B"/><use transform="matrix(0.010850694444444444,0,0,0.010850694444444444,62.619357638888886,0)" xlink:href="#F"/><use transform="matrix(0.010850694444444444,0,0,0.010850694444444444,73.50260416666666,0)" xlink:href="#D"/><use transform="matrix(0.010850694444444444,0,0,0.010850694444444444,79.4704861111111,0)" xlink:href="#E"/></g><path d="M180 0v-1490h224l606 953c40 63 108 177 176 312-27-437-7-821-13-1265h190V0h-226C860-448 622-778 356-1262c27 476 11 792 15 1262H180" id="N"/><g id="h"><use transform="matrix(0.010850694444444444,0,0,0.010850694444444444,0,0)" xlink:href="#J"/><use transform="matrix(0.010850694444444444,0,0,0.010850694444444444,14.572482638888888,0)" xlink:href="#G"/><use transform="matrix(0.010850694444444444,0,0,0.010850694444444444,30.805121527777775,0)" xlink:href="#A"/><use transform="matrix(0.010850694444444444,0,0,0.010850694444444444,45.14973958333333,0)" xlink:href="#D"/><use transform="matrix(0.010850694444444444,0,0,0.010850694444444444,51.11762152777778,0)" xlink:href="#H"/><use transform="matrix(0.010850694444444444,0,0,0.010850694444444444,68.10980902777777,0)" xlink:href="#N"/></g><path d="M180 0v-1490h510c348 0 508 194 508 460 0 198-88 351-276 417L1256 0h-220L726-579c-117 2-238 0-356 1V0H180zm190-747h312c235 0 327-108 327-283 0-177-92-293-329-293H370v576" id="O"/><path d="M789 20c-398 0-667-293-667-764 0-473 273-766 655-766 315 0 558 198 612 487h-196c-61-191-204-311-415-311-262 0-471 207-471 590 0 380 208 588 482 588 249 0 420-165 425-427H828v-166h572v163c0 370-256 606-611 606" id="P"/><g id="i"><use transform="matrix(0.010850694444444444,0,0,0.010850694444444444,0,0)" xlink:href="#H"/><use transform="matrix(0.010850694444444444,0,0,0.010850694444444444,16.9921875,0)" xlink:href="#O"/><use transform="matrix(0.010850694444444444,0,0,0.010850694444444444,31.293402777777775,0)" xlink:href="#D"/><use transform="matrix(0.010850694444444444,0,0,0.010850694444444444,37.26128472222222,0)" xlink:href="#P"/><use transform="matrix(0.010850694444444444,0,0,0.010850694444444444,53.84114583333333,0)" xlink:href="#D"/><use transform="matrix(0.010850694444444444,0,0,0.010850694444444444,59.80902777777778,0)" xlink:href="#N"/><use transform="matrix(0.010850694444444444,0,0,0.010850694444444444,76.55164930555554,0)" xlink:href="#J"/><use transform="matrix(0.010850694444444444,0,0,0.010850694444444444,91.88368055555556,0)" xlink:href="#M"/><use transform="matrix(0.010850694444444444,0,0,0.010850694444444444,104.44878472222221,0)" xlink:href="#F"/><use transform="matrix(0.010850694444444444,0,0,0.010850694444444444,115.33203125,0)" xlink:href="#D"/><use transform="matrix(0.010850694444444444,0,0,0.010850694444444444,121.29991319444444,0)" xlink:href="#E"/></g><path d="M458 0L52-1490h194c108 439 233 855 324 1313 92-459 221-873 331-1313h216c110 438 234 854 330 1307 92-455 216-869 323-1307h196L1558 0h-221l-256-944c-26-95-50-200-73-331-22 122-44 223-73 331L680 0H458" id="Q"/><g id="j"><use transform="matrix(0.010850694444444444,0,0,0.010850694444444444,0,0)" xlink:href="#O"/><use transform="matrix(0.010850694444444444,0,0,0.010850694444444444,14.301215277777777,0)" xlink:href="#J"/><use transform="matrix(0.010850694444444444,0,0,0.010850694444444444,28.37456597222222,0)" xlink:href="#Q"/><use transform="matrix(0.010850694444444444,0,0,0.010850694444444444,50.27126736111112,0)" xlink:href="#F"/><use transform="matrix(0.010850694444444444,0,0,0.010850694444444444,61.154513888888886,0)" xlink:href="#E"/><use transform="matrix(0.010850694444444444,0,0,0.010850694444444444,76.43229166666666,0)" xlink:href="#J"/><use transform="matrix(0.010850694444444444,0,0,0.010850694444444444,89.87630208333333,0)" xlink:href="#A"/><use transform="matrix(0.010850694444444444,0,0,0.010850694444444444,102.33289930555556,0)" xlink:href="#J"/></g><path d="M763 24c-353 0-583-224-583-531v-983h190v968c0 214 149 370 393 370 243 0 391-156 391-370v-968h190v983c0 307-230 531-581 531" id="R"/><g id="k"><use transform="matrix(0.010850694444444444,0,0,0.010850694444444444,0,0)" xlink:href="#y"/><use transform="matrix(0.010850694444444444,0,0,0.010850694444444444,14.2578125,0)" xlink:href="#z"/><use transform="matrix(0.010850694444444444,0,0,0.010850694444444444,29.340277777777775,0)" xlink:href="#y"/><use transform="matrix(0.010850694444444444,0,0,0.010850694444444444,43.59809027777778,0)" xlink:href="#A"/><use transform="matrix(0.010850694444444444,0,0,0.010850694444444444,57.94270833333333,0)" xlink:href="#B"/><use transform="matrix(0.010850694444444444,0,0,0.010850694444444444,71.29991319444444,0)" xlink:href="#C"/><use transform="matrix(0.010850694444444444,0,0,0.010850694444444444,91.37369791666666,0)" xlink:href="#F"/><use transform="matrix(0.010850694444444444,0,0,0.010850694444444444,102.25694444444444,0)" xlink:href="#E"/><use transform="matrix(0.010850694444444444,0,0,0.010850694444444444,118.29427083333333,0)" xlink:href="#H"/><use transform="matrix(0.010850694444444444,0,0,0.010850694444444444,135.28645833333331,0)" xlink:href="#G"/><use transform="matrix(0.010850694444444444,0,0,0.010850694444444444,151.5190972222222,0)" xlink:href="#R"/><use transform="matrix(0.010850694444444444,0,0,0.010850694444444444,168.05555555555554,0)" xlink:href="#C"/><use transform="matrix(0.010850694444444444,0,0,0.010850694444444444,188.12934027777777,0)" xlink:href="#B"/><use transform="matrix(0.010850694444444444,0,0,0.010850694444444444,201.48654513888889,0)" xlink:href="#N"/><use transform="matrix(0.010850694444444444,0,0,0.010850694444444444,218.22916666666666,0)" xlink:href="#A"/><use transform="matrix(0.010850694444444444,0,0,0.010850694444444444,230.68576388888883,0)" xlink:href="#J"/><use transform="matrix(0.010850694444444444,0,0,0.010850694444444444,244.12977430555551,0)" xlink:href="#A"/><use transform="matrix(0.010850694444444444,0,0,0.010850694444444444,258.4743923611111,0)" xlink:href="#D"/><use transform="matrix(0.010850694444444444,0,0,0.010850694444444444,264.44227430555554,0)" xlink:href="#H"/><use transform="matrix(0.010850694444444444,0,0,0.010850694444444444,281.43446180555554,0)" xlink:href="#N"/></g><g id="l"><use transform="matrix(0.010850694444444444,0,0,0.010850694444444444,0,0)" xlink:href="#A"/><use transform="matrix(0.010850694444444444,0,0,0.010850694444444444,14.778645833333332,0)" xlink:href="#z"/><use transform="matrix(0.010850694444444444,0,0,0.010850694444444444,29.86111111111111,0)" xlink:href="#I"/><use transform="matrix(0.010850694444444444,0,0,0.010850694444444444,44.05381944444444,0)" xlink:href="#B"/></g><g id="m"><use transform="matrix(0.010850694444444444,0,0,0.010850694444444444,0,0)" xlink:href="#y"/><use transform="matrix(0.010850694444444444,0,0,0.010850694444444444,14.2578125,0)" xlink:href="#z"/><use transform="matrix(0.010850694444444444,0,0,0.010850694444444444,29.340277777777775,0)" xlink:href="#y"/><use transform="matrix(0.010850694444444444,0,0,0.010850694444444444,43.59809027777778,0)" xlink:href="#A"/><use transform="matrix(0.010850694444444444,0,0,0.010850694444444444,57.94270833333333,0)" xlink:href="#B"/><use transform="matrix(0.010850694444444444,0,0,0.010850694444444444,71.29991319444444,0)" xlink:href="#C"/><use transform="matrix(0.010850694444444444,0,0,0.010850694444444444,91.37369791666666,0)" xlink:href="#F"/><use transform="matrix(0.010850694444444444,0,0,0.010850694444444444,102.25694444444444,0)" xlink:href="#E"/><use transform="matrix(0.010850694444444444,0,0,0.010850694444444444,118.29427083333333,0)" xlink:href="#H"/><use transform="matrix(0.010850694444444444,0,0,0.010850694444444444,135.28645833333331,0)" xlink:href="#G"/><use transform="matrix(0.010850694444444444,0,0,0.010850694444444444,151.5190972222222,0)" xlink:href="#R"/><use transform="matrix(0.010850694444444444,0,0,0.010850694444444444,168.05555555555554,0)" xlink:href="#C"/><use transform="matrix(0.010850694444444444,0,0,0.010850694444444444,188.12934027777777,0)" xlink:href="#B"/><use transform="matrix(0.010850694444444444,0,0,0.010850694444444444,201.48654513888889,0)" xlink:href="#N"/><use transform="matrix(0.010850694444444444,0,0,0.010850694444444444,218.22916666666666,0)" xlink:href="#A"/></g><g id="n"><use transform="matrix(0.010850694444444444,0,0,0.010850694444444444,0,0)" xlink:href="#E"/><use transform="matrix(0.010850694444444444,0,0,0.010850694444444444,16.03732638888889,0)" xlink:href="#H"/><use transform="matrix(0.010850694444444444,0,0,0.010850694444444444,33.029513888888886,0)" xlink:href="#G"/><use transform="matrix(0.010850694444444444,0,0,0.010850694444444444,49.26215277777778,0)" xlink:href="#R"/><use transform="matrix(0.010850694444444444,0,0,0.010850694444444444,65.7986111111111,0)" xlink:href="#C"/><use transform="matrix(0.010850694444444444,0,0,0.010850694444444444,85.87239583333331,0)" xlink:href="#B"/><use transform="matrix(0.010850694444444444,0,0,0.010850694444444444,99.22960069444441,0)" xlink:href="#N"/><use transform="matrix(0.010850694444444444,0,0,0.010850694444444444,115.9722222222222,0)" xlink:href="#A"/><use transform="matrix(0.010850694444444444,0,0,0.010850694444444444,128.42881944444443,0)" xlink:href="#J"/><use transform="matrix(0.010850694444444444,0,0,0.010850694444444444,141.8728298611111,0)" xlink:href="#A"/><use transform="matrix(0.010850694444444444,0,0,0.010850694444444444,156.21744791666663,0)" xlink:href="#D"/><use transform="matrix(0.010850694444444444,0,0,0.010850694444444444,162.1853298611111,0)" xlink:href="#H"/><use transform="matrix(0.010850694444444444,0,0,0.010850694444444444,179.17751736111111,0)" xlink:href="#N"/><use transform="matrix(0.010850694444444444,0,0,0.010850694444444444,195.92013888888883,0)" xlink:href="#F"/><use transform="matrix(0.010850694444444444,0,0,0.010850694444444444,206.80338541666663,0)" xlink:href="#D"/><use transform="matrix(0.010850694444444444,0,0,0.010850694444444444,212.77126736111111,0)" xlink:href="#E"/></g><path d="M57 0l534-763-501-727h220c122 187 296 416 391 605 94-191 272-419 396-605h215L811-770 1340 0h-219C986-204 811-426 699-640 588-430 407-202 273 0H57" id="S"/><g id="o"><use transform="matrix(0.010850694444444444,0,0,0.010850694444444444,0,0)" xlink:href="#B"/><use transform="matrix(0.010850694444444444,0,0,0.010850694444444444,13.35720486111111,0)" xlink:href="#S"/><use transform="matrix(0.010850694444444444,0,0,0.010850694444444444,27.63671875,0)" xlink:href="#A"/><use transform="matrix(0.010850694444444444,0,0,0.010850694444444444,41.98133680555556,0)" xlink:href="#O"/><use transform="matrix(0.010850694444444444,0,0,0.010850694444444444,56.28255208333333,0)" xlink:href="#J"/><use transform="matrix(0.010850694444444444,0,0,0.010850694444444444,70.85503472222223,0)" xlink:href="#G"/><use transform="matrix(0.010850694444444444,0,0,0.010850694444444444,87.08767361111111,0)" xlink:href="#A"/><use transform="matrix(0.010850694444444444,0,0,0.010850694444444444,101.43229166666666,0)" xlink:href="#B"/><use transform="matrix(0.010850694444444444,0,0,0.010850694444444444,114.7894965277778,0)" xlink:href="#E"/><use transform="matrix(0.010850694444444444,0,0,0.010850694444444444,129.94791666666669,0)" xlink:href="#F"/><use transform="matrix(0.010850694444444444,0,0,0.010850694444444444,140.83116319444446,0)" xlink:href="#E"/><use transform="matrix(0.010850694444444444,0,0,0.010850694444444444,156.10894097222223,0)" xlink:href="#J"/><use transform="matrix(0.010850694444444444,0,0,0.010850694444444444,169.55295138888889,0)" xlink:href="#A"/><use transform="matrix(0.010850694444444444,0,0,0.010850694444444444,182.00954861111111,0)" xlink:href="#J"/></g><g id="p"><use transform="matrix(0.010850694444444444,0,0,0.010850694444444444,0,0)" xlink:href="#y"/><use transform="matrix(0.010850694444444444,0,0,0.010850694444444444,14.2578125,0)" xlink:href="#z"/><use transform="matrix(0.010850694444444444,0,0,0.010850694444444444,29.340277777777775,0)" xlink:href="#y"/><use transform="matrix(0.010850694444444444,0,0,0.010850694444444444,43.59809027777778,0)" xlink:href="#A"/><use transform="matrix(0.010850694444444444,0,0,0.010850694444444444,57.94270833333333,0)" xlink:href="#B"/><use transform="matrix(0.010850694444444444,0,0,0.010850694444444444,71.29991319444444,0)" xlink:href="#C"/><use transform="matrix(0.010850694444444444,0,0,0.010850694444444444,91.37369791666666,0)" xlink:href="#F"/><use transform="matrix(0.010850694444444444,0,0,0.010850694444444444,101.50824652777777,0)" xlink:href="#y"/><use transform="matrix(0.010850694444444444,0,0,0.010850694444444444,115.76605902777777,0)" xlink:href="#B"/><use transform="matrix(0.010850694444444444,0,0,0.010850694444444444,129.12326388888889,0)" xlink:href="#G"/><use transform="matrix(0.010850694444444444,0,0,0.010850694444444444,145.35590277777777,0)" xlink:href="#A"/><use transform="matrix(0.010850694444444444,0,0,0.010850694444444444,159.70052083333331,0)" xlink:href="#D"/><use transform="matrix(0.010850694444444444,0,0,0.010850694444444444,165.66840277777777,0)" xlink:href="#H"/><use transform="matrix(0.010850694444444444,0,0,0.010850694444444444,182.66059027777777,0)" xlink:href="#N"/></g><g id="q"><use transform="matrix(0.010850694444444444,0,0,0.010850694444444444,0,0)" xlink:href="#E"/><use transform="matrix(0.010850694444444444,0,0,0.010850694444444444,16.03732638888889,0)" xlink:href="#H"/><use transform="matrix(0.010850694444444444,0,0,0.010850694444444444,33.029513888888886,0)" xlink:href="#G"/><use transform="matrix(0.010850694444444444,0,0,0.010850694444444444,49.26215277777778,0)" xlink:href="#R"/><use transform="matrix(0.010850694444444444,0,0,0.010850694444444444,65.7986111111111,0)" xlink:href="#C"/><use transform="matrix(0.010850694444444444,0,0,0.010850694444444444,85.87239583333331,0)" xlink:href="#B"/><use transform="matrix(0.010850694444444444,0,0,0.010850694444444444,99.22960069444441,0)" xlink:href="#N"/><use transform="matrix(0.010850694444444444,0,0,0.010850694444444444,115.9722222222222,0)" xlink:href="#A"/><use transform="matrix(0.010850694444444444,0,0,0.010850694444444444,129.0581597222222,0)" xlink:href="#F"/><use transform="matrix(0.010850694444444444,0,0,0.010850694444444444,139.94140624999997,0)" xlink:href="#D"/><use transform="matrix(0.010850694444444444,0,0,0.010850694444444444,145.90928819444443,0)" xlink:href="#E"/></g><g id="r"><use transform="matrix(0.010850694444444444,0,0,0.010850694444444444,0,0)" xlink:href="#N"/><use transform="matrix(0.010850694444444444,0,0,0.010850694444444444,16.74262152777778,0)" xlink:href="#J"/><use transform="matrix(0.010850694444444444,0,0,0.010850694444444444,32.07465277777778,0)" xlink:href="#C"/><use transform="matrix(0.010850694444444444,0,0,0.010850694444444444,52.1484375,0)" xlink:href="#B"/></g><g id="s"><use transform="matrix(0.010850694444444444,0,0,0.010850694444444444,0,0)" xlink:href="#I"/><use transform="matrix(0.010850694444444444,0,0,0.010850694444444444,12.554253472222221,0)" xlink:href="#J"/><use transform="matrix(0.010850694444444444,0,0,0.010850694444444444,27.88628472222222,0)" xlink:href="#O"/><use transform="matrix(0.010850694444444444,0,0,0.010850694444444444,42.1875,0)" xlink:href="#B"/><use transform="matrix(0.010850694444444444,0,0,0.010850694444444444,55.54470486111112,0)" xlink:href="#N"/><use transform="matrix(0.010850694444444444,0,0,0.010850694444444444,72.28732638888889,0)" xlink:href="#A"/><use transform="matrix(0.010850694444444444,0,0,0.010850694444444444,85.37326388888889,0)" xlink:href="#F"/><use transform="matrix(0.010850694444444444,0,0,0.010850694444444444,96.25651041666666,0)" xlink:href="#D"/><use transform="matrix(0.010850694444444444,0,0,0.010850694444444444,102.22439236111111,0)" xlink:href="#E"/></g><g id="t"><use transform="matrix(0.010850694444444444,0,0,0.010850694444444444,0,0)" xlink:href="#I"/><use transform="matrix(0.010850694444444444,0,0,0.010850694444444444,14.192708333333332,0)" xlink:href="#B"/><use transform="matrix(0.010850694444444444,0,0,0.010850694444444444,27.549913194444443,0)" xlink:href="#B"/><use transform="matrix(0.010850694444444444,0,0,0.010850694444444444,40.90711805555556,0)" xlink:href="#O"/><use transform="matrix(0.010850694444444444,0,0,0.010850694444444444,55.20833333333333,0)" xlink:href="#F"/><use transform="matrix(0.010850694444444444,0,0,0.010850694444444444,64.46397569444444,0)" xlink:href="#H"/><use transform="matrix(0.010850694444444444,0,0,0.010850694444444444,81.45616319444444,0)" xlink:href="#O"/><use transform="matrix(0.010850694444444444,0,0,0.010850694444444444,95.75737847222221,0)" xlink:href="#E"/><use transform="matrix(0.010850694444444444,0,0,0.010850694444444444,111.7947048611111,0)" xlink:href="#B"/><use transform="matrix(0.010850694444444444,0,0,0.010850694444444444,125.15190972222221,0)" xlink:href="#O"/></g><g id="u"><use transform="matrix(0.010850694444444444,0,0,0.010850694444444444,0,0)" xlink:href="#y"/><use transform="matrix(0.010850694444444444,0,0,0.010850694444444444,14.2578125,0)" xlink:href="#z"/><use transform="matrix(0.010850694444444444,0,0,0.010850694444444444,29.340277777777775,0)" xlink:href="#y"/><use transform="matrix(0.010850694444444444,0,0,0.010850694444444444,43.59809027777778,0)" xlink:href="#A"/><use transform="matrix(0.010850694444444444,0,0,0.010850694444444444,57.94270833333333,0)" xlink:href="#B"/><use transform="matrix(0.010850694444444444,0,0,0.010850694444444444,71.29991319444444,0)" xlink:href="#C"/><use transform="matrix(0.010850694444444444,0,0,0.010850694444444444,91.37369791666666,0)" xlink:href="#F"/><use transform="matrix(0.010850694444444444,0,0,0.010850694444444444,100.62934027777777,0)" xlink:href="#G"/><use transform="matrix(0.010850694444444444,0,0,0.010850694444444444,116.86197916666666,0)" xlink:href="#K"/><use transform="matrix(0.010850694444444444,0,0,0.010850694444444444,133.3767361111111,0)" xlink:href="#J"/><use transform="matrix(0.010850694444444444,0,0,0.010850694444444444,148.7087673611111,0)" xlink:href="#N"/><use transform="matrix(0.010850694444444444,0,0,0.010850694444444444,165.45138888888886,0)" xlink:href="#P"/><use transform="matrix(0.010850694444444444,0,0,0.010850694444444444,182.03124999999994,0)" xlink:href="#B"/></g><g id="v"><use transform="matrix(0.010850694444444444,0,0,0.010850694444444444,0,0)" xlink:href="#A"/><use transform="matrix(0.010850694444444444,0,0,0.010850694444444444,14.344618055555555,0)" xlink:href="#D"/><use transform="matrix(0.010850694444444444,0,0,0.010850694444444444,20.3125,0)" xlink:href="#A"/><use transform="matrix(0.010850694444444444,0,0,0.010850694444444444,34.65711805555556,0)" xlink:href="#M"/><use transform="matrix(0.010850694444444444,0,0,0.010850694444444444,47.22222222222222,0)" xlink:href="#B"/></g><path d="M180 0v-1490h528c311 0 458 177 458 395 0 191-114 278-244 313v14c139 9 302 137 302 371 0 225-148 397-499 397H180zm190-168h350c232 0 321-102 321-231 0-149-120-277-311-277H370v508zm0-668h328c160 0 286-101 286-255 0-129-87-231-280-231H370v486" id="T"/><g id="w"><use transform="matrix(0.010850694444444444,0,0,0.010850694444444444,0,0)" xlink:href="#T"/><use transform="matrix(0.010850694444444444,0,0,0.010850694444444444,14.539930555555555,0)" xlink:href="#H"/><use transform="matrix(0.010850694444444444,0,0,0.010850694444444444,31.53211805555556,0)" xlink:href="#E"/><use transform="matrix(0.010850694444444444,0,0,0.010850694444444444,46.82074652777778,0)" xlink:href="#z"/></g><path d="M180 0v-1490h190c0 262 1 526-3 784 217-279 467-523 702-784h249L716-845 1319 0h-225L585-716 370-489V0H180" id="U"/><g id="x"><use transform="matrix(0.010850694444444444,0,0,0.010850694444444444,0,0)" xlink:href="#y"/><use transform="matrix(0.010850694444444444,0,0,0.010850694444444444,14.2578125,0)" xlink:href="#z"/><use transform="matrix(0.010850694444444444,0,0,0.010850694444444444,29.340277777777775,0)" xlink:href="#y"/><use transform="matrix(0.010850694444444444,0,0,0.010850694444444444,43.59809027777778,0)" xlink:href="#A"/><use transform="matrix(0.010850694444444444,0,0,0.010850694444444444,57.94270833333333,0)" xlink:href="#B"/><use transform="matrix(0.010850694444444444,0,0,0.010850694444444444,71.29991319444444,0)" xlink:href="#C"/><use transform="matrix(0.010850694444444444,0,0,0.010850694444444444,91.37369791666666,0)" xlink:href="#F"/><use transform="matrix(0.010850694444444444,0,0,0.010850694444444444,100.24956597222221,0)" xlink:href="#A"/><use transform="matrix(0.010850694444444444,0,0,0.010850694444444444,112.70616319444444,0)" xlink:href="#J"/><use transform="matrix(0.010850694444444444,0,0,0.010850694444444444,128.03819444444446,0)" xlink:href="#y"/><use transform="matrix(0.010850694444444444,0,0,0.010850694444444444,142.29600694444446,0)" xlink:href="#U"/></g></defs></g></svg>