<svg xmlns="http://www.w3.org/2000/svg" xmlns:xlink="http://www.w3.org/1999/xlink" xmlns:lucid="lucid" width="1602" height="882"><g transform="translate(-39 -39)" lucid:page-tab-id="fobjWqatg-V6"><path d="M0 0h1760v1360H0z" fill="#fff"/><path d="M920 46a6 6 0 0 1 6-6h708a6 6 0 0 1 6 6v868a6 6 0 0 1-6 6H926a6 6 0 0 1-6-6zM40 46a6 6 0 0 1 6-6h708a6 6 0 0 1 6 6v868a6 6 0 0 1-6 6H46a6 6 0 0 1-6-6z" stroke="#000" stroke-width="2" fill="#fff"/><path d="M80 106a6 6 0 0 1 6-6h268a6 6 0 0 1 6 6v214c-46.76-36.74-75.88-36.74-93.52-36.74-28 0-65.24 36.74-93.24 36.74-17.36 0-46.76 0-93.24-36.74z" stroke="#000" stroke-width="2" fill="#e3fae3"/><path d="M100 126a6 6 0 0 1 6-6h228a6 6 0 0 1 6 6v8a6 6 0 0 1-6 6H106a6 6 0 0 1-6-6zM120 166a6 6 0 0 1 6-6h208a6 6 0 0 1 6 6v8a6 6 0 0 1-6 6H126a6 6 0 0 1-6-6zM120 206a6 6 0 0 1 6-6h208a6 6 0 0 1 6 6v8a6 6 0 0 1-6 6H126a6 6 0 0 1-6-6z" stroke="#000" stroke-width="2" fill="#f2f3f5"/><path d="M80 386a6 6 0 0 1 6-6h268a6 6 0 0 1 6 6v214c-46.76-36.74-75.88-36.74-93.52-36.74-28 0-65.24 36.74-93.24 36.74-17.36 0-46.76 0-93.24-36.74z" stroke="#000" stroke-width="2" fill="#e3fae3"/><path d="M100 406a6 6 0 0 1 6-6h228a6 6 0 0 1 6 6v8a6 6 0 0 1-6 6H106a6 6 0 0 1-6-6zM120 446a6 6 0 0 1 6-6h208a6 6 0 0 1 6 6v8a6 6 0 0 1-6 6H126a6 6 0 0 1-6-6zM140 486a6 6 0 0 1 6-6h188a6 6 0 0 1 6 6v8a6 6 0 0 1-6 6H146a6 6 0 0 1-6-6zM120 526a6 6 0 0 1 6-6h208a6 6 0 0 1 6 6v8a6 6 0 0 1-6 6H126a6 6 0 0 1-6-6z" stroke="#000" stroke-width="2" fill="#f2f3f5"/><path d="M440 106a6 6 0 0 1 6-6h268a6 6 0 0 1 6 6v214c-46.76-36.74-75.88-36.74-93.52-36.74-28 0-65.24 36.74-93.24 36.74-17.36 0-46.76 0-93.24-36.74z" stroke="#000" stroke-width="2" fill="#e3fae3"/><path d="M460 126a6 6 0 0 1 6-6h228a6 6 0 0 1 6 6v8a6 6 0 0 1-6 6H466a6 6 0 0 1-6-6zM460 166a6 6 0 0 1 6-6h228a6 6 0 0 1 6 6v8a6 6 0 0 1-6 6H466a6 6 0 0 1-6-6zM480 206a6 6 0 0 1 6-6h208a6 6 0 0 1 6 6v8a6 6 0 0 1-6 6H486a6 6 0 0 1-6-6zM500 246a6 6 0 0 1 6-6h188a6 6 0 0 1 6 6v8a6 6 0 0 1-6 6H506a6 6 0 0 1-6-6z" stroke="#000" stroke-width="2" fill="#f2f3f5"/><path d="M440 386a6 6 0 0 1 6-6h268a6 6 0 0 1 6 6v214c-46.76-36.74-75.88-36.74-93.52-36.74-28 0-65.24 36.74-93.24 36.74-17.36 0-46.76 0-93.24-36.74z" stroke="#000" stroke-width="2" fill="#e3fae3"/><path d="M460 406a6 6 0 0 1 6-6h228a6 6 0 0 1 6 6v8a6 6 0 0 1-6 6H466a6 6 0 0 1-6-6zM480 446a6 6 0 0 1 6-6h208a6 6 0 0 1 6 6v8a6 6 0 0 1-6 6H486a6 6 0 0 1-6-6zM480 486a6 6 0 0 1 6-6h208a6 6 0 0 1 6 6v8a6 6 0 0 1-6 6H486a6 6 0 0 1-6-6z" stroke="#000" stroke-width="2" fill="#f2f3f5"/><path d="M80 666a6 6 0 0 1 6-6h268a6 6 0 0 1 6 6v214c-46.76-36.74-75.88-36.74-93.52-36.74-28 0-65.24 36.74-93.24 36.74-17.36 0-46.76 0-93.24-36.74z" stroke="#000" stroke-width="2" fill="#e3fae3"/><path d="M100 686a6 6 0 0 1 6-6h228a6 6 0 0 1 6 6v8a6 6 0 0 1-6 6H106a6 6 0 0 1-6-6zM460 526a6 6 0 0 1 6-6h228a6 6 0 0 1 6 6v8a6 6 0 0 1-6 6H466a6 6 0 0 1-6-6zM120 726a6 6 0 0 1 6-6h208a6 6 0 0 1 6 6v8a6 6 0 0 1-6 6H126a6 6 0 0 1-6-6zM100 766a6 6 0 0 1 6-6h228a6 6 0 0 1 6 6v8a6 6 0 0 1-6 6H106a6 6 0 0 1-6-6z" stroke="#000" stroke-width="2" fill="#f2f3f5"/><path d="M960 106a6 6 0 0 1 6-6h268a6 6 0 0 1 6 6v214c-46.76-36.74-75.88-36.74-93.52-36.74-28 0-65.24 36.74-93.24 36.74-17.36 0-46.76 0-93.24-36.74z" stroke="#000" stroke-width="2" fill="#edf5ff"/><path d="M980 126a6 6 0 0 1 6-6h228a6 6 0 0 1 6 6v8a6 6 0 0 1-6 6H986a6 6 0 0 1-6-6zM1000 166a6 6 0 0 1 6-6h208a6 6 0 0 1 6 6v8a6 6 0 0 1-6 6h-208a6 6 0 0 1-6-6zM1000 206a6 6 0 0 1 6-6h208a6 6 0 0 1 6 6v8a6 6 0 0 1-6 6h-208a6 6 0 0 1-6-6z" stroke="#000" stroke-width="2" fill="#f2f3f5"/><path d="M1320 106a6 6 0 0 1 6-6h268a6 6 0 0 1 6 6v214c-46.76-36.74-75.88-36.74-93.52-36.74-28 0-65.24 36.74-93.24 36.74-17.36 0-46.76 0-93.24-36.74z" stroke="#000" stroke-width="2" fill="#edf5ff"/><path d="M1340 126a6 6 0 0 1 6-6h228a6 6 0 0 1 6 6v8a6 6 0 0 1-6 6h-228a6 6 0 0 1-6-6zM1340 166a6 6 0 0 1 6-6h228a6 6 0 0 1 6 6v8a6 6 0 0 1-6 6h-228a6 6 0 0 1-6-6zM1360 206a6 6 0 0 1 6-6h208a6 6 0 0 1 6 6v8a6 6 0 0 1-6 6h-208a6 6 0 0 1-6-6z" stroke="#000" stroke-width="2" fill="#f2f3f5"/><path d="M1320 386a6 6 0 0 1 6-6h268a6 6 0 0 1 6 6v214c-46.76-36.74-75.88-36.74-93.52-36.74-28 0-65.24 36.74-93.24 36.74-17.36 0-46.76 0-93.24-36.74z" stroke="#000" stroke-width="2" fill="#edf5ff"/><path d="M1340 406a6 6 0 0 1 6-6h228a6 6 0 0 1 6 6v8a6 6 0 0 1-6 6h-228a6 6 0 0 1-6-6zM1360 446a6 6 0 0 1 6-6h208a6 6 0 0 1 6 6v8a6 6 0 0 1-6 6h-208a6 6 0 0 1-6-6zM1360 486a6 6 0 0 1 6-6h208a6 6 0 0 1 6 6v8a6 6 0 0 1-6 6h-208a6 6 0 0 1-6-6z" stroke="#000" stroke-width="2" fill="#f2f3f5"/><path d="M960 666a6 6 0 0 1 6-6h268a6 6 0 0 1 6 6v214c-46.76-36.74-75.88-36.74-93.52-36.74-28 0-65.24 36.74-93.24 36.74-17.36 0-46.76 0-93.24-36.74z" stroke="#000" stroke-width="2" fill="#edf5ff"/><path d="M980 686a6 6 0 0 1 6-6h228a6 6 0 0 1 6 6v8a6 6 0 0 1-6 6H986a6 6 0 0 1-6-6zM1340 526a6 6 0 0 1 6-6h228a6 6 0 0 1 6 6v8a6 6 0 0 1-6 6h-228a6 6 0 0 1-6-6zM1000 726a6 6 0 0 1 6-6h208a6 6 0 0 1 6 6v8a6 6 0 0 1-6 6h-208a6 6 0 0 1-6-6zM980 766a6 6 0 0 1 6-6h228a6 6 0 0 1 6 6v8a6 6 0 0 1-6 6H986a6 6 0 0 1-6-6z" stroke="#000" stroke-width="2" fill="#f2f3f5"/><path d="M1320 666a6 6 0 0 1 6-6h268a6 6 0 0 1 6 6v214c-46.76-36.74-75.88-36.74-93.52-36.74-28 0-65.24 36.74-93.24 36.74-17.36 0-46.76 0-93.24-36.74z" stroke="#000" stroke-width="2" fill="#edf5ff"/><path d="M1340 686a6 6 0 0 1 6-6h228a6 6 0 0 1 6 6v8a6 6 0 0 1-6 6h-228a6 6 0 0 1-6-6zM1360 726a6 6 0 0 1 6-6h208a6 6 0 0 1 6 6v8a6 6 0 0 1-6 6h-208a6 6 0 0 1-6-6zM1380 766a6 6 0 0 1 6-6h188a6 6 0 0 1 6 6v8a6 6 0 0 1-6 6h-188a6 6 0 0 1-6-6zM1400 806a6 6 0 0 1 6-6h168a6 6 0 0 1 6 6v8a6 6 0 0 1-6 6h-168a6 6 0 0 1-6-6zM980 246a6 6 0 0 1 6-6h228a6 6 0 0 1 6 6v8a6 6 0 0 1-6 6H986a6 6 0 0 1-6-6z" stroke="#000" stroke-width="2" fill="#f2f3f5"/><path d="M80 46a6 6 0 0 1 6-6h628a6 6 0 0 1 6 6v28a6 6 0 0 1-6 6H86a6 6 0 0 1-6-6z" fill="none"/><use xlink:href="#a" transform="matrix(1,0,0,1,80,40) translate(140.33420138888889 28.08376736111111)"/><use xlink:href="#b" transform="matrix(1,0,0,1,80,40) translate(229.10373263888886 28.08376736111111)"/><use xlink:href="#c" transform="matrix(1,0,0,1,80,40) translate(358.7261284722222 28.08376736111111)"/><use xlink:href="#d" transform="matrix(1,0,0,1,80,40) translate(404.73307291666663 28.08376736111111)"/><path d="M960 46a6 6 0 0 1 6-6h628a6 6 0 0 1 6 6v28a6 6 0 0 1-6 6H966a6 6 0 0 1-6-6z" fill="none"/><use xlink:href="#e" transform="matrix(1,0,0,1,960,40) translate(147.06163194444443 28.08376736111111)"/><use xlink:href="#b" transform="matrix(1,0,0,1,960,40) translate(222.37630208333331 28.08376736111111)"/><use xlink:href="#c" transform="matrix(1,0,0,1,960,40) translate(351.99869791666663 28.08376736111111)"/><use xlink:href="#d" transform="matrix(1,0,0,1,960,40) translate(398.0056423611111 28.08376736111111)"/><path d="M800 446a6 6 0 0 1 6-6h68a6 6 0 0 1 6 6v48a6 6 0 0 1-6 6h-68a6 6 0 0 1-6-6z" fill="none"/><use xlink:href="#f" transform="matrix(1,0,0,1,800,440.0000000000001) translate(27.11480034722222 38.083767361111114)"/><path d="M100 100c0 11.05-8.95 20-20 20s-20-8.95-20-20 8.95-20 20-20 20 8.95 20 20z" stroke="#000" stroke-width="2" fill="#fff"/><use xlink:href="#g" transform="matrix(1,0,0,1,65,85.00000000000011) translate(6.709644097222222 23.40277777777778)"/><path d="M460 100c0 11.05-8.95 20-20 20s-20-8.95-20-20 8.95-20 20-20 20 8.95 20 20z" stroke="#000" stroke-width="2" fill="#fff"/><use xlink:href="#h" transform="matrix(1,0,0,1,425,85) translate(7.653654513888889 23.40277777777778)"/><path d="M460 380c0 11.05-8.95 20-20 20s-20-8.95-20-20 8.95-20 20-20 20 8.95 20 20z" stroke="#000" stroke-width="2" fill="#fff"/><use xlink:href="#i" transform="matrix(1,0,0,1,425,365) translate(6.980911458333333 23.40277777777778)"/><path d="M100 380c0 11.05-8.95 20-20 20s-20-8.95-20-20 8.95-20 20-20 20 8.95 20 20z" stroke="#000" stroke-width="2" fill="#fff"/><use xlink:href="#j" transform="matrix(1,0,0,1,65,365) translate(6.785598958333333 23.40277777777778)"/><path d="M100 660c0 11.05-8.95 20-20 20s-20-8.95-20-20 8.95-20 20-20 20 8.95 20 20z" stroke="#000" stroke-width="2" fill="#fff"/><use xlink:href="#k" transform="matrix(1,0,0,1,65,645) translate(8.255868055555556 23.40277777777778)"/><path d="M980 100c0 11.05-8.95 20-20 20s-20-8.95-20-20 8.95-20 20-20 20 8.95 20 20z" stroke="#000" stroke-width="2" fill="#fff"/><use xlink:href="#g" transform="matrix(1,0,0,1,945,85) translate(6.709644097222222 23.40277777777778)"/><path d="M1340 100c0 11.05-8.95 20-20 20s-20-8.95-20-20 8.95-20 20-20 20 8.95 20 20z" stroke="#000" stroke-width="2" fill="#fff"/><use xlink:href="#h" transform="matrix(1,0,0,1,1305,85) translate(7.653654513888889 23.40277777777778)"/><path d="M1340 380c0 11.05-8.95 20-20 20s-20-8.95-20-20 8.95-20 20-20 20 8.95 20 20z" stroke="#000" stroke-width="2" fill="#fff"/><g><use xlink:href="#i" transform="matrix(1,0,0,1,1305,365) translate(6.980911458333333 23.40277777777778)"/></g><path d="M1340 660c0 11.05-8.95 20-20 20s-20-8.95-20-20 8.95-20 20-20 20 8.95 20 20z" stroke="#000" stroke-width="2" fill="#fff"/><g><use xlink:href="#l" transform="matrix(1,0,0,1,1305,645) translate(8.48373263888889 23.40277777777778)"/></g><path d="M980 660c0 11.05-8.95 20-20 20s-20-8.95-20-20 8.95-20 20-20 20 8.95 20 20z" stroke="#000" stroke-width="2" fill="#fff"/><g><use xlink:href="#k" transform="matrix(1,0,0,1,945,645) translate(8.255868055555556 23.40277777777778)"/></g><defs><path d="M659 0H135v-1490h529c448 0 721 280 721 744 0 466-273 746-726 746zM440-263h204c287 0 437-148 437-483 0-333-150-481-435-481H440v964" id="m"/><path d="M633 22C291 22 81-200 81-553c0-345 210-579 537-579 292 0 525 185 525 567v84H378c7 183 109 277 260 277 105 0 184-46 216-132l272 51C1071-99 893 22 633 22zM380-669h474c-15-146-94-237-233-237-143 0-229 99-241 237" id="n"/><path d="M572 22C302 22 117-98 78-306l279-48c29 105 101 156 224 156 114 0 185-48 185-115 0-118-228-130-337-155-215-49-322-150-322-317 0-215 187-347 470-347 265 0 424 116 466 298l-266 47c-24-76-87-130-196-130-98 0-174 46-174 113 0 56 38 95 144 117l201 40c216 44 320 143 320 302 0 220-207 367-500 367" id="o"/><path d="M128 0v-1118h300V0H128zm150-1264c-91 0-165-68-165-154 0-85 74-154 165-154 90 0 165 69 165 154 0 86-75 154-165 154" id="p"/><path d="M128 0v-1118h290v195h12c54-169 184-238 367-200v268c-27-8-86-15-130-15-138 0-239 95-239 234V0H128" id="q"/><path d="M537 19C279 19 81-185 81-557c0-382 206-575 454-575 190 0 278 113 318 202h10v-560h300V0H868v-179h-15C812-89 719 19 537 19zm92-241c153 0 240-134 240-336 0-203-86-334-240-334-158 0-240 138-240 334 0 197 84 336 240 336" id="r"/><g id="a"><use transform="matrix(0.010850694444444444,0,0,0.010850694444444444,0,0)" xlink:href="#m"/><use transform="matrix(0.010850694444444444,0,0,0.010850694444444444,16.048177083333332,0)" xlink:href="#n"/><use transform="matrix(0.010850694444444444,0,0,0.010850694444444444,29.286024305555554,0)" xlink:href="#o"/><use transform="matrix(0.010850694444444444,0,0,0.010850694444444444,41.73177083333333,0)" xlink:href="#p"/><use transform="matrix(0.010850694444444444,0,0,0.010850694444444444,47.753906249999986,0)" xlink:href="#q"/><use transform="matrix(0.010850694444444444,0,0,0.010850694444444444,56.260850694444436,0)" xlink:href="#n"/><use transform="matrix(0.010850694444444444,0,0,0.010850694444444444,69.49869791666666,0)" xlink:href="#r"/></g><path d="M628 22C291 22 81-210 81-554c0-346 210-578 547-578 336 0 547 232 547 578 0 344-211 576-547 576zm0-236c160 0 242-146 242-341 0-197-82-341-242-341S387-753 387-555c0 195 81 341 241 341" id="s"/><path d="M628 22C291 22 81-210 81-554c0-346 210-578 547-578 265 0 455 142 497 372l-279 52c-25-116-99-188-215-188-160 0-244 139-244 341 0 200 84 341 244 341 116 0 193-74 217-195l279 51C1085-123 896 22 628 22" id="t"/><path d="M513 14c-232 0-385-159-385-421v-711h300v659c0 139 76 222 202 222 127 0 217-86 217-234v-647h301V0H864l-4-232C797-74 683 14 513 14" id="u"/><path d="M128 0v-1118h278l12 217c60-163 185-234 319-234 143 0 236 81 288 251 63-172 205-251 359-251 205 0 357 138 357 381V0h-301v-697c0-126-76-187-177-187-114 0-184 79-184 196V0H789v-705c0-109-72-179-174-179-106 0-187 74-187 208V0H128" id="v"/><path d="M428-647V0H128v-1118h283l4 231c63-156 176-245 348-245 232 0 384 159 384 421V0H847v-659c0-139-76-222-202-222-128 0-217 86-217 234" id="w"/><path d="M683-1118v229H474v562c0 71 29 104 102 104 23 0 73-7 95-13l43 225C647 9 580 16 520 16 296 16 174-96 174-301v-588H20v-229h154v-266h300v266h209" id="x"/><g id="b"><use transform="matrix(0.010850694444444444,0,0,0.010850694444444444,0,0)" xlink:href="#m"/><use transform="matrix(0.010850694444444444,0,0,0.010850694444444444,16.048177083333332,0)" xlink:href="#s"/><use transform="matrix(0.010850694444444444,0,0,0.010850694444444444,29.676649305555554,0)" xlink:href="#t"/><use transform="matrix(0.010850694444444444,0,0,0.010850694444444444,42.75173611111111,0)" xlink:href="#u"/><use transform="matrix(0.010850694444444444,0,0,0.010850694444444444,56.58637152777778,0)" xlink:href="#v"/><use transform="matrix(0.010850694444444444,0,0,0.010850694444444444,76.86631944444443,0)" xlink:href="#n"/><use transform="matrix(0.010850694444444444,0,0,0.010850694444444444,90.10416666666666,0)" xlink:href="#w"/><use transform="matrix(0.010850694444444444,0,0,0.010850694444444444,103.93880208333333,0)" xlink:href="#x"/><use transform="matrix(0.010850694444444444,0,0,0.010850694444444444,111.91406249999997,0)" xlink:href="#o"/></g><path d="M440 22C227 22 68-92 68-313c0-250 202-322 422-343 195-21 271-24 271-105 0-95-63-149-175-149-116 0-187 57-211 129l-275-46c57-194 237-305 487-305 240 0 474 108 474 379V0H777v-155h-10C713-51 605 22 440 22zm85-211c140 0 238-93 238-211v-121c-37 26-156 42-222 51-111 16-185 59-185 149 0 87 70 132 169 132" id="y"/><g id="c"><use transform="matrix(0.010850694444444444,0,0,0.010850694444444444,0,0)" xlink:href="#y"/><use transform="matrix(0.010850694444444444,0,0,0.010850694444444444,12.901475694444445,0)" xlink:href="#w"/><use transform="matrix(0.010850694444444444,0,0,0.010850694444444444,26.73611111111111,0)" xlink:href="#r"/></g><path d="M681 22C323 22 94-145 85-462h297c10 151 131 226 296 226 163 0 271-77 271-190 0-102-95-149-257-189l-164-41c-252-61-403-188-403-405 0-269 236-449 560-449 330 0 546 183 551 445H941c-11-119-106-188-259-188-156 0-244 72-244 172-3 156 226 185 373 221 250 61 445 186 445 436 0 271-213 446-575 446" id="z"/><g id="d"><use transform="matrix(0.010850694444444444,0,0,0.010850694444444444,0,0)" xlink:href="#z"/><use transform="matrix(0.010850694444444444,0,0,0.010850694444444444,14.55078125,0)" xlink:href="#n"/><use transform="matrix(0.010850694444444444,0,0,0.010850694444444444,27.78862847222222,0)" xlink:href="#t"/><use transform="matrix(0.010850694444444444,0,0,0.010850694444444444,40.86371527777778,0)" xlink:href="#x"/><use transform="matrix(0.010850694444444444,0,0,0.010850694444444444,49.00173611111111,0)" xlink:href="#p"/><use transform="matrix(0.010850694444444444,0,0,0.010850694444444444,55.02387152777778,0)" xlink:href="#s"/><use transform="matrix(0.010850694444444444,0,0,0.010850694444444444,68.65234375,0)" xlink:href="#w"/><use transform="matrix(0.010850694444444444,0,0,0.010850694444444444,82.48697916666667,0)" xlink:href="#o"/></g><path d="M49 0l509-1490h400L1480 0h-339l-115-346H497L386 0H49zm524-585h374c-75-213-124-402-192-666-66 268-110 453-182 666" id="A"/><path d="M428-1490V0H128v-1490h300" id="B"/><g id="e"><use transform="matrix(0.010850694444444444,0,0,0.010850694444444444,0,0)" xlink:href="#A"/><use transform="matrix(0.010850694444444444,0,0,0.010850694444444444,16.080729166666664,0)" xlink:href="#t"/><use transform="matrix(0.010850694444444444,0,0,0.010850694444444444,29.15581597222222,0)" xlink:href="#x"/><use transform="matrix(0.010850694444444444,0,0,0.010850694444444444,37.29383680555556,0)" xlink:href="#u"/><use transform="matrix(0.010850694444444444,0,0,0.010850694444444444,51.12847222222222,0)" xlink:href="#y"/><use transform="matrix(0.010850694444444444,0,0,0.010850694444444444,64.02994791666667,0)" xlink:href="#B"/></g><path d="M443 0L31-1118h319c90 293 199 572 268 885 66-313 175-593 264-885h315L784 0H443" id="C"/><g id="f"><use transform="matrix(0.010850694444444444,0,0,0.010850694444444444,0,0)" xlink:href="#C"/><use transform="matrix(0.010850694444444444,0,0,0.010850694444444444,13.324652777777777,0)" xlink:href="#o"/></g><use transform="matrix(0.010850694444444444,0,0,0.010850694444444444,0,0)" xlink:href="#A" id="g"/><path d="M135 0v-1490h591c327 0 492 160 492 383 0 177-115 286-268 320v15c168 8 326 140 326 361 0 236-176 411-512 411H135zm305-251h264c179 0 258-76 258-189 0-125-97-215-250-215H440v404zm0-613h241c131 0 228-74 228-194 0-109-79-183-222-183H440v377" id="D"/><use transform="matrix(0.010850694444444444,0,0,0.010850694444444444,0,0)" xlink:href="#D" id="h"/><use transform="matrix(0.010850694444444444,0,0,0.010850694444444444,0,0)" xlink:href="#m" id="i"/><path d="M786 20C389 20 94-260 94-744c0-487 299-766 692-766 339 0 597 194 641 529h-309c-28-162-156-258-326-258-233 0-388 179-388 495 0 323 157 493 387 493 170 0 298-97 328-259h309c-34 277-266 530-642 530" id="E"/><use transform="matrix(0.010850694444444444,0,0,0.010850694444444444,0,0)" xlink:href="#E" id="j"/><path d="M135 0v-1490h997v253H440v360h640v249H440v375h694V0H135" id="F"/><use transform="matrix(0.010850694444444444,0,0,0.010850694444444444,0,0)" xlink:href="#F" id="k"/><path d="M135 0v-1490h980v253H440v416h609v249H440V0H135" id="G"/><use transform="matrix(0.010850694444444444,0,0,0.010850694444444444,0,0)" xlink:href="#G" id="l"/></defs></g></svg>