<svg xmlns="http://www.w3.org/2000/svg" xmlns:xlink="http://www.w3.org/1999/xlink" xmlns:lucid="lucid" width="1703" height="1041.5"><g transform="translate(-38.5 -40)" lucid:page-tab-id="0_0"><path d="M0 0h1760v1360H0z" fill="#fff"/><path d="M680 206a6 6 0 0 1 6-6h488a6 6 0 0 1 6 6v168a6 6 0 0 1-6 6H686a6 6 0 0 1-6-6zM40 86a6 6 0 0 1 6-6h588a6 6 0 0 1 6 6v428a6 6 0 0 1-6 6H46a6 6 0 0 1-6-6z" stroke="#000" stroke-width="3" fill="#fff"/><path d="M1300 644c0 8.84-35.82 16-80 16s-80-7.16-80-16V516c0-8.84 35.82-16 80-16s80 7.16 80 16z" stroke="#000" stroke-width="3" fill="#cfe4ff"/><path d="M1300 516c0 8.84-35.82 16-80 16s-80-7.16-80-16" stroke="#000" stroke-width="3" fill="none"/><use xlink:href="#a" transform="matrix(1,0,0,1,1145,537) translate(6.906467013888886 51.02777777777778)"/><use xlink:href="#b" transform="matrix(1,0,0,1,1145,537) translate(94.72113715277779 51.02777777777778)"/><use xlink:href="#c" transform="matrix(1,0,0,1,1145,537) translate(57.75824652777778 83.29340277777777)"/><path d="M1020.12 580h97.76" stroke="#3a414a" stroke-width="3" fill="none"/><path d="M1020.16 581.48h-1.74l.1-.36.1-1.12-.1-1.12-.1-.36h1.74z" stroke="#3a414a" stroke-width=".05" fill="#3a414a"/><path d="M1133.65 580l-14.27 4.63v-9.26z" stroke="#3a414a" stroke-width="3" fill="#3a414a"/><path d="M840 826a6 6 0 0 1 6-6h148a6 6 0 0 1 6 6v108a6 6 0 0 1-6 6H846a6 6 0 0 1-6-6z" stroke="#000" stroke-width="3" fill="#cfe4ff"/><path d="M856 820v120m128-120v120" stroke="#000" stroke-width="3" fill="none"/><use xlink:href="#d" transform="matrix(1,0,0,1,865.0000000000001,825) translate(15.834418402777779 46.950954861111114)"/><use xlink:href="#e" transform="matrix(1,0,0,1,865.0000000000001,825) translate(20.0390625 79.21657986111111)"/><path d="M915.32 503.75a7.5 7.5 0 0 1 9.36 0l90.64 72.5a4.8 4.8 0 0 1 0 7.5l-90.64 72.5a7.5 7.5 0 0 1-9.36 0l-90.64-72.5a4.8 4.8 0 0 1 0-7.5z" stroke="#000" stroke-width="3" fill="#cfe4ff"/><use xlink:href="#f" transform="matrix(1,0,0,1,825.0000000000001,505) translate(58.00413194444445 68.40277777777777)"/><use xlink:href="#g" transform="matrix(1,0,0,1,825.0000000000001,505) translate(55.28603298611112 100.66840277777777)"/><path d="M260 386a6 6 0 0 1 6-6h148a6 6 0 0 1 6 6v114c-26.72-20.04-43.36-20.04-53.44-20.04-16 0-37.28 20.04-53.28 20.04-9.92 0-26.72 0-53.28-20.04z" stroke="#000" stroke-width="2" fill="#f2f3f5"/><use xlink:href="#h" transform="matrix(1,0,0,1,265,385) translate(20.990668402777786 52.46527777777778)"/><path d="M1360 86a6 6 0 0 1 6-6h368a6 6 0 0 1 6 6v988a6 6 0 0 1-6 6h-368a6 6 0 0 1-6-6z" stroke="#000" stroke-width="3" fill="#fff"/><path d="M1359.28 1074.04a.36.36 0 0 0 .72-.04V86a.36.36 0 0 0-.72-.04l-58.57 488.08a50 50 0 0 0 0 11.92z" stroke="#000" stroke-width="3" fill="#fff"/><path d="M60 106a6 6 0 0 1 6-6h148a6 6 0 0 1 6 6v108a6 6 0 0 1-6 6H66a6 6 0 0 1-6-6zm16-6v120M60 116h160" stroke="#000" stroke-width="2" fill="#f2f3f5"/><use xlink:href="#i" transform="matrix(1,0,0,1,81,121) translate(48.58094618055556 53.84027777777778)"/><path d="M260 246a6 6 0 0 1 6-6h148a6 6 0 0 1 6 6v108a6 6 0 0 1-6 6H266a6 6 0 0 1-6-6zm16-6v120m-16-104h160" stroke="#000" stroke-width="2" fill="#f2f3f5"/><use xlink:href="#i" transform="matrix(1,0,0,1,281,261) translate(48.58094618055556 53.84027777777778)"/><path d="M460 106a6 6 0 0 1 6-6h148a6 6 0 0 1 6 6v108a6 6 0 0 1-6 6H466a6 6 0 0 1-6-6zm16-6v120m-16-104h160" stroke="#000" stroke-width="2" fill="#f2f3f5"/><use xlink:href="#i" transform="matrix(1,0,0,1,481,121) translate(48.58094618055556 53.84027777777778)"/><path d="M460 386a6 6 0 0 1 6-6h148a6 6 0 0 1 6 6v114c-26.72-20.04-43.36-20.04-53.44-20.04-16 0-37.28 20.04-53.28 20.04-9.92 0-26.72 0-53.28-20.04z" stroke="#000" stroke-width="2" fill="#f2f3f5"/><use xlink:href="#h" transform="matrix(1,0,0,1,465,385) translate(20.990668402777786 52.46527777777778)"/><path d="M260 106a6 6 0 0 1 6-6h148a6 6 0 0 1 6 6v114c-26.72-20.04-43.36-20.04-53.44-20.04-16 0-37.28 20.04-53.28 20.04-9.92 0-26.72 0-53.28-20.04z" stroke="#000" stroke-width="2" fill="#f2f3f5"/><use xlink:href="#h" transform="matrix(1,0,0,1,265,105) translate(20.990668402777786 52.46527777777778)"/><path d="M40 646a6 6 0 0 1 6-6h588a6 6 0 0 1 6 6v428a6 6 0 0 1-6 6H46a6 6 0 0 1-6-6z" stroke="#000" stroke-width="3" fill="#fff"/><path d="M60 806a6 6 0 0 1 6-6h148a6 6 0 0 1 6 6v114c-26.72-20.04-43.36-20.04-53.44-20.04-16 0-37.28 20.04-53.28 20.04-9.92 0-26.72 0-53.28-20.04z" stroke="#000" stroke-width="2" fill="#e3fae3"/><use xlink:href="#h" transform="matrix(1,0,0,1,65,805) translate(20.990668402777786 52.46527777777778)"/><path d="M260 806a6 6 0 0 1 6-6h148a6 6 0 0 1 6 6v108a6 6 0 0 1-6 6H266a6 6 0 0 1-6-6zm16-6v120m-16-104h160" stroke="#000" stroke-width="2" fill="#fcfcca"/><use xlink:href="#i" transform="matrix(1,0,0,1,281,821) translate(48.58094618055556 53.84027777777778)"/><path d="M460 666a6 6 0 0 1 6-6h148a6 6 0 0 1 6 6v108a6 6 0 0 1-6 6H466a6 6 0 0 1-6-6zm16-6v120m-16-104h160" fill="#ffd9d9"/><path d="M485.73 660h19.74m9.86 0h19.74m9.86 0h19.74m9.86 0h19.74m9.86 0H614a6 6 0 0 1 6 6v9m0 9v18m0 9v18m0 9v18m0 9v9a6 6 0 0 1-6 6h-9.87m-9.86 0h-19.74m-9.86 0h-19.74m-9.86 0h-19.74m-9.86 0h-19.74m-9.86 0H466a6 6 0 0 1-6-6v-9m0-9v-18m0-9v-18m0-9v-18m0-9v-9a6 6 0 0 1 6-6h9.87m.13 0v10m0 10v20m0 10v20m0 10v20m0 10v10m-16-104h10.67m10.66 0h21.34m10.66 0h21.34m10.66 0h21.34m10.66 0h21.34m10.66 0H620" stroke="#000" stroke-width="2" fill="none"/><use xlink:href="#i" transform="matrix(1,0,0,1,481,681) translate(48.58094618055556 53.84027777777778)"/><path d="M460 946a6 6 0 0 1 6-6h148a6 6 0 0 1 6 6v114c-26.72-20.04-43.36-20.04-53.44-20.04-16 0-37.28 20.04-53.28 20.04-9.92 0-26.72 0-53.28-20.04z" fill="#ffd9d9"/><path d="M485.73 940h19.74m9.86 0h19.74m9.86 0h19.74m9.86 0h19.74m9.86 0H614a6 6 0 0 1 6 6v9.5m0 9.5v19m0 9.5v19m0 9.5v19m0 9.5v9.5l-8-5.47m-8.33-5l-3.52-1.94-7.33-3.2-6.38-2.1-.66-.15m-9.53-1.74l-1.5-.18-8.2-.26-1.94.1-2.35.33-3.02.72-2 .7m-8.8 3.77l-1.37.62-15.76 7.92m-8.68 4l-2 .7-3.03.73-2.37.34-1.95.1-8.88-.32-.8-.1m-9.5-1.8l-1.42-.34-6.48-2.22-7.47-3.37-2.47-1.4m-8.3-4.97l-7.96-5.52v-10.44m0-10.44V998.2m0-10.44v-20.88m0-10.44V946a6 6 0 0 1 6-6h9.87" stroke="#000" stroke-width="2" fill="none"/><use xlink:href="#h" transform="matrix(1,0,0,1,465,945) translate(20.990668402777786 52.46527777777778)"/><path d="M260 666a6 6 0 0 1 6-6h148a6 6 0 0 1 6 6v114c-26.72-20.04-43.36-20.04-53.44-20.04-16 0-37.28 20.04-53.28 20.04-9.92 0-26.72 0-53.28-20.04z" stroke="#000" stroke-width="2" fill="#d7faf5"/><use xlink:href="#h" transform="matrix(1,0,0,1,265,665) translate(20.990668402777786 52.46527777777778)"/><path d="M60 946a6 6 0 0 1 6-6h148a6 6 0 0 1 6 6v108a6 6 0 0 1-6 6H66a6 6 0 0 1-6-6zm16-6v120M60 956h160" stroke="#000" stroke-width="2" fill="#e3fae3"/><use xlink:href="#i" transform="matrix(1,0,0,1,81,961) translate(48.58094618055556 53.84027777777778)"/><path d="M1380 106a6 6 0 0 1 6-6h148a6 6 0 0 1 6 6v108a6 6 0 0 1-6 6h-148a6 6 0 0 1-6-6zm16-6v120m-16-104h160" stroke="#000" stroke-width="2" fill="#e3fae3"/><use xlink:href="#i" transform="matrix(1,0,0,1,1401,121) translate(48.58094618055556 53.84027777777778)"/><path d="M1560 106a6 6 0 0 1 6-6h148a6 6 0 0 1 6 6v108a6 6 0 0 1-6 6h-148a6 6 0 0 1-6-6zm16-6v120m-16-104h160" stroke="#000" stroke-width="2" fill="#fcfcca"/><use xlink:href="#i" transform="matrix(1,0,0,1,1581,121) translate(48.58094618055556 53.84027777777778)"/><path d="M1380 246a6 6 0 0 1 6-6h148a6 6 0 0 1 6 6v108a6 6 0 0 1-6 6h-148a6 6 0 0 1-6-6zm16-6v120m-16-104h160" fill="#ffd9d9"/><path d="M1405.73 240h19.74m9.86 0h19.74m9.86 0h19.74m9.86 0h19.74m9.86 0h9.87a6 6 0 0 1 6 6v9m0 9v18m0 9v18m0 9v18m0 9v9a6 6 0 0 1-6 6h-9.87m-9.86 0h-19.74m-9.86 0h-19.74m-9.86 0h-19.74m-9.86 0h-19.74m-9.86 0H1386a6 6 0 0 1-6-6v-9m0-9v-18m0-9v-18m0-9v-18m0-9v-9a6 6 0 0 1 6-6h9.87m.13 0v10m0 10v20m0 10v20m0 10v20m0 10v10m-16-104h10.67m10.66 0h21.34m10.66 0h21.34m10.66 0h21.34m10.66 0h21.34m10.66 0H1540" stroke="#000" stroke-width="2" fill="none"/><use xlink:href="#i" transform="matrix(1,0,0,1,1401,261) translate(48.58094618055556 53.84027777777778)"/><path d="M1380 426a6 6 0 0 1 6-6h148a6 6 0 0 1 6 6v114c-26.72-20.04-43.36-20.04-53.44-20.04-16 0-37.28 20.04-53.28 20.04-9.92 0-26.72 0-53.28-20.04z" stroke="#000" stroke-width="2" fill="#e3fae3"/><use xlink:href="#h" transform="matrix(1,0,0,1,1385,425) translate(20.990668402777786 52.46527777777778)"/><path d="M1560 426a6 6 0 0 1 6-6h148a6 6 0 0 1 6 6v114c-26.72-20.04-43.36-20.04-53.44-20.04-16 0-37.28 20.04-53.28 20.04-9.92 0-26.72 0-53.28-20.04z" stroke="#000" stroke-width="2" fill="#d7faf5"/><use xlink:href="#h" transform="matrix(1,0,0,1,1565,425) translate(20.990668402777786 52.46527777777778)"/><path d="M1380 566a6 6 0 0 1 6-6h148a6 6 0 0 1 6 6v114c-26.72-20.04-43.36-20.04-53.44-20.04-16 0-37.28 20.04-53.28 20.04-9.92 0-26.72 0-53.28-20.04z" fill="#ffd9d9"/><path d="M1405.73 560h19.74m9.86 0h19.74m9.86 0h19.74m9.86 0h19.74m9.86 0h9.87a6 6 0 0 1 6 6v9.5m0 9.5v19m0 9.5v19m0 9.5v19m0 9.5v9.5l-8-5.47m-8.33-5l-3.52-1.94-7.33-3.2-6.38-2.1-.65-.15m-9.55-1.74l-1.5-.18-8.2-.26-1.94.1-2.35.33-3.03.72-2 .7m-8.8 3.77l-1.36.62-15.76 7.92m-8.68 4l-2 .7-3.03.73-2.37.34-1.95.1-8.88-.32-.8-.1m-9.5-1.8l-1.42-.34-6.48-2.22-7.47-3.37-2.47-1.4m-8.3-4.97l-7.96-5.52v-10.44m0-10.44V618.2m0-10.44v-20.88m0-10.44V566a6 6 0 0 1 6-6h9.87" stroke="#000" stroke-width="2" fill="none"/><use xlink:href="#h" transform="matrix(1,0,0,1,1385,565) translate(20.990668402777786 52.46527777777778)"/><path d="M340 523v51a6 6 0 0 0 6 6h454.76" stroke="#3a414a" stroke-width="3" fill="none"/><path d="M341.48 523.04h-2.96v-1.54h2.96z" stroke="#3a414a" stroke-width=".05" fill="#3a414a"/><path d="M816.52 580l-14.26 4.63v-9.26z" stroke="#3a414a" stroke-width="3" fill="#3a414a"/><path d="M340 637v-51a6 6 0 0 1 6-6h454.76" stroke="#3a414a" stroke-width="3" fill="none"/><path d="M341.48 638.5h-2.96v-1.54h2.96z" stroke="#3a414a" stroke-width=".05" fill="#3a414a"/><path d="M816.52 580l-14.26 4.63v-9.26z" stroke="#3a414a" stroke-width="3" fill="#3a414a"/><path d="M700 226a6 6 0 0 1 6-6h148a6 6 0 0 1 6 6v108a6 6 0 0 1-6 6H706a6 6 0 0 1-6-6z" stroke="#000" stroke-width="2" fill="#f7f4e4"/><path d="M716 220v120m128-120v120" stroke="#000" stroke-width="2" fill="none"/><use xlink:href="#j" transform="matrix(1,0,0,1,725,225) translate(35.95160590277778 46.950954861111114)"/><use xlink:href="#k" transform="matrix(1,0,0,1,725,225) translate(12.183159722222229 79.21657986111111)"/><path d="M1000 240c26.56 19.92 43.36 19.92 53.28 19.92 16 0 37.28-19.92 53.28-19.92 10.08 0 26.72 0 53.44 19.92V360c-26.72-20.04-43.36-20.04-53.44-20.04-16 0-37.28 20.04-53.28 20.04-9.92 0-26.72 0-53.28-20.04z" stroke="#000" stroke-width="2" fill="#fff3d9"/><path d="M980 220c26.56 19.92 43.36 19.92 53.28 19.92 16 0 37.28-19.92 53.28-19.92 10.08 0 26.72 0 53.44 19.92V340c-26.72-20.04-43.36-20.04-53.44-20.04-16 0-37.28 20.04-53.28 20.04-9.92 0-26.72 0-53.28-20.04z" stroke="#000" stroke-width="2" fill="#fff3d9"/><use xlink:href="#l" transform="matrix(1,0,0,1,985,225) translate(33.268229166666664 62.77777777777778)"/><path d="M40 606a6 6 0 0 1 6-6h228a6 6 0 0 1 6 6v28a6 6 0 0 1-6 6H46a6 6 0 0 1-6-6z" fill="none"/><use xlink:href="#m" transform="matrix(1,0,0,1,40,600) translate(0 28.08376736111111)"/><use xlink:href="#n" transform="matrix(1,0,0,1,40,600) translate(62.22873263888889 28.08376736111111)"/><path d="M40 46a6 6 0 0 1 6-6h228a6 6 0 0 1 6 6v28a6 6 0 0 1-6 6H46a6 6 0 0 1-6-6z" fill="none"/><use xlink:href="#o" transform="matrix(1,0,0,1,40,40) translate(0 28.08376736111111)"/><use xlink:href="#n" transform="matrix(1,0,0,1,40,40) translate(58.55034722222222 28.08376736111111)"/><path d="M1400 940c26.56 19.92 43.36 19.92 53.28 19.92 16 0 37.28-19.92 53.28-19.92 10.08 0 26.72 0 53.44 19.92V1060c-26.72-20.04-43.36-20.04-53.44-20.04-16 0-37.28 20.04-53.28 20.04-9.92 0-26.72 0-53.28-20.04z" stroke="#000" stroke-width="2" fill="#fff3d9"/><path d="M1380 920c26.56 19.92 43.36 19.92 53.28 19.92 16 0 37.28-19.92 53.28-19.92 10.08 0 26.72 0 53.44 19.92V1040c-26.72-20.04-43.36-20.04-53.44-20.04-16 0-37.28 20.04-53.28 20.04-9.92 0-26.72 0-53.28-20.04z" stroke="#000" stroke-width="2" fill="#fff3d9"/><use xlink:href="#l" transform="matrix(1,0,0,1,1385,925) translate(33.268229166666664 62.77777777777778)"/><path d="M1380 746a6 6 0 0 1 6-6h148a6 6 0 0 1 6 6v108a6 6 0 0 1-6 6h-148a6 6 0 0 1-6-6z" stroke="#000" stroke-width="2" fill="#f7f4e4"/><path d="M1396 740v120m128-120v120" stroke="#000" stroke-width="2" fill="none"/><use xlink:href="#j" transform="matrix(1,0,0,1,1405,745) translate(35.95160590277778 46.950954861111114)"/><use xlink:href="#k" transform="matrix(1,0,0,1,1405,745) translate(12.183159722222229 79.21657986111111)"/><path d="M862.5 280H914a6 6 0 0 1 6 6v193.98" stroke="#3a414a" stroke-width="3" fill="none"/><path d="M862.54 281.48H861v-2.96h1.54z" stroke="#3a414a" stroke-width=".05" fill="#3a414a"/><path d="M920 495.75l-4.63-14.27h9.26z" stroke="#3a414a" stroke-width="3" fill="#3a414a"/><path d="M977.5 280H926a6 6 0 0 0-6 6v193.98" stroke="#3a414a" stroke-width="3" fill="none"/><path d="M979 281.48h-1.54v-2.96H979z" stroke="#3a414a" stroke-width=".05" fill="#3a414a"/><path d="M920 495.75l-4.63-14.27h9.26z" stroke="#3a414a" stroke-width="3" fill="#3a414a"/><path d="M920 817V680.02" stroke="#3a414a" stroke-width="3" fill="none"/><path d="M921.48 818.5h-2.96v-1.54h2.96z" stroke="#3a414a" stroke-width=".05" fill="#3a414a"/><path d="M920 664.25l4.63 14.27h-9.26z" stroke="#3a414a" stroke-width="3" fill="#3a414a"/><path d="M60 666a6 6 0 0 1 6-6h148a6 6 0 0 1 6 6v108a6 6 0 0 1-6 6H66a6 6 0 0 1-6-6zm16-6v120M60 676h160" stroke="#000" stroke-width="2" fill="#f2f3f5"/><g><use xlink:href="#i" transform="matrix(1,0,0,1,81,681) translate(48.58094618055556 53.84027777777778)"/></g><path d="M260 946a6 6 0 0 1 6-6h148a6 6 0 0 1 6 6v114c-26.72-20.04-43.36-20.04-53.44-20.04-16 0-37.28 20.04-53.28 20.04-9.92 0-26.72 0-53.28-20.04z" stroke="#000" stroke-width="2" fill="#f2f3f5"/><g><use xlink:href="#h" transform="matrix(1,0,0,1,265,945) translate(20.990668402777786 52.46527777777778)"/></g><path d="M680 166a6 6 0 0 1 6-6h228a6 6 0 0 1 6 6v28a6 6 0 0 1-6 6H686a6 6 0 0 1-6-6z" fill="none"/><g><use xlink:href="#p" transform="matrix(1,0,0,1,680,160) translate(0 28.08376736111111)"/></g><defs><path d="M783 20c-382 0-661-292-661-764 0-473 279-766 661-766 302 0 548 182 601 489h-190c-42-204-217-313-411-313-268 0-476 208-476 590 0 381 209 588 476 588 195 0 369-110 411-313h190c-52 303-296 489-601 489" id="q"/><path d="M338-670V0H158v-1490h180v566c73-149 190-208 336-208 226 0 379 139 379 422V0H872v-695c0-172-96-275-252-275-161 0-282 109-282 300" id="r"/><path d="M471 26C259 26 90-98 90-318c0-256 228-303 435-329 202-27 287-16 287-108 0-139-79-219-234-219-161 0-248 86-283 164l-173-57c86-203 278-265 451-265 150 0 419 46 419 395V0H815v-152h-12C765-73 660 26 471 26zm31-159c199 0 310-134 310-271v-155c-30 35-226 55-295 64-131 17-246 59-246 186 0 116 97 176 231 176" id="s"/><path d="M338-670V0H158v-1118h173l1 207c72-158 192-221 342-221 226 0 378 139 378 422V0H872v-695c0-172-96-275-252-275-161 0-282 109-282 300" id="t"/><path d="M611 442c-248 0-391-105-460-228l146-94c47 65 117 165 314 165 178 0 307-82 307-266v-224h-17C863-141 792-18 576-18c-268 0-472-195-472-546 0-346 197-568 476-568 216 0 288 133 326 193h17v-179h175V29c0 289-215 413-487 413zm-5-620c203 0 314-146 314-390 0-237-108-403-314-403-213 0-319 180-319 403 0 230 109 390 319 390" id="u"/><path d="M628 24c-324 0-524-230-524-574 0-343 198-582 503-582 237 0 487 146 487 559v75H286c9 234 145 362 343 362 132 0 231-58 273-172l174 48C1024-91 857 24 628 24zM287-650h624c-17-190-120-322-304-322-192 0-309 151-320 322" id="v"/><g id="a"><use transform="matrix(0.010850694444444444,0,0,0.010850694444444444,0,0)" xlink:href="#q"/><use transform="matrix(0.010850694444444444,0,0,0.010850694444444444,16.23263888888889,0)" xlink:href="#r"/><use transform="matrix(0.010850694444444444,0,0,0.010850694444444444,29.37282986111111,0)" xlink:href="#s"/><use transform="matrix(0.010850694444444444,0,0,0.010850694444444444,41.85112847222222,0)" xlink:href="#t"/><use transform="matrix(0.010850694444444444,0,0,0.010850694444444444,54.98046875,0)" xlink:href="#u"/><use transform="matrix(0.010850694444444444,0,0,0.010850694444444444,68.60894097222223,0)" xlink:href="#v"/></g><path d="M645 0H180v-1490h484c435 0 692 280 692 742 0 466-257 748-711 748zM370-168h263c363 0 539-218 539-580 0-358-176-574-521-574H370v1154" id="w"/><path d="M598-1118v154H368v674c0 100 37 144 132 144 23 0 62-6 92-12L629-6c-37 13-88 20-134 20-193 0-307-107-307-290v-688H20v-154h168v-266h180v266h230" id="x"/><g id="b"><use transform="matrix(0.010850694444444444,0,0,0.010850694444444444,0,0)" xlink:href="#w"/><use transform="matrix(0.010850694444444444,0,0,0.010850694444444444,16.03732638888889,0)" xlink:href="#s"/><use transform="matrix(0.010850694444444444,0,0,0.010850694444444444,28.515625,0)" xlink:href="#x"/><use transform="matrix(0.010850694444444444,0,0,0.010850694444444444,35.89409722222222,0)" xlink:href="#s"/></g><path d="M657 26c-323 0-524-166-541-416h195c15 169 171 246 346 246 202 0 356-106 356-265 5-203-294-238-475-293-239-73-380-191-380-389 0-252 224-419 512-419 294 0 499 171 508 396H992c-17-145-151-228-328-228-193 0-321 102-321 242 0 156 175 211 284 241l149 41c160 44 422 134 422 412 0 244-197 432-541 432" id="y"/><g id="c"><use transform="matrix(0.010850694444444444,0,0,0.010850694444444444,0,0)" xlink:href="#y"/><use transform="matrix(0.010850694444444444,0,0,0.010850694444444444,14.2578125,0)" xlink:href="#v"/><use transform="matrix(0.010850694444444444,0,0,0.010850694444444444,27.213541666666664,0)" xlink:href="#x"/></g><path d="M180 0v-1490h190v644h782v-644h190V0h-190v-678H370V0H180" id="z"/><path d="M140 405l46-156c120 36 205 19 263-150l32-93L54-1118h197c107 313 237 620 324 950 87-331 219-637 326-950h196L606 167c-68 178-176 259-334 259-64 0-113-12-132-21" id="A"/><path d="M338-1490V0H158v-1490h180" id="B"/><path d="M158 0v-1118h180V0H158zm91-1301c-68 0-125-53-125-119s57-119 125-119c69 0 126 53 126 119s-57 119-126 119" id="C"/><g id="d"><use transform="matrix(0.010850694444444444,0,0,0.010850694444444444,0,0)" xlink:href="#z"/><use transform="matrix(0.010850694444444444,0,0,0.010850694444444444,16.623263888888886,0)" xlink:href="#A"/><use transform="matrix(0.010850694444444444,0,0,0.010850694444444444,29.00390625,0)" xlink:href="#s"/><use transform="matrix(0.010850694444444444,0,0,0.010850694444444444,41.482204861111114,0)" xlink:href="#B"/><use transform="matrix(0.010850694444444444,0,0,0.010850694444444444,46.86414930555556,0)" xlink:href="#C"/><use transform="matrix(0.010850694444444444,0,0,0.010850694444444444,52.24609375,0)" xlink:href="#t"/><use transform="matrix(0.010850694444444444,0,0,0.010850694444444444,65.37543402777777,0)" xlink:href="#v"/></g><path d="M613 24c-304 0-509-231-509-576 0-350 205-580 509-580 305 0 511 230 511 580 0 345-206 576-511 576zm0-161c226 0 329-195 329-415 0-222-103-419-329-419-223 0-326 196-326 419 0 220 103 415 326 415" id="D"/><path d="M678-1118v154H420V0H240v-964H20v-154h220v-149c0-194 155-293 318-293 85 0 141 18 168 30l-50 154c-19-6-47-17-97-17-111 0-159 58-159 166v109h258" id="E"/><g id="e"><use transform="matrix(0.010850694444444444,0,0,0.010850694444444444,0,0)" xlink:href="#q"/><use transform="matrix(0.010850694444444444,0,0,0.010850694444444444,16.23263888888889,0)" xlink:href="#D"/><use transform="matrix(0.010850694444444444,0,0,0.010850694444444444,29.557291666666664,0)" xlink:href="#t"/><use transform="matrix(0.010850694444444444,0,0,0.010850694444444444,42.68663194444444,0)" xlink:href="#E"/><use transform="matrix(0.010850694444444444,0,0,0.010850694444444444,50.91145833333333,0)" xlink:href="#C"/><use transform="matrix(0.010850694444444444,0,0,0.010850694444444444,56.29340277777778,0)" xlink:href="#u"/></g><path d="M180 0v-1490h908v168H370v486h669v168H370v500h727V0H180" id="F"/><path d="M65 0l393-574-370-544h210c88 136 192 297 267 435 67-142 176-302 264-435h206L661-564 1053 0H844c-94-144-206-310-287-458C484-308 366-142 273 0H65" id="G"/><path d="M158 0v-1118h174v172h12c41-113 157-188 290-188 26 0 70 2 91 3v181c-11-2-60-10-108-10-161 0-279 109-279 260V0H158" id="H"/><path d="M613 24c-304 0-509-231-509-576 0-350 205-580 509-580 216 0 392 114 453 309l-173 49c-33-115-133-197-280-197-223 0-326 196-326 419 0 220 103 415 326 415 150 0 252-85 285-206l172 49C1010-95 832 24 613 24" id="I"/><g id="f"><use transform="matrix(0.010850694444444444,0,0,0.010850694444444444,0,0)" xlink:href="#F"/><use transform="matrix(0.010850694444444444,0,0,0.010850694444444444,13.35720486111111,0)" xlink:href="#G"/><use transform="matrix(0.010850694444444444,0,0,0.010850694444444444,25.92230902777778,0)" xlink:href="#x"/><use transform="matrix(0.010850694444444444,0,0,0.010850694444444444,33.19227430555556,0)" xlink:href="#H"/><use transform="matrix(0.010850694444444444,0,0,0.010850694444444444,41.55815972222222,0)" xlink:href="#s"/><use transform="matrix(0.010850694444444444,0,0,0.010850694444444444,54.03645833333333,0)" xlink:href="#I"/><use transform="matrix(0.010850694444444444,0,0,0.010850694444444444,66.73177083333333,0)" xlink:href="#x"/></g><path d="M537 14c-226 0-379-139-379-422v-710h180v695c0 172 97 275 253 275 160 0 281-109 281-300v-670h181V0H879v-209C806-46 684 14 537 14" id="J"/><g id="g"><use transform="matrix(0.010850694444444444,0,0,0.010850694444444444,0,0)" xlink:href="#q"/><use transform="matrix(0.010850694444444444,0,0,0.010850694444444444,16.23263888888889,0)" xlink:href="#J"/><use transform="matrix(0.010850694444444444,0,0,0.010850694444444444,29.37282986111111,0)" xlink:href="#H"/><use transform="matrix(0.010850694444444444,0,0,0.010850694444444444,38.0859375,0)" xlink:href="#H"/><use transform="matrix(0.010850694444444444,0,0,0.010850694444444444,46.08289930555556,0)" xlink:href="#v"/><use transform="matrix(0.010850694444444444,0,0,0.010850694444444444,59.03862847222221,0)" xlink:href="#t"/><use transform="matrix(0.010850694444444444,0,0,0.010850694444444444,72.16796874999999,0)" xlink:href="#x"/></g><path d="M158 0v-1118h175l1 205c55-151 181-225 313-225 147 0 245 90 285 228 53-141 190-228 352-228 194 0 352 125 352 384V0h-181v-749c0-161-105-225-225-225-151 0-243 103-243 244V0H807v-767c0-124-93-207-219-207-131 0-250 92-250 270V0H158" id="K"/><g id="h"><use transform="matrix(0.010850694444444444,0,0,0.010850694444444444,0,0)" xlink:href="#w"/><use transform="matrix(0.010850694444444444,0,0,0.010850694444444444,16.03732638888889,0)" xlink:href="#D"/><use transform="matrix(0.010850694444444444,0,0,0.010850694444444444,29.361979166666664,0)" xlink:href="#I"/><use transform="matrix(0.010850694444444444,0,0,0.010850694444444444,42.057291666666664,0)" xlink:href="#J"/><use transform="matrix(0.010850694444444444,0,0,0.010850694444444444,55.197482638888886,0)" xlink:href="#K"/><use transform="matrix(0.010850694444444444,0,0,0.010850694444444444,74.66362847222221,0)" xlink:href="#v"/><use transform="matrix(0.010850694444444444,0,0,0.010850694444444444,87.61935763888889,0)" xlink:href="#t"/><use transform="matrix(0.010850694444444444,0,0,0.010850694444444444,100.74869791666666,0)" xlink:href="#x"/></g><path d="M180 0v-1490h901v168H370v510h643v168H370V0H180" id="L"/><g id="i"><use transform="matrix(0.010850694444444444,0,0,0.010850694444444444,0,0)" xlink:href="#L"/><use transform="matrix(0.010850694444444444,0,0,0.010850694444444444,13.118489583333332,0)" xlink:href="#C"/><use transform="matrix(0.010850694444444444,0,0,0.010850694444444444,18.50043402777778,0)" xlink:href="#B"/><use transform="matrix(0.010850694444444444,0,0,0.010850694444444444,23.88237847222222,0)" xlink:href="#v"/></g><path d="M180 0v-1490h510c348 0 508 209 508 474 0 266-160 477-507 477H370V0H180zm190-706h312c236 0 327-133 327-310 0-176-91-307-329-307H370v617" id="M"/><g id="j"><use transform="matrix(0.010850694444444444,0,0,0.010850694444444444,0,0)" xlink:href="#M"/><use transform="matrix(0.010850694444444444,0,0,0.010850694444444444,14.192708333333332,0)" xlink:href="#J"/><use transform="matrix(0.010850694444444444,0,0,0.010850694444444444,27.332899305555554,0)" xlink:href="#B"/><use transform="matrix(0.010850694444444444,0,0,0.010850694444444444,32.71484375,0)" xlink:href="#B"/></g><path d="M180 0v-1490h510c348 0 508 194 508 460 0 198-88 351-276 417L1256 0h-220L726-579c-117 2-238 0-356 1V0H180zm190-747h312c235 0 327-108 327-283 0-177-92-293-329-293H370v576" id="N"/><path d="M1096 418H916v-591h-14C865-111 790 24 577 24c-279 0-473-224-473-580 0-354 195-576 474-576 218 0 287 134 324 193h20v-179h174V418zM604-137c203 0 314-172 314-421 0-247-108-413-314-413-212 0-317 181-317 413 0 235 108 421 317 421" id="O"/><path d="M538 24C308 24 148-78 108-271l171-41c32 123 123 178 257 178 156 0 256-77 256-169 0-77-54-128-164-154l-186-44c-203-48-300-148-300-305 0-192 176-326 414-326 230 0 351 112 402 269l-163 42c-31-80-94-158-238-158-133 0-233 69-233 162 0 83 57 129 188 160l169 40c203 48 298 149 298 302 0 196-179 339-441 339" id="P"/><g id="k"><use transform="matrix(0.010850694444444444,0,0,0.010850694444444444,0,0)" xlink:href="#N"/><use transform="matrix(0.010850694444444444,0,0,0.010850694444444444,13.975694444444445,0)" xlink:href="#v"/><use transform="matrix(0.010850694444444444,0,0,0.010850694444444444,26.931423611111104,0)" xlink:href="#O"/><use transform="matrix(0.010850694444444444,0,0,0.010850694444444444,40.53819444444444,0)" xlink:href="#J"/><use transform="matrix(0.010850694444444444,0,0,0.010850694444444444,53.678385416666664,0)" xlink:href="#v"/><use transform="matrix(0.010850694444444444,0,0,0.010850694444444444,66.63411458333333,0)" xlink:href="#P"/><use transform="matrix(0.010850694444444444,0,0,0.010850694444444444,78.36371527777777,0)" xlink:href="#x"/></g><path d="M370-1490V0H180v-1490h190" id="Q"/><path d="M218-607c0-325 108-727 258-974h175c-155 315-250 682-250 974 0 265 78 531 250 886H476C306-10 218-315 218-607" id="R"/><path d="M96 279C273-86 346-350 346-607c0-292-95-659-250-974h175c150 246 258 650 258 974 0 297-91 602-258 886H96" id="S"/><g id="l"><use transform="matrix(0.010850694444444444,0,0,0.010850694444444444,0,0)" xlink:href="#Q"/><use transform="matrix(0.010850694444444444,0,0,0.010850694444444444,5.967881944444445,0)" xlink:href="#P"/><use transform="matrix(0.010850694444444444,0,0,0.010850694444444444,17.69748263888889,0)" xlink:href="#P"/><use transform="matrix(0.010850694444444444,0,0,0.010850694444444444,29.427083333333336,0)" xlink:href="#J"/><use transform="matrix(0.010850694444444444,0,0,0.010850694444444444,42.56727430555556,0)" xlink:href="#v"/><use transform="matrix(0.010850694444444444,0,0,0.010850694444444444,55.52300347222222,0)" xlink:href="#R"/><use transform="matrix(0.010850694444444444,0,0,0.010850694444444444,63.62847222222222,0)" xlink:href="#P"/><use transform="matrix(0.010850694444444444,0,0,0.010850694444444444,75.35807291666667,0)" xlink:href="#S"/></g><path d="M135 0v-1490h305v602h649v-602h306V0h-306v-635H440V0H135" id="T"/><path d="M633 22C291 22 81-200 81-553c0-345 210-579 537-579 292 0 525 185 525 567v84H378c7 183 109 277 260 277 105 0 184-46 216-132l272 51C1071-99 893 22 633 22zM380-669h474c-15-146-94-237-233-237-143 0-229 99-241 237" id="U"/><path d="M440 22C227 22 68-92 68-313c0-250 202-322 422-343 195-21 271-24 271-105 0-95-63-149-175-149-116 0-187 57-211 129l-275-46c57-194 237-305 487-305 240 0 474 108 474 379V0H777v-155h-10C713-51 605 22 440 22zm85-211c140 0 238-93 238-211v-121c-37 26-156 42-222 51-111 16-185 59-185 149 0 87 70 132 169 132" id="V"/><path d="M537 19C279 19 81-185 81-557c0-382 206-575 454-575 190 0 278 113 318 202h10v-560h300V0H868v-179h-15C812-89 719 19 537 19zm92-241c153 0 240-134 240-336 0-203-86-334-240-334-158 0-240 138-240 334 0 197 84 336 240 336" id="W"/><g id="m"><use transform="matrix(0.010850694444444444,0,0,0.010850694444444444,0,0)" xlink:href="#T"/><use transform="matrix(0.010850694444444444,0,0,0.010850694444444444,16.6015625,0)" xlink:href="#U"/><use transform="matrix(0.010850694444444444,0,0,0.010850694444444444,30.05642361111111,0)" xlink:href="#V"/><use transform="matrix(0.010850694444444444,0,0,0.010850694444444444,42.95789930555556,0)" xlink:href="#W"/></g><path d="M135 0v-1490h591c327 0 492 160 492 383 0 177-115 286-268 320v15c168 8 326 140 326 361 0 236-176 411-512 411H135zm305-251h264c179 0 258-76 258-189 0-125-97-215-250-215H440v404zm0-613h241c131 0 228-74 228-194 0-109-79-183-222-183H440v377" id="X"/><path d="M128 0v-1118h290v195h12c54-169 184-238 367-200v268c-27-8-86-15-130-15-138 0-239 95-239 234V0H128" id="Y"/><path d="M428-647V0H128v-1118h283l4 231c63-156 176-245 348-245 232 0 384 159 384 421V0H847v-659c0-139-76-222-202-222-128 0-217 86-217 234" id="Z"/><path d="M628 22C291 22 81-210 81-554c0-346 210-578 547-578 265 0 455 142 497 372l-279 52c-25-116-99-188-215-188-160 0-244 139-244 341 0 200 84 341 244 341 116 0 193-74 217-195l279 51C1085-123 896 22 628 22" id="aa"/><path d="M428-647V0H128v-1490h294v586c65-146 175-228 341-228 232 0 385 159 385 421V0H847v-659c0-139-76-222-202-222-128 0-217 86-217 234" id="ab"/><g id="n"><use transform="matrix(0.010850694444444444,0,0,0.010850694444444444,0,0)" xlink:href="#X"/><use transform="matrix(0.010850694444444444,0,0,0.010850694444444444,14.702690972222221,0)" xlink:href="#Y"/><use transform="matrix(0.010850694444444444,0,0,0.010850694444444444,23.448350694444443,0)" xlink:href="#V"/><use transform="matrix(0.010850694444444444,0,0,0.010850694444444444,36.349826388888886,0)" xlink:href="#Z"/><use transform="matrix(0.010850694444444444,0,0,0.010850694444444444,50.18446180555556,0)" xlink:href="#aa"/><use transform="matrix(0.010850694444444444,0,0,0.010850694444444444,63.25954861111111,0)" xlink:href="#ab"/></g><path d="M572 22C302 22 117-98 78-306l279-48c29 105 101 156 224 156 114 0 185-48 185-115 0-118-228-130-337-155-215-49-322-150-322-317 0-215 187-347 470-347 265 0 424 116 466 298l-266 47c-24-76-87-130-196-130-98 0-174 46-174 113 0 56 38 95 144 117l201 40c216 44 320 143 320 302 0 220-207 367-500 367" id="ac"/><g id="o"><use transform="matrix(0.010850694444444444,0,0,0.010850694444444444,0,0)" xlink:href="#X"/><use transform="matrix(0.010850694444444444,0,0,0.010850694444444444,14.702690972222221,0)" xlink:href="#V"/><use transform="matrix(0.010850694444444444,0,0,0.010850694444444444,27.604166666666664,0)" xlink:href="#ac"/><use transform="matrix(0.010850694444444444,0,0,0.010850694444444444,40.04991319444444,0)" xlink:href="#U"/></g><path d="M795 20C377 20 94-272 94-743c0-483 302-767 694-767 335 0 593 206 635 500h-310c-42-142-154-229-320-229-230 0-389 177-389 493s154 495 393 495c212 0 340-120 345-311H818v-232h620v186c0 391-269 628-643 628" id="ad"/><path d="M128 0v-1118h300V0H128zm150-1264c-91 0-165-68-165-154 0-85 74-154 165-154 90 0 165 69 165 154 0 86-75 154-165 154" id="ae"/><path d="M683-1118v229H474v562c0 71 29 104 102 104 23 0 73-7 95-13l43 225C647 9 580 16 520 16 296 16 174-96 174-301v-588H20v-229h154v-266h300v266h209" id="af"/><path d="M513 14c-232 0-385-159-385-421v-711h300v659c0 139 76 222 202 222 127 0 217-86 217-234v-647h301V0H864l-4-232C797-74 683 14 513 14" id="ag"/><path d="M754 19C571 19 479-89 437-179h-14V0H128v-1490h300v560h9c41-89 129-202 319-202 248 0 453 193 453 575 0 372-197 576-455 576zm-92-241c156 0 240-139 240-336 0-196-83-334-240-334-154 0-241 131-241 334 0 202 88 336 241 336" id="ah"/><g id="p"><use transform="matrix(0.010850694444444444,0,0,0.010850694444444444,0,0)" xlink:href="#ad"/><use transform="matrix(0.010850694444444444,0,0,0.010850694444444444,16.67751736111111,0)" xlink:href="#ae"/><use transform="matrix(0.010850694444444444,0,0,0.010850694444444444,22.69965277777778,0)" xlink:href="#af"/><use transform="matrix(0.010850694444444444,0,0,0.010850694444444444,30.891927083333336,0)" xlink:href="#T"/><use transform="matrix(0.010850694444444444,0,0,0.010850694444444444,47.49348958333333,0)" xlink:href="#ag"/><use transform="matrix(0.010850694444444444,0,0,0.010850694444444444,61.328125,0)" xlink:href="#ah"/></g></defs></g></svg>