<svg xmlns="http://www.w3.org/2000/svg" xmlns:xlink="http://www.w3.org/1999/xlink" xmlns:lucid="lucid" width="843" height="843"><g transform="translate(-38.5 -38.5)" lucid:page-tab-id="6qGfOTB6tuCK"><path d="M0 0h1760v1360H0z" fill="#fff"/><path d="M380 120c0 44.18-35.82 80-80 80s-80-35.82-80-80 35.82-80 80-80 80 35.82 80 80z" stroke="#000" stroke-width="3" fill="#f2f2ff"/><use xlink:href="#a" transform="matrix(1,0,0,1,225,45) translate(36.02430555555556 82.46527777777777)"/><path d="M860 120c0 44.18-35.82 80-80 80s-80-35.82-80-80 35.82-80 80-80 80 35.82 80 80z" stroke="#000" stroke-width="3" fill="#fff0fb"/><use xlink:href="#a" transform="matrix(1,0,0,1,705,45) translate(36.02430555555556 82.46527777777777)"/><path d="M220 360c0 44.18-35.82 80-80 80s-80-35.82-80-80 35.82-80 80-80 80 35.82 80 80z" stroke="#000" stroke-width="3" fill="#dedeff"/><use xlink:href="#b" transform="matrix(1,0,0,1,65,285) translate(3.1298828125 66.25)"/><use xlink:href="#c" transform="matrix(1,0,0,1,65,285) translate(34.3505859375 95.2890625)"/><path d="M540 360c0 44.18-35.82 80-80 80s-80-35.82-80-80 35.82-80 80-80 80 35.82 80 80z" stroke="#000" stroke-width="3" fill="#f4d9ff"/><use xlink:href="#d" transform="matrix(1,0,0,1,385,285) translate(3.1298828125 66.25)"/><use xlink:href="#e" transform="matrix(1,0,0,1,385,285) translate(34.3505859375 95.2890625)"/><path d="M860 360c0 44.18-35.82 80-80 80s-80-35.82-80-80 35.82-80 80-80 80 35.82 80 80z" stroke="#000" stroke-width="3" fill="#ffd6f5"/><use xlink:href="#d" transform="matrix(1,0,0,1,705,285) translate(3.1298828125 66.25)"/><use xlink:href="#e" transform="matrix(1,0,0,1,705,285) translate(34.3505859375 95.2890625)"/><path d="M240 580c0 44.18-35.82 80-80 80s-80-35.82-80-80 35.82-80 80-80 80 35.82 80 80z" stroke="#000" stroke-width="3" fill="#dedeff"/><use xlink:href="#f" transform="matrix(1,0,0,1,85,505) translate(56.58094618055556 82.46527777777777)"/><path d="M220 580c0 44.18-35.82 80-80 80s-80-35.82-80-80 35.82-80 80-80 80 35.82 80 80z" stroke="#000" stroke-width="3" fill="#dedeff"/><use xlink:href="#f" transform="matrix(1,0,0,1,65,505) translate(56.58094618055556 82.46527777777777)"/><path d="M200 580c0 44.18-35.82 80-80 80s-80-35.82-80-80 35.82-80 80-80 80 35.82 80 80z" stroke="#000" stroke-width="3" fill="#dedeff"/><use xlink:href="#g" transform="matrix(1,0,0,1,45,505) translate(7.020399305555571 82.46527777777777)"/><path d="M560 580c0 44.18-35.82 80-80 80s-80-35.82-80-80 35.82-80 80-80 80 35.82 80 80z" stroke="#000" stroke-width="3" fill="#f4d9ff"/><use xlink:href="#f" transform="matrix(1,0,0,1,405,505) translate(56.58094618055556 82.46527777777777)"/><path d="M540 580c0 44.18-35.82 80-80 80s-80-35.82-80-80 35.82-80 80-80 80 35.82 80 80z" stroke="#000" stroke-width="3" fill="#f4d9ff"/><use xlink:href="#f" transform="matrix(1,0,0,1,385,505) translate(56.58094618055556 82.46527777777777)"/><path d="M520 580c0 44.18-35.82 80-80 80s-80-35.82-80-80 35.82-80 80-80 80 35.82 80 80z" stroke="#000" stroke-width="3" fill="#f4d9ff"/><use xlink:href="#g" transform="matrix(1,0,0,1,365,505) translate(7.020399305555571 82.46527777777777)"/><path d="M140 443v28.2a.06.06 0 0 1-.06.06.06.06 0 0 0-.06.06v9.08" stroke="#3a414a" stroke-width="3" fill="none"/><path d="M139.98 441.5h.73l.78-.03v1.57h-2.95v-1.6z" stroke="#3a414a" stroke-width=".05" fill="#3a414a"/><path d="M139.88 496.17l-4.64-14.27h9.27z" stroke="#3a414a" stroke-width="3" fill="#3a414a"/><path d="M460 443v34.88" stroke="#3a414a" stroke-width="3" fill="none"/><path d="M459.98 441.5h.73l.78-.03v1.57h-2.96v-1.6z" stroke="#3a414a" stroke-width=".05" fill="#3a414a"/><path d="M460 493.65l-4.63-14.27h9.26z" stroke="#3a414a" stroke-width="3" fill="#3a414a"/><path d="M880 580c0 44.18-35.82 80-80 80s-80-35.82-80-80 35.82-80 80-80 80 35.82 80 80z" stroke="#000" stroke-width="3" fill="#ffd6f5"/><use xlink:href="#f" transform="matrix(1,0,0,1,725,505) translate(56.58094618055556 82.46527777777777)"/><path d="M860 580c0 44.18-35.82 80-80 80s-80-35.82-80-80 35.82-80 80-80 80 35.82 80 80z" stroke="#000" stroke-width="3" fill="#ffd6f5"/><use xlink:href="#f" transform="matrix(1,0,0,1,705,505) translate(56.58094618055556 82.46527777777777)"/><path d="M840 580c0 44.18-35.82 80-80 80s-80-35.82-80-80 35.82-80 80-80 80 35.82 80 80z" stroke="#000" stroke-width="3" fill="#ffd6f5"/><use xlink:href="#g" transform="matrix(1,0,0,1,685,505) translate(7.020399305555571 82.46527777777777)"/><path d="M780 443v28.2a.06.06 0 0 1-.06.06.06.06 0 0 0-.06.06v9.08" stroke="#3a414a" stroke-width="3" fill="none"/><path d="M779.98 441.5h.73l.77-.03v1.57h-2.95v-1.6z" stroke="#3a414a" stroke-width=".05" fill="#3a414a"/><path d="M779.88 496.17l-4.64-14.27h9.27z" stroke="#3a414a" stroke-width="3" fill="#3a414a"/><path d="M300 203v31a6 6 0 0 1-6 6H146a6 6 0 0 0-6 6v11.88" stroke="#3a414a" stroke-width="3" fill="none"/><path d="M299.98 201.5h.73l.78-.03v1.57h-2.96v-1.58z" stroke="#3a414a" stroke-width=".05" fill="#3a414a"/><path d="M140 273.65l-4.63-14.27h9.26z" stroke="#3a414a" stroke-width="3" fill="#3a414a"/><path d="M300 203v31a6 6 0 0 0 6 6h148a6 6 0 0 1 6 6v11.88" stroke="#3a414a" stroke-width="3" fill="none"/><path d="M299.98 201.5h.73l.78-.03v1.57h-2.96v-1.58z" stroke="#3a414a" stroke-width=".05" fill="#3a414a"/><path d="M460 273.65l-4.63-14.27h9.26z" stroke="#3a414a" stroke-width="3" fill="#3a414a"/><path d="M780 203v54.88" stroke="#3a414a" stroke-width="3" fill="none"/><path d="M779.98 201.5h.73l.77-.03v1.57h-2.95v-1.58z" stroke="#3a414a" stroke-width=".05" fill="#3a414a"/><path d="M780 273.65l-4.63-14.27h9.26z" stroke="#3a414a" stroke-width="3" fill="#3a414a"/><path d="M240 800c0 44.18-35.82 80-80 80s-80-35.82-80-80 35.82-80 80-80 80 35.82 80 80z" stroke="#000" stroke-width="3" fill="#dedeff"/><use xlink:href="#f" transform="matrix(1,0,0,1,85,725) translate(56.58094618055556 82.46527777777777)"/><path d="M220 800c0 44.18-35.82 80-80 80s-80-35.82-80-80 35.82-80 80-80 80 35.82 80 80z" stroke="#000" stroke-width="3" fill="#dedeff"/><use xlink:href="#f" transform="matrix(1,0,0,1,65,725) translate(56.58094618055556 82.46527777777777)"/><path d="M200 800c0 44.18-35.82 80-80 80s-80-35.82-80-80 35.82-80 80-80 80 35.82 80 80z" stroke="#000" stroke-width="3" fill="#dedeff"/><use xlink:href="#h" transform="matrix(1,0,0,1,45,725) translate(21.522352430555564 82.46527777777777)"/><path d="M140 663v37.38" stroke="#3a414a" stroke-width="3" fill="none"/><path d="M139.98 661.5h.73l.78-.03v1.57h-2.95v-1.58z" stroke="#3a414a" stroke-width=".05" fill="#3a414a"/><path d="M140 716.14l-4.63-14.26h9.26z" stroke="#3a414a" stroke-width="3" fill="#3a414a"/><path d="M560 800c0 44.18-35.82 80-80 80s-80-35.82-80-80 35.82-80 80-80 80 35.82 80 80z" stroke="#000" stroke-width="3" fill="#f4d9ff"/><use xlink:href="#f" transform="matrix(1,0,0,1,405,725) translate(56.58094618055556 82.46527777777777)"/><path d="M540 800c0 44.18-35.82 80-80 80s-80-35.82-80-80 35.82-80 80-80 80 35.82 80 80z" stroke="#000" stroke-width="3" fill="#f4d9ff"/><use xlink:href="#f" transform="matrix(1,0,0,1,385,725) translate(56.58094618055556 82.46527777777777)"/><path d="M520 800c0 44.18-35.82 80-80 80s-80-35.82-80-80 35.82-80 80-80 80 35.82 80 80z" stroke="#000" stroke-width="3" fill="#f4d9ff"/><use xlink:href="#h" transform="matrix(1,0,0,1,365,725) translate(21.522352430555564 82.46527777777777)"/><path d="M880 800c0 44.18-35.82 80-80 80s-80-35.82-80-80 35.82-80 80-80 80 35.82 80 80z" stroke="#000" stroke-width="3" fill="#ffd6f5"/><use xlink:href="#f" transform="matrix(1,0,0,1,725,725) translate(56.58094618055556 82.46527777777777)"/><path d="M860 800c0 44.18-35.82 80-80 80s-80-35.82-80-80 35.82-80 80-80 80 35.82 80 80z" stroke="#000" stroke-width="3" fill="#ffd6f5"/><use xlink:href="#f" transform="matrix(1,0,0,1,705,725) translate(56.58094618055556 82.46527777777777)"/><path d="M840 800c0 44.18-35.82 80-80 80s-80-35.82-80-80 35.82-80 80-80 80 35.82 80 80z" stroke="#000" stroke-width="3" fill="#ffd6f5"/><use xlink:href="#h" transform="matrix(1,0,0,1,685,725) translate(21.522352430555564 82.46527777777777)"/><path d="M460 663v37.38" stroke="#3a414a" stroke-width="3" fill="none"/><path d="M459.98 661.5h.73l.78-.03v1.57h-2.96v-1.58z" stroke="#3a414a" stroke-width=".05" fill="#3a414a"/><path d="M460 716.14l-4.63-14.26h9.26z" stroke="#3a414a" stroke-width="3" fill="#3a414a"/><path d="M780 663v37.38" stroke="#3a414a" stroke-width="3" fill="none"/><path d="M779.98 661.5h.73l.77-.03v1.57h-2.95v-1.58z" stroke="#3a414a" stroke-width=".05" fill="#3a414a"/><path d="M780 716.14l-4.63-14.26h9.26z" stroke="#3a414a" stroke-width="3" fill="#3a414a"/><defs><path d="M657 26c-323 0-524-166-541-416h195c15 169 171 246 346 246 202 0 356-106 356-265 5-203-294-238-475-293-239-73-380-191-380-389 0-252 224-419 512-419 294 0 499 171 508 396H992c-17-145-151-228-328-228-193 0-321 102-321 242 0 156 175 211 284 241l149 41c160 44 422 134 422 412 0 244-197 432-541 432" id="i"/><path d="M140 405l46-156c120 36 205 19 263-150l32-93L54-1118h197c107 313 237 620 324 950 87-331 219-637 326-950h196L606 167c-68 178-176 259-334 259-64 0-113-12-132-21" id="j"/><path d="M538 24C308 24 148-78 108-271l171-41c32 123 123 178 257 178 156 0 256-77 256-169 0-77-54-128-164-154l-186-44c-203-48-300-148-300-305 0-192 176-326 414-326 230 0 351 112 402 269l-163 42c-31-80-94-158-238-158-133 0-233 69-233 162 0 83 57 129 188 160l169 40c203 48 298 149 298 302 0 196-179 339-441 339" id="k"/><path d="M598-1118v154H368v674c0 100 37 144 132 144 23 0 62-6 92-12L629-6c-37 13-88 20-134 20-193 0-307-107-307-290v-688H20v-154h168v-266h180v266h230" id="l"/><path d="M628 24c-324 0-524-230-524-574 0-343 198-582 503-582 237 0 487 146 487 559v75H286c9 234 145 362 343 362 132 0 231-58 273-172l174 48C1024-91 857 24 628 24zM287-650h624c-17-190-120-322-304-322-192 0-309 151-320 322" id="m"/><path d="M158 0v-1118h175l1 205c55-151 181-225 313-225 147 0 245 90 285 228 53-141 190-228 352-228 194 0 352 125 352 384V0h-181v-749c0-161-105-225-225-225-151 0-243 103-243 244V0H807v-767c0-124-93-207-219-207-131 0-250 92-250 270V0H158" id="n"/><g id="a"><use transform="matrix(0.010850694444444444,0,0,0.010850694444444444,0,0)" xlink:href="#i"/><use transform="matrix(0.010850694444444444,0,0,0.010850694444444444,14.2578125,0)" xlink:href="#j"/><use transform="matrix(0.010850694444444444,0,0,0.010850694444444444,26.74696180555556,0)" xlink:href="#k"/><use transform="matrix(0.010850694444444444,0,0,0.010850694444444444,38.4765625,0)" xlink:href="#l"/><use transform="matrix(0.010850694444444444,0,0,0.010850694444444444,45.5295138888889,0)" xlink:href="#m"/><use transform="matrix(0.010850694444444444,0,0,0.010850694444444444,58.48524305555555,0)" xlink:href="#n"/></g><path d="M645 0H180v-1490h484c435 0 692 280 692 742 0 466-257 748-711 748zM370-168h263c363 0 539-218 539-580 0-358-176-574-521-574H370v1154" id="o"/><path d="M613 24c-304 0-509-231-509-576 0-350 205-580 509-580 305 0 511 230 511 580 0 345-206 576-511 576zm0-161c226 0 329-195 329-415 0-222-103-419-329-419-223 0-326 196-326 419 0 220 103 415 326 415" id="p"/><path d="M613 24c-304 0-509-231-509-576 0-350 205-580 509-580 216 0 392 114 453 309l-173 49c-33-115-133-197-280-197-223 0-326 196-326 419 0 220 103 415 326 415 150 0 252-85 285-206l172 49C1010-95 832 24 613 24" id="q"/><path d="M537 14c-226 0-379-139-379-422v-710h180v695c0 172 97 275 253 275 160 0 281-109 281-300v-670h181V0H879v-209C806-46 684 14 537 14" id="r"/><path d="M338-670V0H158v-1118h173l1 207c72-158 192-221 342-221 226 0 378 139 378 422V0H872v-695c0-172-96-275-252-275-161 0-282 109-282 300" id="s"/><path d="M471 26C259 26 90-98 90-318c0-256 228-303 435-329 202-27 287-16 287-108 0-139-79-219-234-219-161 0-248 86-283 164l-173-57c86-203 278-265 451-265 150 0 419 46 419 395V0H815v-152h-12C765-73 660 26 471 26zm31-159c199 0 310-134 310-271v-155c-30 35-226 55-295 64-131 17-246 59-246 186 0 116 97 176 231 176" id="t"/><path d="M158 0v-1118h180V0H158zm91-1301c-68 0-125-53-125-119s57-119 125-119c69 0 126 53 126 119s-57 119-126 119" id="u"/><g id="b"><use transform="matrix(0.009765625,0,0,0.009765625,0,0)" xlink:href="#o"/><use transform="matrix(0.009765625,0,0,0.009765625,14.43359375,0)" xlink:href="#p"/><use transform="matrix(0.009765625,0,0,0.009765625,26.42578125,0)" xlink:href="#q"/><use transform="matrix(0.009765625,0,0,0.009765625,37.8515625,0)" xlink:href="#r"/><use transform="matrix(0.009765625,0,0,0.009765625,49.677734375,0)" xlink:href="#n"/><use transform="matrix(0.009765625,0,0,0.009765625,67.197265625,0)" xlink:href="#m"/><use transform="matrix(0.009765625,0,0,0.009765625,78.857421875,0)" xlink:href="#s"/><use transform="matrix(0.009765625,0,0,0.009765625,90.673828125,0)" xlink:href="#l"/><use transform="matrix(0.009765625,0,0,0.009765625,97.314453125,0)" xlink:href="#t"/><use transform="matrix(0.009765625,0,0,0.009765625,108.544921875,0)" xlink:href="#l"/><use transform="matrix(0.009765625,0,0,0.009765625,115.087890625,0)" xlink:href="#u"/><use transform="matrix(0.009765625,0,0,0.009765625,119.931640625,0)" xlink:href="#p"/><use transform="matrix(0.009765625,0,0,0.009765625,131.923828125,0)" xlink:href="#s"/></g><path d="M218-607c0-325 108-727 258-974h175c-155 315-250 682-250 974 0 265 78 531 250 886H476C306-10 218-315 218-607" id="v"/><path d="M158 0v-1118h174v172h12c41-113 157-188 290-188 26 0 70 2 91 3v181c-11-2-60-10-108-10-161 0-279 109-279 260V0H158" id="w"/><path d="M96 279C273-86 346-350 346-607c0-292-95-659-250-974h175c150 246 258 650 258 974 0 297-91 602-258 886H96" id="x"/><g id="c"><use transform="matrix(0.009765625,0,0,0.009765625,0,0)" xlink:href="#v"/><use transform="matrix(0.009765625,0,0,0.009765625,7.294921875,0)" xlink:href="#i"/><use transform="matrix(0.009765625,0,0,0.009765625,20.126953125,0)" xlink:href="#p"/><use transform="matrix(0.009765625,0,0,0.009765625,32.119140625,0)" xlink:href="#r"/><use transform="matrix(0.009765625,0,0,0.009765625,43.9453125,0)" xlink:href="#w"/><use transform="matrix(0.009765625,0,0,0.009765625,51.142578125,0)" xlink:href="#q"/><use transform="matrix(0.009765625,0,0,0.009765625,62.568359375,0)" xlink:href="#m"/><use transform="matrix(0.009765625,0,0,0.009765625,74.00390625,0)" xlink:href="#x"/></g><g id="d"><use transform="matrix(0.009765625,0,0,0.009765625,0,0)" xlink:href="#o"/><use transform="matrix(0.009765625,0,0,0.009765625,14.43359375,0)" xlink:href="#p"/><use transform="matrix(0.009765625,0,0,0.009765625,26.42578125,0)" xlink:href="#q"/><use transform="matrix(0.009765625,0,0,0.009765625,37.8515625,0)" xlink:href="#r"/><use transform="matrix(0.009765625,0,0,0.009765625,49.677734375,0)" xlink:href="#n"/><use transform="matrix(0.009765625,0,0,0.009765625,67.197265625,0)" xlink:href="#m"/><use transform="matrix(0.009765625,0,0,0.009765625,78.857421875,0)" xlink:href="#s"/><use transform="matrix(0.009765625,0,0,0.009765625,90.673828125,0)" xlink:href="#l"/><use transform="matrix(0.009765625,0,0,0.009765625,97.314453125,0)" xlink:href="#t"/><use transform="matrix(0.009765625,0,0,0.009765625,108.544921875,0)" xlink:href="#l"/><use transform="matrix(0.009765625,0,0,0.009765625,115.087890625,0)" xlink:href="#u"/><use transform="matrix(0.009765625,0,0,0.009765625,119.931640625,0)" xlink:href="#p"/><use transform="matrix(0.009765625,0,0,0.009765625,131.923828125,0)" xlink:href="#s"/></g><g id="e"><use transform="matrix(0.009765625,0,0,0.009765625,0,0)" xlink:href="#v"/><use transform="matrix(0.009765625,0,0,0.009765625,7.294921875,0)" xlink:href="#i"/><use transform="matrix(0.009765625,0,0,0.009765625,20.126953125,0)" xlink:href="#p"/><use transform="matrix(0.009765625,0,0,0.009765625,32.119140625,0)" xlink:href="#r"/><use transform="matrix(0.009765625,0,0,0.009765625,43.9453125,0)" xlink:href="#w"/><use transform="matrix(0.009765625,0,0,0.009765625,51.142578125,0)" xlink:href="#q"/><use transform="matrix(0.009765625,0,0,0.009765625,62.568359375,0)" xlink:href="#m"/><use transform="matrix(0.009765625,0,0,0.009765625,74.00390625,0)" xlink:href="#x"/></g><path d="M180 0v-1490h901v168H370v510h643v168H370V0H180" id="y"/><path d="M338-1490V0H158v-1490h180" id="z"/><g id="f"><use transform="matrix(0.010850694444444444,0,0,0.010850694444444444,0,0)" xlink:href="#y"/><use transform="matrix(0.010850694444444444,0,0,0.010850694444444444,13.118489583333332,0)" xlink:href="#u"/><use transform="matrix(0.010850694444444444,0,0,0.010850694444444444,18.50043402777778,0)" xlink:href="#z"/><use transform="matrix(0.010850694444444444,0,0,0.010850694444444444,23.88237847222222,0)" xlink:href="#m"/></g><g id="g"><use transform="matrix(0.010850694444444444,0,0,0.010850694444444444,0,0)" xlink:href="#o"/><use transform="matrix(0.010850694444444444,0,0,0.010850694444444444,16.03732638888889,0)" xlink:href="#p"/><use transform="matrix(0.010850694444444444,0,0,0.010850694444444444,29.361979166666664,0)" xlink:href="#q"/><use transform="matrix(0.010850694444444444,0,0,0.010850694444444444,42.057291666666664,0)" xlink:href="#r"/><use transform="matrix(0.010850694444444444,0,0,0.010850694444444444,55.197482638888886,0)" xlink:href="#n"/><use transform="matrix(0.010850694444444444,0,0,0.010850694444444444,74.66362847222221,0)" xlink:href="#m"/><use transform="matrix(0.010850694444444444,0,0,0.010850694444444444,87.61935763888889,0)" xlink:href="#s"/><use transform="matrix(0.010850694444444444,0,0,0.010850694444444444,100.74869791666666,0)" xlink:href="#l"/><use transform="matrix(0.010850694444444444,0,0,0.010850694444444444,108.01866319444441,0)" xlink:href="#v"/><use transform="matrix(0.010850694444444444,0,0,0.010850694444444444,116.12413194444441,0)" xlink:href="#k"/><use transform="matrix(0.010850694444444444,0,0,0.010850694444444444,127.85373263888887,0)" xlink:href="#x"/></g><g id="h"><use transform="matrix(0.010850694444444444,0,0,0.010850694444444444,0,0)" xlink:href="#i"/><use transform="matrix(0.010850694444444444,0,0,0.010850694444444444,14.2578125,0)" xlink:href="#m"/><use transform="matrix(0.010850694444444444,0,0,0.010850694444444444,27.213541666666664,0)" xlink:href="#q"/><use transform="matrix(0.010850694444444444,0,0,0.010850694444444444,39.908854166666664,0)" xlink:href="#l"/><use transform="matrix(0.010850694444444444,0,0,0.010850694444444444,47.17881944444444,0)" xlink:href="#u"/><use transform="matrix(0.010850694444444444,0,0,0.010850694444444444,52.560763888888886,0)" xlink:href="#p"/><use transform="matrix(0.010850694444444444,0,0,0.010850694444444444,65.88541666666666,0)" xlink:href="#s"/><use transform="matrix(0.010850694444444444,0,0,0.010850694444444444,79.01475694444443,0)" xlink:href="#v"/><use transform="matrix(0.010850694444444444,0,0,0.010850694444444444,87.12022569444443,0)" xlink:href="#k"/><use transform="matrix(0.010850694444444444,0,0,0.010850694444444444,98.84982638888887,0)" xlink:href="#x"/></g></defs></g></svg>