<svg xmlns="http://www.w3.org/2000/svg" xmlns:xlink="http://www.w3.org/1999/xlink" xmlns:lucid="lucid" width="2383" height="1104.29"><g transform="translate(-38.5 -38.5)" lucid:page-tab-id="0_0"><path d="M0 0h3456v1360H0z" fill="#fff"/><path d="M1800 126a6 6 0 0 1 6-6h608a6 6 0 0 1 6 6v968a6 6 0 0 1-6 6h-608a6 6 0 0 1-6-6z" stroke="#000" stroke-width="3" fill="#fff"/><path d="M2180 986a6 6 0 0 1 6-6h188a6 6 0 0 1 6 6v68a6 6 0 0 1-6 6h-188a6 6 0 0 1-6-6z" stroke="#000" stroke-width="3" fill="#fff0f0"/><use xlink:href="#a" transform="matrix(1,0,0,1,2185,985) translate(15.144314236111128 43.40277777777778)"/><path d="M2160 966a6 6 0 0 1 6-6h188a6 6 0 0 1 6 6v68a6 6 0 0 1-6 6h-188a6 6 0 0 1-6-6z" stroke="#000" stroke-width="3" fill="#fff0f0"/><use xlink:href="#a" transform="matrix(1,0,0,1,2165,965) translate(15.144314236111128 43.40277777777778)"/><path d="M2140 946a6 6 0 0 1 6-6h188a6 6 0 0 1 6 6v68a6 6 0 0 1-6 6h-188a6 6 0 0 1-6-6z" stroke="#000" stroke-width="3" fill="#fff0f0"/><use xlink:href="#a" transform="matrix(1,0,0,1,2145,945) translate(15.144314236111128 43.40277777777778)"/><path d="M2140 826a6 6 0 0 1 6-6h188a6 6 0 0 1 6 6v68a6 6 0 0 1-6 6h-188a6 6 0 0 1-6-6z" stroke="#000" stroke-width="3" fill="#fff0f0"/><use xlink:href="#b" transform="matrix(1,0,0,1,2145,825) translate(66.94010416666667 43.40277777777778)"/><path d="M2140 566a6 6 0 0 1 6-6h188a6 6 0 0 1 6 6v68a6 6 0 0 1-6 6h-188a6 6 0 0 1-6-6z" stroke="#000" stroke-width="3" fill="#f2f2ff"/><use xlink:href="#a" transform="matrix(1,0,0,1,2145,564.9999999999999) translate(15.144314236111128 43.40277777777778)"/><path d="M2140 306a6 6 0 0 1 6-6h188a6 6 0 0 1 6 6v68a6 6 0 0 1-6 6h-188a6 6 0 0 1-6-6z" stroke="#000" stroke-width="3" fill="#fcfcca"/><use xlink:href="#a" transform="matrix(1,0,0,1,2145,305) translate(15.144314236111128 43.40277777777778)"/><path d="M80 86a6 6 0 0 1 6-6h348a6 6 0 0 1 6 6v248a6 6 0 0 1-6 6H86a6 6 0 0 1-6-6z" stroke="#000" stroke-width="3" fill="#f2f3f5"/><use xlink:href="#c" transform="matrix(1,0,0,1,85,85) translate(148.06857638888889 131.34027777777777)"/><path d="M160 466a6 6 0 0 1 6-6h348a6 6 0 0 1 6 6v248a6 6 0 0 1-6 6H166a6 6 0 0 1-6-6z" stroke="#000" stroke-width="3" fill="#f2f3f5"/><use xlink:href="#d" transform="matrix(1,0,0,1,165,465) translate(98.04144965277779 130.90277777777777)"/><use xlink:href="#e" transform="matrix(1,0,0,1,165,465) translate(212.31011284722223 130.90277777777777)"/><path d="M240 846a6 6 0 0 1 6-6h348a6 6 0 0 1 6 6v248a6 6 0 0 1-6 6H246a6 6 0 0 1-6-6z" stroke="#000" stroke-width="3" fill="#f2f3f5"/><use xlink:href="#c" transform="matrix(1,0,0,1,245,845) translate(148.06857638888889 130.90277777777777)"/><path d="M280 46a6 6 0 0 1 6-6h188a6 6 0 0 1 6 6v128a6 6 0 0 1-6 6H286a6 6 0 0 1-6-6zm20-6v140M280 60h200" stroke="#000" stroke-width="3" fill="#fcfcca"/><use xlink:href="#f" transform="matrix(1,0,0,1,305,65) translate(16.629774305555557 62.77777777777778)"/><use xlink:href="#g" transform="matrix(1,0,0,1,305,65) translate(97.25043402777777 62.77777777777778)"/><path d="M40 246a6 6 0 0 1 6-6h168a6 6 0 0 1 6 6v113c-30.06-19.87-48.78-19.87-60.12-19.87-18 0-41.94 19.87-59.94 19.87-11.16 0-30.06 0-59.94-19.87z" stroke="#000" stroke-width="3" fill="#fcfcca"/><path d="M50 256.5a6 6 0 0 1 6-6h168a6 6 0 0 1 6 6v113c-30.06-19.87-48.78-19.87-60.12-19.87-18 0-41.94 19.87-59.94 19.87-11.16 0-30.06 0-59.94-19.87z" stroke="#000" stroke-width="3" fill="#fcfcca"/><path d="M60 267a6 6 0 0 1 6-6h168a6 6 0 0 1 6 6v113c-30.06-19.87-48.78-19.87-60.12-19.87-18 0-41.94 19.87-59.94 19.87-11.16 0-30.06 0-59.94-19.87z" stroke="#000" stroke-width="3" fill="#fcfcca"/><use xlink:href="#a" transform="matrix(1,0,0,1,65,266) translate(5.1443142361111285 53.083767361111114)"/><path d="M440 1006a6 6 0 0 1 6-6h168a6 6 0 0 1 6 6v113c-30.06-19.87-48.78-19.87-60.12-19.87-18 0-41.94 19.87-59.94 19.87-11.16 0-30.06 0-59.94-19.87z" stroke="#000" stroke-width="3" fill="#fff0f0"/><path d="M450 1016.5a6 6 0 0 1 6-6h168a6 6 0 0 1 6 6v113c-30.06-19.87-48.78-19.87-60.12-19.87-18 0-41.94 19.87-59.94 19.87-11.16 0-30.06 0-59.94-19.87z" stroke="#000" stroke-width="3" fill="#fff0f0"/><path d="M460 1027a6 6 0 0 1 6-6h168a6 6 0 0 1 6 6v113c-30.06-19.87-48.78-19.87-60.12-19.87-18 0-41.94 19.87-59.94 19.87-11.16 0-30.06 0-59.94-19.87z" stroke="#000" stroke-width="3" fill="#fff0f0"/><use xlink:href="#a" transform="matrix(1,0,0,1,465,1026) translate(5.1443142361111285 53.083767361111114)"/><path d="M200 1006a6 6 0 0 1 6-6h188a6 6 0 0 1 6 6v128a6 6 0 0 1-6 6H206a6 6 0 0 1-6-6zm20-6v140m-20-120h200" stroke="#000" stroke-width="3" fill="#fff0f0"/><use xlink:href="#f" transform="matrix(1,0,0,1,225,1025) translate(16.629774305555557 62.77777777777778)"/><use xlink:href="#g" transform="matrix(1,0,0,1,225,1025) translate(97.25043402777777 62.77777777777778)"/><path d="M1720 662c0 9.94-35.82 18-80 18s-80-8.06-80-18V518c0-9.94 35.82-18 80-18s80 8.06 80 18z" stroke="#000" stroke-width="3" fill="#cfe4ff"/><path d="M1720 518c0 9.94-35.82 18-80 18s-80-8.06-80-18" stroke="#000" stroke-width="3" fill="none"/><use xlink:href="#h" transform="matrix(1,0,0,1,1565,541) translate(7.969835069444457 59.21527777777778)"/><use xlink:href="#i" transform="matrix(1,0,0,1,1565,541) translate(93.65776909722221 59.21527777777778)"/><use xlink:href="#j" transform="matrix(1,0,0,1,1565,541) translate(57.75824652777778 91.48090277777777)"/><path d="M1799.03 1094.08a.5.5 0 0 0 .97-.08V126a.5.5 0 0 0-.97-.08l-78.06 478.16a36.75 36.75 0 0 0 0 11.84z" stroke="#000" stroke-width="3" fill="#fff"/><path d="M1840 226a6 6 0 0 1 6-6h188a6 6 0 0 1 6 6v68a6 6 0 0 1-6 6h-188a6 6 0 0 1-6-6z" stroke="#000" stroke-width="3" fill="#fcfcca"/><use xlink:href="#k" transform="matrix(1,0,0,1,1845,225) translate(56.02430555555556 43.40277777777778)"/><path d="M2120 166a6 6 0 0 1 6-6h188a6 6 0 0 1 6 6v68a6 6 0 0 1-6 6h-188a6 6 0 0 1-6-6z" stroke="#000" stroke-width="3" fill="#fcfcca"/><use xlink:href="#b" transform="matrix(1,0,0,1,2125,165) translate(66.94010416666667 43.40277777777778)"/><path d="M2120 286a6 6 0 0 1 6-6h188a6 6 0 0 1 6 6v68a6 6 0 0 1-6 6h-188a6 6 0 0 1-6-6z" stroke="#000" stroke-width="3" fill="#fcfcca"/><use xlink:href="#a" transform="matrix(1,0,0,1,2125,284.99999999999994) translate(15.144314236111128 43.40277777777778)"/><path d="M1840 486a6 6 0 0 1 6-6h188a6 6 0 0 1 6 6v68a6 6 0 0 1-6 6h-188a6 6 0 0 1-6-6z" stroke="#000" stroke-width="3" fill="#f2f2ff"/><use xlink:href="#k" transform="matrix(1,0,0,1,1845,485) translate(56.02430555555556 43.40277777777778)"/><path d="M2120 426a6 6 0 0 1 6-6h188a6 6 0 0 1 6 6v68a6 6 0 0 1-6 6h-188a6 6 0 0 1-6-6z" stroke="#000" stroke-width="3" fill="#f2f2ff"/><use xlink:href="#b" transform="matrix(1,0,0,1,2125,425) translate(66.94010416666667 43.40277777777778)"/><path d="M2120 546a6 6 0 0 1 6-6h188a6 6 0 0 1 6 6v68a6 6 0 0 1-6 6h-188a6 6 0 0 1-6-6z" stroke="#000" stroke-width="3" fill="#f2f2ff"/><use xlink:href="#a" transform="matrix(1,0,0,1,2125,545) translate(15.144314236111128 43.40277777777778)"/><path d="M1840 866a6 6 0 0 1 6-6h188a6 6 0 0 1 6 6v68a6 6 0 0 1-6 6h-188a6 6 0 0 1-6-6z" stroke="#000" stroke-width="3" fill="#fff0f0"/><use xlink:href="#k" transform="matrix(1,0,0,1,1845,865) translate(56.02430555555556 43.40277777777778)"/><path d="M2120 806a6 6 0 0 1 6-6h188a6 6 0 0 1 6 6v68a6 6 0 0 1-6 6h-188a6 6 0 0 1-6-6z" stroke="#000" stroke-width="3" fill="#fff0f0"/><use xlink:href="#b" transform="matrix(1,0,0,1,2125,805) translate(66.94010416666667 43.40277777777778)"/><path d="M2120 926a6 6 0 0 1 6-6h188a6 6 0 0 1 6 6v68a6 6 0 0 1-6 6h-188a6 6 0 0 1-6-6z" stroke="#000" stroke-width="3" fill="#fff0f0"/><use xlink:href="#a" transform="matrix(1,0,0,1,2125,924.9999999999999) translate(15.144314236111128 43.40277777777778)"/><path d="M120 626a6 6 0 0 1 6-6h168a6 6 0 0 1 6 6v113c-30.06-19.87-48.78-19.87-60.12-19.87-18 0-41.94 19.87-59.94 19.87-11.16 0-30.06 0-59.94-19.87z" stroke="#000" stroke-width="3" fill="#fff0f0"/><path d="M130 636.5a6 6 0 0 1 6-6h168a6 6 0 0 1 6 6v113c-30.06-19.87-48.78-19.87-60.12-19.87-18 0-41.94 19.87-59.94 19.87-11.16 0-30.06 0-59.94-19.87z" stroke="#000" stroke-width="3" fill="#fff0f0"/><path d="M140 647a6 6 0 0 1 6-6h168a6 6 0 0 1 6 6v113c-30.06-19.87-48.78-19.87-60.12-19.87-18 0-41.94 19.87-59.94 19.87-11.16 0-30.06 0-59.94-19.87z" stroke="#000" stroke-width="3" fill="#fff0f0"/><use xlink:href="#a" transform="matrix(1,0,0,1,145,646) translate(5.1443142361111285 53.083767361111114)"/><path d="M720 846a6 6 0 0 1 6-6h348a6 6 0 0 1 6 6v248a6 6 0 0 1-6 6H726a6 6 0 0 1-6-6z" stroke="#000" stroke-width="3" fill="#f2f3f5"/><use xlink:href="#c" transform="matrix(1,0,0,1,725,845) translate(148.06857638888889 130.90277777777777)"/><path d="M920 1006a6 6 0 0 1 6-6h168a6 6 0 0 1 6 6v113c-30.06-19.87-48.78-19.87-60.12-19.87-18 0-41.94 19.87-59.94 19.87-11.16 0-30.06 0-59.94-19.87z" stroke="#000" stroke-width="3" fill="#fff0f0"/><path d="M930 1016.5a6 6 0 0 1 6-6h168a6 6 0 0 1 6 6v113c-30.06-19.87-48.78-19.87-60.12-19.87-18 0-41.94 19.87-59.94 19.87-11.16 0-30.06 0-59.94-19.87z" stroke="#000" stroke-width="3" fill="#fff0f0"/><path d="M940 1027a6 6 0 0 1 6-6h168a6 6 0 0 1 6 6v113c-30.06-19.87-48.78-19.87-60.12-19.87-18 0-41.94 19.87-59.94 19.87-11.16 0-30.06 0-59.94-19.87z" stroke="#000" stroke-width="3" fill="#fff0f0"/><use xlink:href="#a" transform="matrix(1,0,0,1,945,1026) translate(5.1443142361111285 53.083767361111114)"/><path d="M680 1006a6 6 0 0 1 6-6h188a6 6 0 0 1 6 6v128a6 6 0 0 1-6 6H686a6 6 0 0 1-6-6zm20-6v140m-20-120h200" stroke="#000" stroke-width="3" fill="#fff0f0"/><use xlink:href="#f" transform="matrix(1,0,0,1,705,1025) translate(16.629774305555557 62.77777777777778)"/><use xlink:href="#g" transform="matrix(1,0,0,1,705,1025) translate(97.25043402777777 62.77777777777778)"/><path d="M560 86a6 6 0 0 1 6-6h348a6 6 0 0 1 6 6v248a6 6 0 0 1-6 6H566a6 6 0 0 1-6-6z" stroke="#000" stroke-width="3" fill="#f2f3f5"/><use xlink:href="#c" transform="matrix(1,0,0,1,565,85) translate(148.06857638888889 130.90277777777777)"/><path d="M520 246a6 6 0 0 1 6-6h188a6 6 0 0 1 6 6v128a6 6 0 0 1-6 6H526a6 6 0 0 1-6-6zm20-6v140m-20-120h200" stroke="#000" stroke-width="3" fill="#f2f2ff"/><use xlink:href="#f" transform="matrix(1,0,0,1,545,265) translate(16.629774305555557 62.77777777777778)"/><use xlink:href="#g" transform="matrix(1,0,0,1,545,265) translate(97.25043402777777 62.77777777777778)"/><path d="M760 46a6 6 0 0 1 6-6h168a6 6 0 0 1 6 6v113c-30.06-19.87-48.78-19.87-60.12-19.87-18 0-41.94 19.87-59.94 19.87-11.16 0-30.06 0-59.94-19.87z" stroke="#000" stroke-width="3" fill="#f2f2ff"/><path d="M770 56.5a6 6 0 0 1 6-6h168a6 6 0 0 1 6 6v113c-30.06-19.87-48.78-19.87-60.12-19.87-18 0-41.94 19.87-59.94 19.87-11.16 0-30.06 0-59.94-19.87z" stroke="#000" stroke-width="3" fill="#f2f2ff"/><path d="M780 67a6 6 0 0 1 6-6h168a6 6 0 0 1 6 6v113c-30.06-19.87-48.78-19.87-60.12-19.87-18 0-41.94 19.87-59.94 19.87-11.16 0-30.06 0-59.94-19.87z" stroke="#000" stroke-width="3" fill="#f2f2ff"/><use xlink:href="#a" transform="matrix(1,0,0,1,785,66) translate(5.1443142361111285 53.083767361111114)"/><path d="M760 246a6 6 0 0 1 6-6h188a6 6 0 0 1 6 6v128a6 6 0 0 1-6 6H766a6 6 0 0 1-6-6zm20-6v140m-20-120h200" stroke="#000" stroke-width="3" fill="#d7faf5"/><use xlink:href="#f" transform="matrix(1,0,0,1,785,265) translate(16.629774305555557 62.77777777777778)"/><use xlink:href="#g" transform="matrix(1,0,0,1,785,265) translate(97.25043402777777 62.77777777777778)"/><path d="M1840 686a6 6 0 0 1 6-6h188a6 6 0 0 1 6 6v68a6 6 0 0 1-6 6h-188a6 6 0 0 1-6-6z" stroke="#000" stroke-width="3" fill="#d7faf5"/><use xlink:href="#k" transform="matrix(1,0,0,1,1845,685) translate(56.02430555555556 43.40277777777778)"/><path d="M2120 686a6 6 0 0 1 6-6h188a6 6 0 0 1 6 6v68a6 6 0 0 1-6 6h-188a6 6 0 0 1-6-6z" stroke="#000" stroke-width="3" fill="#d7faf5"/><use xlink:href="#b" transform="matrix(1,0,0,1,2125,685) translate(66.94010416666667 43.40277777777778)"/><path d="M640 466a6 6 0 0 1 6-6h348a6 6 0 0 1 6 6v248a6 6 0 0 1-6 6H646a6 6 0 0 1-6-6z" stroke="#000" stroke-width="3" fill="#f2f3f5"/><use xlink:href="#d" transform="matrix(1,0,0,1,645,465) translate(98.04144965277779 130.90277777777777)"/><use xlink:href="#e" transform="matrix(1,0,0,1,645,465) translate(212.31011284722223 130.90277777777777)"/><path d="M600 626a6 6 0 0 1 6-6h168a6 6 0 0 1 6 6v113c-30.06-19.87-48.78-19.87-60.12-19.87-18 0-41.94 19.87-59.94 19.87-11.16 0-30.06 0-59.94-19.87z" stroke="#000" stroke-width="3" fill="#fff0f0"/><path d="M610 636.5a6 6 0 0 1 6-6h168a6 6 0 0 1 6 6v113c-30.06-19.87-48.78-19.87-60.12-19.87-18 0-41.94 19.87-59.94 19.87-11.16 0-30.06 0-59.94-19.87z" stroke="#000" stroke-width="3" fill="#fff0f0"/><path d="M620 647a6 6 0 0 1 6-6h168a6 6 0 0 1 6 6v113c-30.06-19.87-48.78-19.87-60.12-19.87-18 0-41.94 19.87-59.94 19.87-11.16 0-30.06 0-59.94-19.87z" stroke="#000" stroke-width="3" fill="#fff0f0"/><use xlink:href="#a" transform="matrix(1,0,0,1,625,646) translate(5.1443142361111285 53.083767361111114)"/><path d="M840 426a6 6 0 0 1 6-6h168a6 6 0 0 1 6 6v113c-30.06-19.87-48.78-19.87-60.12-19.87-18 0-41.94 19.87-59.94 19.87-11.16 0-30.06 0-59.94-19.87z" stroke="#000" stroke-width="3" fill="#f2f2ff"/><path d="M850 436.5a6 6 0 0 1 6-6h168a6 6 0 0 1 6 6v113c-30.06-19.87-48.78-19.87-60.12-19.87-18 0-41.94 19.87-59.94 19.87-11.16 0-30.06 0-59.94-19.87z" stroke="#000" stroke-width="3" fill="#f2f2ff"/><path d="M860 447a6 6 0 0 1 6-6h168a6 6 0 0 1 6 6v113c-30.06-19.87-48.78-19.87-60.12-19.87-18 0-41.94 19.87-59.94 19.87-11.16 0-30.06 0-59.94-19.87z" stroke="#000" stroke-width="3" fill="#f2f2ff"/><use xlink:href="#a" transform="matrix(1,0,0,1,865,446) translate(5.1443142361111285 53.083767361111114)"/><path d="M360 426a6 6 0 0 1 6-6h168a6 6 0 0 1 6 6v113c-30.06-19.87-48.78-19.87-60.12-19.87-18 0-41.94 19.87-59.94 19.87-11.16 0-30.06 0-59.94-19.87z" stroke="#000" stroke-width="3" fill="#fcfcca"/><path d="M370 436.5a6 6 0 0 1 6-6h168a6 6 0 0 1 6 6v113c-30.06-19.87-48.78-19.87-60.12-19.87-18 0-41.94 19.87-59.94 19.87-11.16 0-30.06 0-59.94-19.87z" stroke="#000" stroke-width="3" fill="#fcfcca"/><path d="M380 447a6 6 0 0 1 6-6h168a6 6 0 0 1 6 6v113c-30.06-19.87-48.78-19.87-60.12-19.87-18 0-41.94 19.87-59.94 19.87-11.16 0-30.06 0-59.94-19.87z" stroke="#000" stroke-width="3" fill="#fcfcca"/><use xlink:href="#a" transform="matrix(1,0,0,1,385,446) translate(5.1443142361111285 53.083767361111114)"/><path d="M1140 46a6 6 0 0 1 6-6h8a6 6 0 0 1 6 6v1088a6 6 0 0 1-6 6h-8a6 6 0 0 1-6-6z" fill="none"/><path d="M1140 1140c5.52 0 10-4.48 10-10V600c0-5.52 4.48-10 10-10-5.52 0-10-4.48-10-10V50c0-5.52-4.48-10-10-10" stroke="#000" stroke-width="3" fill="none"/><path d="M1440.33 590h97.55" stroke="#3a414a" stroke-width="3" fill="none"/><path d="M1440.37 591.48h-1.72l.1-.33.08-1.15-.1-1.15-.08-.33h1.72z" stroke="#3a414a" stroke-width=".05" fill="#3a414a"/><path d="M1553.65 590l-14.27 4.63v-9.26z" stroke="#3a414a" stroke-width="3" fill="#3a414a"/><path d="M1260 766a6 6 0 0 1 6-6h148a6 6 0 0 1 6 6v108a6 6 0 0 1-6 6h-148a6 6 0 0 1-6-6z" stroke="#000" stroke-width="3" fill="#cfe4ff"/><path d="M1276 760v120m128-120v120" stroke="#000" stroke-width="3" fill="none"/><use xlink:href="#l" transform="matrix(1,0,0,1,1285,765) translate(15.834418402777779 46.950954861111114)"/><use xlink:href="#m" transform="matrix(1,0,0,1,1285,765) translate(20.0390625 79.21657986111111)"/><path d="M1340 757v-57.18" stroke="#3a414a" stroke-width="3" fill="none"/><path d="M1341.47 758.5h-2.94v-1.54h2.94z" stroke="#3a414a" stroke-width=".05" fill="#3a414a"/><path d="M1340 684.06l4.63 14.26h-9.27z" stroke="#3a414a" stroke-width="3" fill="#3a414a"/><path d="M1335.54 504a6.67 6.67 0 0 1 8.92 0l91.08 82a5.4 5.4 0 0 1 0 8l-91.08 82a6.67 6.67 0 0 1-8.92 0l-91.08-82a5.4 5.4 0 0 1 0-8z" stroke="#000" stroke-width="3" fill="#cfe4ff"/><use xlink:href="#n" transform="matrix(1,0,0,1,1245,505) translate(58.00413194444445 74.65277777777777)"/><use xlink:href="#o" transform="matrix(1,0,0,1,1245,505) translate(55.286032986111124 106.91840277777777)"/><path d="M2043 260h31a6 6 0 0 0 6-6v-48a6 6 0 0 1 6-6h11.88" stroke="#3a414a" stroke-width="3" fill="none"/><path d="M2043.04 261.48h-1.54v-2.96h1.54z" stroke="#3a414a" stroke-width=".05" fill="#3a414a"/><path d="M2113.65 200l-14.27 4.63v-9.26z" stroke="#3a414a" stroke-width="3" fill="#3a414a"/><path d="M2043 260h31a6 6 0 0 1 6 6v48a6 6 0 0 0 6 6h11.88" stroke="#3a414a" stroke-width="3" fill="none"/><path d="M2043.04 261.48h-1.54v-2.96h1.54z" stroke="#3a414a" stroke-width=".05" fill="#3a414a"/><path d="M2113.65 320l-14.27 4.63v-9.26z" stroke="#3a414a" stroke-width="3" fill="#3a414a"/><path d="M2043 520h31a6 6 0 0 0 6-6v-48a6 6 0 0 1 6-6h11.88" stroke="#3a414a" stroke-width="3" fill="none"/><path d="M2043.04 521.48h-1.54v-2.96h1.54z" stroke="#3a414a" stroke-width=".05" fill="#3a414a"/><path d="M2113.65 460l-14.27 4.63v-9.26z" stroke="#3a414a" stroke-width="3" fill="#3a414a"/><path d="M2043 520h31a6 6 0 0 1 6 6v48a6 6 0 0 0 6 6h11.88" stroke="#3a414a" stroke-width="3" fill="none"/><path d="M2043.04 521.48h-1.54v-2.96h1.54z" stroke="#3a414a" stroke-width=".05" fill="#3a414a"/><path d="M2113.65 580l-14.27 4.63v-9.26z" stroke="#3a414a" stroke-width="3" fill="#3a414a"/><path d="M2043 720h54.88" stroke="#3a414a" stroke-width="3" fill="none"/><path d="M2043.04 721.48h-1.54v-2.96h1.54z" stroke="#3a414a" stroke-width=".05" fill="#3a414a"/><path d="M2113.65 720l-14.27 4.63v-9.26z" stroke="#3a414a" stroke-width="3" fill="#3a414a"/><path d="M2043 900h31a6 6 0 0 0 6-6v-48a6 6 0 0 1 6-6h11.88" stroke="#3a414a" stroke-width="3" fill="none"/><path d="M2043.04 901.48h-1.54v-2.96h1.54z" stroke="#3a414a" stroke-width=".05" fill="#3a414a"/><path d="M2113.65 840l-14.27 4.63v-9.26z" stroke="#3a414a" stroke-width="3" fill="#3a414a"/><path d="M2043 900h31a6 6 0 0 1 6 6v48a6 6 0 0 0 6 6h11.88" stroke="#3a414a" stroke-width="3" fill="none"/><path d="M2043.04 901.48h-1.54v-2.96h1.54z" stroke="#3a414a" stroke-width=".05" fill="#3a414a"/><path d="M2113.65 960l-14.27 4.63v-9.26z" stroke="#3a414a" stroke-width="3" fill="#3a414a"/><path d="M1170.92 590h49.63" stroke="#3a414a" stroke-width="3" fill="none"/><path d="M1170.96 591.48h-4.54v-1l3-.48-3-.48v-1h4.54z" stroke="#3a414a" stroke-width=".05" fill="#3a414a"/><path d="M1236.3 590l-14.25 4.63v-9.26z" stroke="#3a414a" stroke-width="3" fill="#3a414a"/><defs><path d="M645 0H180v-1490h484c435 0 692 280 692 742 0 466-257 748-711 748zM370-168h263c363 0 539-218 539-580 0-358-176-574-521-574H370v1154" id="p"/><path d="M613 24c-304 0-509-231-509-576 0-350 205-580 509-580 305 0 511 230 511 580 0 345-206 576-511 576zm0-161c226 0 329-195 329-415 0-222-103-419-329-419-223 0-326 196-326 419 0 220 103 415 326 415" id="q"/><path d="M613 24c-304 0-509-231-509-576 0-350 205-580 509-580 216 0 392 114 453 309l-173 49c-33-115-133-197-280-197-223 0-326 196-326 419 0 220 103 415 326 415 150 0 252-85 285-206l172 49C1010-95 832 24 613 24" id="r"/><path d="M537 14c-226 0-379-139-379-422v-710h180v695c0 172 97 275 253 275 160 0 281-109 281-300v-670h181V0H879v-209C806-46 684 14 537 14" id="s"/><path d="M158 0v-1118h175l1 205c55-151 181-225 313-225 147 0 245 90 285 228 53-141 190-228 352-228 194 0 352 125 352 384V0h-181v-749c0-161-105-225-225-225-151 0-243 103-243 244V0H807v-767c0-124-93-207-219-207-131 0-250 92-250 270V0H158" id="t"/><path d="M628 24c-324 0-524-230-524-574 0-343 198-582 503-582 237 0 487 146 487 559v75H286c9 234 145 362 343 362 132 0 231-58 273-172l174 48C1024-91 857 24 628 24zM287-650h624c-17-190-120-322-304-322-192 0-309 151-320 322" id="u"/><path d="M338-670V0H158v-1118h173l1 207c72-158 192-221 342-221 226 0 378 139 378 422V0H872v-695c0-172-96-275-252-275-161 0-282 109-282 300" id="v"/><path d="M598-1118v154H368v674c0 100 37 144 132 144 23 0 62-6 92-12L629-6c-37 13-88 20-134 20-193 0-307-107-307-290v-688H20v-154h168v-266h180v266h230" id="w"/><path d="M471 26C259 26 90-98 90-318c0-256 228-303 435-329 202-27 287-16 287-108 0-139-79-219-234-219-161 0-248 86-283 164l-173-57c86-203 278-265 451-265 150 0 419 46 419 395V0H815v-152h-12C765-73 660 26 471 26zm31-159c199 0 310-134 310-271v-155c-30 35-226 55-295 64-131 17-246 59-246 186 0 116 97 176 231 176" id="x"/><path d="M158 0v-1118h180V0H158zm91-1301c-68 0-125-53-125-119s57-119 125-119c69 0 126 53 126 119s-57 119-126 119" id="y"/><g id="a"><use transform="matrix(0.010850694444444444,0,0,0.010850694444444444,0,0)" xlink:href="#p"/><use transform="matrix(0.010850694444444444,0,0,0.010850694444444444,16.03732638888889,0)" xlink:href="#q"/><use transform="matrix(0.010850694444444444,0,0,0.010850694444444444,29.361979166666664,0)" xlink:href="#r"/><use transform="matrix(0.010850694444444444,0,0,0.010850694444444444,42.057291666666664,0)" xlink:href="#s"/><use transform="matrix(0.010850694444444444,0,0,0.010850694444444444,55.197482638888886,0)" xlink:href="#t"/><use transform="matrix(0.010850694444444444,0,0,0.010850694444444444,74.66362847222221,0)" xlink:href="#u"/><use transform="matrix(0.010850694444444444,0,0,0.010850694444444444,87.61935763888889,0)" xlink:href="#v"/><use transform="matrix(0.010850694444444444,0,0,0.010850694444444444,100.74869791666666,0)" xlink:href="#w"/><use transform="matrix(0.010850694444444444,0,0,0.010850694444444444,108.12717013888887,0)" xlink:href="#x"/><use transform="matrix(0.010850694444444444,0,0,0.010850694444444444,120.60546874999997,0)" xlink:href="#w"/><use transform="matrix(0.010850694444444444,0,0,0.010850694444444444,127.87543402777776,0)" xlink:href="#y"/><use transform="matrix(0.010850694444444444,0,0,0.010850694444444444,133.2573784722222,0)" xlink:href="#q"/><use transform="matrix(0.010850694444444444,0,0,0.010850694444444444,146.58203124999997,0)" xlink:href="#v"/></g><path d="M783 20c-382 0-661-292-661-764 0-473 279-766 661-766 302 0 548 182 601 489h-190c-42-204-217-313-411-313-268 0-476 208-476 590 0 381 209 588 476 588 195 0 369-110 411-313h190c-52 303-296 489-601 489" id="z"/><path d="M577 24c-279 0-473-224-473-580 0-354 195-576 474-576 218 0 287 134 324 193h14v-551h180V0H922v-173h-20C865-111 790 24 577 24zm27-161c203 0 314-172 314-421 0-247-108-413-314-413-212 0-317 181-317 413 0 235 108 421 317 421" id="A"/><g id="b"><use transform="matrix(0.010850694444444444,0,0,0.010850694444444444,0,0)" xlink:href="#z"/><use transform="matrix(0.010850694444444444,0,0,0.010850694444444444,16.23263888888889,0)" xlink:href="#q"/><use transform="matrix(0.010850694444444444,0,0,0.010850694444444444,29.557291666666664,0)" xlink:href="#A"/><use transform="matrix(0.010850694444444444,0,0,0.010850694444444444,43.1640625,0)" xlink:href="#u"/></g><path d="M180 0v-1490h510c348 0 508 194 508 460 0 198-88 351-276 417L1256 0h-220L726-579c-117 2-238 0-356 1V0H180zm190-747h312c235 0 327-108 327-283 0-177-92-293-329-293H370v576" id="B"/><path d="M158 418v-1536h174v179h20c37-59 106-193 324-193 279 0 474 222 474 576 0 356-194 580-473 580-213 0-288-135-325-197h-14v591H158zm492-555c209 0 317-186 317-421 0-232-105-413-317-413-206 0-314 166-314 413 0 249 111 421 314 421" id="C"/><g id="c"><use transform="matrix(0.010850694444444444,0,0,0.010850694444444444,0,0)" xlink:href="#B"/><use transform="matrix(0.010850694444444444,0,0,0.010850694444444444,13.975694444444445,0)" xlink:href="#u"/><use transform="matrix(0.010850694444444444,0,0,0.010850694444444444,26.931423611111104,0)" xlink:href="#C"/><use transform="matrix(0.010850694444444444,0,0,0.010850694444444444,40.53819444444444,0)" xlink:href="#q"/></g><g id="d"><use transform="matrix(0.010850694444444444,0,0,0.010850694444444444,0,0)" xlink:href="#p"/><use transform="matrix(0.010850694444444444,0,0,0.010850694444444444,16.03732638888889,0)" xlink:href="#q"/><use transform="matrix(0.010850694444444444,0,0,0.010850694444444444,29.361979166666664,0)" xlink:href="#r"/><use transform="matrix(0.010850694444444444,0,0,0.010850694444444444,42.057291666666664,0)" xlink:href="#s"/><use transform="matrix(0.010850694444444444,0,0,0.010850694444444444,55.197482638888886,0)" xlink:href="#t"/><use transform="matrix(0.010850694444444444,0,0,0.010850694444444444,74.66362847222221,0)" xlink:href="#u"/><use transform="matrix(0.010850694444444444,0,0,0.010850694444444444,87.61935763888889,0)" xlink:href="#v"/><use transform="matrix(0.010850694444444444,0,0,0.010850694444444444,100.74869791666666,0)" xlink:href="#w"/></g><path d="M657 26c-323 0-524-166-541-416h195c15 169 171 246 346 246 202 0 356-106 356-265 5-203-294-238-475-293-239-73-380-191-380-389 0-252 224-419 512-419 294 0 499 171 508 396H992c-17-145-151-228-328-228-193 0-321 102-321 242 0 156 175 211 284 241l149 41c160 44 422 134 422 412 0 244-197 432-541 432" id="D"/><g id="e"><use transform="matrix(0.010850694444444444,0,0,0.010850694444444444,0,0)" xlink:href="#D"/><use transform="matrix(0.010850694444444444,0,0,0.010850694444444444,14.2578125,0)" xlink:href="#y"/><use transform="matrix(0.010850694444444444,0,0,0.010850694444444444,19.639756944444443,0)" xlink:href="#w"/><use transform="matrix(0.010850694444444444,0,0,0.010850694444444444,26.692708333333332,0)" xlink:href="#u"/></g><path d="M158 0v-1118h174v172h12c41-113 157-188 290-188 26 0 70 2 91 3v181c-11-2-60-10-108-10-161 0-279 109-279 260V0H158" id="E"/><g id="f"><use transform="matrix(0.010850694444444444,0,0,0.010850694444444444,0,0)" xlink:href="#D"/><use transform="matrix(0.010850694444444444,0,0,0.010850694444444444,14.2578125,0)" xlink:href="#q"/><use transform="matrix(0.010850694444444444,0,0,0.010850694444444444,27.58246527777778,0)" xlink:href="#s"/><use transform="matrix(0.010850694444444444,0,0,0.010850694444444444,40.72265625,0)" xlink:href="#E"/><use transform="matrix(0.010850694444444444,0,0,0.010850694444444444,48.71961805555556,0)" xlink:href="#r"/><use transform="matrix(0.010850694444444444,0,0,0.010850694444444444,61.41493055555555,0)" xlink:href="#u"/></g><g id="g"><use transform="matrix(0.010850694444444444,0,0,0.010850694444444444,0,0)" xlink:href="#z"/><use transform="matrix(0.010850694444444444,0,0,0.010850694444444444,16.23263888888889,0)" xlink:href="#q"/><use transform="matrix(0.010850694444444444,0,0,0.010850694444444444,29.557291666666664,0)" xlink:href="#A"/><use transform="matrix(0.010850694444444444,0,0,0.010850694444444444,43.1640625,0)" xlink:href="#u"/></g><g id="h"><use transform="matrix(0.010850694444444444,0,0,0.010850694444444444,0,0)" xlink:href="#z"/><use transform="matrix(0.010850694444444444,0,0,0.010850694444444444,16.23263888888889,0)" xlink:href="#s"/><use transform="matrix(0.010850694444444444,0,0,0.010850694444444444,29.37282986111111,0)" xlink:href="#E"/><use transform="matrix(0.010850694444444444,0,0,0.010850694444444444,38.0859375,0)" xlink:href="#E"/><use transform="matrix(0.010850694444444444,0,0,0.010850694444444444,46.08289930555556,0)" xlink:href="#u"/><use transform="matrix(0.010850694444444444,0,0,0.010850694444444444,59.03862847222221,0)" xlink:href="#v"/><use transform="matrix(0.010850694444444444,0,0,0.010850694444444444,72.16796874999999,0)" xlink:href="#w"/></g><g id="i"><use transform="matrix(0.010850694444444444,0,0,0.010850694444444444,0,0)" xlink:href="#p"/><use transform="matrix(0.010850694444444444,0,0,0.010850694444444444,16.03732638888889,0)" xlink:href="#x"/><use transform="matrix(0.010850694444444444,0,0,0.010850694444444444,28.515625,0)" xlink:href="#w"/><use transform="matrix(0.010850694444444444,0,0,0.010850694444444444,35.89409722222222,0)" xlink:href="#x"/></g><g id="j"><use transform="matrix(0.010850694444444444,0,0,0.010850694444444444,0,0)" xlink:href="#D"/><use transform="matrix(0.010850694444444444,0,0,0.010850694444444444,14.2578125,0)" xlink:href="#u"/><use transform="matrix(0.010850694444444444,0,0,0.010850694444444444,27.213541666666664,0)" xlink:href="#w"/></g><path d="M140 405l46-156c120 36 205 19 263-150l32-93L54-1118h197c107 313 237 620 324 950 87-331 219-637 326-950h196L606 167c-68 178-176 259-334 259-64 0-113-12-132-21" id="F"/><path d="M538 24C308 24 148-78 108-271l171-41c32 123 123 178 257 178 156 0 256-77 256-169 0-77-54-128-164-154l-186-44c-203-48-300-148-300-305 0-192 176-326 414-326 230 0 351 112 402 269l-163 42c-31-80-94-158-238-158-133 0-233 69-233 162 0 83 57 129 188 160l169 40c203 48 298 149 298 302 0 196-179 339-441 339" id="G"/><g id="k"><use transform="matrix(0.010850694444444444,0,0,0.010850694444444444,0,0)" xlink:href="#D"/><use transform="matrix(0.010850694444444444,0,0,0.010850694444444444,14.2578125,0)" xlink:href="#F"/><use transform="matrix(0.010850694444444444,0,0,0.010850694444444444,26.74696180555556,0)" xlink:href="#G"/><use transform="matrix(0.010850694444444444,0,0,0.010850694444444444,38.4765625,0)" xlink:href="#w"/><use transform="matrix(0.010850694444444444,0,0,0.010850694444444444,45.5295138888889,0)" xlink:href="#u"/><use transform="matrix(0.010850694444444444,0,0,0.010850694444444444,58.48524305555555,0)" xlink:href="#t"/></g><path d="M180 0v-1490h190v644h782v-644h190V0h-190v-678H370V0H180" id="H"/><path d="M338-1490V0H158v-1490h180" id="I"/><g id="l"><use transform="matrix(0.010850694444444444,0,0,0.010850694444444444,0,0)" xlink:href="#H"/><use transform="matrix(0.010850694444444444,0,0,0.010850694444444444,16.623263888888886,0)" xlink:href="#F"/><use transform="matrix(0.010850694444444444,0,0,0.010850694444444444,29.00390625,0)" xlink:href="#x"/><use transform="matrix(0.010850694444444444,0,0,0.010850694444444444,41.482204861111114,0)" xlink:href="#I"/><use transform="matrix(0.010850694444444444,0,0,0.010850694444444444,46.86414930555556,0)" xlink:href="#y"/><use transform="matrix(0.010850694444444444,0,0,0.010850694444444444,52.24609375,0)" xlink:href="#v"/><use transform="matrix(0.010850694444444444,0,0,0.010850694444444444,65.37543402777777,0)" xlink:href="#u"/></g><path d="M678-1118v154H420V0H240v-964H20v-154h220v-149c0-194 155-293 318-293 85 0 141 18 168 30l-50 154c-19-6-47-17-97-17-111 0-159 58-159 166v109h258" id="J"/><path d="M611 442c-248 0-391-105-460-228l146-94c47 65 117 165 314 165 178 0 307-82 307-266v-224h-17C863-141 792-18 576-18c-268 0-472-195-472-546 0-346 197-568 476-568 216 0 288 133 326 193h17v-179h175V29c0 289-215 413-487 413zm-5-620c203 0 314-146 314-390 0-237-108-403-314-403-213 0-319 180-319 403 0 230 109 390 319 390" id="K"/><g id="m"><use transform="matrix(0.010850694444444444,0,0,0.010850694444444444,0,0)" xlink:href="#z"/><use transform="matrix(0.010850694444444444,0,0,0.010850694444444444,16.23263888888889,0)" xlink:href="#q"/><use transform="matrix(0.010850694444444444,0,0,0.010850694444444444,29.557291666666664,0)" xlink:href="#v"/><use transform="matrix(0.010850694444444444,0,0,0.010850694444444444,42.68663194444444,0)" xlink:href="#J"/><use transform="matrix(0.010850694444444444,0,0,0.010850694444444444,50.91145833333333,0)" xlink:href="#y"/><use transform="matrix(0.010850694444444444,0,0,0.010850694444444444,56.29340277777778,0)" xlink:href="#K"/></g><path d="M180 0v-1490h908v168H370v486h669v168H370v500h727V0H180" id="L"/><path d="M65 0l393-574-370-544h210c88 136 192 297 267 435 67-142 176-302 264-435h206L661-564 1053 0H844c-94-144-206-310-287-458C484-308 366-142 273 0H65" id="M"/><g id="n"><use transform="matrix(0.010850694444444444,0,0,0.010850694444444444,0,0)" xlink:href="#L"/><use transform="matrix(0.010850694444444444,0,0,0.010850694444444444,13.35720486111111,0)" xlink:href="#M"/><use transform="matrix(0.010850694444444444,0,0,0.010850694444444444,25.92230902777778,0)" xlink:href="#w"/><use transform="matrix(0.010850694444444444,0,0,0.010850694444444444,33.19227430555556,0)" xlink:href="#E"/><use transform="matrix(0.010850694444444444,0,0,0.010850694444444444,41.55815972222222,0)" xlink:href="#x"/><use transform="matrix(0.010850694444444444,0,0,0.010850694444444444,54.03645833333333,0)" xlink:href="#r"/><use transform="matrix(0.010850694444444444,0,0,0.010850694444444444,66.73177083333333,0)" xlink:href="#w"/></g><g id="o"><use transform="matrix(0.010850694444444444,0,0,0.010850694444444444,0,0)" xlink:href="#z"/><use transform="matrix(0.010850694444444444,0,0,0.010850694444444444,16.23263888888889,0)" xlink:href="#s"/><use transform="matrix(0.010850694444444444,0,0,0.010850694444444444,29.37282986111111,0)" xlink:href="#E"/><use transform="matrix(0.010850694444444444,0,0,0.010850694444444444,38.0859375,0)" xlink:href="#E"/><use transform="matrix(0.010850694444444444,0,0,0.010850694444444444,46.08289930555556,0)" xlink:href="#u"/><use transform="matrix(0.010850694444444444,0,0,0.010850694444444444,59.03862847222221,0)" xlink:href="#v"/><use transform="matrix(0.010850694444444444,0,0,0.010850694444444444,72.16796874999999,0)" xlink:href="#w"/></g></defs></g></svg>