<svg xmlns="http://www.w3.org/2000/svg" xmlns:xlink="http://www.w3.org/1999/xlink" xmlns:lucid="lucid" width="843" height="643"><g transform="translate(-58.5 -78.5)" lucid:page-tab-id="GpGf~4MZst7t"><path d="M0 0h1760v1360H0z" fill="#fff"/><path d="M400 160c0 44.18-35.82 80-80 80s-80-35.82-80-80 35.82-80 80-80 80 35.82 80 80z" stroke="#000" stroke-width="3" fill="#f2f2ff"/><use xlink:href="#a" transform="matrix(1,0,0,1,245,85) translate(36.02430555555556 82.46527777777777)"/><path d="M880 160c0 44.18-35.82 80-80 80s-80-35.82-80-80 35.82-80 80-80 80 35.82 80 80z" stroke="#000" stroke-width="3" fill="#fff0fb"/><use xlink:href="#a" transform="matrix(1,0,0,1,725,85) translate(36.02430555555556 82.46527777777777)"/><path d="M240 400c0 44.18-35.82 80-80 80s-80-35.82-80-80 35.82-80 80-80 80 35.82 80 80z" stroke="#000" stroke-width="3" fill="#dedeff"/><use xlink:href="#b" transform="matrix(1,0,0,1,85,325) translate(46.94010416666667 68.40277777777777)"/><use xlink:href="#c" transform="matrix(1,0,0,1,85,325) translate(29.838984375000003 100.66840277777777)"/><path d="M560 400c0 44.18-35.82 80-80 80s-80-35.82-80-80 35.82-80 80-80 80 35.82 80 80z" stroke="#000" stroke-width="3" fill="#f4d9ff"/><use xlink:href="#b" transform="matrix(1,0,0,1,405,325) translate(46.94010416666667 68.40277777777777)"/><use xlink:href="#c" transform="matrix(1,0,0,1,405,325) translate(29.838984375000003 100.66840277777777)"/><path d="M880 400c0 44.18-35.82 80-80 80s-80-35.82-80-80 35.82-80 80-80 80 35.82 80 80z" stroke="#000" stroke-width="3" fill="#ffd6f5"/><use xlink:href="#b" transform="matrix(1,0,0,1,725,325) translate(46.94010416666667 68.40277777777777)"/><use xlink:href="#c" transform="matrix(1,0,0,1,725,325) translate(29.838984375000003 100.66840277777777)"/><path d="M260 640c0 44.18-35.82 80-80 80s-80-35.82-80-80 35.82-80 80-80 80 35.82 80 80z" stroke="#000" stroke-width="3" fill="#dedeff"/><use xlink:href="#d" transform="matrix(1,0,0,1,105,565) translate(56.58094618055556 82.46527777777777)"/><path d="M240 640c0 44.18-35.82 80-80 80s-80-35.82-80-80 35.82-80 80-80 80 35.82 80 80z" stroke="#000" stroke-width="3" fill="#dedeff"/><use xlink:href="#d" transform="matrix(1,0,0,1,85,565) translate(56.58094618055556 82.46527777777777)"/><path d="M220 640c0 44.18-35.82 80-80 80s-80-35.82-80-80 35.82-80 80-80 80 35.82 80 80z" stroke="#000" stroke-width="3" fill="#dedeff"/><use xlink:href="#e" transform="matrix(1,0,0,1,65,565) translate(42.610677083333336 82.46527777777777)"/><path d="M580 640c0 44.18-35.82 80-80 80s-80-35.82-80-80 35.82-80 80-80 80 35.82 80 80z" stroke="#000" stroke-width="3" fill="#f4d9ff"/><use xlink:href="#d" transform="matrix(1,0,0,1,425,565) translate(56.58094618055556 82.46527777777777)"/><path d="M560 640c0 44.18-35.82 80-80 80s-80-35.82-80-80 35.82-80 80-80 80 35.82 80 80z" stroke="#000" stroke-width="3" fill="#f4d9ff"/><use xlink:href="#d" transform="matrix(1,0,0,1,405,565) translate(56.58094618055556 82.46527777777777)"/><path d="M540 640c0 44.18-35.82 80-80 80s-80-35.82-80-80 35.82-80 80-80 80 35.82 80 80z" stroke="#000" stroke-width="3" fill="#f4d9ff"/><use xlink:href="#e" transform="matrix(1,0,0,1,385,565) translate(42.610677083333336 82.46527777777777)"/><path d="M160 483v38.2a.06.06 0 0 1-.06.06.06.06 0 0 0-.06.06v19.08" stroke="#3a414a" stroke-width="3" fill="none"/><path d="M159.98 481.5h.73l.78-.03v1.57h-2.95v-1.6z" stroke="#3a414a" stroke-width=".05" fill="#3a414a"/><path d="M159.88 556.17l-4.64-14.27h9.27z" stroke="#3a414a" stroke-width="3" fill="#3a414a"/><path d="M480 483v54.88" stroke="#3a414a" stroke-width="3" fill="none"/><path d="M479.98 481.5h.73l.78-.03v1.57h-2.96v-1.6z" stroke="#3a414a" stroke-width=".05" fill="#3a414a"/><path d="M480 553.65l-4.63-14.27h9.26z" stroke="#3a414a" stroke-width="3" fill="#3a414a"/><path d="M900 640c0 44.18-35.82 80-80 80s-80-35.82-80-80 35.82-80 80-80 80 35.82 80 80z" stroke="#000" stroke-width="3" fill="#ffd6f5"/><use xlink:href="#d" transform="matrix(1,0,0,1,745,565) translate(56.58094618055556 82.46527777777777)"/><path d="M880 640c0 44.18-35.82 80-80 80s-80-35.82-80-80 35.82-80 80-80 80 35.82 80 80z" stroke="#000" stroke-width="3" fill="#ffd6f5"/><use xlink:href="#d" transform="matrix(1,0,0,1,725,565) translate(56.58094618055556 82.46527777777777)"/><path d="M860 640c0 44.18-35.82 80-80 80s-80-35.82-80-80 35.82-80 80-80 80 35.82 80 80z" stroke="#000" stroke-width="3" fill="#ffd6f5"/><use xlink:href="#e" transform="matrix(1,0,0,1,705,565) translate(42.610677083333336 82.46527777777777)"/><path d="M800 483v38.2a.06.06 0 0 1-.06.06.06.06 0 0 0-.06.06v19.08" stroke="#3a414a" stroke-width="3" fill="none"/><path d="M799.98 481.5h.73l.77-.03v1.57h-2.95v-1.6z" stroke="#3a414a" stroke-width=".05" fill="#3a414a"/><path d="M799.88 556.17l-4.64-14.27h9.27z" stroke="#3a414a" stroke-width="3" fill="#3a414a"/><path d="M320 243v31a6 6 0 0 1-6 6H166a6 6 0 0 0-6 6v11.88" stroke="#3a414a" stroke-width="3" fill="none"/><path d="M319.98 241.5h.73l.78-.03v1.57h-2.96v-1.58z" stroke="#3a414a" stroke-width=".05" fill="#3a414a"/><path d="M160 313.65l-4.63-14.27h9.26z" stroke="#3a414a" stroke-width="3" fill="#3a414a"/><path d="M320 243v31a6 6 0 0 0 6 6h148a6 6 0 0 1 6 6v11.88" stroke="#3a414a" stroke-width="3" fill="none"/><path d="M319.98 241.5h.73l.78-.03v1.57h-2.96v-1.58z" stroke="#3a414a" stroke-width=".05" fill="#3a414a"/><path d="M480 313.65l-4.63-14.27h9.26z" stroke="#3a414a" stroke-width="3" fill="#3a414a"/><path d="M800 243v54.88" stroke="#3a414a" stroke-width="3" fill="none"/><path d="M799.98 241.5h.73l.77-.03v1.57h-2.95v-1.58z" stroke="#3a414a" stroke-width=".05" fill="#3a414a"/><path d="M800 313.65l-4.63-14.27h9.26z" stroke="#3a414a" stroke-width="3" fill="#3a414a"/><path d="M430 126a6 6 0 0 1 6-6h248a6 6 0 0 1 6 6v68a6 6 0 0 1-6 6H436a6 6 0 0 1-6-6z" fill="none"/><g><use xlink:href="#f" transform="matrix(1,0,0,1,430,120) translate(20.299479166666657 64.58333333333334)"/></g><defs><path d="M657 26c-323 0-524-166-541-416h195c15 169 171 246 346 246 202 0 356-106 356-265 5-203-294-238-475-293-239-73-380-191-380-389 0-252 224-419 512-419 294 0 499 171 508 396H992c-17-145-151-228-328-228-193 0-321 102-321 242 0 156 175 211 284 241l149 41c160 44 422 134 422 412 0 244-197 432-541 432" id="g"/><path d="M140 405l46-156c120 36 205 19 263-150l32-93L54-1118h197c107 313 237 620 324 950 87-331 219-637 326-950h196L606 167c-68 178-176 259-334 259-64 0-113-12-132-21" id="h"/><path d="M538 24C308 24 148-78 108-271l171-41c32 123 123 178 257 178 156 0 256-77 256-169 0-77-54-128-164-154l-186-44c-203-48-300-148-300-305 0-192 176-326 414-326 230 0 351 112 402 269l-163 42c-31-80-94-158-238-158-133 0-233 69-233 162 0 83 57 129 188 160l169 40c203 48 298 149 298 302 0 196-179 339-441 339" id="i"/><path d="M598-1118v154H368v674c0 100 37 144 132 144 23 0 62-6 92-12L629-6c-37 13-88 20-134 20-193 0-307-107-307-290v-688H20v-154h168v-266h180v266h230" id="j"/><path d="M628 24c-324 0-524-230-524-574 0-343 198-582 503-582 237 0 487 146 487 559v75H286c9 234 145 362 343 362 132 0 231-58 273-172l174 48C1024-91 857 24 628 24zM287-650h624c-17-190-120-322-304-322-192 0-309 151-320 322" id="k"/><path d="M158 0v-1118h175l1 205c55-151 181-225 313-225 147 0 245 90 285 228 53-141 190-228 352-228 194 0 352 125 352 384V0h-181v-749c0-161-105-225-225-225-151 0-243 103-243 244V0H807v-767c0-124-93-207-219-207-131 0-250 92-250 270V0H158" id="l"/><g id="a"><use transform="matrix(0.010850694444444444,0,0,0.010850694444444444,0,0)" xlink:href="#g"/><use transform="matrix(0.010850694444444444,0,0,0.010850694444444444,14.2578125,0)" xlink:href="#h"/><use transform="matrix(0.010850694444444444,0,0,0.010850694444444444,26.74696180555556,0)" xlink:href="#i"/><use transform="matrix(0.010850694444444444,0,0,0.010850694444444444,38.4765625,0)" xlink:href="#j"/><use transform="matrix(0.010850694444444444,0,0,0.010850694444444444,45.5295138888889,0)" xlink:href="#k"/><use transform="matrix(0.010850694444444444,0,0,0.010850694444444444,58.48524305555555,0)" xlink:href="#l"/></g><path d="M783 20c-382 0-661-292-661-764 0-473 279-766 661-766 302 0 548 182 601 489h-190c-42-204-217-313-411-313-268 0-476 208-476 590 0 381 209 588 476 588 195 0 369-110 411-313h190c-52 303-296 489-601 489" id="m"/><path d="M613 24c-304 0-509-231-509-576 0-350 205-580 509-580 305 0 511 230 511 580 0 345-206 576-511 576zm0-161c226 0 329-195 329-415 0-222-103-419-329-419-223 0-326 196-326 419 0 220 103 415 326 415" id="n"/><path d="M577 24c-279 0-473-224-473-580 0-354 195-576 474-576 218 0 287 134 324 193h14v-551h180V0H922v-173h-20C865-111 790 24 577 24zm27-161c203 0 314-172 314-421 0-247-108-413-314-413-212 0-317 181-317 413 0 235 108 421 317 421" id="o"/><g id="b"><use transform="matrix(0.010850694444444444,0,0,0.010850694444444444,0,0)" xlink:href="#m"/><use transform="matrix(0.010850694444444444,0,0,0.010850694444444444,16.23263888888889,0)" xlink:href="#n"/><use transform="matrix(0.010850694444444444,0,0,0.010850694444444444,29.557291666666664,0)" xlink:href="#o"/><use transform="matrix(0.010850694444444444,0,0,0.010850694444444444,43.1640625,0)" xlink:href="#k"/></g><path d="M218-607c0-325 108-727 258-974h175c-155 315-250 682-250 974 0 265 78 531 250 886H476C306-10 218-315 218-607" id="p"/><path d="M537 14c-226 0-379-139-379-422v-710h180v695c0 172 97 275 253 275 160 0 281-109 281-300v-670h181V0H879v-209C806-46 684 14 537 14" id="q"/><path d="M158 0v-1118h174v172h12c41-113 157-188 290-188 26 0 70 2 91 3v181c-11-2-60-10-108-10-161 0-279 109-279 260V0H158" id="r"/><path d="M613 24c-304 0-509-231-509-576 0-350 205-580 509-580 216 0 392 114 453 309l-173 49c-33-115-133-197-280-197-223 0-326 196-326 419 0 220 103 415 326 415 150 0 252-85 285-206l172 49C1010-95 832 24 613 24" id="s"/><path d="M96 279C273-86 346-350 346-607c0-292-95-659-250-974h175c150 246 258 650 258 974 0 297-91 602-258 886H96" id="t"/><g id="c"><use transform="matrix(0.010850694444444444,0,0,0.010850694444444444,0,0)" xlink:href="#p"/><use transform="matrix(0.010850694444444444,0,0,0.010850694444444444,8.10546875,0)" xlink:href="#g"/><use transform="matrix(0.010850694444444444,0,0,0.010850694444444444,22.36328125,0)" xlink:href="#n"/><use transform="matrix(0.010850694444444444,0,0,0.010850694444444444,35.68793402777778,0)" xlink:href="#q"/><use transform="matrix(0.010850694444444444,0,0,0.010850694444444444,48.828125,0)" xlink:href="#r"/><use transform="matrix(0.010850694444444444,0,0,0.010850694444444444,56.82508680555555,0)" xlink:href="#s"/><use transform="matrix(0.010850694444444444,0,0,0.010850694444444444,69.52039930555554,0)" xlink:href="#k"/><use transform="matrix(0.010850694444444444,0,0,0.010850694444444444,82.22656249999999,0)" xlink:href="#t"/></g><path d="M180 0v-1490h901v168H370v510h643v168H370V0H180" id="u"/><path d="M158 0v-1118h180V0H158zm91-1301c-68 0-125-53-125-119s57-119 125-119c69 0 126 53 126 119s-57 119-126 119" id="v"/><path d="M338-1490V0H158v-1490h180" id="w"/><g id="d"><use transform="matrix(0.010850694444444444,0,0,0.010850694444444444,0,0)" xlink:href="#u"/><use transform="matrix(0.010850694444444444,0,0,0.010850694444444444,13.118489583333332,0)" xlink:href="#v"/><use transform="matrix(0.010850694444444444,0,0,0.010850694444444444,18.50043402777778,0)" xlink:href="#w"/><use transform="matrix(0.010850694444444444,0,0,0.010850694444444444,23.88237847222222,0)" xlink:href="#k"/></g><g id="e"><use transform="matrix(0.010850694444444444,0,0,0.010850694444444444,0,0)" xlink:href="#u"/><use transform="matrix(0.010850694444444444,0,0,0.010850694444444444,13.118489583333332,0)" xlink:href="#v"/><use transform="matrix(0.010850694444444444,0,0,0.010850694444444444,18.50043402777778,0)" xlink:href="#w"/><use transform="matrix(0.010850694444444444,0,0,0.010850694444444444,23.88237847222222,0)" xlink:href="#k"/><use transform="matrix(0.010850694444444444,0,0,0.010850694444444444,36.838107638888886,0)" xlink:href="#p"/><use transform="matrix(0.010850694444444444,0,0,0.010850694444444444,44.943576388888886,0)" xlink:href="#i"/><use transform="matrix(0.010850694444444444,0,0,0.010850694444444444,56.67317708333333,0)" xlink:href="#t"/></g><path fill="#e81313" d="M645 0H180v-1490h484c435 0 692 280 692 742 0 466-257 748-711 748zM370-168h263c363 0 539-218 539-580 0-358-176-574-521-574H370v1154" id="x"/><path fill="#e81313" d="M180 0v-1490h510c348 0 508 194 508 460 0 198-88 351-276 417L1256 0h-220L726-579c-117 2-238 0-356 1V0H180zm190-747h312c235 0 327-108 327-283 0-177-92-293-329-293H370v576" id="y"/><path fill="#e81313" d="M52 0l541-1490h220L1361 0h-200l-149-416H398L254 0H52zm404-582h497c-103-290-145-390-251-756-108 377-145 460-246 756" id="z"/><path fill="#e81313" d="M180 0v-1490h901v168H370v510h643v168H370V0H180" id="A"/><path fill="#e81313" d="M98-1322v-168h1126v168H757V0H567v-1322H98" id="B"/><g id="f"><use transform="matrix(0.032552083333333336,0,0,0.032552083333333336,0,0)" xlink:href="#x"/><use transform="matrix(0.032552083333333336,0,0,0.032552083333333336,48.11197916666667,0)" xlink:href="#y"/><use transform="matrix(0.032552083333333336,0,0,0.032552083333333336,91.015625,0)" xlink:href="#z"/><use transform="matrix(0.032552083333333336,0,0,0.032552083333333336,137.01171875,0)" xlink:href="#A"/><use transform="matrix(0.032552083333333336,0,0,0.032552083333333336,176.3671875,0)" xlink:href="#B"/></g></defs></g></svg>