<svg xmlns="http://www.w3.org/2000/svg" xmlns:xlink="http://www.w3.org/1999/xlink" xmlns:lucid="lucid" width="1222" height="1002"><g transform="translate(-38.99999999999983 -39.00000000000006)" lucid:page-tab-id="wjXf_By6FOvK"><path d="M0 0h1760v1360H0z" fill="#fff"/><path d="M100 46a6 6 0 0 1 6-6h728a6 6 0 0 1 6 6v988a6 6 0 0 1-6 6H106a6 6 0 0 1-6-6z" stroke="#000" stroke-width="2" fill="#fff"/><path d="M120 66a6 6 0 0 1 6-6h688a6 6 0 0 1 6 6v948a6 6 0 0 1-6 6H126a6 6 0 0 1-6-6z" fill="none"/><use xlink:href="#a" transform="matrix(1,0,0,1,120,60) translate(0 21.52777777777778)"/><use xlink:href="#b" transform="matrix(1,0,0,1,120,60) translate(20.323350694444443 21.52777777777778)"/><use xlink:href="#c" transform="matrix(1,0,0,1,120,60) translate(105.58810763888887 21.52777777777778)"/><use xlink:href="#d" transform="matrix(1,0,0,1,120,60) translate(0 61.85980902777778)"/><use xlink:href="#e" transform="matrix(1,0,0,1,120,60) translate(85.26475694444443 61.85980902777778)"/><use xlink:href="#f" transform="matrix(1,0,0,1,120,60) translate(100.55338541666666 61.85980902777778)"/><use xlink:href="#g" transform="matrix(1,0,0,1,120,60) translate(196.29991319444443 61.85980902777778)"/><use xlink:href="#h" transform="matrix(1,0,0,1,120,60) translate(281.56467013888886 61.85980902777778)"/><use xlink:href="#i" transform="matrix(1,0,0,1,120,60) translate(296.8532986111111 61.85980902777778)"/><use xlink:href="#j" transform="matrix(1,0,0,1,120,60) translate(392.59982638888886 61.85980902777778)"/><use xlink:href="#h" transform="matrix(1,0,0,1,120,60) translate(477.86458333333326 61.85980902777778)"/><use xlink:href="#k" transform="matrix(1,0,0,1,120,60) translate(493.1532118055555 61.85980902777778)"/><use xlink:href="#d" transform="matrix(1,0,0,1,120,60) translate(0 102.19184027777777)"/><use xlink:href="#e" transform="matrix(1,0,0,1,120,60) translate(85.26475694444443 102.19184027777777)"/><use xlink:href="#l" transform="matrix(1,0,0,1,120,60) translate(100.55338541666666 102.19184027777777)"/><use xlink:href="#j" transform="matrix(1,0,0,1,120,60) translate(196.29991319444443 102.19184027777777)"/><use xlink:href="#h" transform="matrix(1,0,0,1,120,60) translate(281.56467013888886 102.19184027777777)"/><use xlink:href="#i" transform="matrix(1,0,0,1,120,60) translate(296.8532986111111 102.19184027777777)"/><use xlink:href="#j" transform="matrix(1,0,0,1,120,60) translate(392.59982638888886 102.19184027777777)"/><use xlink:href="#h" transform="matrix(1,0,0,1,120,60) translate(477.86458333333326 102.19184027777777)"/><use xlink:href="#k" transform="matrix(1,0,0,1,120,60) translate(493.1532118055555 102.19184027777777)"/><use xlink:href="#m" transform="matrix(1,0,0,1,120,60) translate(0 142.52387152777777)"/><use xlink:href="#a" transform="matrix(1,0,0,1,120,60) translate(0 182.85590277777777)"/><use xlink:href="#b" transform="matrix(1,0,0,1,120,60) translate(20.323350694444443 182.85590277777777)"/><use xlink:href="#n" transform="matrix(1,0,0,1,120,60) translate(105.58810763888887 182.85590277777777)"/><use xlink:href="#d" transform="matrix(1,0,0,1,120,60) translate(0 223.18793402777777)"/><use xlink:href="#o" transform="matrix(1,0,0,1,120,60) translate(85.26475694444443 223.18793402777777)"/><use xlink:href="#l" transform="matrix(1,0,0,1,120,60) translate(105.06727430555554 223.18793402777777)"/><use xlink:href="#j" transform="matrix(1,0,0,1,120,60) translate(200.81380208333331 223.18793402777777)"/><use xlink:href="#p" transform="matrix(1,0,0,1,120,60) translate(286.0785590277777 223.18793402777777)"/><use xlink:href="#i" transform="matrix(1,0,0,1,120,60) translate(305.8810763888888 223.18793402777777)"/><use xlink:href="#j" transform="matrix(1,0,0,1,120,60) translate(401.6276041666666 223.18793402777777)"/><use xlink:href="#p" transform="matrix(1,0,0,1,120,60) translate(486.892361111111 223.18793402777777)"/><use xlink:href="#k" transform="matrix(1,0,0,1,120,60) translate(506.69487847222206 223.18793402777777)"/><use xlink:href="#q" transform="matrix(1,0,0,1,120,60) translate(0 263.51996527777777)"/><use xlink:href="#p" transform="matrix(1,0,0,1,120,60) translate(85.26475694444443 263.51996527777777)"/><use xlink:href="#i" transform="matrix(1,0,0,1,120,60) translate(105.06727430555554 263.51996527777777)"/><use xlink:href="#j" transform="matrix(1,0,0,1,120,60) translate(200.81380208333331 263.51996527777777)"/><use xlink:href="#p" transform="matrix(1,0,0,1,120,60) translate(286.0785590277777 263.51996527777777)"/><use xlink:href="#i" transform="matrix(1,0,0,1,120,60) translate(305.8810763888888 263.51996527777777)"/><use xlink:href="#j" transform="matrix(1,0,0,1,120,60) translate(401.6276041666666 263.51996527777777)"/><use xlink:href="#p" transform="matrix(1,0,0,1,120,60) translate(486.892361111111 263.51996527777777)"/><use xlink:href="#k" transform="matrix(1,0,0,1,120,60) translate(506.69487847222206 263.51996527777777)"/><use xlink:href="#m" transform="matrix(1,0,0,1,120,60) translate(0 303.85199652777777)"/><use xlink:href="#r" transform="matrix(1,0,0,1,120,60) translate(0 344.18402777777777)"/><use xlink:href="#b" transform="matrix(1,0,0,1,120,60) translate(34.396701388888886 344.18402777777777)"/><use xlink:href="#s" transform="matrix(1,0,0,1,120,60) translate(119.66145833333331 344.18402777777777)"/><use xlink:href="#d" transform="matrix(1,0,0,1,120,60) translate(0 384.51605902777777)"/><use xlink:href="#t" transform="matrix(1,0,0,1,120,60) translate(85.26475694444443 384.51605902777777)"/><use xlink:href="#l" transform="matrix(1,0,0,1,120,60) translate(118.58723958333331 384.51605902777777)"/><use xlink:href="#j" transform="matrix(1,0,0,1,120,60) translate(214.3337673611111 384.51605902777777)"/><use xlink:href="#u" transform="matrix(1,0,0,1,120,60) translate(299.59852430555554 384.51605902777777)"/><use xlink:href="#i" transform="matrix(1,0,0,1,120,60) translate(332.92100694444446 384.51605902777777)"/><use xlink:href="#j" transform="matrix(1,0,0,1,120,60) translate(428.66753472222223 384.51605902777777)"/><use xlink:href="#u" transform="matrix(1,0,0,1,120,60) translate(513.9322916666666 384.51605902777777)"/><use xlink:href="#k" transform="matrix(1,0,0,1,120,60) translate(547.2547743055555 384.51605902777777)"/><use xlink:href="#v" transform="matrix(1,0,0,1,120,60) translate(0 424.84809027777777)"/><use xlink:href="#w" transform="matrix(1,0,0,1,120,60) translate(85.26475694444443 424.84809027777777)"/><use xlink:href="#l" transform="matrix(1,0,0,1,120,60) translate(118.58723958333331 424.84809027777777)"/><use xlink:href="#j" transform="matrix(1,0,0,1,120,60) translate(214.3337673611111 424.84809027777777)"/><use xlink:href="#u" transform="matrix(1,0,0,1,120,60) translate(299.59852430555554 424.84809027777777)"/><use xlink:href="#i" transform="matrix(1,0,0,1,120,60) translate(332.92100694444446 424.84809027777777)"/><use xlink:href="#j" transform="matrix(1,0,0,1,120,60) translate(428.66753472222223 424.84809027777777)"/><use xlink:href="#u" transform="matrix(1,0,0,1,120,60) translate(513.9322916666666 424.84809027777777)"/><use xlink:href="#k" transform="matrix(1,0,0,1,120,60) translate(547.2547743055555 424.84809027777777)"/><use xlink:href="#m" transform="matrix(1,0,0,1,120,60) translate(0 465.18012152777777)"/><use xlink:href="#x" transform="matrix(1,0,0,1,120,60) translate(0 505.51215277777777)"/><use xlink:href="#j" transform="matrix(1,0,0,1,120,60) translate(34.396701388888886 505.51215277777777)"/><use xlink:href="#y" transform="matrix(1,0,0,1,120,60) translate(119.66145833333331 505.51215277777777)"/><use xlink:href="#q" transform="matrix(1,0,0,1,120,60) translate(0 545.8441840277778)"/><use xlink:href="#z" transform="matrix(1,0,0,1,120,60) translate(85.26475694444443 545.8441840277778)"/><use xlink:href="#i" transform="matrix(1,0,0,1,120,60) translate(125.02170138888887 545.8441840277778)"/><use xlink:href="#j" transform="matrix(1,0,0,1,120,60) translate(220.76822916666663 545.8441840277778)"/><use xlink:href="#z" transform="matrix(1,0,0,1,120,60) translate(306.0329861111111 545.8441840277778)"/><use xlink:href="#i" transform="matrix(1,0,0,1,120,60) translate(345.78993055555554 545.8441840277778)"/><use xlink:href="#j" transform="matrix(1,0,0,1,120,60) translate(441.5364583333333 545.8441840277778)"/><use xlink:href="#z" transform="matrix(1,0,0,1,120,60) translate(526.8012152777777 545.8441840277778)"/><use xlink:href="#A" transform="matrix(1,0,0,1,120,60) translate(566.5581597222222 545.8441840277778)"/><use xlink:href="#q" transform="matrix(1,0,0,1,120,60) translate(0 586.1762152777778)"/><use xlink:href="#z" transform="matrix(1,0,0,1,120,60) translate(85.26475694444443 586.1762152777778)"/><use xlink:href="#i" transform="matrix(1,0,0,1,120,60) translate(125.02170138888887 586.1762152777778)"/><use xlink:href="#j" transform="matrix(1,0,0,1,120,60) translate(220.76822916666663 586.1762152777778)"/><use xlink:href="#z" transform="matrix(1,0,0,1,120,60) translate(306.0329861111111 586.1762152777778)"/><use xlink:href="#i" transform="matrix(1,0,0,1,120,60) translate(345.78993055555554 586.1762152777778)"/><use xlink:href="#j" transform="matrix(1,0,0,1,120,60) translate(441.5364583333333 586.1762152777778)"/><use xlink:href="#z" transform="matrix(1,0,0,1,120,60) translate(526.8012152777777 586.1762152777778)"/><use xlink:href="#A" transform="matrix(1,0,0,1,120,60) translate(566.5581597222222 586.1762152777778)"/><use xlink:href="#B" transform="matrix(1,0,0,1,120,60) translate(0 626.5082465277778)"/><use xlink:href="#C" transform="matrix(1,0,0,1,120,60) translate(0 666.8402777777778)"/><use xlink:href="#j" transform="matrix(1,0,0,1,120,60) translate(48.470052083333336 666.8402777777778)"/><use xlink:href="#D" transform="matrix(1,0,0,1,120,60) translate(133.73480902777777 666.8402777777778)"/><use xlink:href="#q" transform="matrix(1,0,0,1,120,60) translate(0 707.1723090277778)"/><use xlink:href="#E" transform="matrix(1,0,0,1,120,60) translate(85.26475694444443 707.1723090277778)"/><use xlink:href="#i" transform="matrix(1,0,0,1,120,60) translate(138.54166666666666 707.1723090277778)"/><use xlink:href="#j" transform="matrix(1,0,0,1,120,60) translate(234.28819444444443 707.1723090277778)"/><use xlink:href="#E" transform="matrix(1,0,0,1,120,60) translate(319.55295138888886 707.1723090277778)"/><use xlink:href="#i" transform="matrix(1,0,0,1,120,60) translate(372.8298611111111 707.1723090277778)"/><use xlink:href="#j" transform="matrix(1,0,0,1,120,60) translate(468.57638888888886 707.1723090277778)"/><use xlink:href="#E" transform="matrix(1,0,0,1,120,60) translate(553.8411458333333 707.1723090277778)"/><use xlink:href="#A" transform="matrix(1,0,0,1,120,60) translate(607.1180555555554 707.1723090277778)"/><use xlink:href="#q" transform="matrix(1,0,0,1,120,60) translate(0 747.5043402777778)"/><use xlink:href="#E" transform="matrix(1,0,0,1,120,60) translate(85.26475694444443 747.5043402777778)"/><use xlink:href="#i" transform="matrix(1,0,0,1,120,60) translate(138.54166666666666 747.5043402777778)"/><use xlink:href="#j" transform="matrix(1,0,0,1,120,60) translate(234.28819444444443 747.5043402777778)"/><use xlink:href="#E" transform="matrix(1,0,0,1,120,60) translate(319.55295138888886 747.5043402777778)"/><use xlink:href="#i" transform="matrix(1,0,0,1,120,60) translate(372.8298611111111 747.5043402777778)"/><use xlink:href="#j" transform="matrix(1,0,0,1,120,60) translate(468.57638888888886 747.5043402777778)"/><use xlink:href="#E" transform="matrix(1,0,0,1,120,60) translate(553.8411458333333 747.5043402777778)"/><use xlink:href="#A" transform="matrix(1,0,0,1,120,60) translate(607.1180555555554 747.5043402777778)"/><use xlink:href="#B" transform="matrix(1,0,0,1,120,60) translate(0 787.8363715277778)"/><use xlink:href="#B" transform="matrix(1,0,0,1,120,60) translate(0 828.1684027777778)"/><use xlink:href="#F" transform="matrix(1,0,0,1,120,60) translate(0 868.5004340277778)"/><use xlink:href="#j" transform="matrix(1,0,0,1,120,60) translate(20.323350694444443 868.5004340277778)"/><use xlink:href="#G" transform="matrix(1,0,0,1,120,60) translate(105.58810763888887 868.5004340277778)"/><use xlink:href="#q" transform="matrix(1,0,0,1,120,60) translate(0 908.8324652777778)"/><use xlink:href="#H" transform="matrix(1,0,0,1,120,60) translate(85.26475694444443 908.8324652777778)"/><use xlink:href="#i" transform="matrix(1,0,0,1,120,60) translate(105.24088541666666 908.8324652777778)"/><use xlink:href="#j" transform="matrix(1,0,0,1,120,60) translate(200.98741319444443 908.8324652777778)"/><use xlink:href="#H" transform="matrix(1,0,0,1,120,60) translate(286.25217013888886 908.8324652777778)"/><use xlink:href="#i" transform="matrix(1,0,0,1,120,60) translate(306.2282986111111 908.8324652777778)"/><use xlink:href="#j" transform="matrix(1,0,0,1,120,60) translate(401.97482638888886 908.8324652777778)"/><use xlink:href="#H" transform="matrix(1,0,0,1,120,60) translate(487.23958333333326 908.8324652777778)"/><use xlink:href="#A" transform="matrix(1,0,0,1,120,60) translate(507.2157118055555 908.8324652777778)"/><use xlink:href="#q" transform="matrix(1,0,0,1,120,60) translate(0 949.1644965277778)"/><use xlink:href="#H" transform="matrix(1,0,0,1,120,60) translate(85.26475694444443 949.1644965277778)"/><use xlink:href="#i" transform="matrix(1,0,0,1,120,60) translate(105.24088541666666 949.1644965277778)"/><use xlink:href="#j" transform="matrix(1,0,0,1,120,60) translate(200.98741319444443 949.1644965277778)"/><use xlink:href="#H" transform="matrix(1,0,0,1,120,60) translate(286.25217013888886 949.1644965277778)"/><use xlink:href="#i" transform="matrix(1,0,0,1,120,60) translate(306.2282986111111 949.1644965277778)"/><use xlink:href="#j" transform="matrix(1,0,0,1,120,60) translate(401.97482638888886 949.1644965277778)"/><use xlink:href="#H" transform="matrix(1,0,0,1,120,60) translate(487.23958333333326 949.1644965277778)"/><use xlink:href="#I" transform="matrix(1,0,0,1,120,60) translate(507.2157118055555 949.1644965277778)"/><path d="M80 66a6 6 0 0 1 6-6h868a6 6 0 0 1 6 6v108a6 6 0 0 1-6 6H86a6 6 0 0 1-6-6z" fill-opacity="0"/><path d="M105.95 60h19.96m9.98 0h19.96m9.98 0h19.95m9.98 0h19.95m9.98 0h19.95m9.98 0h19.96m9.98 0h19.95m9.97 0h19.95m9.98 0h19.96m9.97 0h19.96m9.96 0h19.96m9.97 0h19.95m9.98 0h19.95m9.98 0H515m10 0h19.94m9.98 0h19.95m9.98 0h19.95m9.98 0h19.96m9.97 0h19.97m9.97 0h19.96m9.98 0h19.95m9.98 0h19.96m9.98 0h19.95m9.97 0h19.95m9.98 0h19.95m9.98 0h19.95m9.98 0h19.96m9.97 0h19.95m9.97 0H954a6 6 0 0 1 6 6v9m0 9v18m0 9v18m0 9v18m0 9v9a6 6 0 0 1-6 6h-9.98m-9.97 0H914.1m-10 0h-19.94m-9.98 0h-19.95m-9.98 0H824.3m-9.98 0h-19.95m-9.98 0h-19.96m-9.98 0H734.5m-9.97 0h-19.95m-9.98 0h-19.96m-9.97 0H644.7m-9.96 0h-19.96m-9.98 0h-19.95m-9.98 0h-19.95m-9.98 0H525m-10 0h-19.94m-9.98 0h-19.95m-9.98 0H435.2m-9.98 0h-19.96m-9.97 0h-19.97m-9.97 0H345.4m-9.97 0h-19.96m-9.98 0h-19.96m-9.98 0H255.6m-9.97 0h-19.95m-9.98 0h-19.95m-9.98 0h-19.95m-9.98 0h-19.96m-9.97 0h-19.95m-9.97 0H86a6 6 0 0 1-6-6v-9m0-9v-18m0-9v-18m0-9V84m0-9v-9a6 6 0 0 1 6-6h9.98" stroke="#008a0e" stroke-width="2" fill="none"/><g><use xlink:href="#J" transform="matrix(1,0,0,1,85,65) translate(770.6966145833334 21.52777777777778)"/><use xlink:href="#K" transform="matrix(1,0,0,1,85,65) translate(855.9613715277778 21.52777777777778)"/></g><path d="M80 226a6 6 0 0 1 6-6h868a6 6 0 0 1 6 6v628a6 6 0 0 1-6 6H86a6 6 0 0 1-6-6z" fill-opacity="0"/><path d="M105.95 220h19.96m9.98 0h19.96m9.98 0h19.95m9.98 0h19.95m9.98 0h19.95m9.98 0h19.96m9.98 0h19.95m9.97 0h19.95m9.98 0h19.96m9.97 0h19.96m9.96 0h19.96m9.97 0h19.95m9.98 0h19.95m9.98 0H515m10 0h19.94m9.98 0h19.95m9.98 0h19.95m9.98 0h19.96m9.97 0h19.97m9.97 0h19.96m9.98 0h19.95m9.98 0h19.96m9.98 0h19.95m9.97 0h19.95m9.98 0h19.95m9.98 0h19.95m9.98 0h19.96m9.97 0h19.95m9.97 0H954a6 6 0 0 1 6 6v9.97m0 9.97v19.93m0 9.97v19.94m0 9.97v19.93m0 9.97v19.94m0 9.96v19.93m0 9.96v19.94m0 9.97v19.93m0 9.97v19.94m0 9.98v19.93m0 9.98v19.94m0 9.96v19.94m0 9.97v19.93m0 9.96v19.93m0 9.97v19.93m0 9.97v19.94m0 9.97v19.94m0 9.97v19.95m0 9.97v19.93m0 9.97v19.94m0 9.97v19.93m0 9.97V854a6 6 0 0 1-6 6h-9.98m-9.97 0H914.1m-10 0h-19.94m-9.98 0h-19.95m-9.98 0H824.3m-9.98 0h-19.95m-9.98 0h-19.96m-9.98 0H734.5m-9.97 0h-19.95m-9.98 0h-19.96m-9.97 0H644.7m-9.96 0h-19.96m-9.98 0h-19.95m-9.98 0h-19.95m-9.98 0H525m-10 0h-19.94m-9.98 0h-19.95m-9.98 0H435.2m-9.98 0h-19.96m-9.97 0h-19.97m-9.97 0H345.4m-9.97 0h-19.96m-9.98 0h-19.96m-9.98 0H255.6m-9.97 0h-19.95m-9.98 0h-19.95m-9.98 0h-19.95m-9.98 0h-19.96m-9.97 0h-19.95m-9.97 0H86a6 6 0 0 1-6-6v-9.97m0-9.97v-19.93m0-9.97v-19.94m0-9.97v-19.93m0-9.97V724.4m0-9.96V694.5m0-9.96V664.6m0-9.97V634.7m0-9.97V604.8m0-9.97V574.9m0-9.98v-19.94m0-9.96v-19.94m0-9.97v-19.93m0-9.96v-19.93m0-9.97v-19.94m0-9.96v-19.94m0-9.97v-19.94m0-9.97v-19.95m0-9.97v-19.93m0-9.97v-19.94m0-9.97v-19.93m0-9.97V226a6 6 0 0 1 6-6h9.98" stroke="#008a0e" stroke-width="2" fill="none"/><g><use xlink:href="#J" transform="matrix(1,0,0,1,85,225) translate(766.1827256944445 21.52777777777778)"/><use xlink:href="#L" transform="matrix(1,0,0,1,85,225) translate(851.4474826388889 21.52777777777778)"/></g><path d="M60 386a6 6 0 0 1 6-6h1028a6 6 0 0 1 6 6v108a6 6 0 0 1-6 6H66a6 6 0 0 1-6-6z" fill-opacity="0"/><path d="M86.16 380h20.15m10.1 0h20.15m10.08 0h20.15m10.08 0h20.16m10.08 0h20.16m10.07 0h20.16m10.07 0h20.16m10.07 0h20.16m10.08 0h20.16m10.07 0h20.16m10.08 0h20.17m10.07 0h20.16m10.08 0h20.16m10.08 0h20.15m10.08 0h20.16m10.1 0h20.14m10.08 0h20.16m10.08 0h20.15m10.1 0h20.15m10.08 0h20.15m10.08 0h20.16m10.08 0h20.15m10.08 0h20.16m10.07 0h20.15m10.08 0h20.16m10.08 0h20.16m10.07 0h20.16m10.08 0h20.17m10.08 0h20.15m10.08 0h20.16m10.08 0h20.15m10.08 0h20.16m10.1 0h20.14m10.08 0H1094a6 6 0 0 1 6 6v9m0 9v18m0 9v18m0 9v18m0 9v9a6 6 0 0 1-6 6h-10.08m-10.08 0h-20.15m-10.1 0h-20.15m-10.08 0h-20.15m-10.08 0h-20.16m-10.08 0h-20.15m-10.08 0H902.5m-10.07 0h-20.15m-10.08 0h-20.16m-10.08 0H811.8m-10.07 0h-20.16m-10.08 0h-20.17m-10.08 0H721.1m-10.08 0h-20.16m-10.08 0h-20.15m-10.08 0H630.4m-10.1 0h-20.14m-10.08 0h-20.16m-10.08 0H539.7m-10.1 0h-20.15m-10.08 0h-20.15m-10.08 0h-20.16m-10.08 0h-20.15m-10.08 0H388.5m-10.07 0h-20.16m-10.07 0h-20.16m-10.08 0H297.8m-10.07 0h-20.16m-10.08 0h-20.17m-10.08 0H207.1m-10.08 0h-20.16m-10.08 0h-20.15m-10.08 0H116.4m-10.1 0H86.17m-10.08 0H66a6 6 0 0 1-6-6v-9m0-9v-18m0-9v-18m0-9v-18m0-9v-9a6 6 0 0 1 6-6h10.08" stroke="#008a0e" stroke-width="2" fill="none"/><g><use xlink:href="#J" transform="matrix(1,0,0,1,65,385) translate(912.6627604166667 21.52777777777778)"/><use xlink:href="#M" transform="matrix(1,0,0,1,65,385) translate(997.9275173611112 21.52777777777778)"/></g><path d="M60 546a6 6 0 0 1 6-6h1028a6 6 0 0 1 6 6v288a6 6 0 0 1-6 6H66a6 6 0 0 1-6-6z" fill-opacity="0"/><path d="M86.16 540h20.15m10.1 0h20.15m10.08 0h20.15m10.08 0h20.16m10.08 0h20.16m10.07 0h20.16m10.07 0h20.16m10.07 0h20.16m10.08 0h20.16m10.07 0h20.16m10.08 0h20.17m10.07 0h20.16m10.08 0h20.16m10.08 0h20.15m10.08 0h20.16m10.1 0h20.14m10.08 0h20.16m10.08 0h20.15m10.1 0h20.15m10.08 0h20.15m10.08 0h20.16m10.08 0h20.15m10.08 0h20.16m10.07 0h20.15m10.08 0h20.16m10.08 0h20.16m10.07 0h20.16m10.08 0h20.17m10.08 0h20.15m10.08 0h20.16m10.08 0h20.15m10.08 0h20.16m10.1 0h20.14m10.08 0H1094a6 6 0 0 1 6 6v9.6m0 9.6v19.2m0 9.6v19.2m0 9.6V642m0 9.6v19.2m0 9.6v19.2m0 9.6v19.2m0 9.6v19.2m0 9.6V786m0 9.6v19.2m0 9.6v9.6a6 6 0 0 1-6 6h-10.08m-10.08 0h-20.15m-10.1 0h-20.15m-10.08 0h-20.15m-10.08 0h-20.16m-10.08 0h-20.15m-10.08 0H902.5m-10.07 0h-20.15m-10.08 0h-20.16m-10.08 0H811.8m-10.07 0h-20.16m-10.08 0h-20.17m-10.08 0H721.1m-10.08 0h-20.16m-10.08 0h-20.15m-10.08 0H630.4m-10.1 0h-20.14m-10.08 0h-20.16m-10.08 0H539.7m-10.1 0h-20.15m-10.08 0h-20.15m-10.08 0h-20.16m-10.08 0h-20.15m-10.08 0H388.5m-10.07 0h-20.16m-10.07 0h-20.16m-10.08 0H297.8m-10.07 0h-20.16m-10.08 0h-20.17m-10.08 0H207.1m-10.08 0h-20.16m-10.08 0h-20.15m-10.08 0H116.4m-10.1 0H86.17m-10.08 0H66a6 6 0 0 1-6-6v-9.6m0-9.6v-19.2m0-9.6v-19.2m0-9.6V738m0-9.6v-19.2m0-9.6v-19.2m0-9.6v-19.2m0-9.6v-19.2m0-9.6V594m0-9.6v-19.2m0-9.6V546a6 6 0 0 1 6-6h10.08" stroke="#008a0e" stroke-width="2" fill="none"/><g><use xlink:href="#J" transform="matrix(1,0,0,1,65,545) translate(906.2282986111111 21.52777777777778)"/><use xlink:href="#N" transform="matrix(1,0,0,1,65,545) translate(991.4930555555555 21.52777777777778)"/></g><path d="M40 706a6 6 0 0 1 6-6h1208a6 6 0 0 1 6 6v108a6 6 0 0 1-6 6H46a6 6 0 0 1-6-6z" fill-opacity="0"/><path d="M66.13 700h20.14m10.06 0h20.14m10.06 0h20.14m10.06 0h20.14m10.06 0h20.14m10.06 0h20.14m10.06 0h20.14m10.06 0h20.14m10.06 0h20.14m10.06 0h20.14m10.06 0h20.14m10.06 0h20.14m10.06 0h20.14m10.06 0h20.14m10.06 0h20.14m10.06 0h20.14m10.06 0h20.14m10.06 0h20.14m10.06 0h20.14m10.06 0h20.14m10.06 0h20.14m10.06 0h20.14m10.06 0h20.14m10.06 0h20.14m10.06 0h20.14m10.06 0h20.14m10.06 0h20.14m10.06 0h20.14m10.06 0h20.14m10.06 0h20.14m10.06 0h20.14m10.06 0h20.14m10.06 0h20.14m10.06 0h20.14m10.06 0h20.14m10.06 0h20.14m10.06 0h20.14m10.06 0h20.14m10.06 0h20.14m10.06 0H1254a6 6 0 0 1 6 6v9m0 9v18m0 9v18m0 9v18m0 9v9a6 6 0 0 1-6 6h-10.07m-10.06 0h-20.14m-10.06 0h-20.14m-10.06 0h-20.14m-10.06 0h-20.14m-10.06 0h-20.14m-10.06 0h-20.14m-10.06 0h-20.14m-10.06 0h-20.14m-10.06 0h-20.14m-10.06 0h-20.14m-10.06 0h-20.14m-10.06 0h-20.14m-10.06 0h-20.14m-10.06 0h-20.14m-10.06 0h-20.14m-10.06 0h-20.14m-10.06 0h-20.14m-10.06 0h-20.14m-10.06 0h-20.14m-10.06 0h-20.14m-10.06 0h-20.14m-10.06 0h-20.14m-10.06 0h-20.14m-10.06 0h-20.14m-10.06 0h-20.14m-10.06 0h-20.14m-10.06 0h-20.14m-10.06 0h-20.14m-10.06 0h-20.14m-10.06 0h-20.14m-10.06 0h-20.14m-10.06 0h-20.14m-10.06 0h-20.14m-10.06 0h-20.14m-10.06 0h-20.14m-10.06 0h-20.14m-10.06 0h-20.14m-10.06 0H96.33m-10.06 0H66.13m-10.06 0H46a6 6 0 0 1-6-6v-9m0-9v-18m0-9v-18m0-9v-18m0-9v-9a6 6 0 0 1 6-6h10.07" stroke="#008a0e" stroke-width="2" fill="none"/><g><use xlink:href="#J" transform="matrix(1,0,0,1,44.99999999999983,705) translate(1072.7083333333333 21.52777777777778)"/><use xlink:href="#O" transform="matrix(1,0,0,1,44.99999999999983,705) translate(1157.9730902777776 21.52777777777778)"/></g><path d="M80 906a6 6 0 0 1 6-6h868a6 6 0 0 1 6 6v108a6 6 0 0 1-6 6H86a6 6 0 0 1-6-6z" fill-opacity="0"/><path d="M105.95 900h19.96m9.98 0h19.96m9.98 0h19.95m9.98 0h19.95m9.98 0h19.95m9.98 0h19.96m9.98 0h19.95m9.97 0h19.95m9.98 0h19.96m9.97 0h19.96m9.96 0h19.96m9.97 0h19.95m9.98 0h19.95m9.98 0H515m10 0h19.94m9.98 0h19.95m9.98 0h19.95m9.98 0h19.96m9.97 0h19.97m9.97 0h19.96m9.98 0h19.95m9.98 0h19.96m9.98 0h19.95m9.97 0h19.95m9.98 0h19.95m9.98 0h19.95m9.98 0h19.96m9.97 0h19.95m9.97 0H954a6 6 0 0 1 6 6v9m0 9v18m0 9v18m0 9v18m0 9v9a6 6 0 0 1-6 6h-9.98m-9.97 0H914.1m-10 0h-19.94m-9.98 0h-19.95m-9.98 0H824.3m-9.98 0h-19.95m-9.98 0h-19.96m-9.98 0H734.5m-9.97 0h-19.95m-9.98 0h-19.96m-9.97 0H644.7m-9.96 0h-19.96m-9.98 0h-19.95m-9.98 0h-19.95m-9.98 0H525m-10 0h-19.94m-9.98 0h-19.95m-9.98 0H435.2m-9.98 0h-19.96m-9.97 0h-19.97m-9.97 0H345.4m-9.97 0h-19.96m-9.98 0h-19.96m-9.98 0H255.6m-9.97 0h-19.95m-9.98 0h-19.95m-9.98 0h-19.95m-9.98 0h-19.96m-9.97 0h-19.95m-9.97 0H86a6 6 0 0 1-6-6v-9m0-9v-18m0-9v-18m0-9v-18m0-9v-9a6 6 0 0 1 6-6h9.98" stroke="#008a0e" stroke-width="2" fill="none"/><g><use xlink:href="#J" transform="matrix(1,0,0,1,85,905) translate(766.0091145833334 21.52777777777778)"/><use xlink:href="#P" transform="matrix(1,0,0,1,85,905) translate(851.2738715277778 21.52777777777778)"/></g><defs><path d="M711 0l68-411H407L340 0H189l67-411H34l25-150h222l60-366H122l25-152h219l67-411h151l-67 411h372l68-411h151l-67 411h220l-23 152h-222l-60 366h219l-25 150H931L864 0H711zM432-561h372l60-366H492" id="Q"/><use transform="matrix(0.010850694444444444,0,0,0.010850694444444444,0,0)" xlink:href="#Q" id="a"/><path d="M657 26c-323 0-524-166-541-416h195c15 169 171 246 346 246 202 0 356-106 356-265 5-203-294-238-475-293-239-73-380-191-380-389 0-252 224-419 512-419 294 0 499 171 508 396H992c-17-145-151-228-328-228-193 0-321 102-321 242 0 156 175 211 284 241l149 41c160 44 422 134 422 412 0 244-197 432-541 432" id="R"/><path d="M628 24c-324 0-524-230-524-574 0-343 198-582 503-582 237 0 487 146 487 559v75H286c9 234 145 362 343 362 132 0 231-58 273-172l174 48C1024-91 857 24 628 24zM287-650h624c-17-190-120-322-304-322-192 0-309 151-320 322" id="S"/><path d="M613 24c-304 0-509-231-509-576 0-350 205-580 509-580 216 0 392 114 453 309l-173 49c-33-115-133-197-280-197-223 0-326 196-326 419 0 220 103 415 326 415 150 0 252-85 285-206l172 49C1010-95 832 24 613 24" id="T"/><path d="M598-1118v154H368v674c0 100 37 144 132 144 23 0 62-6 92-12L629-6c-37 13-88 20-134 20-193 0-307-107-307-290v-688H20v-154h168v-266h180v266h230" id="U"/><path d="M158 0v-1118h180V0H158zm91-1301c-68 0-125-53-125-119s57-119 125-119c69 0 126 53 126 119s-57 119-126 119" id="V"/><path d="M613 24c-304 0-509-231-509-576 0-350 205-580 509-580 305 0 511 230 511 580 0 345-206 576-511 576zm0-161c226 0 329-195 329-415 0-222-103-419-329-419-223 0-326 196-326 419 0 220 103 415 326 415" id="W"/><path d="M338-670V0H158v-1118h173l1 207c72-158 192-221 342-221 226 0 378 139 378 422V0H872v-695c0-172-96-275-252-275-161 0-282 109-282 300" id="X"/><g id="b"><use transform="matrix(0.010850694444444444,0,0,0.010850694444444444,0,0)" xlink:href="#R"/><use transform="matrix(0.010850694444444444,0,0,0.010850694444444444,14.2578125,0)" xlink:href="#S"/><use transform="matrix(0.010850694444444444,0,0,0.010850694444444444,27.213541666666664,0)" xlink:href="#T"/><use transform="matrix(0.010850694444444444,0,0,0.010850694444444444,39.908854166666664,0)" xlink:href="#U"/><use transform="matrix(0.010850694444444444,0,0,0.010850694444444444,47.17881944444444,0)" xlink:href="#V"/><use transform="matrix(0.010850694444444444,0,0,0.010850694444444444,52.560763888888886,0)" xlink:href="#W"/><use transform="matrix(0.010850694444444444,0,0,0.010850694444444444,65.88541666666666,0)" xlink:href="#X"/></g><path d="M653-1490V0H466v-1314h-10L96-1047v-204l324-239h233" id="Y"/><use transform="matrix(0.010850694444444444,0,0,0.010850694444444444,0,0)" xlink:href="#Y" id="c"/><g id="d"><use transform="matrix(0.010850694444444444,0,0,0.010850694444444444,0,0)" xlink:href="#R"/><use transform="matrix(0.010850694444444444,0,0,0.010850694444444444,14.2578125,0)" xlink:href="#S"/><use transform="matrix(0.010850694444444444,0,0,0.010850694444444444,27.213541666666664,0)" xlink:href="#T"/><use transform="matrix(0.010850694444444444,0,0,0.010850694444444444,39.908854166666664,0)" xlink:href="#U"/><use transform="matrix(0.010850694444444444,0,0,0.010850694444444444,47.17881944444444,0)" xlink:href="#V"/><use transform="matrix(0.010850694444444444,0,0,0.010850694444444444,52.560763888888886,0)" xlink:href="#W"/><use transform="matrix(0.010850694444444444,0,0,0.010850694444444444,65.88541666666666,0)" xlink:href="#X"/></g><use transform="matrix(0.010850694444444444,0,0,0.010850694444444444,0,0)" xlink:href="#Y" id="e"/><path d="M783 20c-382 0-661-292-661-764 0-473 279-766 661-766 302 0 548 182 601 489h-190c-42-204-217-313-411-313-268 0-476 208-476 590 0 381 209 588 476 588 195 0 369-110 411-313h190c-52 303-296 489-601 489" id="Z"/><path d="M295 13c-75 0-135-60-135-135s60-135 135-135 135 60 135 135S370 13 295 13" id="aa"/><g id="f"><use transform="matrix(0.010850694444444444,0,0,0.010850694444444444,0,0)" xlink:href="#Z"/><use transform="matrix(0.010850694444444444,0,0,0.010850694444444444,16.23263888888889,0)" xlink:href="#W"/><use transform="matrix(0.010850694444444444,0,0,0.010850694444444444,29.557291666666664,0)" xlink:href="#X"/><use transform="matrix(0.010850694444444444,0,0,0.010850694444444444,42.68663194444444,0)" xlink:href="#U"/><use transform="matrix(0.010850694444444444,0,0,0.010850694444444444,49.73958333333333,0)" xlink:href="#S"/><use transform="matrix(0.010850694444444444,0,0,0.010850694444444444,62.6953125,0)" xlink:href="#X"/><use transform="matrix(0.010850694444444444,0,0,0.010850694444444444,75.82465277777777,0)" xlink:href="#U"/><use transform="matrix(0.010850694444444444,0,0,0.010850694444444444,83.09461805555554,0)" xlink:href="#aa"/></g><g id="g"><use transform="matrix(0.010850694444444444,0,0,0.010850694444444444,0,0)" xlink:href="#R"/><use transform="matrix(0.010850694444444444,0,0,0.010850694444444444,14.2578125,0)" xlink:href="#S"/><use transform="matrix(0.010850694444444444,0,0,0.010850694444444444,27.213541666666664,0)" xlink:href="#T"/><use transform="matrix(0.010850694444444444,0,0,0.010850694444444444,39.908854166666664,0)" xlink:href="#U"/><use transform="matrix(0.010850694444444444,0,0,0.010850694444444444,47.17881944444444,0)" xlink:href="#V"/><use transform="matrix(0.010850694444444444,0,0,0.010850694444444444,52.560763888888886,0)" xlink:href="#W"/><use transform="matrix(0.010850694444444444,0,0,0.010850694444444444,65.88541666666666,0)" xlink:href="#X"/></g><use transform="matrix(0.010850694444444444,0,0,0.010850694444444444,0,0)" xlink:href="#Y" id="h"/><g id="i"><use transform="matrix(0.010850694444444444,0,0,0.010850694444444444,0,0)" xlink:href="#Z"/><use transform="matrix(0.010850694444444444,0,0,0.010850694444444444,16.23263888888889,0)" xlink:href="#W"/><use transform="matrix(0.010850694444444444,0,0,0.010850694444444444,29.557291666666664,0)" xlink:href="#X"/><use transform="matrix(0.010850694444444444,0,0,0.010850694444444444,42.68663194444444,0)" xlink:href="#U"/><use transform="matrix(0.010850694444444444,0,0,0.010850694444444444,49.73958333333333,0)" xlink:href="#S"/><use transform="matrix(0.010850694444444444,0,0,0.010850694444444444,62.6953125,0)" xlink:href="#X"/><use transform="matrix(0.010850694444444444,0,0,0.010850694444444444,75.82465277777777,0)" xlink:href="#U"/><use transform="matrix(0.010850694444444444,0,0,0.010850694444444444,83.09461805555554,0)" xlink:href="#aa"/></g><g id="j"><use transform="matrix(0.010850694444444444,0,0,0.010850694444444444,0,0)" xlink:href="#R"/><use transform="matrix(0.010850694444444444,0,0,0.010850694444444444,14.2578125,0)" xlink:href="#S"/><use transform="matrix(0.010850694444444444,0,0,0.010850694444444444,27.213541666666664,0)" xlink:href="#T"/><use transform="matrix(0.010850694444444444,0,0,0.010850694444444444,39.908854166666664,0)" xlink:href="#U"/><use transform="matrix(0.010850694444444444,0,0,0.010850694444444444,47.17881944444444,0)" xlink:href="#V"/><use transform="matrix(0.010850694444444444,0,0,0.010850694444444444,52.560763888888886,0)" xlink:href="#W"/><use transform="matrix(0.010850694444444444,0,0,0.010850694444444444,65.88541666666666,0)" xlink:href="#X"/></g><g id="k"><use transform="matrix(0.010850694444444444,0,0,0.010850694444444444,0,0)" xlink:href="#Z"/><use transform="matrix(0.010850694444444444,0,0,0.010850694444444444,16.23263888888889,0)" xlink:href="#W"/><use transform="matrix(0.010850694444444444,0,0,0.010850694444444444,29.557291666666664,0)" xlink:href="#X"/><use transform="matrix(0.010850694444444444,0,0,0.010850694444444444,42.68663194444444,0)" xlink:href="#U"/><use transform="matrix(0.010850694444444444,0,0,0.010850694444444444,49.73958333333333,0)" xlink:href="#S"/><use transform="matrix(0.010850694444444444,0,0,0.010850694444444444,62.6953125,0)" xlink:href="#X"/><use transform="matrix(0.010850694444444444,0,0,0.010850694444444444,75.82465277777777,0)" xlink:href="#U"/><use transform="matrix(0.010850694444444444,0,0,0.010850694444444444,83.09461805555554,0)" xlink:href="#aa"/></g><g id="l"><use transform="matrix(0.010850694444444444,0,0,0.010850694444444444,0,0)" xlink:href="#Z"/><use transform="matrix(0.010850694444444444,0,0,0.010850694444444444,16.23263888888889,0)" xlink:href="#W"/><use transform="matrix(0.010850694444444444,0,0,0.010850694444444444,29.557291666666664,0)" xlink:href="#X"/><use transform="matrix(0.010850694444444444,0,0,0.010850694444444444,42.68663194444444,0)" xlink:href="#U"/><use transform="matrix(0.010850694444444444,0,0,0.010850694444444444,49.73958333333333,0)" xlink:href="#S"/><use transform="matrix(0.010850694444444444,0,0,0.010850694444444444,62.6953125,0)" xlink:href="#X"/><use transform="matrix(0.010850694444444444,0,0,0.010850694444444444,75.82465277777777,0)" xlink:href="#U"/><use transform="matrix(0.010850694444444444,0,0,0.010850694444444444,83.09461805555554,0)" xlink:href="#aa"/></g><path d="M154 0v-137l495-537c165-179 249-281 249-418 0-156-121-253-280-253-170 0-278 110-278 278H158c0-264 200-443 465-443 266 0 455 183 455 416 0 161-73 288-336 568L416-179v12h687V0H154" id="ab"/><use transform="matrix(0.010850694444444444,0,0,0.010850694444444444,0,0)" xlink:href="#ab" id="n"/><use transform="matrix(0.010850694444444444,0,0,0.010850694444444444,0,0)" xlink:href="#ab" id="o"/><use transform="matrix(0.010850694444444444,0,0,0.010850694444444444,0,0)" xlink:href="#ab" id="p"/><g id="q"><use transform="matrix(0.010850694444444444,0,0,0.010850694444444444,0,0)" xlink:href="#R"/><use transform="matrix(0.010850694444444444,0,0,0.010850694444444444,14.2578125,0)" xlink:href="#S"/><use transform="matrix(0.010850694444444444,0,0,0.010850694444444444,27.213541666666664,0)" xlink:href="#T"/><use transform="matrix(0.010850694444444444,0,0,0.010850694444444444,39.908854166666664,0)" xlink:href="#U"/><use transform="matrix(0.010850694444444444,0,0,0.010850694444444444,47.17881944444444,0)" xlink:href="#V"/><use transform="matrix(0.010850694444444444,0,0,0.010850694444444444,52.560763888888886,0)" xlink:href="#W"/><use transform="matrix(0.010850694444444444,0,0,0.010850694444444444,65.88541666666666,0)" xlink:href="#X"/></g><g id="r"><use transform="matrix(0.010850694444444444,0,0,0.010850694444444444,0,0)" xlink:href="#Q"/><use transform="matrix(0.010850694444444444,0,0,0.010850694444444444,14.073350694444445,0)" xlink:href="#Q"/></g><g id="s"><use transform="matrix(0.010850694444444444,0,0,0.010850694444444444,0,0)" xlink:href="#ab"/><use transform="matrix(0.010850694444444444,0,0,0.010850694444444444,13.55251736111111,0)" xlink:href="#aa"/><use transform="matrix(0.010850694444444444,0,0,0.010850694444444444,18.033854166666668,0)" xlink:href="#Y"/></g><g id="t"><use transform="matrix(0.010850694444444444,0,0,0.010850694444444444,0,0)" xlink:href="#ab"/><use transform="matrix(0.010850694444444444,0,0,0.010850694444444444,13.55251736111111,0)" xlink:href="#aa"/><use transform="matrix(0.010850694444444444,0,0,0.010850694444444444,18.033854166666668,0)" xlink:href="#Y"/></g><g id="u"><use transform="matrix(0.010850694444444444,0,0,0.010850694444444444,0,0)" xlink:href="#ab"/><use transform="matrix(0.010850694444444444,0,0,0.010850694444444444,13.55251736111111,0)" xlink:href="#aa"/><use transform="matrix(0.010850694444444444,0,0,0.010850694444444444,18.033854166666668,0)" xlink:href="#Y"/></g><g id="v"><use transform="matrix(0.010850694444444444,0,0,0.010850694444444444,0,0)" xlink:href="#R"/><use transform="matrix(0.010850694444444444,0,0,0.010850694444444444,14.2578125,0)" xlink:href="#S"/><use transform="matrix(0.010850694444444444,0,0,0.010850694444444444,27.213541666666664,0)" xlink:href="#T"/><use transform="matrix(0.010850694444444444,0,0,0.010850694444444444,39.908854166666664,0)" xlink:href="#U"/><use transform="matrix(0.010850694444444444,0,0,0.010850694444444444,47.17881944444444,0)" xlink:href="#V"/><use transform="matrix(0.010850694444444444,0,0,0.010850694444444444,52.560763888888886,0)" xlink:href="#W"/><use transform="matrix(0.010850694444444444,0,0,0.010850694444444444,65.88541666666666,0)" xlink:href="#X"/></g><g id="w"><use transform="matrix(0.010850694444444444,0,0,0.010850694444444444,0,0)" xlink:href="#ab"/><use transform="matrix(0.010850694444444444,0,0,0.010850694444444444,13.55251736111111,0)" xlink:href="#aa"/><use transform="matrix(0.010850694444444444,0,0,0.010850694444444444,18.033854166666668,0)" xlink:href="#Y"/></g><g id="x"><use transform="matrix(0.010850694444444444,0,0,0.010850694444444444,0,0)" xlink:href="#Q"/><use transform="matrix(0.010850694444444444,0,0,0.010850694444444444,14.073350694444445,0)" xlink:href="#Q"/></g><g id="y"><use transform="matrix(0.010850694444444444,0,0,0.010850694444444444,0,0)" xlink:href="#ab"/><use transform="matrix(0.010850694444444444,0,0,0.010850694444444444,13.55251736111111,0)" xlink:href="#aa"/><use transform="matrix(0.010850694444444444,0,0,0.010850694444444444,19.954427083333332,0)" xlink:href="#ab"/></g><g id="z"><use transform="matrix(0.010850694444444444,0,0,0.010850694444444444,0,0)" xlink:href="#ab"/><use transform="matrix(0.010850694444444444,0,0,0.010850694444444444,13.55251736111111,0)" xlink:href="#aa"/><use transform="matrix(0.010850694444444444,0,0,0.010850694444444444,19.954427083333332,0)" xlink:href="#ab"/></g><g id="A"><use transform="matrix(0.010850694444444444,0,0,0.010850694444444444,0,0)" xlink:href="#Z"/><use transform="matrix(0.010850694444444444,0,0,0.010850694444444444,16.23263888888889,0)" xlink:href="#W"/><use transform="matrix(0.010850694444444444,0,0,0.010850694444444444,29.557291666666664,0)" xlink:href="#X"/><use transform="matrix(0.010850694444444444,0,0,0.010850694444444444,42.68663194444444,0)" xlink:href="#U"/><use transform="matrix(0.010850694444444444,0,0,0.010850694444444444,49.73958333333333,0)" xlink:href="#S"/><use transform="matrix(0.010850694444444444,0,0,0.010850694444444444,62.6953125,0)" xlink:href="#X"/><use transform="matrix(0.010850694444444444,0,0,0.010850694444444444,75.82465277777777,0)" xlink:href="#U"/><use transform="matrix(0.010850694444444444,0,0,0.010850694444444444,83.09461805555554,0)" xlink:href="#aa"/></g><g id="C"><use transform="matrix(0.010850694444444444,0,0,0.010850694444444444,0,0)" xlink:href="#Q"/><use transform="matrix(0.010850694444444444,0,0,0.010850694444444444,14.073350694444445,0)" xlink:href="#Q"/><use transform="matrix(0.010850694444444444,0,0,0.010850694444444444,28.14670138888889,0)" xlink:href="#Q"/></g><g id="D"><use transform="matrix(0.010850694444444444,0,0,0.010850694444444444,0,0)" xlink:href="#ab"/><use transform="matrix(0.010850694444444444,0,0,0.010850694444444444,13.55251736111111,0)" xlink:href="#aa"/><use transform="matrix(0.010850694444444444,0,0,0.010850694444444444,19.954427083333332,0)" xlink:href="#ab"/><use transform="matrix(0.010850694444444444,0,0,0.010850694444444444,33.50694444444444,0)" xlink:href="#aa"/><use transform="matrix(0.010850694444444444,0,0,0.010850694444444444,37.98828125,0)" xlink:href="#Y"/></g><g id="E"><use transform="matrix(0.010850694444444444,0,0,0.010850694444444444,0,0)" xlink:href="#ab"/><use transform="matrix(0.010850694444444444,0,0,0.010850694444444444,13.55251736111111,0)" xlink:href="#aa"/><use transform="matrix(0.010850694444444444,0,0,0.010850694444444444,19.954427083333332,0)" xlink:href="#ab"/><use transform="matrix(0.010850694444444444,0,0,0.010850694444444444,33.50694444444444,0)" xlink:href="#aa"/><use transform="matrix(0.010850694444444444,0,0,0.010850694444444444,37.98828125,0)" xlink:href="#Y"/></g><use transform="matrix(0.010850694444444444,0,0,0.010850694444444444,0,0)" xlink:href="#Q" id="F"/><path d="M635 20c-292 0-500-160-510-396h192c11 142 145 229 315 229 187 0 323-105 323-260 0-161-125-274-346-274H488v-165h121c174 0 294-100 294-254 0-148-104-245-266-245-152 0-291 85-297 230H157c8-234 222-395 484-395 278 0 448 188 448 400 0 168-95 291-247 336v12c190 31 301 169 301 357 0 244-216 425-508 425" id="ac"/><use transform="matrix(0.010850694444444444,0,0,0.010850694444444444,0,0)" xlink:href="#ac" id="G"/><use transform="matrix(0.010850694444444444,0,0,0.010850694444444444,0,0)" xlink:href="#ac" id="H"/><g id="I"><use transform="matrix(0.010850694444444444,0,0,0.010850694444444444,0,0)" xlink:href="#Z"/><use transform="matrix(0.010850694444444444,0,0,0.010850694444444444,16.23263888888889,0)" xlink:href="#W"/><use transform="matrix(0.010850694444444444,0,0,0.010850694444444444,29.557291666666664,0)" xlink:href="#X"/><use transform="matrix(0.010850694444444444,0,0,0.010850694444444444,42.68663194444444,0)" xlink:href="#U"/><use transform="matrix(0.010850694444444444,0,0,0.010850694444444444,49.73958333333333,0)" xlink:href="#S"/><use transform="matrix(0.010850694444444444,0,0,0.010850694444444444,62.6953125,0)" xlink:href="#X"/><use transform="matrix(0.010850694444444444,0,0,0.010850694444444444,75.82465277777777,0)" xlink:href="#U"/><use transform="matrix(0.010850694444444444,0,0,0.010850694444444444,83.09461805555554,0)" xlink:href="#aa"/></g><path fill="#008a0e" d="M657 26c-323 0-524-166-541-416h195c15 169 171 246 346 246 202 0 356-106 356-265 5-203-294-238-475-293-239-73-380-191-380-389 0-252 224-419 512-419 294 0 499 171 508 396H992c-17-145-151-228-328-228-193 0-321 102-321 242 0 156 175 211 284 241l149 41c160 44 422 134 422 412 0 244-197 432-541 432" id="ad"/><path fill="#008a0e" d="M628 24c-324 0-524-230-524-574 0-343 198-582 503-582 237 0 487 146 487 559v75H286c9 234 145 362 343 362 132 0 231-58 273-172l174 48C1024-91 857 24 628 24zM287-650h624c-17-190-120-322-304-322-192 0-309 151-320 322" id="ae"/><path fill="#008a0e" d="M613 24c-304 0-509-231-509-576 0-350 205-580 509-580 216 0 392 114 453 309l-173 49c-33-115-133-197-280-197-223 0-326 196-326 419 0 220 103 415 326 415 150 0 252-85 285-206l172 49C1010-95 832 24 613 24" id="af"/><path fill="#008a0e" d="M598-1118v154H368v674c0 100 37 144 132 144 23 0 62-6 92-12L629-6c-37 13-88 20-134 20-193 0-307-107-307-290v-688H20v-154h168v-266h180v266h230" id="ag"/><path fill="#008a0e" d="M158 0v-1118h180V0H158zm91-1301c-68 0-125-53-125-119s57-119 125-119c69 0 126 53 126 119s-57 119-126 119" id="ah"/><path fill="#008a0e" d="M613 24c-304 0-509-231-509-576 0-350 205-580 509-580 305 0 511 230 511 580 0 345-206 576-511 576zm0-161c226 0 329-195 329-415 0-222-103-419-329-419-223 0-326 196-326 419 0 220 103 415 326 415" id="ai"/><path fill="#008a0e" d="M338-670V0H158v-1118h173l1 207c72-158 192-221 342-221 226 0 378 139 378 422V0H872v-695c0-172-96-275-252-275-161 0-282 109-282 300" id="aj"/><g id="J"><use transform="matrix(0.010850694444444444,0,0,0.010850694444444444,0,0)" xlink:href="#ad"/><use transform="matrix(0.010850694444444444,0,0,0.010850694444444444,14.2578125,0)" xlink:href="#ae"/><use transform="matrix(0.010850694444444444,0,0,0.010850694444444444,27.213541666666664,0)" xlink:href="#af"/><use transform="matrix(0.010850694444444444,0,0,0.010850694444444444,39.908854166666664,0)" xlink:href="#ag"/><use transform="matrix(0.010850694444444444,0,0,0.010850694444444444,47.17881944444444,0)" xlink:href="#ah"/><use transform="matrix(0.010850694444444444,0,0,0.010850694444444444,52.560763888888886,0)" xlink:href="#ai"/><use transform="matrix(0.010850694444444444,0,0,0.010850694444444444,65.88541666666666,0)" xlink:href="#aj"/></g><path fill="#008a0e" d="M653-1490V0H466v-1314h-10L96-1047v-204l324-239h233" id="ak"/><use transform="matrix(0.010850694444444444,0,0,0.010850694444444444,0,0)" xlink:href="#ak" id="K"/><path fill="#008a0e" d="M154 0v-137l495-537c165-179 249-281 249-418 0-156-121-253-280-253-170 0-278 110-278 278H158c0-264 200-443 465-443 266 0 455 183 455 416 0 161-73 288-336 568L416-179v12h687V0H154" id="al"/><use transform="matrix(0.010850694444444444,0,0,0.010850694444444444,0,0)" xlink:href="#al" id="L"/><path fill="#008a0e" d="M295 13c-75 0-135-60-135-135s60-135 135-135 135 60 135 135S370 13 295 13" id="am"/><g id="M"><use transform="matrix(0.010850694444444444,0,0,0.010850694444444444,0,0)" xlink:href="#al"/><use transform="matrix(0.010850694444444444,0,0,0.010850694444444444,13.55251736111111,0)" xlink:href="#am"/><use transform="matrix(0.010850694444444444,0,0,0.010850694444444444,18.033854166666668,0)" xlink:href="#ak"/></g><g id="N"><use transform="matrix(0.010850694444444444,0,0,0.010850694444444444,0,0)" xlink:href="#al"/><use transform="matrix(0.010850694444444444,0,0,0.010850694444444444,13.55251736111111,0)" xlink:href="#am"/><use transform="matrix(0.010850694444444444,0,0,0.010850694444444444,19.954427083333332,0)" xlink:href="#al"/></g><g id="O"><use transform="matrix(0.010850694444444444,0,0,0.010850694444444444,0,0)" xlink:href="#al"/><use transform="matrix(0.010850694444444444,0,0,0.010850694444444444,13.55251736111111,0)" xlink:href="#am"/><use transform="matrix(0.010850694444444444,0,0,0.010850694444444444,19.954427083333332,0)" xlink:href="#al"/><use transform="matrix(0.010850694444444444,0,0,0.010850694444444444,33.50694444444444,0)" xlink:href="#am"/><use transform="matrix(0.010850694444444444,0,0,0.010850694444444444,37.98828125,0)" xlink:href="#ak"/></g><path fill="#008a0e" d="M635 20c-292 0-500-160-510-396h192c11 142 145 229 315 229 187 0 323-105 323-260 0-161-125-274-346-274H488v-165h121c174 0 294-100 294-254 0-148-104-245-266-245-152 0-291 85-297 230H157c8-234 222-395 484-395 278 0 448 188 448 400 0 168-95 291-247 336v12c190 31 301 169 301 357 0 244-216 425-508 425" id="an"/><use transform="matrix(0.010850694444444444,0,0,0.010850694444444444,0,0)" xlink:href="#an" id="P"/></defs></g></svg>