<svg xmlns="http://www.w3.org/2000/svg" xmlns:xlink="http://www.w3.org/1999/xlink" xmlns:lucid="lucid" width="1383" height="1023"><g transform="translate(-38.500000000000014 -38.5)" lucid:page-tab-id="pe.dt03Qr57z"><path d="M0 0h1760v1360H0z" fill="#fff"/><path d="M400 506a6 6 0 0 1 6-6h748a6 6 0 0 1 6 6v548a6 6 0 0 1-6 6H406a6 6 0 0 1-6-6z" stroke="#000" stroke-width="3" fill-opacity="0"/><use xlink:href="#a" transform="matrix(1,0,0,1,405,505) translate(330.4470486111111 21.52777777777778)"/><use xlink:href="#b" transform="matrix(1,0,0,1,405,505) translate(385.0694444444444 21.52777777777778)"/><path d="M880 640c0 55.23-44.77 100-100 100s-100-44.77-100-100 44.77-100 100-100 100 44.77 100 100z" stroke="#000" stroke-width="3" fill="#f2f2ff"/><use xlink:href="#c" transform="matrix(1,0,0,1,685,545) translate(42.054036458333336 104.65277777777777)"/><path d="M640 920c0 55.23-44.77 100-100 100s-100-44.77-100-100 44.77-100 100-100 100 44.77 100 100z" stroke="#000" stroke-width="3" fill="#edf5ff"/><use xlink:href="#d" transform="matrix(1,0,0,1,445,825) translate(15.144314236111128 104.65277777777777)"/><path d="M880 920c0 55.23-44.77 100-100 100s-100-44.77-100-100 44.77-100 100-100 100 44.77 100 100z" stroke="#000" stroke-width="3" fill="#e3fae3"/><use xlink:href="#e" transform="matrix(1,0,0,1,685,825) translate(66.94010416666667 104.65277777777777)"/><path d="M1120 920c0 55.23-44.77 100-100 100s-100-44.77-100-100 44.77-100 100-100 100 44.77 100 100z" stroke="#000" stroke-width="3" fill="#fcfcca"/><use xlink:href="#f" transform="matrix(1,0,0,1,925,825) translate(45.58593750000001 104.65277777777777)"/><path d="M780 743v31a6 6 0 0 1-6 6H546a6 6 0 0 0-6 6v11.88" stroke="#3a414a" stroke-width="3" fill="none"/><path d="M780 741.5h1.48v1.54h-2.96v-1.58z" stroke="#3a414a" stroke-width=".05" fill="#3a414a"/><path d="M540 813.65l-4.63-14.27h9.26z" stroke="#3a414a" stroke-width="3" fill="#3a414a"/><path d="M780 743v54.88" stroke="#3a414a" stroke-width="3" fill="none"/><path d="M780 741.5h1.48v1.54h-2.96v-1.58z" stroke="#3a414a" stroke-width=".05" fill="#3a414a"/><path d="M780 813.65l-4.63-14.27h9.26z" stroke="#3a414a" stroke-width="3" fill="#3a414a"/><path d="M780 743v31a6 6 0 0 0 6 6h228a6 6 0 0 1 6 6v11.88" stroke="#3a414a" stroke-width="3" fill="none"/><path d="M780 741.5h1.48v1.54h-2.96v-1.58z" stroke="#3a414a" stroke-width=".05" fill="#3a414a"/><path d="M1020 813.65l-4.63-14.27h9.26z" stroke="#3a414a" stroke-width="3" fill="#3a414a"/><path d="M40 46a6 6 0 0 1 6-6h228a6 6 0 0 1 6 6v108a6 6 0 0 1-6 6H46a6 6 0 0 1-6-6z" stroke="#000" stroke-width="3" fill="#edf5ff"/><use xlink:href="#d" transform="matrix(1,0,0,1,45.000000000000014,45) translate(35.14431423611113 62.77777777777778)"/><path d="M40 206a6 6 0 0 1 6-6h228a6 6 0 0 1 6 6v108a6 6 0 0 1-6 6H46a6 6 0 0 1-6-6z" stroke="#000" stroke-width="3" fill="#e3fae3"/><use xlink:href="#e" transform="matrix(1,0,0,1,45.000000000000014,205) translate(86.94010416666667 62.77777777777778)"/><path d="M40 366a6 6 0 0 1 6-6h228a6 6 0 0 1 6 6v108a6 6 0 0 1-6 6H46a6 6 0 0 1-6-6z" stroke="#000" stroke-width="3" fill="#fcfcca"/><use xlink:href="#f" transform="matrix(1,0,0,1,45.000000000000014,365) translate(65.5859375 62.77777777777778)"/><path d="M60 66a6 6 0 0 1 6-6h228a6 6 0 0 1 6 6v108a6 6 0 0 1-6 6H66a6 6 0 0 1-6-6z" stroke="#000" stroke-width="3" fill="#edf5ff"/><use xlink:href="#d" transform="matrix(1,0,0,1,65.00000000000001,65) translate(35.14431423611113 62.77777777777778)"/><path d="M60 226a6 6 0 0 1 6-6h228a6 6 0 0 1 6 6v108a6 6 0 0 1-6 6H66a6 6 0 0 1-6-6z" stroke="#000" stroke-width="3" fill="#e3fae3"/><use xlink:href="#e" transform="matrix(1,0,0,1,65.00000000000001,225) translate(86.94010416666667 62.77777777777778)"/><path d="M60 386a6 6 0 0 1 6-6h228a6 6 0 0 1 6 6v108a6 6 0 0 1-6 6H66a6 6 0 0 1-6-6z" stroke="#000" stroke-width="3" fill="#fcfcca"/><use xlink:href="#f" transform="matrix(1,0,0,1,65.00000000000001,385) translate(65.5859375 62.77777777777778)"/><path d="M700 46a6 6 0 0 1 6-6h148a6 6 0 0 1 6 6v108a6 6 0 0 1-6 6H706a6 6 0 0 1-6-6zm16-6v120M700 56h160" stroke="#000" stroke-width="3" fill="#fff"/><use xlink:href="#g" transform="matrix(1,0,0,1,721,61) translate(32.0390625 53.84027777777778)"/><path d="M515 203.33a9 9 0 0 1 10 0l110 73.34a4 4 0 0 1 0 6.66l-110 73.34a9 9 0 0 1-10 0l-110-73.34a4 4 0 0 1 0-6.66z" stroke="#000" stroke-width="3" fill="#fff"/><use xlink:href="#h" transform="matrix(1,0,0,1,405,205) translate(78.00413194444445 82.46527777777777)"/><path d="M303 120h42.6a6 6 0 0 1 6 6v148a6 6 0 0 0 6 6h23.48" stroke="#3a414a" stroke-width="3" fill="none"/><path d="M303.04 121.47h-1.54v-2.94h1.54z" stroke="#3a414a" stroke-width=".05" fill="#3a414a"/><path d="M396.85 280l-14.27 4.63v-9.26z" stroke="#3a414a" stroke-width="3" fill="#3a414a"/><path d="M303 280h78.08" stroke="#3a414a" stroke-width="3" fill="none"/><path d="M303.04 281.48h-1.54v-2.96h1.54z" stroke="#3a414a" stroke-width=".05" fill="#3a414a"/><path d="M396.85 280l-14.27 4.63v-9.26z" stroke="#3a414a" stroke-width="3" fill="#3a414a"/><path d="M303 440h42.6a6 6 0 0 0 6-6V286a6 6 0 0 1 6-6h23.48" stroke="#3a414a" stroke-width="3" fill="none"/><path d="M303.04 441.48h-1.54v-2.96h1.54z" stroke="#3a414a" stroke-width=".05" fill="#3a414a"/><path d="M396.85 280l-14.27 4.63v-9.26z" stroke="#3a414a" stroke-width="3" fill="#3a414a"/><path d="M520 361.2v116.68" stroke="#3a414a" stroke-width="3" fill="none"/><path d="M518.77 359.6l1.23.1 1.23-.1.25-.03v1.65h-2.96v-1.65z" stroke="#3a414a" stroke-width=".05" fill="#3a414a"/><path d="M520 493.65l-4.63-14.27h9.26z" stroke="#3a414a" stroke-width="3" fill="#3a414a"/><path d="M697 100H526a6 6 0 0 0-6 6v73.7" stroke="#3a414a" stroke-width="3" fill="none"/><path d="M698.5 101.47h-1.54v-2.94h1.54z" stroke="#3a414a" stroke-width=".05" fill="#3a414a"/><path d="M520 195.46l-4.63-14.27h9.26z" stroke="#3a414a" stroke-width="3" fill="#3a414a"/><path d="M1035 203.33a9 9 0 0 1 10 0l110 73.34a4 4 0 0 1 0 6.66l-110 73.34a9 9 0 0 1-10 0l-110-73.34a4 4 0 0 1 0-6.66z" stroke="#000" stroke-width="3" fill="#fff"/><use xlink:href="#i" transform="matrix(1,0,0,1,925,205) translate(81.39497395833334 82.46527777777777)"/><path d="M1260 226a6 6 0 0 1 6-6h148a6 6 0 0 1 6 6v108a6 6 0 0 1-6 6h-148a6 6 0 0 1-6-6zm16-6v120m-16-104h160" stroke="#000" stroke-width="3" fill="#fff"/><use xlink:href="#j" transform="matrix(1,0,0,1,1281,241) translate(28.854383680555557 53.84027777777778)"/><path d="M1159.8 280h78.08" stroke="#3a414a" stroke-width="3" fill="none"/><path d="M1159.84 281.48h-1.77l.12-.4.1-1.08-.1-1.08-.13-.4h1.77z" stroke="#3a414a" stroke-width=".05" fill="#3a414a"/><path d="M1253.65 280l-14.27 4.63v-9.26z" stroke="#3a414a" stroke-width="3" fill="#3a414a"/><path d="M1040 380.3V497" stroke="#3a414a" stroke-width="3" fill="none"/><path d="M1040 364.54l4.63 14.27h-9.27z" stroke="#3a414a" stroke-width="3" fill="#3a414a"/><path d="M1041.47 498.5h-2.94v-1.54h2.94z" stroke="#3a414a" stroke-width=".05" fill="#3a414a"/><path d="M863 100h171a6 6 0 0 1 6 6v73.7" stroke="#3a414a" stroke-width="3" fill="none"/><path d="M863.04 101.47h-1.54v-2.94h1.54z" stroke="#3a414a" stroke-width=".05" fill="#3a414a"/><path d="M1040 195.46l-4.63-14.27h9.27z" stroke="#3a414a" stroke-width="3" fill="#3a414a"/><path d="M620 326a6 6 0 0 1 6-6h308a6 6 0 0 1 6 6v68a6 6 0 0 1-6 6H626a6 6 0 0 1-6-6z" fill="none"/><use xlink:href="#k" transform="matrix(1,0,0,1,620,320) translate(28.359375 77.5)"/><defs><path d="M645 0H180v-1490h484c435 0 692 280 692 742 0 466-257 748-711 748zM370-168h263c363 0 539-218 539-580 0-358-176-574-521-574H370v1154" id="l"/><path d="M471 26C259 26 90-98 90-318c0-256 228-303 435-329 202-27 287-16 287-108 0-139-79-219-234-219-161 0-248 86-283 164l-173-57c86-203 278-265 451-265 150 0 419 46 419 395V0H815v-152h-12C765-73 660 26 471 26zm31-159c199 0 310-134 310-271v-155c-30 35-226 55-295 64-131 17-246 59-246 186 0 116 97 176 231 176" id="m"/><path d="M598-1118v154H368v674c0 100 37 144 132 144 23 0 62-6 92-12L629-6c-37 13-88 20-134 20-193 0-307-107-307-290v-688H20v-154h168v-266h180v266h230" id="n"/><g id="a"><use transform="matrix(0.010850694444444444,0,0,0.010850694444444444,0,0)" xlink:href="#l"/><use transform="matrix(0.010850694444444444,0,0,0.010850694444444444,16.03732638888889,0)" xlink:href="#m"/><use transform="matrix(0.010850694444444444,0,0,0.010850694444444444,28.515625,0)" xlink:href="#n"/><use transform="matrix(0.010850694444444444,0,0,0.010850694444444444,35.89409722222222,0)" xlink:href="#m"/></g><path d="M657 26c-323 0-524-166-541-416h195c15 169 171 246 346 246 202 0 356-106 356-265 5-203-294-238-475-293-239-73-380-191-380-389 0-252 224-419 512-419 294 0 499 171 508 396H992c-17-145-151-228-328-228-193 0-321 102-321 242 0 156 175 211 284 241l149 41c160 44 422 134 422 412 0 244-197 432-541 432" id="o"/><path d="M628 24c-324 0-524-230-524-574 0-343 198-582 503-582 237 0 487 146 487 559v75H286c9 234 145 362 343 362 132 0 231-58 273-172l174 48C1024-91 857 24 628 24zM287-650h624c-17-190-120-322-304-322-192 0-309 151-320 322" id="p"/><g id="b"><use transform="matrix(0.010850694444444444,0,0,0.010850694444444444,0,0)" xlink:href="#o"/><use transform="matrix(0.010850694444444444,0,0,0.010850694444444444,14.2578125,0)" xlink:href="#p"/><use transform="matrix(0.010850694444444444,0,0,0.010850694444444444,27.213541666666664,0)" xlink:href="#n"/></g><path d="M140 405l46-156c120 36 205 19 263-150l32-93L54-1118h197c107 313 237 620 324 950 87-331 219-637 326-950h196L606 167c-68 178-176 259-334 259-64 0-113-12-132-21" id="q"/><path d="M538 24C308 24 148-78 108-271l171-41c32 123 123 178 257 178 156 0 256-77 256-169 0-77-54-128-164-154l-186-44c-203-48-300-148-300-305 0-192 176-326 414-326 230 0 351 112 402 269l-163 42c-31-80-94-158-238-158-133 0-233 69-233 162 0 83 57 129 188 160l169 40c203 48 298 149 298 302 0 196-179 339-441 339" id="r"/><path d="M158 0v-1118h175l1 205c55-151 181-225 313-225 147 0 245 90 285 228 53-141 190-228 352-228 194 0 352 125 352 384V0h-181v-749c0-161-105-225-225-225-151 0-243 103-243 244V0H807v-767c0-124-93-207-219-207-131 0-250 92-250 270V0H158" id="s"/><path d="M218-607c0-325 108-727 258-974h175c-155 315-250 682-250 974 0 265 78 531 250 886H476C306-10 218-315 218-607" id="t"/><path d="M96 279C273-86 346-350 346-607c0-292-95-659-250-974h175c150 246 258 650 258 974 0 297-91 602-258 886H96" id="u"/><g id="c"><use transform="matrix(0.010850694444444444,0,0,0.010850694444444444,0,0)" xlink:href="#o"/><use transform="matrix(0.010850694444444444,0,0,0.010850694444444444,14.2578125,0)" xlink:href="#q"/><use transform="matrix(0.010850694444444444,0,0,0.010850694444444444,26.74696180555556,0)" xlink:href="#r"/><use transform="matrix(0.010850694444444444,0,0,0.010850694444444444,38.4765625,0)" xlink:href="#n"/><use transform="matrix(0.010850694444444444,0,0,0.010850694444444444,45.5295138888889,0)" xlink:href="#p"/><use transform="matrix(0.010850694444444444,0,0,0.010850694444444444,58.48524305555555,0)" xlink:href="#s"/><use transform="matrix(0.010850694444444444,0,0,0.010850694444444444,77.95138888888889,0)" xlink:href="#t"/><use transform="matrix(0.010850694444444444,0,0,0.010850694444444444,86.05685763888889,0)" xlink:href="#r"/><use transform="matrix(0.010850694444444444,0,0,0.010850694444444444,97.78645833333333,0)" xlink:href="#u"/></g><path d="M613 24c-304 0-509-231-509-576 0-350 205-580 509-580 305 0 511 230 511 580 0 345-206 576-511 576zm0-161c226 0 329-195 329-415 0-222-103-419-329-419-223 0-326 196-326 419 0 220 103 415 326 415" id="v"/><path d="M613 24c-304 0-509-231-509-576 0-350 205-580 509-580 216 0 392 114 453 309l-173 49c-33-115-133-197-280-197-223 0-326 196-326 419 0 220 103 415 326 415 150 0 252-85 285-206l172 49C1010-95 832 24 613 24" id="w"/><path d="M537 14c-226 0-379-139-379-422v-710h180v695c0 172 97 275 253 275 160 0 281-109 281-300v-670h181V0H879v-209C806-46 684 14 537 14" id="x"/><path d="M338-670V0H158v-1118h173l1 207c72-158 192-221 342-221 226 0 378 139 378 422V0H872v-695c0-172-96-275-252-275-161 0-282 109-282 300" id="y"/><path d="M158 0v-1118h180V0H158zm91-1301c-68 0-125-53-125-119s57-119 125-119c69 0 126 53 126 119s-57 119-126 119" id="z"/><g id="d"><use transform="matrix(0.010850694444444444,0,0,0.010850694444444444,0,0)" xlink:href="#l"/><use transform="matrix(0.010850694444444444,0,0,0.010850694444444444,16.03732638888889,0)" xlink:href="#v"/><use transform="matrix(0.010850694444444444,0,0,0.010850694444444444,29.361979166666664,0)" xlink:href="#w"/><use transform="matrix(0.010850694444444444,0,0,0.010850694444444444,42.057291666666664,0)" xlink:href="#x"/><use transform="matrix(0.010850694444444444,0,0,0.010850694444444444,55.197482638888886,0)" xlink:href="#s"/><use transform="matrix(0.010850694444444444,0,0,0.010850694444444444,74.66362847222221,0)" xlink:href="#p"/><use transform="matrix(0.010850694444444444,0,0,0.010850694444444444,87.61935763888889,0)" xlink:href="#y"/><use transform="matrix(0.010850694444444444,0,0,0.010850694444444444,100.74869791666666,0)" xlink:href="#n"/><use transform="matrix(0.010850694444444444,0,0,0.010850694444444444,108.12717013888887,0)" xlink:href="#m"/><use transform="matrix(0.010850694444444444,0,0,0.010850694444444444,120.60546874999997,0)" xlink:href="#n"/><use transform="matrix(0.010850694444444444,0,0,0.010850694444444444,127.87543402777776,0)" xlink:href="#z"/><use transform="matrix(0.010850694444444444,0,0,0.010850694444444444,133.2573784722222,0)" xlink:href="#v"/><use transform="matrix(0.010850694444444444,0,0,0.010850694444444444,146.58203124999997,0)" xlink:href="#y"/></g><path d="M783 20c-382 0-661-292-661-764 0-473 279-766 661-766 302 0 548 182 601 489h-190c-42-204-217-313-411-313-268 0-476 208-476 590 0 381 209 588 476 588 195 0 369-110 411-313h190c-52 303-296 489-601 489" id="A"/><path d="M577 24c-279 0-473-224-473-580 0-354 195-576 474-576 218 0 287 134 324 193h14v-551h180V0H922v-173h-20C865-111 790 24 577 24zm27-161c203 0 314-172 314-421 0-247-108-413-314-413-212 0-317 181-317 413 0 235 108 421 317 421" id="B"/><g id="e"><use transform="matrix(0.010850694444444444,0,0,0.010850694444444444,0,0)" xlink:href="#A"/><use transform="matrix(0.010850694444444444,0,0,0.010850694444444444,16.23263888888889,0)" xlink:href="#v"/><use transform="matrix(0.010850694444444444,0,0,0.010850694444444444,29.557291666666664,0)" xlink:href="#B"/><use transform="matrix(0.010850694444444444,0,0,0.010850694444444444,43.1640625,0)" xlink:href="#p"/></g><path d="M180 0v-1490h270l367 940c28 72 75 218 110 339 35-117 81-264 110-339l362-940h271V0h-187c2-448-5-837 7-1287-157 497-311 829-483 1287H842C666-458 514-784 354-1284c12 438 5 843 7 1284H180" id="C"/><g id="f"><use transform="matrix(0.010850694444444444,0,0,0.010850694444444444,0,0)" xlink:href="#C"/><use transform="matrix(0.010850694444444444,0,0,0.010850694444444444,20.07378472222222,0)" xlink:href="#p"/><use transform="matrix(0.010850694444444444,0,0,0.010850694444444444,33.029513888888886,0)" xlink:href="#n"/><use transform="matrix(0.010850694444444444,0,0,0.010850694444444444,40.40798611111111,0)" xlink:href="#m"/><use transform="matrix(0.010850694444444444,0,0,0.010850694444444444,52.88628472222221,0)" xlink:href="#B"/><use transform="matrix(0.010850694444444444,0,0,0.010850694444444444,66.49305555555554,0)" xlink:href="#m"/><use transform="matrix(0.010850694444444444,0,0,0.010850694444444444,78.97135416666666,0)" xlink:href="#n"/><use transform="matrix(0.010850694444444444,0,0,0.010850694444444444,86.34982638888887,0)" xlink:href="#m"/></g><path d="M678-1118v154H420V0H240v-964H20v-154h220v-149c0-194 155-293 318-293 85 0 141 18 168 30l-50 154c-19-6-47-17-97-17-111 0-159 58-159 166v109h258" id="D"/><path d="M611 442c-248 0-391-105-460-228l146-94c47 65 117 165 314 165 178 0 307-82 307-266v-224h-17C863-141 792-18 576-18c-268 0-472-195-472-546 0-346 197-568 476-568 216 0 288 133 326 193h17v-179h175V29c0 289-215 413-487 413zm-5-620c203 0 314-146 314-390 0-237-108-403-314-403-213 0-319 180-319 403 0 230 109 390 319 390" id="E"/><g id="g"><use transform="matrix(0.010850694444444444,0,0,0.010850694444444444,0,0)" xlink:href="#A"/><use transform="matrix(0.010850694444444444,0,0,0.010850694444444444,16.23263888888889,0)" xlink:href="#v"/><use transform="matrix(0.010850694444444444,0,0,0.010850694444444444,29.557291666666664,0)" xlink:href="#y"/><use transform="matrix(0.010850694444444444,0,0,0.010850694444444444,42.68663194444444,0)" xlink:href="#D"/><use transform="matrix(0.010850694444444444,0,0,0.010850694444444444,50.91145833333333,0)" xlink:href="#z"/><use transform="matrix(0.010850694444444444,0,0,0.010850694444444444,56.29340277777778,0)" xlink:href="#E"/></g><path d="M180 0v-1490h908v168H370v486h669v168H370v500h727V0H180" id="F"/><path d="M65 0l393-574-370-544h210c88 136 192 297 267 435 67-142 176-302 264-435h206L661-564 1053 0H844c-94-144-206-310-287-458C484-308 366-142 273 0H65" id="G"/><path d="M158 0v-1118h174v172h12c41-113 157-188 290-188 26 0 70 2 91 3v181c-11-2-60-10-108-10-161 0-279 109-279 260V0H158" id="H"/><g id="h"><use transform="matrix(0.010850694444444444,0,0,0.010850694444444444,0,0)" xlink:href="#F"/><use transform="matrix(0.010850694444444444,0,0,0.010850694444444444,13.35720486111111,0)" xlink:href="#G"/><use transform="matrix(0.010850694444444444,0,0,0.010850694444444444,25.92230902777778,0)" xlink:href="#n"/><use transform="matrix(0.010850694444444444,0,0,0.010850694444444444,33.19227430555556,0)" xlink:href="#H"/><use transform="matrix(0.010850694444444444,0,0,0.010850694444444444,41.55815972222222,0)" xlink:href="#m"/><use transform="matrix(0.010850694444444444,0,0,0.010850694444444444,54.03645833333333,0)" xlink:href="#w"/><use transform="matrix(0.010850694444444444,0,0,0.010850694444444444,66.73177083333333,0)" xlink:href="#n"/></g><path d="M338-670V0H158v-1490h180v566c73-149 190-208 336-208 226 0 379 139 379 422V0H872v-695c0-172-96-275-252-275-161 0-282 109-282 300" id="I"/><path d="M158 0v-1490h180v865h22l478-493h223L593-638 1096 0H865L456-523 338-412V0H158" id="J"/><g id="i"><use transform="matrix(0.010850694444444444,0,0,0.010850694444444444,0,0)" xlink:href="#A"/><use transform="matrix(0.010850694444444444,0,0,0.010850694444444444,16.23263888888889,0)" xlink:href="#I"/><use transform="matrix(0.010850694444444444,0,0,0.010850694444444444,29.37282986111111,0)" xlink:href="#p"/><use transform="matrix(0.010850694444444444,0,0,0.010850694444444444,42.32855902777778,0)" xlink:href="#w"/><use transform="matrix(0.010850694444444444,0,0,0.010850694444444444,55.02387152777778,0)" xlink:href="#J"/></g><path d="M180 0v-1490h510c348 0 508 194 508 460 0 198-88 351-276 417L1256 0h-220L726-579c-117 2-238 0-356 1V0H180zm190-747h312c235 0 327-108 327-283 0-177-92-293-329-293H370v576" id="K"/><path d="M338-1490V0H158v-1490h180" id="L"/><g id="j"><use transform="matrix(0.010850694444444444,0,0,0.010850694444444444,0,0)" xlink:href="#K"/><use transform="matrix(0.010850694444444444,0,0,0.010850694444444444,13.975694444444445,0)" xlink:href="#p"/><use transform="matrix(0.010850694444444444,0,0,0.010850694444444444,26.931423611111104,0)" xlink:href="#r"/><use transform="matrix(0.010850694444444444,0,0,0.010850694444444444,38.66102430555555,0)" xlink:href="#x"/><use transform="matrix(0.010850694444444444,0,0,0.010850694444444444,51.80121527777778,0)" xlink:href="#L"/><use transform="matrix(0.010850694444444444,0,0,0.010850694444444444,57.50868055555555,0)" xlink:href="#n"/><use transform="matrix(0.010850694444444444,0,0,0.010850694444444444,64.56163194444444,0)" xlink:href="#r"/></g><path fill="#e81313" d="M645 0H180v-1490h484c435 0 692 280 692 742 0 466-257 748-711 748zM370-168h263c363 0 539-218 539-580 0-358-176-574-521-574H370v1154" id="M"/><path fill="#e81313" d="M180 0v-1490h510c348 0 508 194 508 460 0 198-88 351-276 417L1256 0h-220L726-579c-117 2-238 0-356 1V0H180zm190-747h312c235 0 327-108 327-283 0-177-92-293-329-293H370v576" id="N"/><path fill="#e81313" d="M52 0l541-1490h220L1361 0h-200l-149-416H398L254 0H52zm404-582h497c-103-290-145-390-251-756-108 377-145 460-246 756" id="O"/><path fill="#e81313" d="M180 0v-1490h901v168H370v510h643v168H370V0H180" id="P"/><path fill="#e81313" d="M98-1322v-168h1126v168H757V0H567v-1322H98" id="Q"/><g id="k"><use transform="matrix(0.0390625,0,0,0.0390625,0,0)" xlink:href="#M"/><use transform="matrix(0.0390625,0,0,0.0390625,57.734375,0)" xlink:href="#N"/><use transform="matrix(0.0390625,0,0,0.0390625,109.21875,0)" xlink:href="#O"/><use transform="matrix(0.0390625,0,0,0.0390625,164.4140625,0)" xlink:href="#P"/><use transform="matrix(0.0390625,0,0,0.0390625,211.640625,0)" xlink:href="#Q"/></g></defs></g></svg>