<svg xmlns="http://www.w3.org/2000/svg" xmlns:xlink="http://www.w3.org/1999/xlink" xmlns:lucid="lucid" width="1123" height="1024.29"><g transform="translate(-38.5 -38.5)" lucid:page-tab-id="Ms-gu9OyRk03"><path d="M0 0h1760v1360H0z" fill="#fff"/><path d="M80 46a6 6 0 0 1 6-6h348a6 6 0 0 1 6 6v248a6 6 0 0 1-6 6H86a6 6 0 0 1-6-6z" stroke="#000" stroke-width="3" fill="#f2f3f5"/><use xlink:href="#a" transform="matrix(1,0,0,1,85,45) translate(137.27756076388889 130.90277777777777)"/><use xlink:href="#b" transform="matrix(1,0,0,1,85,45) translate(197.39040798611111 130.90277777777777)"/><path d="M280 206a6 6 0 0 1 6-6h168a6 6 0 0 1 6 6v113c-30.06-19.87-48.78-19.87-60.12-19.87-18 0-41.94 19.87-59.94 19.87-11.16 0-30.06 0-59.94-19.87z" stroke="#000" stroke-width="3" fill="#f2f2ff"/><path d="M290 216.5a6 6 0 0 1 6-6h168a6 6 0 0 1 6 6v113c-30.06-19.87-48.78-19.87-60.12-19.87-18 0-41.94 19.87-59.94 19.87-11.16 0-30.06 0-59.94-19.87z" stroke="#000" stroke-width="3" fill="#f2f2ff"/><path d="M300 227a6 6 0 0 1 6-6h168a6 6 0 0 1 6 6v113c-30.06-19.87-48.78-19.87-60.12-19.87-18 0-41.94 19.87-59.94 19.87-11.16 0-30.06 0-59.94-19.87z" stroke="#000" stroke-width="3" fill="#f2f2ff"/><use xlink:href="#c" transform="matrix(1,0,0,1,305,226.0000000000001) translate(5.1443142361111285 53.083767361111114)"/><path d="M40 206a6 6 0 0 1 6-6h188a6 6 0 0 1 6 6v128a6 6 0 0 1-6 6H46a6 6 0 0 1-6-6zm20-6v140M40 220h200" stroke="#000" stroke-width="3" fill="#f2f2ff"/><use xlink:href="#d" transform="matrix(1,0,0,1,65,225.0000000000001) translate(16.629774305555557 62.77777777777778)"/><use xlink:href="#e" transform="matrix(1,0,0,1,65,225.0000000000001) translate(97.25043402777777 62.77777777777778)"/><path d="M80 406a6 6 0 0 1 6-6h348a6 6 0 0 1 6 6v248a6 6 0 0 1-6 6H86a6 6 0 0 1-6-6z" stroke="#000" stroke-width="3" fill="#f2f3f5"/><use xlink:href="#a" transform="matrix(1,0,0,1,85,405) translate(137.67361111111111 130.90277777777777)"/><use xlink:href="#f" transform="matrix(1,0,0,1,85,405) translate(197.78645833333334 130.90277777777777)"/><path d="M280 566a6 6 0 0 1 6-6h168a6 6 0 0 1 6 6v113c-30.06-19.87-48.78-19.87-60.12-19.87-18 0-41.94 19.87-59.94 19.87-11.16 0-30.06 0-59.94-19.87z" stroke="#000" stroke-width="3" fill="#f2f2ff"/><path d="M290 576.5a6 6 0 0 1 6-6h168a6 6 0 0 1 6 6v113c-30.06-19.87-48.78-19.87-60.12-19.87-18 0-41.94 19.87-59.94 19.87-11.16 0-30.06 0-59.94-19.87z" stroke="#000" stroke-width="3" fill="#f2f2ff"/><path d="M300 587a6 6 0 0 1 6-6h168a6 6 0 0 1 6 6v113c-30.06-19.87-48.78-19.87-60.12-19.87-18 0-41.94 19.87-59.94 19.87-11.16 0-30.06 0-59.94-19.87z" stroke="#000" stroke-width="3" fill="#f2f2ff"/><use xlink:href="#c" transform="matrix(1,0,0,1,305,586.0000000000001) translate(5.1443142361111285 53.083767361111114)"/><path d="M40 566a6 6 0 0 1 6-6h188a6 6 0 0 1 6 6v128a6 6 0 0 1-6 6H46a6 6 0 0 1-6-6zm20-6v140M40 580h200" stroke="#000" stroke-width="3" fill="#f2f2ff"/><use xlink:href="#d" transform="matrix(1,0,0,1,65,585.0000000000001) translate(16.629774305555557 62.77777777777778)"/><use xlink:href="#e" transform="matrix(1,0,0,1,65,585.0000000000001) translate(97.25043402777777 62.77777777777778)"/><path d="M1160 614.02c0 8.83-35.82 16-80 16s-80-7.17-80-16v-128c0-8.84 35.82-16 80-16s80 7.16 80 16z" stroke="#000" stroke-width="3" fill="#cfe4ff"/><path d="M1160 486.02c0 8.83-35.82 16-80 16s-80-7.17-80-16" stroke="#000" stroke-width="3" fill="none"/><use xlink:href="#g" transform="matrix(1,0,0,1,1005,507.01761814351687) translate(6.906467013888886 51.02777777777778)"/><use xlink:href="#h" transform="matrix(1,0,0,1,1005,507.01761814351687) translate(94.72113715277779 51.02777777777778)"/><use xlink:href="#i" transform="matrix(1,0,0,1,1005,507.01761814351687) translate(57.75824652777778 83.29340277777777)"/><path d="M880.12 550.02h97.76" stroke="#3a414a" stroke-width="3" fill="none"/><path d="M880.16 551.5h-1.74l.1-.36.1-1.12-.1-1.13-.1-.36h1.74z" stroke="#3a414a" stroke-width=".05" fill="#3a414a"/><path d="M993.65 550.02l-14.27 4.63v-9.27z" stroke="#3a414a" stroke-width="3" fill="#3a414a"/><path d="M700 796.02a6 6 0 0 1 6-6h148a6 6 0 0 1 6 6v108a6 6 0 0 1-6 6H706a6 6 0 0 1-6-6z" stroke="#000" stroke-width="3" fill="#cfe4ff"/><path d="M716 790.02v120m128-120v120" stroke="#000" stroke-width="3" fill="none"/><use xlink:href="#j" transform="matrix(1,0,0,1,725,795.0176181435169) translate(15.834418402777779 46.950954861111114)"/><use xlink:href="#k" transform="matrix(1,0,0,1,725,795.0176181435169) translate(20.0390625 79.21657986111111)"/><path d="M775.32 473.77a7.5 7.5 0 0 1 9.36 0l90.64 72.5a4.8 4.8 0 0 1 0 7.5l-90.64 72.5a7.5 7.5 0 0 1-9.36 0l-90.64-72.5a4.8 4.8 0 0 1 0-7.5z" stroke="#000" stroke-width="3" fill="#cfe4ff"/><use xlink:href="#l" transform="matrix(1,0,0,1,685,475.01761814351687) translate(58.00413194444445 68.40277777777777)"/><use xlink:href="#m" transform="matrix(1,0,0,1,685,475.01761814351687) translate(55.28603298611112 100.66840277777777)"/><path d="M780 787.02V650.04" stroke="#3a414a" stroke-width="3" fill="none"/><path d="M781.48 788.52h-2.96v-1.54h2.96z" stroke="#3a414a" stroke-width=".05" fill="#3a414a"/><path d="M780 634.27l4.63 14.27h-9.26z" stroke="#3a414a" stroke-width="3" fill="#3a414a"/><path d="M80 766a6 6 0 0 1 6-6h348a6 6 0 0 1 6 6v248a6 6 0 0 1-6 6H86a6 6 0 0 1-6-6z" stroke="#000" stroke-width="3" fill="#f2f3f5"/><use xlink:href="#n" transform="matrix(1,0,0,1,85,764.9999999999999) translate(98.04144965277779 130.90277777777777)"/><use xlink:href="#o" transform="matrix(1,0,0,1,85,764.9999999999999) translate(212.31011284722223 130.90277777777777)"/><path d="M40 926a6 6 0 0 1 6-6h168a6 6 0 0 1 6 6v113c-30.06-19.87-48.78-19.87-60.12-19.87-18 0-41.94 19.87-59.94 19.87-11.16 0-30.06 0-59.94-19.87z" stroke="#000" stroke-width="3" fill="#f2f2ff"/><path d="M50 936.5a6 6 0 0 1 6-6h168a6 6 0 0 1 6 6v113c-30.06-19.87-48.78-19.87-60.12-19.87-18 0-41.94 19.87-59.94 19.87-11.16 0-30.06 0-59.94-19.87z" stroke="#000" stroke-width="3" fill="#f2f2ff"/><path d="M60 947a6 6 0 0 1 6-6h168a6 6 0 0 1 6 6v113c-30.06-19.87-48.78-19.87-60.12-19.87-18 0-41.94 19.87-59.94 19.87-11.16 0-30.06 0-59.94-19.87z" stroke="#000" stroke-width="3" fill="#f2f2ff"/><g><use xlink:href="#c" transform="matrix(1,0,0,1,65,945.9999999999999) translate(5.1443142361111285 53.083767361111114)"/></g><path d="M500 406a6 6 0 0 1 6-6h8a6 6 0 0 1 6 6v288a6 6 0 0 1-6 6h-8a6 6 0 0 1-6-6z" fill="none"/><path d="M500 700c5.52 0 10-4.48 10-10V560c0-5.52 4.48-10 10-10-5.52 0-10-4.48-10-10V410c0-5.52-4.48-10-10-10" stroke="#000" stroke-width="3" fill="none"/><path d="M530.9 550h74.48l.02.02h55.36" stroke="#3a414a" stroke-width="3" fill="none"/><path d="M530.95 551.47h-4.54v-.98l3.02-.5-3-.5v-.98h4.53z" stroke="#3a414a" stroke-width=".05" fill="#3a414a"/><path d="M676.52 550.02l-14.26 4.63v-9.27z" stroke="#3a414a" stroke-width="3" fill="#3a414a"/><defs><path d="M180 0v-1490h510c348 0 508 194 508 460 0 198-88 351-276 417L1256 0h-220L726-579c-117 2-238 0-356 1V0H180zm190-747h312c235 0 327-108 327-283 0-177-92-293-329-293H370v576" id="p"/><path d="M628 24c-324 0-524-230-524-574 0-343 198-582 503-582 237 0 487 146 487 559v75H286c9 234 145 362 343 362 132 0 231-58 273-172l174 48C1024-91 857 24 628 24zM287-650h624c-17-190-120-322-304-322-192 0-309 151-320 322" id="q"/><path d="M158 418v-1536h174v179h20c37-59 106-193 324-193 279 0 474 222 474 576 0 356-194 580-473 580-213 0-288-135-325-197h-14v591H158zm492-555c209 0 317-186 317-421 0-232-105-413-317-413-206 0-314 166-314 413 0 249 111 421 314 421" id="r"/><path d="M613 24c-304 0-509-231-509-576 0-350 205-580 509-580 305 0 511 230 511 580 0 345-206 576-511 576zm0-161c226 0 329-195 329-415 0-222-103-419-329-419-223 0-326 196-326 419 0 220 103 415 326 415" id="s"/><g id="a"><use transform="matrix(0.010850694444444444,0,0,0.010850694444444444,0,0)" xlink:href="#p"/><use transform="matrix(0.010850694444444444,0,0,0.010850694444444444,13.975694444444445,0)" xlink:href="#q"/><use transform="matrix(0.010850694444444444,0,0,0.010850694444444444,26.931423611111104,0)" xlink:href="#r"/><use transform="matrix(0.010850694444444444,0,0,0.010850694444444444,40.53819444444444,0)" xlink:href="#s"/></g><path d="M52 0l541-1490h220L1361 0h-200l-149-416H398L254 0H52zm404-582h497c-103-290-145-390-251-756-108 377-145 460-246 756" id="t"/><use transform="matrix(0.010850694444444444,0,0,0.010850694444444444,0,0)" xlink:href="#t" id="b"/><path d="M645 0H180v-1490h484c435 0 692 280 692 742 0 466-257 748-711 748zM370-168h263c363 0 539-218 539-580 0-358-176-574-521-574H370v1154" id="u"/><path d="M613 24c-304 0-509-231-509-576 0-350 205-580 509-580 216 0 392 114 453 309l-173 49c-33-115-133-197-280-197-223 0-326 196-326 419 0 220 103 415 326 415 150 0 252-85 285-206l172 49C1010-95 832 24 613 24" id="v"/><path d="M537 14c-226 0-379-139-379-422v-710h180v695c0 172 97 275 253 275 160 0 281-109 281-300v-670h181V0H879v-209C806-46 684 14 537 14" id="w"/><path d="M158 0v-1118h175l1 205c55-151 181-225 313-225 147 0 245 90 285 228 53-141 190-228 352-228 194 0 352 125 352 384V0h-181v-749c0-161-105-225-225-225-151 0-243 103-243 244V0H807v-767c0-124-93-207-219-207-131 0-250 92-250 270V0H158" id="x"/><path d="M338-670V0H158v-1118h173l1 207c72-158 192-221 342-221 226 0 378 139 378 422V0H872v-695c0-172-96-275-252-275-161 0-282 109-282 300" id="y"/><path d="M598-1118v154H368v674c0 100 37 144 132 144 23 0 62-6 92-12L629-6c-37 13-88 20-134 20-193 0-307-107-307-290v-688H20v-154h168v-266h180v266h230" id="z"/><path d="M471 26C259 26 90-98 90-318c0-256 228-303 435-329 202-27 287-16 287-108 0-139-79-219-234-219-161 0-248 86-283 164l-173-57c86-203 278-265 451-265 150 0 419 46 419 395V0H815v-152h-12C765-73 660 26 471 26zm31-159c199 0 310-134 310-271v-155c-30 35-226 55-295 64-131 17-246 59-246 186 0 116 97 176 231 176" id="A"/><path d="M158 0v-1118h180V0H158zm91-1301c-68 0-125-53-125-119s57-119 125-119c69 0 126 53 126 119s-57 119-126 119" id="B"/><g id="c"><use transform="matrix(0.010850694444444444,0,0,0.010850694444444444,0,0)" xlink:href="#u"/><use transform="matrix(0.010850694444444444,0,0,0.010850694444444444,16.03732638888889,0)" xlink:href="#s"/><use transform="matrix(0.010850694444444444,0,0,0.010850694444444444,29.361979166666664,0)" xlink:href="#v"/><use transform="matrix(0.010850694444444444,0,0,0.010850694444444444,42.057291666666664,0)" xlink:href="#w"/><use transform="matrix(0.010850694444444444,0,0,0.010850694444444444,55.197482638888886,0)" xlink:href="#x"/><use transform="matrix(0.010850694444444444,0,0,0.010850694444444444,74.66362847222221,0)" xlink:href="#q"/><use transform="matrix(0.010850694444444444,0,0,0.010850694444444444,87.61935763888889,0)" xlink:href="#y"/><use transform="matrix(0.010850694444444444,0,0,0.010850694444444444,100.74869791666666,0)" xlink:href="#z"/><use transform="matrix(0.010850694444444444,0,0,0.010850694444444444,108.12717013888887,0)" xlink:href="#A"/><use transform="matrix(0.010850694444444444,0,0,0.010850694444444444,120.60546874999997,0)" xlink:href="#z"/><use transform="matrix(0.010850694444444444,0,0,0.010850694444444444,127.87543402777776,0)" xlink:href="#B"/><use transform="matrix(0.010850694444444444,0,0,0.010850694444444444,133.2573784722222,0)" xlink:href="#s"/><use transform="matrix(0.010850694444444444,0,0,0.010850694444444444,146.58203124999997,0)" xlink:href="#y"/></g><path d="M657 26c-323 0-524-166-541-416h195c15 169 171 246 346 246 202 0 356-106 356-265 5-203-294-238-475-293-239-73-380-191-380-389 0-252 224-419 512-419 294 0 499 171 508 396H992c-17-145-151-228-328-228-193 0-321 102-321 242 0 156 175 211 284 241l149 41c160 44 422 134 422 412 0 244-197 432-541 432" id="C"/><path d="M158 0v-1118h174v172h12c41-113 157-188 290-188 26 0 70 2 91 3v181c-11-2-60-10-108-10-161 0-279 109-279 260V0H158" id="D"/><g id="d"><use transform="matrix(0.010850694444444444,0,0,0.010850694444444444,0,0)" xlink:href="#C"/><use transform="matrix(0.010850694444444444,0,0,0.010850694444444444,14.2578125,0)" xlink:href="#s"/><use transform="matrix(0.010850694444444444,0,0,0.010850694444444444,27.58246527777778,0)" xlink:href="#w"/><use transform="matrix(0.010850694444444444,0,0,0.010850694444444444,40.72265625,0)" xlink:href="#D"/><use transform="matrix(0.010850694444444444,0,0,0.010850694444444444,48.71961805555556,0)" xlink:href="#v"/><use transform="matrix(0.010850694444444444,0,0,0.010850694444444444,61.41493055555555,0)" xlink:href="#q"/></g><path d="M783 20c-382 0-661-292-661-764 0-473 279-766 661-766 302 0 548 182 601 489h-190c-42-204-217-313-411-313-268 0-476 208-476 590 0 381 209 588 476 588 195 0 369-110 411-313h190c-52 303-296 489-601 489" id="E"/><path d="M577 24c-279 0-473-224-473-580 0-354 195-576 474-576 218 0 287 134 324 193h14v-551h180V0H922v-173h-20C865-111 790 24 577 24zm27-161c203 0 314-172 314-421 0-247-108-413-314-413-212 0-317 181-317 413 0 235 108 421 317 421" id="F"/><g id="e"><use transform="matrix(0.010850694444444444,0,0,0.010850694444444444,0,0)" xlink:href="#E"/><use transform="matrix(0.010850694444444444,0,0,0.010850694444444444,16.23263888888889,0)" xlink:href="#s"/><use transform="matrix(0.010850694444444444,0,0,0.010850694444444444,29.557291666666664,0)" xlink:href="#F"/><use transform="matrix(0.010850694444444444,0,0,0.010850694444444444,43.1640625,0)" xlink:href="#q"/></g><path d="M180 0v-1490h528c311 0 458 177 458 395 0 191-114 278-244 313v14c139 9 302 137 302 371 0 225-148 397-499 397H180zm190-168h350c232 0 321-102 321-231 0-149-120-277-311-277H370v508zm0-668h328c160 0 286-101 286-255 0-129-87-231-280-231H370v486" id="G"/><use transform="matrix(0.010850694444444444,0,0,0.010850694444444444,0,0)" xlink:href="#G" id="f"/><path d="M338-670V0H158v-1490h180v566c73-149 190-208 336-208 226 0 379 139 379 422V0H872v-695c0-172-96-275-252-275-161 0-282 109-282 300" id="H"/><path d="M611 442c-248 0-391-105-460-228l146-94c47 65 117 165 314 165 178 0 307-82 307-266v-224h-17C863-141 792-18 576-18c-268 0-472-195-472-546 0-346 197-568 476-568 216 0 288 133 326 193h17v-179h175V29c0 289-215 413-487 413zm-5-620c203 0 314-146 314-390 0-237-108-403-314-403-213 0-319 180-319 403 0 230 109 390 319 390" id="I"/><g id="g"><use transform="matrix(0.010850694444444444,0,0,0.010850694444444444,0,0)" xlink:href="#E"/><use transform="matrix(0.010850694444444444,0,0,0.010850694444444444,16.23263888888889,0)" xlink:href="#H"/><use transform="matrix(0.010850694444444444,0,0,0.010850694444444444,29.37282986111111,0)" xlink:href="#A"/><use transform="matrix(0.010850694444444444,0,0,0.010850694444444444,41.85112847222222,0)" xlink:href="#y"/><use transform="matrix(0.010850694444444444,0,0,0.010850694444444444,54.98046875,0)" xlink:href="#I"/><use transform="matrix(0.010850694444444444,0,0,0.010850694444444444,68.60894097222223,0)" xlink:href="#q"/></g><g id="h"><use transform="matrix(0.010850694444444444,0,0,0.010850694444444444,0,0)" xlink:href="#u"/><use transform="matrix(0.010850694444444444,0,0,0.010850694444444444,16.03732638888889,0)" xlink:href="#A"/><use transform="matrix(0.010850694444444444,0,0,0.010850694444444444,28.515625,0)" xlink:href="#z"/><use transform="matrix(0.010850694444444444,0,0,0.010850694444444444,35.89409722222222,0)" xlink:href="#A"/></g><g id="i"><use transform="matrix(0.010850694444444444,0,0,0.010850694444444444,0,0)" xlink:href="#C"/><use transform="matrix(0.010850694444444444,0,0,0.010850694444444444,14.2578125,0)" xlink:href="#q"/><use transform="matrix(0.010850694444444444,0,0,0.010850694444444444,27.213541666666664,0)" xlink:href="#z"/></g><path d="M180 0v-1490h190v644h782v-644h190V0h-190v-678H370V0H180" id="J"/><path d="M140 405l46-156c120 36 205 19 263-150l32-93L54-1118h197c107 313 237 620 324 950 87-331 219-637 326-950h196L606 167c-68 178-176 259-334 259-64 0-113-12-132-21" id="K"/><path d="M338-1490V0H158v-1490h180" id="L"/><g id="j"><use transform="matrix(0.010850694444444444,0,0,0.010850694444444444,0,0)" xlink:href="#J"/><use transform="matrix(0.010850694444444444,0,0,0.010850694444444444,16.623263888888886,0)" xlink:href="#K"/><use transform="matrix(0.010850694444444444,0,0,0.010850694444444444,29.00390625,0)" xlink:href="#A"/><use transform="matrix(0.010850694444444444,0,0,0.010850694444444444,41.482204861111114,0)" xlink:href="#L"/><use transform="matrix(0.010850694444444444,0,0,0.010850694444444444,46.86414930555556,0)" xlink:href="#B"/><use transform="matrix(0.010850694444444444,0,0,0.010850694444444444,52.24609375,0)" xlink:href="#y"/><use transform="matrix(0.010850694444444444,0,0,0.010850694444444444,65.37543402777777,0)" xlink:href="#q"/></g><path d="M678-1118v154H420V0H240v-964H20v-154h220v-149c0-194 155-293 318-293 85 0 141 18 168 30l-50 154c-19-6-47-17-97-17-111 0-159 58-159 166v109h258" id="M"/><g id="k"><use transform="matrix(0.010850694444444444,0,0,0.010850694444444444,0,0)" xlink:href="#E"/><use transform="matrix(0.010850694444444444,0,0,0.010850694444444444,16.23263888888889,0)" xlink:href="#s"/><use transform="matrix(0.010850694444444444,0,0,0.010850694444444444,29.557291666666664,0)" xlink:href="#y"/><use transform="matrix(0.010850694444444444,0,0,0.010850694444444444,42.68663194444444,0)" xlink:href="#M"/><use transform="matrix(0.010850694444444444,0,0,0.010850694444444444,50.91145833333333,0)" xlink:href="#B"/><use transform="matrix(0.010850694444444444,0,0,0.010850694444444444,56.29340277777778,0)" xlink:href="#I"/></g><path d="M180 0v-1490h908v168H370v486h669v168H370v500h727V0H180" id="N"/><path d="M65 0l393-574-370-544h210c88 136 192 297 267 435 67-142 176-302 264-435h206L661-564 1053 0H844c-94-144-206-310-287-458C484-308 366-142 273 0H65" id="O"/><g id="l"><use transform="matrix(0.010850694444444444,0,0,0.010850694444444444,0,0)" xlink:href="#N"/><use transform="matrix(0.010850694444444444,0,0,0.010850694444444444,13.35720486111111,0)" xlink:href="#O"/><use transform="matrix(0.010850694444444444,0,0,0.010850694444444444,25.92230902777778,0)" xlink:href="#z"/><use transform="matrix(0.010850694444444444,0,0,0.010850694444444444,33.19227430555556,0)" xlink:href="#D"/><use transform="matrix(0.010850694444444444,0,0,0.010850694444444444,41.55815972222222,0)" xlink:href="#A"/><use transform="matrix(0.010850694444444444,0,0,0.010850694444444444,54.03645833333333,0)" xlink:href="#v"/><use transform="matrix(0.010850694444444444,0,0,0.010850694444444444,66.73177083333333,0)" xlink:href="#z"/></g><g id="m"><use transform="matrix(0.010850694444444444,0,0,0.010850694444444444,0,0)" xlink:href="#E"/><use transform="matrix(0.010850694444444444,0,0,0.010850694444444444,16.23263888888889,0)" xlink:href="#w"/><use transform="matrix(0.010850694444444444,0,0,0.010850694444444444,29.37282986111111,0)" xlink:href="#D"/><use transform="matrix(0.010850694444444444,0,0,0.010850694444444444,38.0859375,0)" xlink:href="#D"/><use transform="matrix(0.010850694444444444,0,0,0.010850694444444444,46.08289930555556,0)" xlink:href="#q"/><use transform="matrix(0.010850694444444444,0,0,0.010850694444444444,59.03862847222221,0)" xlink:href="#y"/><use transform="matrix(0.010850694444444444,0,0,0.010850694444444444,72.16796874999999,0)" xlink:href="#z"/></g><g id="n"><use transform="matrix(0.010850694444444444,0,0,0.010850694444444444,0,0)" xlink:href="#u"/><use transform="matrix(0.010850694444444444,0,0,0.010850694444444444,16.03732638888889,0)" xlink:href="#s"/><use transform="matrix(0.010850694444444444,0,0,0.010850694444444444,29.361979166666664,0)" xlink:href="#v"/><use transform="matrix(0.010850694444444444,0,0,0.010850694444444444,42.057291666666664,0)" xlink:href="#w"/><use transform="matrix(0.010850694444444444,0,0,0.010850694444444444,55.197482638888886,0)" xlink:href="#x"/><use transform="matrix(0.010850694444444444,0,0,0.010850694444444444,74.66362847222221,0)" xlink:href="#q"/><use transform="matrix(0.010850694444444444,0,0,0.010850694444444444,87.61935763888889,0)" xlink:href="#y"/><use transform="matrix(0.010850694444444444,0,0,0.010850694444444444,100.74869791666666,0)" xlink:href="#z"/></g><g id="o"><use transform="matrix(0.010850694444444444,0,0,0.010850694444444444,0,0)" xlink:href="#C"/><use transform="matrix(0.010850694444444444,0,0,0.010850694444444444,14.2578125,0)" xlink:href="#B"/><use transform="matrix(0.010850694444444444,0,0,0.010850694444444444,19.639756944444443,0)" xlink:href="#z"/><use transform="matrix(0.010850694444444444,0,0,0.010850694444444444,26.692708333333332,0)" xlink:href="#q"/></g></defs></g></svg>