<svg xmlns="http://www.w3.org/2000/svg" xmlns:xlink="http://www.w3.org/1999/xlink" xmlns:lucid="lucid" width="1703" height="726.5"><g transform="translate(-38.5 -98.5)" lucid:page-tab-id="C5_dMou2Owx8"><path d="M0 0h1760v1360H0z" fill="#fff"/><path d="M260 490c0 27.6-22.4 50-50 50s-50-22.4-50-50 22.4-50 50-50 50 22.4 50 50z" stroke="#000" stroke-width="3" fill="#fff3d9"/><use xlink:href="#a" transform="matrix(1,0,0,1,165,444.99999999999994) translate(34.35004340277778 52.46527777777778)"/><path d="M220 400c0 44.18-35.82 80-80 80s-80-35.82-80-80 35.82-80 80-80 80 35.82 80 80z" stroke="#000" stroke-width="3" fill="#fff3d9"/><use xlink:href="#b" transform="matrix(1,0,0,1,65,325) translate(38.210720486111114 82.46527777777777)"/><path d="M380 326a6 6 0 0 1 6-6h168a6 6 0 0 1 6 6v130c-30.06-22.7-48.78-22.7-60.12-22.7-18 0-41.94 22.7-59.94 22.7-11.16 0-30.06 0-59.94-22.7z" stroke="#000" stroke-width="3" fill="#d7faf5"/><path d="M390 338a6 6 0 0 1 6-6h168a6 6 0 0 1 6 6v130c-30.06-22.7-48.78-22.7-60.12-22.7-18 0-41.94 22.7-59.94 22.7-11.16 0-30.06 0-59.94-22.7z" stroke="#000" stroke-width="3" fill="#d7faf5"/><path d="M400 350a6 6 0 0 1 6-6h168a6 6 0 0 1 6 6v130c-30.06-22.7-48.78-22.7-60.12-22.7-18 0-41.94 22.7-59.94 22.7-11.16 0-30.06 0-59.94-22.7z" stroke="#000" stroke-width="3" fill="#d7faf5"/><use xlink:href="#c" transform="matrix(1,0,0,1,405,349) translate(38.52430555555556 44.27777777777778)"/><use xlink:href="#d" transform="matrix(1,0,0,1,405,349) translate(22.74739583333333 76.54340277777777)"/><path d="M1180 464c0 8.84-35.82 16-80 16s-80-7.16-80-16V336c0-8.84 35.82-16 80-16s80 7.16 80 16z" stroke="#000" stroke-width="3" fill="#f2f2ff"/><path d="M1180 336c0 8.84-35.82 16-80 16s-80-7.16-80-16" stroke="#000" stroke-width="3" fill="none"/><use xlink:href="#e" transform="matrix(1,0,0,1,1025,357) translate(35.28103298611112 51.02777777777778)"/><use xlink:href="#f" transform="matrix(1,0,0,1,1025,357) translate(30.447048611111114 83.29340277777777)"/><use xlink:href="#g" transform="matrix(1,0,0,1,1025,357) translate(85.06944444444444 83.29340277777777)"/><path d="M40 640c33.2 26.56 54.2 26.56 66.6 26.56 20 0 46.6-26.56 66.6-26.56 12.6 0 33.4 0 66.8 26.56V800c-33.4-26.72-54.2-26.72-66.8-26.72-20 0-46.6 26.72-66.6 26.72-12.4 0-33.4 0-66.6-26.72z" stroke="#000" stroke-width="3" fill="#d7faf5"/><use xlink:href="#h" transform="matrix(1,0,0,1,45,645) translate(47.40342881944444 82.46527777777777)"/><path d="M900 784c0 8.84-35.82 16-80 16s-80-7.16-80-16V656c0-8.84 35.82-16 80-16s80 7.16 80 16z" stroke="#000" stroke-width="3" fill="#f2f2ff"/><path d="M900 656c0 8.84-35.82 16-80 16s-80-7.16-80-16" stroke="#000" stroke-width="3" fill="none"/><use xlink:href="#i" transform="matrix(1,0,0,1,745,677) translate(34.21766493055555 51.02777777777778)"/><use xlink:href="#f" transform="matrix(1,0,0,1,745,677) translate(30.447048611111114 83.29340277777777)"/><use xlink:href="#g" transform="matrix(1,0,0,1,745,677) translate(85.06944444444444 83.29340277777777)"/><path d="M703 405.2a10.35 10.35 0 0 1 0-10.4l54-93.1a10.4 10.4 0 0 1 9-5.2h108a10.4 10.4 0 0 1 9 5.2l54 93.1a10.35 10.35 0 0 1 0 10.4l-54 93.1a10.4 10.4 0 0 1-9 5.2H766a10.4 10.4 0 0 1-9-5.2z" stroke="#000" stroke-width="3" fill="#fff0fb"/><use xlink:href="#j" transform="matrix(1,0,0,1,705,301.5) translate(75.83941840277778 89.24652777777777)"/><use xlink:href="#k" transform="matrix(1,0,0,1,705,301.5) translate(37.48763888888889 121.51215277777777)"/><use xlink:href="#l" transform="matrix(1,0,0,1,705,301.5) translate(110.95769097222222 121.51215277777777)"/><path d="M1580 212.4a14.48 14.48 0 0 1 4.24-10.24l37.92-37.92a14.48 14.48 0 0 1 10.24-4.24h55.2a14.48 14.48 0 0 1 10.24 4.24l37.92 37.92a14.48 14.48 0 0 1 4.24 10.24v55.2a14.48 14.48 0 0 1-4.24 10.24l-37.92 37.92a14.48 14.48 0 0 1-10.24 4.24h-55.2a14.48 14.48 0 0 1-10.24-4.24l-37.92-37.92a14.48 14.48 0 0 1-4.24-10.24z" stroke="#000" stroke-width="3" fill="#e3fae3"/><use xlink:href="#m" transform="matrix(1,0,0,1,1585,165) translate(36.02430555555556 82.46527777777777)"/><path d="M1580 532.4a14.48 14.48 0 0 1 4.24-10.24l37.92-37.92a14.48 14.48 0 0 1 10.24-4.24h55.2a14.48 14.48 0 0 1 10.24 4.24l37.92 37.92a14.48 14.48 0 0 1 4.24 10.24v55.2a14.48 14.48 0 0 1-4.24 10.24l-37.92 37.92a14.48 14.48 0 0 1-10.24 4.24h-55.2a14.48 14.48 0 0 1-10.24-4.24l-37.92-37.92a14.48 14.48 0 0 1-4.24-10.24z" stroke="#000" stroke-width="3" fill="#edf5ff"/><use xlink:href="#m" transform="matrix(1,0,0,1,1585,485) translate(36.02430555555556 82.46527777777777)"/><path d="M820 637V525.62" stroke="#3a414a" stroke-width="3" fill="none"/><path d="M821.48 638.54l-1.46-.04h-1.5v-1.54h2.96z" stroke="#3a414a" stroke-width=".05" fill="#3a414a"/><path d="M820 509.85l4.63 14.27h-9.26z" stroke="#3a414a" stroke-width="3" fill="#3a414a"/><path d="M1017 400h-56.5" stroke="#3a414a" stroke-width="3" fill="none"/><path d="M1018.5 401.48h-1.54v-2.96h1.54z" stroke="#3a414a" stroke-width=".05" fill="#3a414a"/><path d="M944.74 400l14.27-4.63v9.26z" stroke="#3a414a" stroke-width="3" fill="#3a414a"/><path d="M60 106a6 6 0 0 1 6-6h148a6 6 0 0 1 6 6v108a6 6 0 0 1-6 6H66a6 6 0 0 1-6-6zm16-6v120M60 116h160" stroke="#000" stroke-width="3" fill="#f2f2ff"/><use xlink:href="#n" transform="matrix(1,0,0,1,81,121) translate(28.854383680555557 53.84027777777778)"/><path d="M223 400h134.88" stroke="#3a414a" stroke-width="3" fill="none"/><path d="M223.04 401.48h-1.58l.04-1.46v-.73l-.03-.78h1.57z" stroke="#3a414a" stroke-width=".05" fill="#3a414a"/><path d="M373.65 400l-14.27 4.63v-9.26z" stroke="#3a414a" stroke-width="3" fill="#3a414a"/><path d="M140 650.27V502.12" stroke="#3a414a" stroke-width="3" fill="none"/><path d="M141.47 651l-2.94 1.55v-2.32h2.94z" stroke="#3a414a" stroke-width=".05" fill="#3a414a"/><path d="M140 486.35l4.63 14.27h-9.26z" stroke="#3a414a" stroke-width="3" fill="#3a414a"/><path d="M140 223v74.88" stroke="#3a414a" stroke-width="3" fill="none"/><path d="M141.47 223.04h-2.94v-1.54h2.94z" stroke="#3a414a" stroke-width=".05" fill="#3a414a"/><path d="M140 313.65l-4.63-14.27h9.26z" stroke="#3a414a" stroke-width="3" fill="#3a414a"/><path d="M820 293.5V166a6 6 0 0 0-6-6H242.12" stroke="#3a414a" stroke-width="3" fill="none"/><path d="M821.48 295h-2.96v-1.54h2.96z" stroke="#3a414a" stroke-width=".05" fill="#3a414a"/><path d="M226.35 160l14.27-4.63v9.26z" stroke="#3a414a" stroke-width="3" fill="#3a414a"/><path d="M363 725.2a10.35 10.35 0 0 1 0-10.4l54-93.1a10.4 10.4 0 0 1 9-5.2h108a10.4 10.4 0 0 1 9 5.2l54 93.1a10.35 10.35 0 0 1 0 10.4l-54 93.1a10.4 10.4 0 0 1-9 5.2H426a10.4 10.4 0 0 1-9-5.2z" stroke="#000" stroke-width="3" fill="#fff0fb"/><use xlink:href="#j" transform="matrix(1,0,0,1,365,621.5) translate(75.83941840277778 89.24652777777777)"/><use xlink:href="#o" transform="matrix(1,0,0,1,365,621.5) translate(34.096796875 121.51215277777777)"/><use xlink:href="#l" transform="matrix(1,0,0,1,365,621.5) translate(114.34853298611111 121.51215277777777)"/><path d="M243 720h96.5" stroke="#3a414a" stroke-width="3" fill="none"/><path d="M243.04 721.48h-1.54v-2.96h1.54z" stroke="#3a414a" stroke-width=".05" fill="#3a414a"/><path d="M355.26 720L341 724.63v-9.26z" stroke="#3a414a" stroke-width="3" fill="#3a414a"/><path d="M480 476.44v117.94" stroke="#3a414a" stroke-width="3" fill="none"/><path d="M481.48 476.48h-2.96v-.8l2.96-1.46z" stroke="#3a414a" stroke-width=".05" fill="#3a414a"/><path d="M480 610.15l-4.63-14.27h9.26z" stroke="#3a414a" stroke-width="3" fill="#3a414a"/><path d="M601.4 720h116.48" stroke="#3a414a" stroke-width="3" fill="none"/><path d="M601.43 721.48h-1.64l.02-.24.07-1.24-.08-1.24-.03-.24h1.63z" stroke="#3a414a" stroke-width=".05" fill="#3a414a"/><path d="M733.65 720l-14.27 4.63v-9.26z" stroke="#3a414a" stroke-width="3" fill="#3a414a"/><path d="M1283 405.2a10.35 10.35 0 0 1 0-10.4l54-93.1a10.4 10.4 0 0 1 9-5.2h108a10.4 10.4 0 0 1 9 5.2l54 93.1a10.35 10.35 0 0 1 0 10.4l-54 93.1a10.4 10.4 0 0 1-9 5.2h-108a10.4 10.4 0 0 1-9-5.2z" stroke="#000" stroke-width="3" fill="#fff0fb"/><use xlink:href="#p" transform="matrix(1,0,0,1,1285,301.5) translate(75.83941840277778 89.24652777777777)"/><use xlink:href="#q" transform="matrix(1,0,0,1,1285,301.5) translate(35.160164930555574 121.51215277777777)"/><use xlink:href="#r" transform="matrix(1,0,0,1,1285,301.5) translate(115.41190104166668 121.51215277777777)"/><path d="M1577 240h-171a6 6 0 0 0-6 6v28.38" stroke="#3a414a" stroke-width="3" fill="none"/><path d="M1578.5 241.47h-1.54v-2.94h1.54z" stroke="#3a414a" stroke-width=".05" fill="#3a414a"/><path d="M1400 290.15l-4.63-14.27h9.27z" stroke="#3a414a" stroke-width="3" fill="#3a414a"/><path d="M1577 560h-171a6 6 0 0 1-6-6v-28.38" stroke="#3a414a" stroke-width="3" fill="none"/><path d="M1578.5 561.48h-1.54v-2.96h1.54z" stroke="#3a414a" stroke-width=".05" fill="#3a414a"/><path d="M1400 509.85l4.63 14.27h-9.27z" stroke="#3a414a" stroke-width="3" fill="#3a414a"/><path d="M1278.6 400h-76.48" stroke="#3a414a" stroke-width="3" fill="none"/><path d="M1280.18 398.76l-.07 1.24.08 1.24.03.24h-1.63v-2.96h1.64z" stroke="#3a414a" stroke-width=".05" fill="#3a414a"/><path d="M1186.35 400l14.27-4.63v9.26z" stroke="#3a414a" stroke-width="3" fill="#3a414a"/><defs><path d="M52 0l541-1490h220L1361 0h-200l-149-416H398L254 0H52zm404-582h497c-103-290-145-390-251-756-108 377-145 460-246 756" id="s"/><path d="M370-1490V0H180v-1490h190" id="t"/><g id="a"><use transform="matrix(0.010850694444444444,0,0,0.010850694444444444,0,0)" xlink:href="#s"/><use transform="matrix(0.010850694444444444,0,0,0.010850694444444444,15.33203125,0)" xlink:href="#t"/></g><path d="M180 0v-1490h510c348 0 508 209 508 474 0 266-160 477-507 477H370V0H180zm190-706h312c236 0 327-133 327-310 0-176-91-307-329-307H370v617" id="u"/><path d="M628 24c-324 0-524-230-524-574 0-343 198-582 503-582 237 0 487 146 487 559v75H286c9 234 145 362 343 362 132 0 231-58 273-172l174 48C1024-91 857 24 628 24zM287-650h624c-17-190-120-322-304-322-192 0-309 151-320 322" id="v"/><path d="M158 0v-1118h174v172h12c41-113 157-188 290-188 26 0 70 2 91 3v181c-11-2-60-10-108-10-161 0-279 109-279 260V0H158" id="w"/><path d="M538 24C308 24 148-78 108-271l171-41c32 123 123 178 257 178 156 0 256-77 256-169 0-77-54-128-164-154l-186-44c-203-48-300-148-300-305 0-192 176-326 414-326 230 0 351 112 402 269l-163 42c-31-80-94-158-238-158-133 0-233 69-233 162 0 83 57 129 188 160l169 40c203 48 298 149 298 302 0 196-179 339-441 339" id="x"/><path d="M613 24c-304 0-509-231-509-576 0-350 205-580 509-580 305 0 511 230 511 580 0 345-206 576-511 576zm0-161c226 0 329-195 329-415 0-222-103-419-329-419-223 0-326 196-326 419 0 220 103 415 326 415" id="y"/><path d="M338-670V0H158v-1118h173l1 207c72-158 192-221 342-221 226 0 378 139 378 422V0H872v-695c0-172-96-275-252-275-161 0-282 109-282 300" id="z"/><g id="b"><use transform="matrix(0.010850694444444444,0,0,0.010850694444444444,0,0)" xlink:href="#u"/><use transform="matrix(0.010850694444444444,0,0,0.010850694444444444,14.073350694444445,0)" xlink:href="#v"/><use transform="matrix(0.010850694444444444,0,0,0.010850694444444444,27.029079861111104,0)" xlink:href="#w"/><use transform="matrix(0.010850694444444444,0,0,0.010850694444444444,35.39496527777777,0)" xlink:href="#x"/><use transform="matrix(0.010850694444444444,0,0,0.010850694444444444,47.12456597222221,0)" xlink:href="#y"/><use transform="matrix(0.010850694444444444,0,0,0.010850694444444444,60.449218749999986,0)" xlink:href="#z"/></g><path d="M657 26c-323 0-524-166-541-416h195c15 169 171 246 346 246 202 0 356-106 356-265 5-203-294-238-475-293-239-73-380-191-380-389 0-252 224-419 512-419 294 0 499 171 508 396H992c-17-145-151-228-328-228-193 0-321 102-321 242 0 156 175 211 284 241l149 41c160 44 422 134 422 412 0 244-197 432-541 432" id="A"/><path d="M140 405l46-156c120 36 205 19 263-150l32-93L54-1118h197c107 313 237 620 324 950 87-331 219-637 326-950h196L606 167c-68 178-176 259-334 259-64 0-113-12-132-21" id="B"/><path d="M598-1118v154H368v674c0 100 37 144 132 144 23 0 62-6 92-12L629-6c-37 13-88 20-134 20-193 0-307-107-307-290v-688H20v-154h168v-266h180v266h230" id="C"/><path d="M158 0v-1118h175l1 205c55-151 181-225 313-225 147 0 245 90 285 228 53-141 190-228 352-228 194 0 352 125 352 384V0h-181v-749c0-161-105-225-225-225-151 0-243 103-243 244V0H807v-767c0-124-93-207-219-207-131 0-250 92-250 270V0H158" id="D"/><g id="c"><use transform="matrix(0.010850694444444444,0,0,0.010850694444444444,0,0)" xlink:href="#A"/><use transform="matrix(0.010850694444444444,0,0,0.010850694444444444,14.2578125,0)" xlink:href="#B"/><use transform="matrix(0.010850694444444444,0,0,0.010850694444444444,26.74696180555556,0)" xlink:href="#x"/><use transform="matrix(0.010850694444444444,0,0,0.010850694444444444,38.4765625,0)" xlink:href="#C"/><use transform="matrix(0.010850694444444444,0,0,0.010850694444444444,45.5295138888889,0)" xlink:href="#v"/><use transform="matrix(0.010850694444444444,0,0,0.010850694444444444,58.48524305555555,0)" xlink:href="#D"/></g><path d="M783 20c-382 0-661-292-661-764 0-473 279-766 661-766 302 0 548 182 601 489h-190c-42-204-217-313-411-313-268 0-476 208-476 590 0 381 209 588 476 588 195 0 369-110 411-313h190c-52 303-296 489-601 489" id="E"/><path d="M338-670V0H158v-1490h180v566c73-149 190-208 336-208 226 0 379 139 379 422V0H872v-695c0-172-96-275-252-275-161 0-282 109-282 300" id="F"/><path d="M471 26C259 26 90-98 90-318c0-256 228-303 435-329 202-27 287-16 287-108 0-139-79-219-234-219-161 0-248 86-283 164l-173-57c86-203 278-265 451-265 150 0 419 46 419 395V0H815v-152h-12C765-73 660 26 471 26zm31-159c199 0 310-134 310-271v-155c-30 35-226 55-295 64-131 17-246 59-246 186 0 116 97 176 231 176" id="G"/><path d="M611 442c-248 0-391-105-460-228l146-94c47 65 117 165 314 165 178 0 307-82 307-266v-224h-17C863-141 792-18 576-18c-268 0-472-195-472-546 0-346 197-568 476-568 216 0 288 133 326 193h17v-179h175V29c0 289-215 413-487 413zm-5-620c203 0 314-146 314-390 0-237-108-403-314-403-213 0-319 180-319 403 0 230 109 390 319 390" id="H"/><path d="M218-607c0-325 108-727 258-974h175c-155 315-250 682-250 974 0 265 78 531 250 886H476C306-10 218-315 218-607" id="I"/><path d="M96 279C273-86 346-350 346-607c0-292-95-659-250-974h175c150 246 258 650 258 974 0 297-91 602-258 886H96" id="J"/><g id="d"><use transform="matrix(0.010850694444444444,0,0,0.010850694444444444,0,0)" xlink:href="#E"/><use transform="matrix(0.010850694444444444,0,0,0.010850694444444444,16.23263888888889,0)" xlink:href="#F"/><use transform="matrix(0.010850694444444444,0,0,0.010850694444444444,29.37282986111111,0)" xlink:href="#G"/><use transform="matrix(0.010850694444444444,0,0,0.010850694444444444,41.85112847222222,0)" xlink:href="#z"/><use transform="matrix(0.010850694444444444,0,0,0.010850694444444444,54.98046875,0)" xlink:href="#H"/><use transform="matrix(0.010850694444444444,0,0,0.010850694444444444,68.60894097222223,0)" xlink:href="#v"/><use transform="matrix(0.010850694444444444,0,0,0.010850694444444444,81.5646701388889,0)" xlink:href="#I"/><use transform="matrix(0.010850694444444444,0,0,0.010850694444444444,89.6701388888889,0)" xlink:href="#x"/><use transform="matrix(0.010850694444444444,0,0,0.010850694444444444,101.39973958333334,0)" xlink:href="#J"/></g><path d="M537 14c-226 0-379-139-379-422v-710h180v695c0 172 97 275 253 275 160 0 281-109 281-300v-670h181V0H879v-209C806-46 684 14 537 14" id="K"/><g id="e"><use transform="matrix(0.010850694444444444,0,0,0.010850694444444444,0,0)" xlink:href="#E"/><use transform="matrix(0.010850694444444444,0,0,0.010850694444444444,16.23263888888889,0)" xlink:href="#K"/><use transform="matrix(0.010850694444444444,0,0,0.010850694444444444,29.37282986111111,0)" xlink:href="#w"/><use transform="matrix(0.010850694444444444,0,0,0.010850694444444444,38.0859375,0)" xlink:href="#w"/><use transform="matrix(0.010850694444444444,0,0,0.010850694444444444,46.08289930555556,0)" xlink:href="#v"/><use transform="matrix(0.010850694444444444,0,0,0.010850694444444444,59.03862847222221,0)" xlink:href="#z"/><use transform="matrix(0.010850694444444444,0,0,0.010850694444444444,72.16796874999999,0)" xlink:href="#C"/></g><path d="M645 0H180v-1490h484c435 0 692 280 692 742 0 466-257 748-711 748zM370-168h263c363 0 539-218 539-580 0-358-176-574-521-574H370v1154" id="L"/><g id="f"><use transform="matrix(0.010850694444444444,0,0,0.010850694444444444,0,0)" xlink:href="#L"/><use transform="matrix(0.010850694444444444,0,0,0.010850694444444444,16.03732638888889,0)" xlink:href="#G"/><use transform="matrix(0.010850694444444444,0,0,0.010850694444444444,28.515625,0)" xlink:href="#C"/><use transform="matrix(0.010850694444444444,0,0,0.010850694444444444,35.89409722222222,0)" xlink:href="#G"/></g><g id="g"><use transform="matrix(0.010850694444444444,0,0,0.010850694444444444,0,0)" xlink:href="#A"/><use transform="matrix(0.010850694444444444,0,0,0.010850694444444444,14.2578125,0)" xlink:href="#v"/><use transform="matrix(0.010850694444444444,0,0,0.010850694444444444,27.213541666666664,0)" xlink:href="#C"/></g><g id="h"><use transform="matrix(0.010850694444444444,0,0,0.010850694444444444,0,0)" xlink:href="#t"/><use transform="matrix(0.010850694444444444,0,0,0.010850694444444444,5.967881944444445,0)" xlink:href="#x"/><use transform="matrix(0.010850694444444444,0,0,0.010850694444444444,17.69748263888889,0)" xlink:href="#x"/><use transform="matrix(0.010850694444444444,0,0,0.010850694444444444,29.427083333333336,0)" xlink:href="#K"/><use transform="matrix(0.010850694444444444,0,0,0.010850694444444444,42.56727430555556,0)" xlink:href="#v"/><use transform="matrix(0.010850694444444444,0,0,0.010850694444444444,55.52300347222222,0)" xlink:href="#x"/><use transform="matrix(0.010850694444444444,0,0,0.010850694444444444,67.25260416666667,0)" xlink:href="#I"/><use transform="matrix(0.010850694444444444,0,0,0.010850694444444444,75.35807291666667,0)" xlink:href="#x"/><use transform="matrix(0.010850694444444444,0,0,0.010850694444444444,87.08767361111111,0)" xlink:href="#J"/></g><g id="i"><use transform="matrix(0.010850694444444444,0,0,0.010850694444444444,0,0)" xlink:href="#E"/><use transform="matrix(0.010850694444444444,0,0,0.010850694444444444,16.23263888888889,0)" xlink:href="#F"/><use transform="matrix(0.010850694444444444,0,0,0.010850694444444444,29.37282986111111,0)" xlink:href="#G"/><use transform="matrix(0.010850694444444444,0,0,0.010850694444444444,41.85112847222222,0)" xlink:href="#z"/><use transform="matrix(0.010850694444444444,0,0,0.010850694444444444,54.98046875,0)" xlink:href="#H"/><use transform="matrix(0.010850694444444444,0,0,0.010850694444444444,68.60894097222223,0)" xlink:href="#v"/></g><path d="M180 0v-1490h190v644h782v-644h190V0h-190v-678H370V0H180" id="M"/><path d="M338-1490V0H158v-1490h180" id="N"/><path d="M158 0v-1118h180V0H158zm91-1301c-68 0-125-53-125-119s57-119 125-119c69 0 126 53 126 119s-57 119-126 119" id="O"/><g id="j"><use transform="matrix(0.010850694444444444,0,0,0.010850694444444444,0,0)" xlink:href="#M"/><use transform="matrix(0.010850694444444444,0,0,0.010850694444444444,16.623263888888886,0)" xlink:href="#B"/><use transform="matrix(0.010850694444444444,0,0,0.010850694444444444,29.00390625,0)" xlink:href="#G"/><use transform="matrix(0.010850694444444444,0,0,0.010850694444444444,41.482204861111114,0)" xlink:href="#N"/><use transform="matrix(0.010850694444444444,0,0,0.010850694444444444,46.86414930555556,0)" xlink:href="#O"/><use transform="matrix(0.010850694444444444,0,0,0.010850694444444444,52.24609375,0)" xlink:href="#z"/><use transform="matrix(0.010850694444444444,0,0,0.010850694444444444,65.37543402777777,0)" xlink:href="#v"/></g><path d="M613 24c-304 0-509-231-509-576 0-350 205-580 509-580 216 0 392 114 453 309l-173 49c-33-115-133-197-280-197-223 0-326 196-326 419 0 220 103 415 326 415 150 0 252-85 285-206l172 49C1010-95 832 24 613 24" id="P"/><path d="M158 0v-1490h180v865h22l478-493h223L593-638 1096 0H865L456-523 338-412V0H158" id="Q"/><g id="k"><use transform="matrix(0.010850694444444444,0,0,0.010850694444444444,0,0)" xlink:href="#E"/><use transform="matrix(0.010850694444444444,0,0,0.010850694444444444,16.23263888888889,0)" xlink:href="#F"/><use transform="matrix(0.010850694444444444,0,0,0.010850694444444444,29.37282986111111,0)" xlink:href="#v"/><use transform="matrix(0.010850694444444444,0,0,0.010850694444444444,42.32855902777778,0)" xlink:href="#P"/><use transform="matrix(0.010850694444444444,0,0,0.010850694444444444,55.02387152777778,0)" xlink:href="#Q"/></g><g id="l"><use transform="matrix(0.010850694444444444,0,0,0.010850694444444444,0,0)" xlink:href="#E"/><use transform="matrix(0.010850694444444444,0,0,0.010850694444444444,16.23263888888889,0)" xlink:href="#F"/><use transform="matrix(0.010850694444444444,0,0,0.010850694444444444,29.37282986111111,0)" xlink:href="#G"/><use transform="matrix(0.010850694444444444,0,0,0.010850694444444444,41.85112847222222,0)" xlink:href="#z"/><use transform="matrix(0.010850694444444444,0,0,0.010850694444444444,54.98046875,0)" xlink:href="#H"/><use transform="matrix(0.010850694444444444,0,0,0.010850694444444444,68.60894097222223,0)" xlink:href="#v"/></g><g id="m"><use transform="matrix(0.010850694444444444,0,0,0.010850694444444444,0,0)" xlink:href="#A"/><use transform="matrix(0.010850694444444444,0,0,0.010850694444444444,14.2578125,0)" xlink:href="#B"/><use transform="matrix(0.010850694444444444,0,0,0.010850694444444444,26.74696180555556,0)" xlink:href="#x"/><use transform="matrix(0.010850694444444444,0,0,0.010850694444444444,38.4765625,0)" xlink:href="#C"/><use transform="matrix(0.010850694444444444,0,0,0.010850694444444444,45.5295138888889,0)" xlink:href="#v"/><use transform="matrix(0.010850694444444444,0,0,0.010850694444444444,58.48524305555555,0)" xlink:href="#D"/></g><path d="M180 0v-1490h510c348 0 508 194 508 460 0 198-88 351-276 417L1256 0h-220L726-579c-117 2-238 0-356 1V0H180zm190-747h312c235 0 327-108 327-283 0-177-92-293-329-293H370v576" id="R"/><g id="n"><use transform="matrix(0.010850694444444444,0,0,0.010850694444444444,0,0)" xlink:href="#R"/><use transform="matrix(0.010850694444444444,0,0,0.010850694444444444,13.975694444444445,0)" xlink:href="#v"/><use transform="matrix(0.010850694444444444,0,0,0.010850694444444444,26.931423611111104,0)" xlink:href="#x"/><use transform="matrix(0.010850694444444444,0,0,0.010850694444444444,38.66102430555555,0)" xlink:href="#K"/><use transform="matrix(0.010850694444444444,0,0,0.010850694444444444,51.80121527777778,0)" xlink:href="#N"/><use transform="matrix(0.010850694444444444,0,0,0.010850694444444444,57.50868055555555,0)" xlink:href="#C"/><use transform="matrix(0.010850694444444444,0,0,0.010850694444444444,64.56163194444444,0)" xlink:href="#x"/></g><path d="M180 0v-1490h908v168H370v486h669v168H370v500h727V0H180" id="S"/><path d="M65 0l393-574-370-544h210c88 136 192 297 267 435 67-142 176-302 264-435h206L661-564 1053 0H844c-94-144-206-310-287-458C484-308 366-142 273 0H65" id="T"/><g id="o"><use transform="matrix(0.010850694444444444,0,0,0.010850694444444444,0,0)" xlink:href="#S"/><use transform="matrix(0.010850694444444444,0,0,0.010850694444444444,13.35720486111111,0)" xlink:href="#T"/><use transform="matrix(0.010850694444444444,0,0,0.010850694444444444,25.92230902777778,0)" xlink:href="#C"/><use transform="matrix(0.010850694444444444,0,0,0.010850694444444444,33.19227430555556,0)" xlink:href="#w"/><use transform="matrix(0.010850694444444444,0,0,0.010850694444444444,41.55815972222222,0)" xlink:href="#G"/><use transform="matrix(0.010850694444444444,0,0,0.010850694444444444,54.03645833333333,0)" xlink:href="#P"/><use transform="matrix(0.010850694444444444,0,0,0.010850694444444444,66.73177083333333,0)" xlink:href="#C"/></g><g id="p"><use transform="matrix(0.010850694444444444,0,0,0.010850694444444444,0,0)" xlink:href="#M"/><use transform="matrix(0.010850694444444444,0,0,0.010850694444444444,16.623263888888886,0)" xlink:href="#B"/><use transform="matrix(0.010850694444444444,0,0,0.010850694444444444,29.00390625,0)" xlink:href="#G"/><use transform="matrix(0.010850694444444444,0,0,0.010850694444444444,41.482204861111114,0)" xlink:href="#N"/><use transform="matrix(0.010850694444444444,0,0,0.010850694444444444,46.86414930555556,0)" xlink:href="#O"/><use transform="matrix(0.010850694444444444,0,0,0.010850694444444444,52.24609375,0)" xlink:href="#z"/><use transform="matrix(0.010850694444444444,0,0,0.010850694444444444,65.37543402777777,0)" xlink:href="#v"/></g><g id="q"><use transform="matrix(0.010850694444444444,0,0,0.010850694444444444,0,0)" xlink:href="#S"/><use transform="matrix(0.010850694444444444,0,0,0.010850694444444444,13.35720486111111,0)" xlink:href="#T"/><use transform="matrix(0.010850694444444444,0,0,0.010850694444444444,25.92230902777778,0)" xlink:href="#C"/><use transform="matrix(0.010850694444444444,0,0,0.010850694444444444,33.19227430555556,0)" xlink:href="#w"/><use transform="matrix(0.010850694444444444,0,0,0.010850694444444444,41.55815972222222,0)" xlink:href="#G"/><use transform="matrix(0.010850694444444444,0,0,0.010850694444444444,54.03645833333333,0)" xlink:href="#P"/><use transform="matrix(0.010850694444444444,0,0,0.010850694444444444,66.73177083333333,0)" xlink:href="#C"/></g><g id="r"><use transform="matrix(0.010850694444444444,0,0,0.010850694444444444,0,0)" xlink:href="#E"/><use transform="matrix(0.010850694444444444,0,0,0.010850694444444444,16.23263888888889,0)" xlink:href="#K"/><use transform="matrix(0.010850694444444444,0,0,0.010850694444444444,29.37282986111111,0)" xlink:href="#w"/><use transform="matrix(0.010850694444444444,0,0,0.010850694444444444,38.0859375,0)" xlink:href="#w"/><use transform="matrix(0.010850694444444444,0,0,0.010850694444444444,46.08289930555556,0)" xlink:href="#v"/><use transform="matrix(0.010850694444444444,0,0,0.010850694444444444,59.03862847222221,0)" xlink:href="#z"/><use transform="matrix(0.010850694444444444,0,0,0.010850694444444444,72.16796874999999,0)" xlink:href="#C"/></g></defs></g></svg>